<?xml version="1.0" standalone="no"?>
<!DOCTYPE svg PUBLIC "-//W3C//DTD SVG 1.1//EN" "http://www.w3.org/Graphics/SVG/1.1/DTD/svg11.dtd" >
<svg xmlns="http://www.w3.org/2000/svg" xmlns:xlink="http://www.w3.org/1999/xlink" version="1.1">
<metadata>
Created by FontForge 20150824 at Sun Jun 26 12:10:31 2016
 By Everything Fonts
Copyright (c) 2013 by Roman Ershov, Jovanny Lemonad. All rights reserved.
</metadata>
<defs>
<font id="SupermolotThinItalic" horiz-adv-x="580" >
  <font-face 
    font-family="SupermolotThinItalic"
    font-weight="250"
    font-style="italic"
    font-stretch="normal"
    units-per-em="1000"
    panose-1="2 0 5 3 4 0 0 9 0 4"
    ascent="809"
    descent="-191"
    x-height="530"
    cap-height="700"
    bbox="-121 -264 1338 940"
    underline-thickness="50"
    underline-position="-150"
    unicode-range="U+0020-2122"
  />
<missing-glyph horiz-adv-x="740" 
d="M165 605h540l-80 -510h-540zM636 545h-420l-62 -390h420zM401 390l132 105l34 -40l-132 -105l98 -105l-46 -40l-98 105l-132 -105l-34 40l132 105l-98 105l46 40z" />
    <glyph glyph-name=".notdef" horiz-adv-x="740" 
d="M165 605h540l-80 -510h-540zM636 545h-420l-62 -390h420zM401 390l132 105l34 -40l-132 -105l98 -105l-46 -40l-98 105l-132 -105l-34 40l132 105l-98 105l46 40z" />
    <glyph glyph-name=".null" horiz-adv-x="0" 
 />
    <glyph glyph-name="nonmarkingreturn" horiz-adv-x="333" 
 />
    <glyph glyph-name="space" unicode=" " horiz-adv-x="280" 
 />
    <glyph glyph-name="exclam" unicode="!" horiz-adv-x="260" 
d="M190 700h40l-30 -190l-60 -320h-20l40 320zM94 90h40l-14 -90h-40z" />
    <glyph glyph-name="quotedbl" unicode="&#x22;" horiz-adv-x="350" 
d="M310 700h40l-15 -100l-29 -120h-20l9 120zM160 700h40l-15 -100l-29 -120h-20l9 120z" />
    <glyph glyph-name="numbersign" unicode="#" horiz-adv-x="700" 
d="M555 510l65 190h35l-65 -190h125l-4 -30h-130l-87 -260h135l-4 -30h-140l-60 -190h-35l60 190h-255l-65 -190h-35l65 190h-125l4 30h130l87 260h-135l4 30h140l60 190h35l-60 -190h255zM546 480h-255l-87 -260h255z" />
    <glyph glyph-name="dollar" unicode="$" 
d="M104 505l8 45q11 69 59 109.5t119 40.5h65l15 90h35l-15 -90h185l-3 -20l-11 -10h-275q-57 0 -94 -31.5t-45 -88.5l-8 -45q-6 -39 14.5 -67.5t54.5 -37.5l226 -55q50 -12 76 -47.5t18 -87.5l-10 -60q-11 -69 -59 -109.5t-119 -40.5h-60l-15 -90h-35l15 90h-220l4 30h315
q57 0 93.5 31.5t45.5 88.5l10 60q6 40 -14 68t-55 37l-226 55q-50 12 -76 47.5t-18 87.5z" />
    <glyph glyph-name="percent" unicode="%" horiz-adv-x="835" 
d="M700 700h25l-3 -20l-537 -680h-25l3 20zM418 620l-26 -160q-6 -38 -36 -64t-68 -26h-115q-38 0 -60 26t-16 64l26 160q6 38 36 64t68 26h115q38 0 60 -26t16 -64zM158 620l-26 -160q-4 -26 9.5 -43t36.5 -17h115q23 0 41.5 17t22.5 43l26 160q4 26 -9.5 43t-36.5 17h-115
q-23 0 -41.5 -17t-22.5 -43zM788 240l-26 -160q-6 -38 -36 -64t-68 -26h-115q-38 0 -60 26t-16 64l26 160q6 38 36 64t68 26h115q38 0 59.5 -26t16.5 -64zM528 240l-26 -160q-4 -26 9.5 -43t36.5 -17h115q23 0 41.5 17t22.5 43l26 160q4 26 -9.5 43t-36.5 17h-115
q-23 0 -41.5 -17t-22.5 -43z" />
    <glyph glyph-name="ampersand" unicode="&#x26;" horiz-adv-x="655" 
d="M222 550l-5 -30q-8 -40 34 -101q20 -28 42 -49l325 -350l-3 -20h-30l-82 85q-15 -27 -36 -48q-47 -47 -114 -47h-175q-72 0 -107 40.5t-24 109.5l15 95q14 86 94 123q39 18 79 22v5q-17 17 -31 39q-30 49 -22 96l5 30q11 69 59 109.5t119 40.5h230l-3 -20l-11 -10h-220
q-57 0 -94 -31.5t-45 -88.5zM183 20h175q55 0 94 45q18 19 30 45l-221 245q-145 0 -164 -120l-15 -95q-9 -57 17.5 -88.5t83.5 -31.5z" />
    <glyph glyph-name="quotesingle" unicode="'" horiz-adv-x="200" 
d="M160 700h40l-15 -100l-29 -120h-20l9 120z" />
    <glyph glyph-name="parenleft" unicode="(" horiz-adv-x="325" 
d="M346 770h30l-4 -30h-30q-57 0 -93.5 -31.5t-45.5 -88.5l-103 -650q-9 -57 17.5 -88.5t83.5 -31.5h30l-5 -30h-30q-72 0 -107 40.5t-24 109.5l103 650q11 69 59 109.5t119 40.5z" />
    <glyph glyph-name="parenright" unicode=")" horiz-adv-x="335" 
d="M141 770h30q72 0 107.5 -41t24.5 -109l-103 -650q-11 -69 -59 -109.5t-120 -40.5h-30l5 30h30q57 0 93.5 31.5t45.5 88.5l103 650q9 57 -17.5 88.5t-83.5 31.5h-30z" />
    <glyph glyph-name="asterisk" unicode="*" horiz-adv-x="400" 
d="M320 380l-73 110l-107 -110l-18 15l94 120l-117 50l8 20l130 -30l33 145h20l-13 -145l140 30l2 -20l-133 -50l56 -120z" />
    <glyph glyph-name="plus" unicode="+" horiz-adv-x="520" 
d="M513 340l-4 -30h-215l-35 -220h-30l35 220h-215l4 30h215l35 220h30l-35 -220h215z" />
    <glyph glyph-name="comma" unicode="," horiz-adv-x="200" 
d="M64 90h40l-10 -60l-42 -140h-20z" />
    <glyph glyph-name="hyphen" unicode="-" horiz-adv-x="460" 
d="M453 340l-4 -30h-400l4 30h400z" />
    <glyph glyph-name="period" unicode="." horiz-adv-x="200" 
d="M64 90h40l-14 -90h-40z" />
    <glyph glyph-name="slash" unicode="/" horiz-adv-x="455" 
d="M22 -50h-30l3 20l488 780h30l-3 -20z" />
    <glyph glyph-name="zero" unicode="0" horiz-adv-x="645" 
d="M327 710h155q72 0 107 -40.5t24 -109.5l-66 -420q-11 -69 -59 -109.5t-120 -40.5h-155q-72 0 -107 40.5t-24 109.5l66 420q11 69 59 109.5t120 40.5zM218 20h155q57 0 93.5 31.5t45.5 88.5l66 420q9 57 -17.5 88.5t-83.5 31.5h-155q-57 0 -93.5 -31.5t-45.5 -88.5
l-66 -420q-9 -57 17.5 -88.5t83.5 -31.5z" />
    <glyph glyph-name="one" unicode="1" horiz-adv-x="315" 
d="M280 700l-110 -700h-35l105 665h-135l2 15l143 20h30z" />
    <glyph glyph-name="two" unicode="2" horiz-adv-x="540" 
d="M416 355l-381 -320l-1 -5h415l-4 -30h-455l5 35l405 345q22 20 38 39q38 45 47 91l7 40q8 57 -18 88.5t-83 31.5h-265l-9 10l3 20h275q72 0 107.5 -41t24.5 -109l-7 -40q-9 -50 -57 -108q-27 -30 -47 -47z" />
    <glyph glyph-name="three" unicode="3" horiz-adv-x="545" 
d="M438 150l15 90q8 57 -18 88.5t-83 31.5h-195l3 25l325 280l1 5h-370l-9 10l3 20h425l-4 -30l-314 -275l-1 -5h140q72 0 107.5 -41t24.5 -109l-15 -90q-11 -69 -59 -109.5t-119 -40.5h-295l4 30h295q57 0 93.5 31.5t45.5 88.5z" />
    <glyph glyph-name="four" unicode="4" horiz-adv-x="595" 
d="M535 700l-77 -490h115l-5 -30h-115l-28 -180h-35l28 180h-395l5 30l462 490h45zM488 655l-414 -440l-1 -5h350l70 445h-5z" />
    <glyph glyph-name="five" unicode="5" horiz-adv-x="585" 
d="M575 700l-3 -20l-11 -10h-350l-43 -270h240q72 0 107 -40.5t24 -109.5l-16 -100q-11 -69 -59 -109.5t-119 -40.5h-275l4 30h275q57 0 93.5 31.5t45.5 88.5l16 100q9 57 -17.5 88.5t-83.5 31.5h-275l52 330h395z" />
    <glyph glyph-name="six" unicode="6" horiz-adv-x="589" 
d="M177 550l-23 -140h255q72 0 107 -40.5t24 -109.5l-19 -120q-11 -69 -59 -109.5t-119 -40.5h-135q-72 0 -107 40.5t-24 109.5l65 410q11 69 59 109.5t119 40.5h260l-3 -20l-11 -10h-250q-57 0 -94 -31.5t-45 -88.5zM213 20h135q57 0 93.5 31.5t45.5 88.5l19 120
q9 57 -17.5 88.5t-83.5 31.5h-255l-38 -240q-9 -57 17.5 -88.5t83.5 -31.5z" />
    <glyph glyph-name="seven" unicode="7" horiz-adv-x="480" 
d="M135 0h-30l3 20l387 645l1 5h-410l4 30h450l-4 -30z" />
    <glyph glyph-name="eight" unicode="8" horiz-adv-x="630" 
d="M368 -10h-170q-72 0 -107 40.5t-24 109.5l15 95q11 73 70 112q26 17 56 23l1 5q-22 9 -39 26q-36 36 -26 104l9 55q11 69 59 109.5t120 40.5h130q72 0 107 -40.5t24 -109.5l-9 -55q-10 -65 -59 -104q-23 -18 -46 -26l-1 -5q29 -6 49 -23q46 -38 35 -112l-15 -95
q-11 -69 -59 -109.5t-120 -40.5zM203 20h170q57 0 93.5 31.5t45.5 88.5l15 95q9 57 -17.5 88.5t-83.5 31.5h-170q-57 0 -93.5 -31.5t-45.5 -88.5l-15 -95q-9 -57 17.5 -88.5t83.5 -31.5zM280 385h130q57 0 94 31.5t45 88.5l9 55q9 57 -17.5 88.5t-83.5 31.5h-130
q-57 0 -93.5 -31.5t-45.5 -88.5l-9 -55q-8 -57 18 -88.5t83 -31.5z" />
    <glyph glyph-name="nine" unicode="9" horiz-adv-x="589" 
d="M462 150l22 140h-255q-72 0 -106.5 40.5t-23.5 109.5l19 120q11 69 59 109.5t119 40.5h135q72 0 107 -40.5t24 -109.5l-65 -410q-11 -69 -59 -109.5t-119 -40.5h-260l4 30h260q57 0 93.5 31.5t45.5 88.5zM426 680h-135q-57 0 -93.5 -31.5t-45.5 -88.5l-19 -120
q-9 -57 17.5 -88.5t83.5 -31.5h255l38 240q9 57 -17.5 88.5t-83.5 31.5z" />
    <glyph glyph-name="colon" unicode=":" horiz-adv-x="200" 
d="M64 90h40l-14 -90h-40zM133 530h40l-14 -90h-40z" />
    <glyph glyph-name="semicolon" unicode=";" horiz-adv-x="200" 
d="M133 530h40l-14 -90h-40zM64 90h40l-10 -60l-42 -140h-20z" />
    <glyph glyph-name="less" unicode="&#x3c;" horiz-adv-x="490" 
d="M410 5l-351 245l6 35l428 245l-6 -40l-390 -220l-1 -5l321 -220z" />
    <glyph glyph-name="equal" unicode="=" horiz-adv-x="490" 
d="M496 450l-5 -30h-420l5 30h420zM463 245l-4 -30h-420l4 30h420z" />
    <glyph glyph-name="greater" unicode="&#x3e;" horiz-adv-x="490" 
d="M449 250l-429 -245l7 40l389 220l1 5l-320 220l6 40l352 -245z" />
    <glyph glyph-name="question" unicode="?" horiz-adv-x="490" 
d="M451 480l11 70q8 57 -18 88.5t-83 31.5h-265l-9 10l3 20h275q72 0 107.5 -41t24.5 -109l-11 -70q-15 -80 -94 -115l-118 -55q-64 -29 -74 -85l-5 -35h-30l5 35q14 78 93 115l119 55q59 28 69 85zM144 90h40l-14 -90h-40z" />
    <glyph glyph-name="at" unicode="@" horiz-adv-x="860" 
d="M211 10h525l-5 -30h-525q-72 0 -107 40.5t-24 109.5l70 440q11 69 59 109.5t120 40.5h370q72 0 107 -40.5t24 -109.5l-60 -380h-25l7 80h-5q-14 -26 -33 -45q-45 -45 -96 -45h-135q-56 0 -87 36t-23 89l9 60q8 53 51 89t99 36h250l13 80q9 57 -17.5 88.5t-83.5 31.5h-370
q-57 0 -93.5 -31.5t-45.5 -88.5l-70 -440q-9 -57 17.5 -88.5t83.5 -31.5zM772 460h-250q-42 0 -72.5 -26.5t-37.5 -68.5l-9 -60q-7 -42 15.5 -68.5t64.5 -26.5h135q51 0 96 57q21 27 37 58z" />
    <glyph glyph-name="A" unicode="A" horiz-adv-x="625" 
d="M530 0l-44 200h-345l-106 -200h-30l3 20l362 680h45l148 -680l-3 -20h-30zM384 660l-228 -430h325l-92 430h-5z" />
    <glyph glyph-name="B" unicode="B" horiz-adv-x="665" 
d="M190 700h295q72 0 107.5 -41t24.5 -109l-9 -55q-11 -65 -56 -102q-17 -15 -44 -23l-1 -5q32 -8 54 -25q51 -37 39 -115l-12 -75q-11 -69 -59 -109.5t-119 -40.5h-330zM119 30h295q57 0 93.5 31.5t45.5 88.5l12 75q9 57 -17.5 88.5t-83.5 31.5h-295zM481 670h-260
l-47 -295h264q55 0 90.5 31.5t44.5 88.5l9 55q8 57 -18 88.5t-83 31.5z" />
    <glyph glyph-name="C" unicode="C" horiz-adv-x="565" 
d="M214 30h290l-4 -30h-290q-72 0 -107.5 41t-24.5 109l64 400q11 69 59 109.5t119 40.5h290l-3 -20l-11 -10h-280q-57 0 -94 -31.5t-45 -88.5l-64 -400q-9 -57 17.5 -88.5t83.5 -31.5z" />
    <glyph glyph-name="D" unicode="D" horiz-adv-x="670" 
d="M80 0l110 700h320q72 0 107.5 -41t24.5 -109l-64 -400q-11 -69 -59 -109.5t-119 -40.5h-320zM221 670l-102 -640h285q57 0 93.5 31.5t45.5 88.5l64 400q8 57 -18 88.5t-83 31.5h-285z" />
    <glyph glyph-name="E" unicode="E" 
d="M80 0l110 700h435l-3 -20l-11 -10h-390l-48 -300h320l-5 -30h-320l-49 -310h400l-4 -30h-435z" />
    <glyph glyph-name="F" unicode="F" horiz-adv-x="565" 
d="M115 0h-35l110 700h440l-3 -20l-11 -10h-395l-53 -330h315l-4 -30h-315z" />
    <glyph glyph-name="G" unicode="G" horiz-adv-x="655" 
d="M214 30h285l51 320h-195l5 30h230l-60 -380h-320q-72 0 -107.5 41t-24.5 109l64 400q11 69 59 109.5t119 40.5h295l-3 -20l-11 -10h-285q-57 0 -94 -31.5t-45 -88.5l-64 -400q-9 -57 17.5 -88.5t83.5 -31.5z" />
    <glyph glyph-name="H" unicode="H" horiz-adv-x="690" 
d="M190 700h35l-52 -330h400l52 330h35l-110 -700h-35l53 340h-400l-53 -340h-35z" />
    <glyph glyph-name="I" unicode="I" horiz-adv-x="255" 
d="M190 700h35l-110 -700h-35z" />
    <glyph glyph-name="J" unicode="J" horiz-adv-x="525" 
d="M228 -10h-250l5 30h250q57 0 93.5 31.5t45.5 88.5l88 560h35l-88 -560q-11 -69 -59 -109.5t-120 -40.5z" />
    <glyph glyph-name="K" unicode="K" horiz-adv-x="630" 
d="M378 370l232 330h30l-3 -20l-231 -325l157 -335l-3 -20h-30l-157 340h-205l-53 -340h-35l110 700h35l-52 -330h205z" />
    <glyph glyph-name="L" unicode="L" horiz-adv-x="545" 
d="M190 700h35l-106 -670h390l-4 -30h-425z" />
    <glyph glyph-name="M" unicode="M" horiz-adv-x="955" 
d="M484 90h-45l-160 570h-5l-194 -660h-30l3 20l202 680h45l164 -575h5l346 575h45l-12 -680l-3 -20h-30l14 660h-5z" />
    <glyph glyph-name="N" unicode="N" horiz-adv-x="690" 
d="M505 0l-287 655h-5l-11 -105l-87 -550h-35l110 700h45l287 -655h5l11 105l87 550h35l-110 -700h-45z" />
    <glyph glyph-name="O" unicode="O" horiz-adv-x="665" 
d="M638 560l-66 -420q-11 -69 -59 -109.5t-120 -40.5h-185q-72 0 -107 40.5t-24 109.5l66 420q11 69 59 109.5t120 40.5h185q72 0 107 -40.5t24 -109.5zM213 20h185q57 0 93.5 31.5t45.5 88.5l66 420q9 57 -17.5 88.5t-83.5 31.5h-185q-57 0 -93.5 -31.5t-45.5 -88.5
l-66 -420q-9 -57 17.5 -88.5t83.5 -31.5z" />
    <glyph glyph-name="P" unicode="P" horiz-adv-x="635" 
d="M190 700h300q72 0 107.5 -41t24.5 -109l-24 -150q-11 -69 -59 -109.5t-120 -40.5h-265l-39 -250h-35zM486 670h-265l-62 -390h265q57 0 93.5 31.5t45.5 88.5l24 150q8 57 -18 88.5t-83 31.5z" />
    <glyph glyph-name="Q" unicode="Q" horiz-adv-x="665" 
d="M638 560l-66 -420q-11 -69 -59 -109.5t-120 -40.5h-80l58 -105l-3 -20h-30l-60 125h-70q-72 0 -107 40.5t-24 109.5l66 420q11 69 59 109.5t120 40.5h185q72 0 107 -40.5t24 -109.5zM213 20h185q57 0 93.5 31.5t45.5 88.5l66 420q9 57 -17.5 88.5t-83.5 31.5h-185
q-57 0 -93.5 -31.5t-45.5 -88.5l-66 -420q-9 -57 17.5 -88.5t83.5 -31.5z" />
    <glyph glyph-name="R" unicode="R" horiz-adv-x="655" 
d="M190 700h300q72 0 107.5 -41t24.5 -109l-18 -110q-11 -69 -59 -109.5t-120 -40.5l143 -270l-3 -20h-30l-144 290h-231l-45 -290h-35zM486 670h-265l-56 -350h265q57 0 93.5 31.5t45.5 88.5l18 110q8 57 -18 88.5t-83 31.5z" />
    <glyph glyph-name="S" unicode="S" 
d="M104 505l8 45q11 69 59 109.5t119 40.5h285l-3 -20l-11 -10h-275q-57 0 -94 -31.5t-45 -88.5l-8 -45q-6 -39 14.5 -67.5t54.5 -37.5l226 -55q50 -12 76 -47.5t18 -87.5l-10 -60q-11 -69 -59 -109.5t-119 -40.5h-315l4 30h315q57 0 93.5 31.5t45.5 88.5l10 60q6 40 -14 68
t-55 37l-226 55q-50 12 -76 47.5t-18 87.5z" />
    <glyph glyph-name="T" unicode="T" horiz-adv-x="545" 
d="M366 670l-106 -670h-35l106 670h-235l4 30h505l-3 -20l-11 -10h-225z" />
    <glyph glyph-name="U" unicode="U" horiz-adv-x="705" 
d="M238 20h175q57 0 93.5 31.5t45.5 88.5l88 560h35l-88 -560q-11 -69 -59 -109.5t-120 -40.5h-175q-72 0 -107 40.5t-24 109.5l88 560h35l-88 -560q-9 -57 17.5 -88.5t83.5 -31.5z" />
    <glyph glyph-name="V" unicode="V" horiz-adv-x="605" 
d="M281 40l339 660h30l-3 -20l-352 -680h-45l-138 680l3 20h30l131 -660h5z" />
    <glyph glyph-name="W" unicode="W" horiz-adv-x="915" 
d="M211 40l287 550h45l113 -550h5l259 660h30l-3 -20l-272 -680h-45l-113 555h-5l-287 -555h-45l-58 680l3 20h30l51 -660h5z" />
    <glyph glyph-name="X" unicode="X" horiz-adv-x="595" 
d="M500 0l-177 335h-5l-283 -335h-30l3 20l294 340l-170 320l3 20h30l160 -315h5l260 315h30l-3 -20l-270 -320l186 -340l-3 -20h-30z" />
    <glyph glyph-name="Y" unicode="Y" horiz-adv-x="595" 
d="M140 700l166 -440h5l304 440h30l-3 -20l-322 -455l-35 -225h-35l35 225l-178 455l3 20h30z" />
    <glyph glyph-name="Z" unicode="Z" horiz-adv-x="550" 
d="M489 30l-4 -30h-480l4 30l526 635l1 5h-415l-9 10l3 20h470l-4 -30l-526 -635l-1 -5h435z" />
    <glyph glyph-name="bracketleft" unicode="[" horiz-adv-x="345" 
d="M236 -180h-185l150 950h185l-4 -30h-150l-141 -890h150z" />
    <glyph glyph-name="backslash" unicode="\" horiz-adv-x="455" 
d="M387 -50h-30l-242 780l3 20h30l242 -780z" />
    <glyph glyph-name="bracketright" unicode="]" horiz-adv-x="345" 
d="M176 -180h-185l5 30h150l141 890h-150l4 30h185z" />
    <glyph glyph-name="asciicircum" unicode="^" horiz-adv-x="425" 
d="M310 700l137 -240h-40l-117 205h-5l-183 -205h-40l213 240h35z" />
    <glyph glyph-name="underscore" unicode="_" horiz-adv-x="460" 
d="M397 -80l-5 -30h-420l5 30h420z" />
    <glyph glyph-name="grave" unicode="`" horiz-adv-x="220" 
d="M120 700h45l70 -160h-30z" />
    <glyph glyph-name="a" unicode="a" 
d="M58 115l46 290q8 53 50.5 89t98.5 36h290l-83 -530h-25l7 80h-5q-13 -26 -33 -45q-45 -45 -96 -45h-140q-56 0 -87 36t-23 89zM504 500h-255q-42 0 -73 -26.5t-37 -68.5l-46 -290q-7 -42 15.5 -68.5t64.5 -26.5h140q51 0 96 57q21 27 37 58z" />
    <glyph glyph-name="b" unicode="b" horiz-adv-x="590" 
d="M549 405l-45 -280q-8 -53 -50.5 -89t-98.5 -36h-290l110 700h35l-27 -170h255q56 0 87.5 -36t23.5 -89zM469 125l45 280q6 42 -16 68.5t-64 26.5h-255l-75 -470h255q42 0 73 26.5t37 68.5z" />
    <glyph glyph-name="c" unicode="c" horiz-adv-x="500" 
d="M144 405l-45 -280q-6 -42 16 -68.5t64 -26.5h260l-4 -30h-260q-56 0 -87.5 36t-23.5 89l45 280q8 53 50.5 89t98.5 36h260l-3 -20l-11 -10h-250q-42 0 -73 -26.5t-37 -68.5z" />
    <glyph glyph-name="d" unicode="d" horiz-adv-x="590" 
d="M465 0h-25l7 80h-5q-14 -26 -33 -45q-45 -45 -96 -45h-140q-56 0 -87 36t-23 89l46 290q8 53 50.5 89t98.5 36h255l27 170h35zM451 135l58 365h-255q-42 0 -73 -26.5t-37 -68.5l-46 -290q-7 -42 15.5 -68.5t64.5 -26.5h140q51 0 96 57q21 27 37 58z" />
    <glyph glyph-name="e" unicode="e" horiz-adv-x="560" 
d="M372 235h-255l-18 -110q-6 -42 16 -68.5t64 -26.5h270l-4 -30h-270q-56 0 -87.5 36t-23.5 89l46 290q8 53 51 89t99 36h160q56 0 87 -36t23 -89l-8 -55q-10 -54 -51.5 -89.5t-98.5 -35.5zM487 360l8 55q7 42 -15.5 68.5t-64.5 26.5h-160q-42 0 -72.5 -26.5t-37.5 -68.5
l-24 -150h255q42 0 73 26.5t38 68.5z" />
    <glyph glyph-name="f" unicode="f" horiz-adv-x="405" 
d="M60 -45l97 630q8 53 51 89t99 36h200l-3 -20l-12 -10h-190q-42 0 -72.5 -26.5t-37.5 -68.5l-21 -135h225l-5 -30h-225l-71 -465q-8 -53 -50.5 -89t-98.5 -36h-31l5 30h30q42 0 73 26.5t37 68.5z" />
    <glyph glyph-name="g" unicode="g" horiz-adv-x="590" 
d="M422 -45l11 65h-255q-56 0 -87.5 36t-23.5 89l42 260q8 53 50.5 89t98.5 36h290l-91 -575q-8 -53 -50.5 -89t-98.5 -36h-260l4 30h260q42 0 73 26.5t37 68.5zM144 405l-42 -260q-6 -42 16 -68.5t64 -26.5h255l72 450h-255q-42 0 -73 -26.5t-37 -68.5z" />
    <glyph glyph-name="h" unicode="h" horiz-adv-x="605" 
d="M549 405l-64 -405h-35l64 405q6 42 -16 68.5t-64 26.5h-255l-79 -500h-35l110 700h35l-27 -170h255q56 0 87.5 -36t23.5 -89z" />
    <glyph glyph-name="i" unicode="i" horiz-adv-x="215" 
d="M143 530h35l-83 -530h-35zM174 720h35l-16 -100h-35z" />
    <glyph glyph-name="j" unicode="j" horiz-adv-x="250" 
d="M213 530l-91 -575q-8 -53 -50.5 -89t-98.5 -36h-94l4 30h94q42 0 73 26.5t37 68.5l91 575h35zM209 720h35l-16 -100h-35z" />
    <glyph glyph-name="k" unicode="k" horiz-adv-x="550" 
d="M326 295l192 235h30l-3 -20l-191 -230l134 -260l-3 -20h-30l-134 265h-180l-41 -265h-35l110 700h35l-64 -405h180z" />
    <glyph glyph-name="l" unicode="l" horiz-adv-x="285" 
d="M83 115l92 585h35l-92 -585q-7 -42 15.5 -68.5t64.5 -26.5h25l-5 -30h-25q-56 0 -87 36t-23 89z" />
    <glyph glyph-name="m" unicode="m" horiz-adv-x="895" 
d="M615 540h115q56 0 87 -36t23 -89l-65 -415h-35l65 415q7 42 -15.5 68.5t-64.5 26.5h-115q-42 0 -72.5 -26.5t-37.5 -68.5l-65 -415h-35l65 415q7 42 -15.5 68.5t-64.5 26.5h-95q-51 0 -97 -58q-19 -26 -36 -57l-62 -395h-35l83 530h25l-7 -80h5q14 26 33 45q45 45 96 45
h95q48 0 79 -35q12 -15 20 -35h5q11 17 30 35q41 35 91 35z" />
    <glyph glyph-name="n" unicode="n" horiz-adv-x="600" 
d="M157 395l-62 -395h-35l83 530h25l-7 -80h5q14 26 33 45q45 45 96 45h140q56 0 87 -36t23 -89l-65 -415h-35l65 415q7 42 -15.5 68.5t-64.5 26.5h-140q-51 0 -97 -58q-19 -26 -36 -57z" />
    <glyph glyph-name="o" unicode="o" horiz-adv-x="585" 
d="M63 115l47 300q8 53 51 89t99 36h175q56 0 87 -36t23 -89l-47 -300q-8 -53 -51 -89t-99 -36h-175q-56 0 -87 36t-23 89zM463 115l47 300q7 42 -15.5 68.5t-64.5 26.5h-175q-42 0 -72.5 -26.5t-37.5 -68.5l-47 -300q-7 -42 15.5 -68.5t64.5 -26.5h175q42 0 72.5 26.5
t37.5 68.5z" />
    <glyph glyph-name="p" unicode="p" horiz-adv-x="590" 
d="M148 530h25l-7 -80h5q13 26 33 45q45 45 96 45h140q56 0 87 -36t23 -89l-46 -290q-8 -53 -50.5 -89t-98.5 -36h-255l-27 -170h-35zM162 395l-58 -365h255q42 0 73 26.5t37 68.5l46 290q7 42 -15.5 68.5t-64.5 26.5h-140q-51 0 -97 -58q-20 -26 -36 -57z" />
    <glyph glyph-name="q" unicode="q" horiz-adv-x="585" 
d="M64 125l45 280q8 53 50.5 89t98.5 36h290l-110 -700h-35l27 170h-255q-56 0 -87.5 36t-23.5 89zM144 405l-45 -280q-6 -42 16 -68.5t64 -26.5h255l75 470h-255q-42 0 -73 -26.5t-37 -68.5z" />
    <glyph glyph-name="r" unicode="r" horiz-adv-x="425" 
d="M157 395l-62 -395h-35l83 530h25l-7 -80h5q14 26 33 45q45 45 96 45h165l-5 -30h-165q-51 0 -97 -58q-19 -26 -36 -57z" />
    <glyph glyph-name="s" unicode="s" horiz-adv-x="515" 
d="M177 300l195 -30q48 -8 71.5 -36.5t16.5 -73.5l-6 -40q-9 -54 -48 -87t-96 -33h-290l4 30h290q42 0 70 24t35 66l6 40q11 68 -62 80l-196 30q-49 8 -72 37t-15 73l4 30q9 54 48 87t96 33h265l-3 -20l-11 -10h-255q-42 0 -70 -24t-35 -66l-4 -30q-11 -68 62 -80z" />
    <glyph glyph-name="t" unicode="t" horiz-adv-x="425" 
d="M108 115l61 385h-100l4 30h100l38 140h20l-23 -140h170l-4 -30h-170l-61 -385q-7 -42 15.5 -68.5t64.5 -26.5h155l-5 -30h-155q-56 0 -87 36t-23 89z" />
    <glyph glyph-name="u" unicode="u" horiz-adv-x="600" 
d="M466 135l62 395h35l-83 -530h-25l7 80h-5q-13 -26 -33 -45q-45 -45 -96 -45h-140q-56 0 -87 36t-23 89l65 415h35l-65 -415q-7 -42 15.5 -68.5t64.5 -26.5h140q51 0 96 57q21 27 37 58z" />
    <glyph glyph-name="v" unicode="v" horiz-adv-x="525" 
d="M240 35l278 495h30l-3 -20l-290 -510h-45l-130 510l3 20h30l122 -495h5z" />
    <glyph glyph-name="w" unicode="w" horiz-adv-x="775" 
d="M424 405h-5l-229 -405h-40l-60 510l3 20h30l53 -490h5l223 400h45l97 -400h5l207 490h30l-3 -20l-220 -510h-40z" />
    <glyph glyph-name="x" unicode="x" horiz-adv-x="505" 
d="M128 530l137 -240h5l213 240h30l-3 -20l-224 -245l162 -245l-3 -20h-30l-152 240h-5l-228 -240h-30l3 20l238 245l-146 245l3 20h30z" />
    <glyph glyph-name="y" unicode="y" horiz-adv-x="520" 
d="M540 510l-288 -555q-64 -125 -159 -125h-60l4 30h60q74 0 120 95l15 30l1 5l-153 520l3 20h30l142 -495h5l253 495h30z" />
    <glyph glyph-name="z" unicode="z" horiz-adv-x="485" 
d="M424 30l-4 -30h-415l4 30l434 465l1 5h-350l-9 10l3 20h405l-4 -30l-434 -465l-1 -5h370z" />
    <glyph glyph-name="braceleft" unicode="{" horiz-adv-x="400" 
d="M130 -30l30 190q8 50 -16.5 85t-59.5 35l5 35q35 0 70.5 35t43.5 85l30 185q11 69 59 109.5t119 40.5h30l-4 -30h-30q-57 0 -93.5 -31.5t-45.5 -88.5l-30 -185q-12 -72 -62 -109q-23 -18 -49 -26l-1 -5q24 -8 41 -26q38 -40 28 -109l-30 -190q-9 -57 17.5 -88.5
t83.5 -31.5h30l-5 -30h-30q-72 0 -107 40.5t-24 109.5z" />
    <glyph glyph-name="bar" unicode="|" horiz-adv-x="255" 
d="M201 770h35l-155 -980h-35z" />
    <glyph glyph-name="braceright" unicode="}" horiz-adv-x="400" 
d="M230 160l-30 -190q-11 -69 -59 -109.5t-120 -40.5h-30l5 30h30q57 0 93.5 31.5t45.5 88.5l30 190q10 71 62 109q23 18 49 26l1 5q-24 8 -41 26q-39 41 -28 109l30 185q9 57 -17.5 88.5t-83.5 31.5h-30l4 30h30q72 0 107.5 -41t24.5 -109l-30 -185q-8 -50 16.5 -85
t59.5 -35l-5 -35q-35 0 -70.5 -35t-43.5 -85z" />
    <glyph glyph-name="asciitilde" unicode="~" horiz-adv-x="525" 
d="M304 280l-67 80l-14 15q-17 15 -32 15h-25q-40 0 -46 -40l-17 -105h-35l17 105q5 30 29 50t57 20h25q27 0 49 -20q11 -9 20 -20l67 -80q7 -10 13 -15q15 -15 32 -15h25q19 0 31.5 10.5t15.5 29.5l16 105h35l-16 -105q-5 -30 -29 -50t-57 -20h-25q-28 0 -50 20
q-12 10 -19 20z" />
    <glyph glyph-name="nbspace" unicode="&#xa0;" horiz-adv-x="280" 
 />
    <glyph glyph-name="exclamdown" unicode="&#xa1;" horiz-adv-x="260" 
d="M313 -170h-40l-30 190l-40 320h20l60 -320zM217 440h-40l-14 90h40z" />
    <glyph glyph-name="cent" unicode="&#xa2;" horiz-adv-x="500" 
d="M348 620h35l-15 -90h150l-3 -20l-11 -10h-250q-42 0 -73 -26.5t-37 -68.5l-45 -280q-6 -42 16 -68.5t64 -26.5h260l-4 -30h-150l-15 -90h-35l15 90h-75q-56 0 -87.5 36t-23.5 89l45 280q8 53 50.5 89t98.5 36h75z" />
    <glyph glyph-name="sterling" unicode="&#xa3;" horiz-adv-x="520" 
d="M84 30h395l-4 -30h-475l4 30h35q27 18 45 34q45 41 54 86l38 240h-90l5 30h90l26 165q8 53 51 89t99 36h170l-3 -20l-12 -10h-160q-42 0 -72.5 -26.5t-37.5 -68.5l-26 -165h200l-5 -30h-200l-38 -240q-9 -47 -48 -84q-17 -18 -40 -31z" />
    <glyph glyph-name="currency" unicode="&#xa4;" horiz-adv-x="665" 
d="M220 700h300q71 0 106.5 -40.5t25.5 -109.5l-16 -100q-11 -69 -59 -109.5t-120 -40.5h-265l-17 -110h335l-5 -30h-335l-25 -160h-35l25 160h-100l5 30h100l17 110h-100l5 30h100zM516 670h-265l-54 -340h265q57 0 93.5 31.5t45.5 88.5l16 100q8 57 -18 88.5t-83 31.5z
" />
    <glyph glyph-name="yen" unicode="&#xa5;" horiz-adv-x="595" 
d="M501 165l-5 -30h-190l-21 -135h-35l21 135h-190l5 30h190l9 60l-21 55h-160l5 30h143l-145 370l3 20h30l166 -440h5l304 440h30l-3 -20l-262 -370h144l-5 -30h-160l-39 -55l-9 -60h190z" />
    <glyph glyph-name="brokenbar" unicode="&#xa6;" horiz-adv-x="255" 
d="M201 770h35l-64 -410h-35zM81 -210h-35l65 410h35z" />
    <glyph glyph-name="section" unicode="&#xa7;" horiz-adv-x="545" 
d="M455 0l-8 -45q-8 -53 -50.5 -89t-98.5 -36h-295l4 30h295q42 0 73 26.5t37 68.5l8 45q5 34 -12 53.5t-61 26.5l-195 30q-48 8 -71.5 36.5t-16.5 73.5l16 100q9 57 49 89q18 13 39 21v5q-16 6 -27 17q-26 26 -18 73l8 50q8 53 50.5 89t98.5 36h260l-3 -20l-11 -10h-250
q-42 0 -73 -26.5t-37 -68.5l-8 -50q-11 -68 62 -80l195 -30q48 -8 71.5 -39t15.5 -76l-15 -95q-9 -57 -49 -89q-17 -13 -38 -21l-1 -5q17 -5 32 -17q30 -26 24 -73zM452 205l15 95q11 73 -62 85l-195 30q-34 0 -60.5 -25.5t-34.5 -69.5l-16 -100q-11 -68 63 -80l195 -30
q34 0 60.5 25.5t34.5 69.5z" />
    <glyph glyph-name="dieresis" unicode="&#xa8;" horiz-adv-x="310" 
d="M120 700h40l-12 -80h-40zM310 700h40l-12 -80h-40z" />
    <glyph glyph-name="copyright" unicode="&#xa9;" horiz-adv-x="921" 
d="M361 445l-30 -190q-13 -85 71 -85h205l-4 -30h-205q-56 0 -82.5 30.5t-18.5 84.5l30 190q8 54 44 84.5t93 30.5h205l-3 -20l-12 -10h-195q-85 0 -98 -85zM324 720h441q72 0 107 -40.5t24 -109.5l-70 -440q-11 -69 -59 -109.5t-120 -40.5h-441q-72 0 -107 40.5t-24 109.5
l70 440q11 69 59 109.5t120 40.5zM211 10h441q57 0 93.5 31.5t45.5 88.5l70 440q9 57 -17.5 88.5t-83.5 31.5h-441q-57 0 -93.5 -31.5t-45.5 -88.5l-70 -440q-9 -57 17.5 -88.5t83.5 -31.5z" />
    <glyph glyph-name="ordfeminine" unicode="&#xaa;" horiz-adv-x="400" 
d="M411 610l-38 -240h-20l-2 50q-10 -18 -22 -30q-30 -30 -67 -30h-90q-38 0 -60 26t-16 64l1 10q6 38 36.5 64t68.5 26h165l9 60q5 26 -8 43t-37 17h-160l4 30h160q38 0 60 -26t16 -64zM176 390h90q29 0 57 28.5t32 56.5l7 45h-165q-23 0 -41.5 -17t-23.5 -43l-1 -10
q-5 -26 8 -43t37 -17z" />
    <glyph glyph-name="guillemotleft" unicode="&#xab;" horiz-adv-x="465" 
d="M91 260l137 205h30l-3 -20l-124 -185l65 -185l-3 -20h-30zM261 260l137 205h30l-3 -20l-124 -185l65 -185l-3 -20h-30z" />
    <glyph glyph-name="logicalnot" unicode="&#xac;" horiz-adv-x="470" 
d="M414 250l21 130h-375l4 30h410l-25 -160h-35z" />
    <glyph glyph-name="uni00AD" unicode="&#xad;" horiz-adv-x="470" 
d="M463 340l-4 -30h-410l4 30h410z" />
    <glyph glyph-name="registered" unicode="&#xae;" horiz-adv-x="921" 
d="M681 445l-3 -20q-8 -54 -44.5 -84.5t-93.5 -30.5l101 -150l-3 -20h-30l-106 170h-152l-27 -170h-35l66 420h225q57 0 83.5 -30.5t18.5 -84.5zM643 425l3 20q14 85 -72 85h-190l-30 -190h190q86 0 99 85zM324 720h441q72 0 107 -40.5t24 -109.5l-70 -440
q-11 -69 -59 -109.5t-120 -40.5h-441q-72 0 -107 40.5t-24 109.5l70 440q11 69 59 109.5t120 40.5zM211 10h441q57 0 93.5 31.5t45.5 88.5l70 440q9 57 -17.5 88.5t-83.5 31.5h-441q-57 0 -93.5 -31.5t-45.5 -88.5l-70 -440q-9 -57 17.5 -88.5t83.5 -31.5z" />
    <glyph glyph-name="macron" unicode="&#xaf;" horiz-adv-x="395" 
d="M425 700l-4 -30h-295l4 30h295z" />
    <glyph glyph-name="degree" unicode="&#xb0;" horiz-adv-x="415" 
d="M428 620l-26 -160q-6 -38 -36 -64t-68 -26h-125q-38 0 -60 26t-16 64l26 160q6 38 36 64t68 26h125q38 0 60 -26t16 -64zM158 620l-26 -160q-4 -26 9.5 -43t36.5 -17h125q23 0 41.5 17t22.5 43l26 160q4 26 -9.5 43t-36.5 17h-125q-23 0 -41.5 -17t-22.5 -43z" />
    <glyph glyph-name="plusminus" unicode="&#xb1;" horiz-adv-x="530" 
d="M529 410l-4 -30h-215l-38 -240h205l-5 -30h-440l5 30h205l38 240h-215l4 30h215l35 220h30l-35 -220h215z" />
    <glyph glyph-name="twosuperior" unicode="&#xb2;" horiz-adv-x="390" 
d="M368 400l-5 -30h-280l4 25l206 130q17 11 34 24q34 30 37 45l2 16q5 26 -8 43t-37 17h-180l4 30h180q38 0 60 -26t16 -64l-2 -16q-5 -27 -45 -61q-17 -14 -40 -28l-176 -105h230z" />
    <glyph glyph-name="threesuperior" unicode="&#xb3;" horiz-adv-x="395" 
d="M384 470l-2 -10q-6 -38 -36 -64t-68 -26h-195l5 30h195q23 0 41.5 17t22.5 43l2 10q4 26 -9.5 43t-36.5 17h-125l4 25l164 115h-210l4 30h260l-4 -25l-163 -115h75q38 0 60 -26t16 -64z" />
    <glyph glyph-name="acute" unicode="&#xb4;" horiz-adv-x="220" 
d="M215 700h45l-135 -160h-30z" />
    <glyph glyph-name="mu" unicode="&#xb5;" horiz-adv-x="605" 
d="M68 -170h-35l110 700h35l-65 -415q-7 -42 15.5 -68.5t64.5 -26.5h145q51 0 96 57q21 27 37 58l62 395h35l-83 -530h-25l7 80h-5q-14 -26 -33 -45q-45 -45 -96 -45h-145q-38 0 -64 22q-14 14 -19 23h-5z" />
    <glyph glyph-name="paragraph" unicode="&#xb6;" horiz-adv-x="595" 
d="M651 670h-115l-133 -840h-35l133 840h-155l-133 -840h-35l79 500h-55q-52 0 -83.5 36.5t-21.5 88.5l19 120q8 53 49.5 89t95.5 36h394z" />
    <glyph glyph-name="periodcentered" unicode="&#xb7;" horiz-adv-x="280" 
d="M152 395h40l-14 -90h-40z" />
    <glyph glyph-name="cedilla" unicode="&#xb8;" horiz-adv-x="270" 
d="M26 -85l14 85h30l-10 -60h50q38 0 55.5 -20.5t12.5 -54.5l-4 -25q-5 -34 -29.5 -54.5t-62.5 -20.5h-110l4 25h110q23 0 38.5 13.5t19.5 36.5l4 25q4 23 -7.5 36.5t-34.5 13.5h-80z" />
    <glyph glyph-name="onesuperior" unicode="&#xb9;" horiz-adv-x="216" 
d="M130 665l4 25l77 10h30l-52 -330h-35l47 295h-71z" />
    <glyph glyph-name="ordmasculine" unicode="&#xba;" horiz-adv-x="405" 
d="M418 620l-26 -160q-6 -38 -36 -64t-68 -26h-115q-38 0 -60 26t-16 64l26 160q6 38 36 64t68 26h115q38 0 60 -26t16 -64zM158 620l-26 -160q-4 -26 9.5 -43t36.5 -17h115q23 0 41.5 17t22.5 43l26 160q4 26 -9.5 43t-36.5 17h-115q-23 0 -41.5 -17t-22.5 -43z" />
    <glyph glyph-name="guillemotright" unicode="&#xbb;" horiz-adv-x="465" 
d="M323 465l73 -205l-138 -205h-30l3 20l125 185l-66 185l3 20h30zM153 465l73 -205l-138 -205h-30l3 20l125 185l-66 185l3 20h30z" />
    <glyph glyph-name="onequarter" unicode="&#xbc;" horiz-adv-x="765" 
d="M641 700h25l-3 -20l-537 -680h-25l3 20zM130 665l4 25l77 10h30l-52 -330h-35l47 295h-71zM370 95l267 235h30l-37 -230h65l-4 -30h-65l-11 -70h-35l11 70h-225zM624 280l-209 -180h180z" />
    <glyph glyph-name="onehalf" unicode="&#xbd;" horiz-adv-x="770" 
d="M621 700h25l-3 -20l-537 -680h-25l3 20zM130 665l4 25l77 10h30l-52 -330h-35l47 295h-71zM689 30l-4 -30h-280l3 25l206 130q17 11 34 24q34 30 37 45l3 16q4 26 -9.5 43t-36.5 17h-180l5 30h180q38 0 59.5 -26t16.5 -64l-3 -16q-5 -27 -45 -61q-15 -13 -39 -28
l-177 -105h230z" />
    <glyph glyph-name="threequarters" unicode="&#xbe;" horiz-adv-x="830" 
d="M720 700h25l-3 -20l-537 -680h-25l3 20zM384 470l-2 -10q-6 -38 -36 -64t-68 -26h-195l5 30h195q23 0 41.5 17t22.5 43l2 10q4 26 -9.5 43t-36.5 17h-125l4 25l164 115h-210l4 30h260l-4 -25l-163 -115h75q38 0 60 -26t16 -64zM435 95l267 235h30l-37 -230h65l-4 -30h-65
l-11 -70h-35l11 70h-225zM689 280l-209 -180h180z" />
    <glyph glyph-name="questiondown" unicode="&#xbf;" horiz-adv-x="460" 
d="M122 50l-11 -70q-8 -57 18 -88.5t83 -31.5h265l9 -10l-3 -20h-275q-72 0 -107.5 41t-24.5 109l11 70q15 80 94 115l118 55q64 29 74 85l5 35h30l-5 -35q-14 -78 -93 -115l-119 -55q-59 -28 -69 -85zM429 440h-40l14 90h40z" />
    <glyph glyph-name="Agrave" unicode="&#xc0;" horiz-adv-x="625" 
d="M530 0l-44 200h-345l-106 -200h-30l3 20l362 680h45l148 -680l-3 -20h-30zM384 660l-228 -430h325l-92 430h-5zM298 930h45l70 -160h-30z" />
    <glyph glyph-name="Aacute" unicode="&#xc1;" horiz-adv-x="625" 
d="M530 0l-44 200h-345l-106 -200h-30l3 20l362 680h45l148 -680l-3 -20h-30zM384 660l-228 -430h325l-92 430h-5zM503 930h45l-135 -160h-30z" />
    <glyph glyph-name="Acircumflex" unicode="&#xc2;" horiz-adv-x="625" 
d="M530 0l-44 200h-345l-106 -200h-30l3 20l362 680h45l148 -680l-3 -20h-30zM384 660l-228 -430h325l-92 430h-5zM557 765h-40l-96 115l-134 -115h-40l163 145h30z" />
    <glyph glyph-name="Atilde" unicode="&#xc3;" horiz-adv-x="625" 
d="M530 0l-44 200h-345l-106 -200h-30l3 20l362 680h45l148 -680l-3 -20h-30zM384 660l-228 -430h325l-92 430h-5zM415 785l-33 45q-3 5 -10 12q-13 13 -21 13h-5q-12 0 -22.5 -10t-12.5 -25l-10 -60h-30l10 60q4 26 23.5 43t45.5 17h5q18 0 37 -15l14 -15l32 -45
q4 -7 10 -13q12 -12 22 -12h5q12 0 22.5 10t12.5 25l10 60h30l-10 -60q-4 -26 -23.5 -43t-45.5 -17h-5q-20 0 -37 15q-9 7 -14 15z" />
    <glyph glyph-name="Adieresis" unicode="&#xc4;" horiz-adv-x="625" 
d="M530 0l-44 200h-345l-106 -200h-30l3 20l362 680h45l148 -680l-3 -20h-30zM384 660l-228 -430h325l-92 430h-5zM300 850h40l-12 -80h-40zM490 850h40l-12 -80h-40z" />
    <glyph glyph-name="Aring" unicode="&#xc5;" horiz-adv-x="625" 
d="M530 0l-44 200h-345l-106 -200h-30l3 20l349 655q-32 3 -47 23t-10 52l7 40q5 34 29.5 54.5t62.5 20.5h40q38 0 55.5 -20.5t12.5 -54.5l-7 -40q-11 -67 -80 -75l143 -655l-3 -20h-30zM384 660l-228 -430h325l-92 430h-5zM470 750l7 40q6 50 -42 50h-40q-23 0 -39 -13.5
t-19 -36.5l-7 -40q-6 -48 40 -50h45q22 1 37 14.5t18 35.5z" />
    <glyph glyph-name="AE" unicode="&#xc6;" horiz-adv-x="945" 
d="M445 0l39 250h-320l-164 -250h-30l3 20l452 680h565l-3 -20l-11 -10h-390l-48 -300h320l-5 -30h-320l-49 -310h400l-4 -30h-435zM446 670l-262 -390h305l62 390h-105z" />
    <glyph glyph-name="Ccedilla" unicode="&#xc7;" horiz-adv-x="565" 
d="M214 30h290l-4 -30h-213l-10 -60h50q38 0 55.5 -20.5t12.5 -54.5l-4 -25q-5 -34 -29.5 -54.5t-62.5 -20.5h-110l4 25h110q23 0 38.5 13.5t19.5 36.5l4 25q4 23 -7.5 36.5t-34.5 13.5h-80l14 85h-47q-72 0 -107.5 41t-24.5 109l64 400q11 69 59 109.5t119 40.5h290l-3 -20
l-11 -10h-280q-57 0 -94 -31.5t-45 -88.5l-64 -400q-9 -57 17.5 -88.5t83.5 -31.5z" />
    <glyph glyph-name="Egrave" unicode="&#xc8;" 
d="M80 0l110 700h435l-3 -20l-11 -10h-390l-48 -300h320l-5 -30h-320l-49 -310h400l-4 -30h-435zM336 930h45l70 -160h-30z" />
    <glyph glyph-name="Eacute" unicode="&#xc9;" 
d="M80 0l110 700h435l-3 -20l-11 -10h-390l-48 -300h320l-5 -30h-320l-49 -310h400l-4 -30h-435zM491 930h45l-135 -160h-30z" />
    <glyph glyph-name="Ecircumflex" unicode="&#xca;" 
d="M80 0l110 700h435l-3 -20l-11 -10h-390l-48 -300h320l-5 -30h-320l-49 -310h400l-4 -30h-435zM576 775h-40l-96 115l-134 -115h-40l163 145h30z" />
    <glyph glyph-name="Edieresis" unicode="&#xcb;" 
d="M80 0l110 700h435l-3 -20l-11 -10h-390l-48 -300h320l-5 -30h-320l-49 -310h400l-4 -30h-435zM321 870h40l-12 -80h-40zM511 870h40l-12 -80h-40z" />
    <glyph glyph-name="Igrave" unicode="&#xcc;" horiz-adv-x="255" 
d="M190 700h35l-110 -700h-35zM123 930h45l70 -160h-30z" />
    <glyph glyph-name="Iacute" unicode="&#xcd;" horiz-adv-x="255" 
d="M190 700h35l-110 -700h-35zM318 930h45l-135 -160h-30z" />
    <glyph glyph-name="Icircumflex" unicode="&#xce;" horiz-adv-x="255" 
d="M190 700h35l-110 -700h-35zM375 765h-40l-96 115l-134 -115h-40l163 145h30z" />
    <glyph glyph-name="Idieresis" unicode="&#xcf;" horiz-adv-x="255" 
d="M190 700h35l-110 -700h-35zM118 850h40l-12 -80h-40zM308 850h40l-12 -80h-40z" />
    <glyph glyph-name="Eth" unicode="&#xd0;" horiz-adv-x="670" 
d="M80 0l53 340h-80l5 30h80l52 330h320q72 0 107.5 -41t24.5 -109l-64 -400q-11 -69 -59 -109.5t-119 -40.5h-320zM221 670l-48 -300h180l-5 -30h-180l-49 -310h285q57 0 93.5 31.5t45.5 88.5l64 400q8 57 -18 88.5t-83 31.5h-285z" />
    <glyph glyph-name="Ntilde" unicode="&#xd1;" horiz-adv-x="690" 
d="M505 0l-287 655h-5l-11 -105l-87 -550h-35l110 700h45l287 -655h5l11 105l87 550h35l-110 -700h-45zM450 795l-33 45q-3 5 -10 12q-13 13 -21 13h-5q-12 0 -22.5 -10t-12.5 -25l-10 -60h-30l10 60q4 26 23.5 43t45.5 17h5q18 0 37 -15l14 -15l32 -45q5 -7 10 -13
q12 -12 22 -12h5q12 0 22.5 10t12.5 25l10 60h30l-10 -60q-4 -26 -23.5 -43t-45.5 -17h-5q-20 0 -37 15q-9 7 -14 15z" />
    <glyph glyph-name="Ograve" unicode="&#xd2;" horiz-adv-x="665" 
d="M638 560l-66 -420q-11 -69 -59 -109.5t-120 -40.5h-185q-72 0 -107 40.5t-24 109.5l66 420q11 69 59 109.5t120 40.5h185q72 0 107 -40.5t24 -109.5zM213 20h185q57 0 93.5 31.5t45.5 88.5l66 420q9 57 -17.5 88.5t-83.5 31.5h-185q-57 0 -93.5 -31.5t-45.5 -88.5
l-66 -420q-9 -57 17.5 -88.5t83.5 -31.5zM330 940h45l70 -160h-30z" />
    <glyph glyph-name="Oacute" unicode="&#xd3;" horiz-adv-x="665" 
d="M638 560l-66 -420q-11 -69 -59 -109.5t-120 -40.5h-185q-72 0 -107 40.5t-24 109.5l66 420q11 69 59 109.5t120 40.5h185q72 0 107 -40.5t24 -109.5zM213 20h185q57 0 93.5 31.5t45.5 88.5l66 420q9 57 -17.5 88.5t-83.5 31.5h-185q-57 0 -93.5 -31.5t-45.5 -88.5
l-66 -420q-9 -57 17.5 -88.5t83.5 -31.5zM515 940h45l-135 -160h-30z" />
    <glyph glyph-name="Ocircumflex" unicode="&#xd4;" horiz-adv-x="665" 
d="M638 560l-66 -420q-11 -69 -59 -109.5t-120 -40.5h-185q-72 0 -107 40.5t-24 109.5l66 420q11 69 59 109.5t120 40.5h185q72 0 107 -40.5t24 -109.5zM213 20h185q57 0 93.5 31.5t45.5 88.5l66 420q9 57 -17.5 88.5t-83.5 31.5h-185q-57 0 -93.5 -31.5t-45.5 -88.5
l-66 -420q-9 -57 17.5 -88.5t83.5 -31.5zM580 785h-40l-96 115l-134 -115h-40l163 145h30z" />
    <glyph glyph-name="Otilde" unicode="&#xd5;" horiz-adv-x="665" 
d="M638 560l-66 -420q-11 -69 -59 -109.5t-120 -40.5h-185q-72 0 -107 40.5t-24 109.5l66 420q11 69 59 109.5t120 40.5h185q72 0 107 -40.5t24 -109.5zM213 20h185q57 0 93.5 31.5t45.5 88.5l66 420q9 57 -17.5 88.5t-83.5 31.5h-185q-57 0 -93.5 -31.5t-45.5 -88.5
l-66 -420q-9 -57 17.5 -88.5t83.5 -31.5zM440 815l-33 45q-3 5 -10 12q-13 13 -21 13h-5q-12 0 -22.5 -10t-12.5 -25l-10 -60h-30l10 60q4 26 23.5 43t45.5 17h5q18 0 37 -15l14 -15l32 -45q5 -7 10 -13q12 -12 22 -12h5q12 0 22.5 10t12.5 25l10 60h30l-10 -60
q-4 -26 -23.5 -43t-45.5 -17h-5q-20 0 -37 15q-9 7 -14 15z" />
    <glyph glyph-name="Odieresis" unicode="&#xd6;" horiz-adv-x="665" 
d="M638 560l-66 -420q-11 -69 -59 -109.5t-120 -40.5h-185q-72 0 -107 40.5t-24 109.5l66 420q11 69 59 109.5t120 40.5h185q72 0 107 -40.5t24 -109.5zM213 20h185q57 0 93.5 31.5t45.5 88.5l66 420q9 57 -17.5 88.5t-83.5 31.5h-185q-57 0 -93.5 -31.5t-45.5 -88.5
l-66 -420q-9 -57 17.5 -88.5t83.5 -31.5zM325 880h40l-12 -80h-40zM515 880h40l-12 -80h-40z" />
    <glyph glyph-name="multiply" unicode="&#xd7;" horiz-adv-x="450" 
d="M243 305l-191 -165l-17 20l191 165l-139 165l23 20l139 -165l191 165l17 -20l-191 -165l139 -165l-23 -20z" />
    <glyph glyph-name="Oslash" unicode="&#xd8;" horiz-adv-x="665" 
d="M127 -50h-30l3 20l25 41q-64 40 -48 129l66 420q11 69 59 109.5t120 40.5h185q24 0 52 -7l29 47h30l-3 -20l-25 -41q62 -40 48 -129l-66 -420q-11 -69 -59 -109.5t-120 -40.5h-185q-26 0 -52 7zM213 20h185q57 0 93.5 31.5t45.5 88.5l66 420q10 70 -32 101l-398 -636
q15 -5 40 -5zM178 560l-66 -420q-12 -69 31 -101l398 636q-20 5 -39 5h-185q-57 0 -93.5 -31.5t-45.5 -88.5z" />
    <glyph glyph-name="Ugrave" unicode="&#xd9;" horiz-adv-x="705" 
d="M238 20h175q57 0 93.5 31.5t45.5 88.5l88 560h35l-88 -560q-11 -69 -59 -109.5t-120 -40.5h-175q-72 0 -107 40.5t-24 109.5l88 560h35l-88 -560q-9 -57 17.5 -88.5t83.5 -31.5zM353 900h45l70 -160h-30z" />
    <glyph glyph-name="Uacute" unicode="&#xda;" horiz-adv-x="705" 
d="M238 20h175q57 0 93.5 31.5t45.5 88.5l88 560h35l-88 -560q-11 -69 -59 -109.5t-120 -40.5h-175q-72 0 -107 40.5t-24 109.5l88 560h35l-88 -560q-9 -57 17.5 -88.5t83.5 -31.5zM518 900h45l-135 -160h-30z" />
    <glyph glyph-name="Ucircumflex" unicode="&#xdb;" horiz-adv-x="705" 
d="M238 20h175q57 0 93.5 31.5t45.5 88.5l88 560h35l-88 -560q-11 -69 -59 -109.5t-120 -40.5h-175q-72 0 -107 40.5t-24 109.5l88 560h35l-88 -560q-9 -57 17.5 -88.5t83.5 -31.5zM595 755h-40l-96 115l-134 -115h-40l163 145h30z" />
    <glyph glyph-name="Udieresis" unicode="&#xdc;" horiz-adv-x="705" 
d="M238 20h175q57 0 93.5 31.5t45.5 88.5l88 560h35l-88 -560q-11 -69 -59 -109.5t-120 -40.5h-175q-72 0 -107 40.5t-24 109.5l88 560h35l-88 -560q-9 -57 17.5 -88.5t83.5 -31.5zM340 850h40l-12 -80h-40zM530 850h40l-12 -80h-40z" />
    <glyph glyph-name="Yacute" unicode="&#xdd;" horiz-adv-x="595" 
d="M140 700l166 -440h5l304 440h30l-3 -20l-322 -455l-35 -225h-35l35 225l-178 455l3 20h30zM482 890h45l-135 -160h-30z" />
    <glyph glyph-name="Thorn" unicode="&#xde;" horiz-adv-x="635" 
d="M190 700h35l-19 -120h265q72 0 107.5 -41t24.5 -109l-27 -170q-11 -69 -59 -109.5t-120 -40.5h-265l-17 -110h-35zM467 550h-265l-65 -410h265q57 0 93.5 31.5t45.5 88.5l27 170q8 57 -18 88.5t-83 31.5z" />
    <glyph glyph-name="germandbls" unicode="&#xdf;" horiz-adv-x="635" 
d="M526 580q-4 -26 -18 -47.5t-31 -36.5t-34 -29.5t-30 -34t-17 -42.5l-3 -20q-4 -24 15 -44t48.5 -34.5t58.5 -30.5t47.5 -42t12.5 -59l-6 -40q-9 -54 -48 -87t-96 -33h-170l4 30h170q42 0 70 24t35 66l6 40q4 27 -14.5 49t-47.5 37t-58 30.5t-47.5 39.5t-14.5 54l3 20
q5 32 25 58t41 41t40.5 38.5t23.5 52.5q7 42 -13 66t-62 24h-90q-57 0 -94 -31.5t-45 -88.5l-87 -550h-35l87 550q11 69 59 109.5t119 40.5h90q57 0 85.5 -33t20.5 -87z" />
    <glyph glyph-name="agrave" unicode="&#xe0;" 
d="M58 115l46 290q8 53 50.5 89t98.5 36h290l-83 -530h-25l7 80h-5q-13 -26 -33 -45q-45 -45 -96 -45h-140q-56 0 -87 36t-23 89zM504 500h-255q-42 0 -73 -26.5t-37 -68.5l-46 -290q-7 -42 15.5 -68.5t64.5 -26.5h140q51 0 96 57q21 27 37 58zM271 770h45l70 -160h-30z" />
    <glyph glyph-name="aacute" unicode="&#xe1;" 
d="M58 115l46 290q8 53 50.5 89t98.5 36h290l-83 -530h-25l7 80h-5q-13 -26 -33 -45q-45 -45 -96 -45h-140q-56 0 -87 36t-23 89zM504 500h-255q-42 0 -73 -26.5t-37 -68.5l-46 -290q-7 -42 15.5 -68.5t64.5 -26.5h140q51 0 96 57q21 27 37 58zM446 770h45l-135 -160h-30z
" />
    <glyph glyph-name="acircumflex" unicode="&#xe2;" 
d="M58 115l46 290q8 53 50.5 89t98.5 36h290l-83 -530h-25l7 80h-5q-13 -26 -33 -45q-45 -45 -96 -45h-140q-56 0 -87 36t-23 89zM504 500h-255q-42 0 -73 -26.5t-37 -68.5l-46 -290q-7 -42 15.5 -68.5t64.5 -26.5h140q51 0 96 57q21 27 37 58zM521 615h-40l-96 115
l-134 -115h-40l163 145h30z" />
    <glyph glyph-name="atilde" unicode="&#xe3;" 
d="M58 115l46 290q8 53 50.5 89t98.5 36h290l-83 -530h-25l7 80h-5q-13 -26 -33 -45q-45 -45 -96 -45h-140q-56 0 -87 36t-23 89zM504 500h-255q-42 0 -73 -26.5t-37 -68.5l-46 -290q-7 -42 15.5 -68.5t64.5 -26.5h140q51 0 96 57q21 27 37 58zM369 635l-33 45q-3 5 -10 12
q-13 13 -21 13h-5q-12 0 -22.5 -10t-12.5 -25l-10 -60h-30l10 60q4 26 23.5 43t45.5 17h5q18 0 37 -15l14 -15l32 -45q5 -7 10 -13q12 -12 22 -12h5q12 0 22.5 10t12.5 25l10 60h30l-10 -60q-4 -26 -23.5 -43t-45.5 -17h-5q-20 0 -37 15q-9 7 -14 15z" />
    <glyph glyph-name="adieresis" unicode="&#xe4;" 
d="M58 115l46 290q8 53 50.5 89t98.5 36h290l-83 -530h-25l7 80h-5q-13 -26 -33 -45q-45 -45 -96 -45h-140q-56 0 -87 36t-23 89zM504 500h-255q-42 0 -73 -26.5t-37 -68.5l-46 -290q-7 -42 15.5 -68.5t64.5 -26.5h140q51 0 96 57q21 27 37 58zM256 710h40l-12 -80h-40z
M446 710h40l-12 -80h-40z" />
    <glyph glyph-name="aring" unicode="&#xe5;" 
d="M58 115l46 290q8 53 50.5 89t98.5 36h290l-83 -530h-25l7 80h-5q-13 -26 -33 -45q-45 -45 -96 -45h-140q-56 0 -87 36t-23 89zM504 500h-255q-42 0 -73 -26.5t-37 -68.5l-46 -290q-7 -42 15.5 -68.5t64.5 -26.5h140q51 0 96 57q21 27 37 58zM266 675l6 40q6 34 30 54.5
t62 20.5h40q38 0 56 -20.5t12 -54.5l-6 -40q-5 -34 -29.5 -54.5t-62.5 -20.5h-40q-38 0 -55.5 20.5t-12.5 54.5zM436 675l6 40q4 23 -7.5 36.5t-34.5 13.5h-40q-23 0 -38.5 -13.5t-19.5 -36.5l-6 -40q-4 -23 7.5 -36.5t34.5 -13.5h40q23 0 38.5 13.5t19.5 36.5z" />
    <glyph glyph-name="ae" unicode="&#xe6;" horiz-adv-x="950" 
d="M163 530h250q47 0 79 -30q15 -15 22 -30q12 17 33 35q43 35 93 35h160q56 0 87 -36t23 -89l-27 -170h-385l-19 -120q-6 -42 16 -68.5t64 -26.5h270l-4 -30h-270q-60 0 -89 45q-12 18 -17 45q-16 -27 -37 -50q-48 -50 -104 -50h-140q-56 0 -87 36t-23 89l6 40q8 53 51 89
t99 36h255l20 125q6 42 -16 68.5t-64 26.5h-250zM853 275l22 140q7 42 -15.5 68.5t-64.5 26.5h-160q-41 0 -71 -25t-38 -65l-2 -15l-21 -130h350zM464 250h-255q-42 0 -72.5 -26.5t-37.5 -68.5l-6 -40q-7 -42 15.5 -68.5t64.5 -26.5h140q51 0 96 57q21 27 37 58z" />
    <glyph glyph-name="ccedilla" unicode="&#xe7;" horiz-adv-x="500" 
d="M144 405l-45 -280q-6 -42 16 -68.5t64 -26.5h260l-4 -30h-180l-10 -60h50q38 0 55.5 -20.5t12.5 -54.5l-4 -25q-5 -34 -29.5 -54.5t-62.5 -20.5h-110l4 25h110q23 0 38.5 13.5t19.5 36.5l4 25q4 23 -7.5 36.5t-34.5 13.5h-80l14 85h-50q-56 0 -87.5 36t-23.5 89l45 280
q8 53 50.5 89t98.5 36h260l-3 -20l-11 -10h-250q-42 0 -73 -26.5t-37 -68.5z" />
    <glyph glyph-name="egrave" unicode="&#xe8;" horiz-adv-x="560" 
d="M372 235h-255l-18 -110q-6 -42 16 -68.5t64 -26.5h270l-4 -30h-270q-56 0 -87.5 36t-23.5 89l46 290q8 53 51 89t99 36h160q56 0 87 -36t23 -89l-8 -55q-10 -54 -51.5 -89.5t-98.5 -35.5zM487 360l8 55q7 42 -15.5 68.5t-64.5 26.5h-160q-42 0 -72.5 -26.5t-37.5 -68.5
l-24 -150h255q42 0 73 26.5t38 68.5zM266 770h45l70 -160h-30z" />
    <glyph glyph-name="eacute" unicode="&#xe9;" horiz-adv-x="560" 
d="M372 235h-255l-18 -110q-6 -42 16 -68.5t64 -26.5h270l-4 -30h-270q-56 0 -87.5 36t-23.5 89l46 290q8 53 51 89t99 36h160q56 0 87 -36t23 -89l-8 -55q-10 -54 -51.5 -89.5t-98.5 -35.5zM487 360l8 55q7 42 -15.5 68.5t-64.5 26.5h-160q-42 0 -72.5 -26.5t-37.5 -68.5
l-24 -150h255q42 0 73 26.5t38 68.5zM431 770h45l-135 -160h-30z" />
    <glyph glyph-name="ecircumflex" unicode="&#xea;" horiz-adv-x="560" 
d="M372 235h-255l-18 -110q-6 -42 16 -68.5t64 -26.5h270l-4 -30h-270q-56 0 -87.5 36t-23.5 89l46 290q8 53 51 89t99 36h160q56 0 87 -36t23 -89l-8 -55q-10 -54 -51.5 -89.5t-98.5 -35.5zM487 360l8 55q7 42 -15.5 68.5t-64.5 26.5h-160q-42 0 -72.5 -26.5t-37.5 -68.5
l-24 -150h255q42 0 73 26.5t38 68.5zM506 615h-40l-96 115l-134 -115h-40l163 145h30z" />
    <glyph glyph-name="edieresis" unicode="&#xeb;" horiz-adv-x="560" 
d="M372 235h-255l-18 -110q-6 -42 16 -68.5t64 -26.5h270l-4 -30h-270q-56 0 -87.5 36t-23.5 89l46 290q8 53 51 89t99 36h160q56 0 87 -36t23 -89l-8 -55q-10 -54 -51.5 -89.5t-98.5 -35.5zM487 360l8 55q7 42 -15.5 68.5t-64.5 26.5h-160q-42 0 -72.5 -26.5t-37.5 -68.5
l-24 -150h255q42 0 73 26.5t38 68.5zM250 700h40l-12 -80h-40zM440 700h40l-12 -80h-40z" />
    <glyph glyph-name="igrave" unicode="&#xec;" horiz-adv-x="215" 
d="M143 530h35l-83 -530h-35zM81 770h45l70 -160h-30z" />
    <glyph glyph-name="iacute" unicode="&#xed;" horiz-adv-x="215" 
d="M143 530h35l-83 -530h-35zM274 770h45l-135 -160h-30z" />
    <glyph glyph-name="icircumflex" unicode="&#xee;" horiz-adv-x="215" 
d="M143 530h35l-83 -530h-35zM321 615h-40l-96 115l-134 -115h-40l163 145h30z" />
    <glyph glyph-name="idieresis" unicode="&#xef;" horiz-adv-x="215" 
d="M143 530h35l-83 -530h-35zM73 691h40l-12 -80h-40zM263 691h40l-12 -80h-40z" />
    <glyph glyph-name="eth" unicode="&#xf0;" horiz-adv-x="595" 
d="M385 795l30 -5l-29 -85l64 -10q61 -10 90 -52.5t18 -112.5l-65 -415q-8 -53 -51 -89t-99 -36h-170q-56 0 -87 36t-23 89l37 235q8 53 51 89t99 36h265l8 55q9 58 -14 93t-69 42l-64 10l-37 -110l-29 5l37 110l-132 20l10 30l132 -20zM135 350l-37 -235q-7 -42 15.5 -68.5
t64.5 -26.5h170q42 0 72.5 26.5t37.5 68.5l52 330h-265q-42 0 -72.5 -26.5t-37.5 -68.5z" />
    <glyph glyph-name="ntilde" unicode="&#xf1;" horiz-adv-x="600" 
d="M157 395l-62 -395h-35l83 530h25l-7 -80h5q14 26 33 45q45 45 96 45h140q56 0 87 -36t23 -89l-65 -415h-35l65 415q7 42 -15.5 68.5t-64.5 26.5h-140q-51 0 -97 -58q-19 -26 -36 -57zM372 655l-33 45q-3 5 -10 12q-13 13 -21 13h-5q-12 0 -22.5 -10t-12.5 -25l-10 -60
h-30l10 60q4 26 23.5 43t45.5 17h5q18 0 37 -15l14 -15l32 -45q5 -7 10 -13q12 -12 22 -12h5q12 0 22.5 10t12.5 25l10 60h30l-10 -60q-4 -26 -23.5 -43t-45.5 -17h-5q-20 0 -37 15q-9 7 -14 15z" />
    <glyph glyph-name="ograve" unicode="&#xf2;" horiz-adv-x="585" 
d="M63 115l47 300q8 53 51 89t99 36h175q56 0 87 -36t23 -89l-47 -300q-8 -53 -51 -89t-99 -36h-175q-56 0 -87 36t-23 89zM463 115l47 300q7 42 -15.5 68.5t-64.5 26.5h-175q-42 0 -72.5 -26.5t-37.5 -68.5l-47 -300q-7 -42 15.5 -68.5t64.5 -26.5h175q42 0 72.5 26.5
t37.5 68.5zM273 770h45l70 -160h-30z" />
    <glyph glyph-name="oacute" unicode="&#xf3;" horiz-adv-x="585" 
d="M63 115l47 300q8 53 51 89t99 36h175q56 0 87 -36t23 -89l-47 -300q-8 -53 -51 -89t-99 -36h-175q-56 0 -87 36t-23 89zM463 115l47 300q7 42 -15.5 68.5t-64.5 26.5h-175q-42 0 -72.5 -26.5t-37.5 -68.5l-47 -300q-7 -42 15.5 -68.5t64.5 -26.5h175q42 0 72.5 26.5
t37.5 68.5zM448 770h45l-135 -160h-30z" />
    <glyph glyph-name="ocircumflex" unicode="&#xf4;" horiz-adv-x="585" 
d="M63 115l47 300q8 53 51 89t99 36h175q56 0 87 -36t23 -89l-47 -300q-8 -53 -51 -89t-99 -36h-175q-56 0 -87 36t-23 89zM463 115l47 300q7 42 -15.5 68.5t-64.5 26.5h-175q-42 0 -72.5 -26.5t-37.5 -68.5l-47 -300q-7 -42 15.5 -68.5t64.5 -26.5h175q42 0 72.5 26.5
t37.5 68.5zM513 615h-40l-96 115l-134 -115h-40l163 145h30z" />
    <glyph glyph-name="otilde" unicode="&#xf5;" horiz-adv-x="585" 
d="M63 115l47 300q8 53 51 89t99 36h175q56 0 87 -36t23 -89l-47 -300q-8 -53 -51 -89t-99 -36h-175q-56 0 -87 36t-23 89zM463 115l47 300q7 42 -15.5 68.5t-64.5 26.5h-175q-42 0 -72.5 -26.5t-37.5 -68.5l-47 -300q-7 -42 15.5 -68.5t64.5 -26.5h175q42 0 72.5 26.5
t37.5 68.5zM363 645l-33 45q-3 5 -10 12q-13 13 -21 13h-5q-12 0 -22.5 -10t-12.5 -25l-10 -60h-30l10 60q4 26 23.5 43t45.5 17h5q18 0 37 -15l14 -15l32 -45q5 -7 10 -13q12 -12 22 -12h5q12 0 22.5 10t12.5 25l10 60h30l-10 -60q-4 -26 -23.5 -43t-45.5 -17h-5
q-20 0 -37 15q-9 7 -14 15z" />
    <glyph glyph-name="odieresis" unicode="&#xf6;" horiz-adv-x="585" 
d="M63 115l47 300q8 53 51 89t99 36h175q56 0 87 -36t23 -89l-47 -300q-8 -53 -51 -89t-99 -36h-175q-56 0 -87 36t-23 89zM463 115l47 300q7 42 -15.5 68.5t-64.5 26.5h-175q-42 0 -72.5 -26.5t-37.5 -68.5l-47 -300q-7 -42 15.5 -68.5t64.5 -26.5h175q42 0 72.5 26.5
t37.5 68.5zM258 710h40l-12 -80h-40zM448 710h40l-12 -80h-40z" />
    <glyph glyph-name="divide" unicode="&#xf7;" horiz-adv-x="460" 
d="M453 340l-4 -30h-400l4 30h400zM208 180h40l-14 -90h-40zM268 560h40l-14 -90h-40z" />
    <glyph glyph-name="oslash" unicode="&#xf8;" horiz-adv-x="585" 
d="M63 115l47 300q8 53 51 89t99 36h175q24 0 46 -8l35 48h25l-3 -20l-31 -42q49 -36 38 -103l-47 -300q-8 -53 -51 -89t-99 -36h-175q-23 0 -47 8l-34 -48h-25l3 20l30 42q-48 36 -37 103zM463 115l47 300q8 48 -23 75l-341 -465q18 -5 32 -5h175q42 0 72.5 26.5t37.5 68.5
zM145 415l-47 -300q-7 -48 23 -75l340 465q-17 5 -31 5h-175q-42 0 -72.5 -26.5t-37.5 -68.5z" />
    <glyph glyph-name="ugrave" unicode="&#xf9;" horiz-adv-x="600" 
d="M466 135l62 395h35l-83 -530h-25l7 80h-5q-13 -26 -33 -45q-45 -45 -96 -45h-140q-56 0 -87 36t-23 89l65 415h35l-65 -415q-7 -42 15.5 -68.5t64.5 -26.5h140q51 0 96 57q21 27 37 58zM289 760h45l70 -160h-30z" />
    <glyph glyph-name="uacute" unicode="&#xfa;" horiz-adv-x="600" 
d="M466 135l62 395h35l-83 -530h-25l7 80h-5q-13 -26 -33 -45q-45 -45 -96 -45h-140q-56 0 -87 36t-23 89l65 415h35l-65 -415q-7 -42 15.5 -68.5t64.5 -26.5h140q51 0 96 57q21 27 37 58zM454 760h45l-135 -160h-30z" />
    <glyph glyph-name="ucircumflex" unicode="&#xfb;" horiz-adv-x="600" 
d="M466 135l62 395h35l-83 -530h-25l7 80h-5q-13 -26 -33 -45q-45 -45 -96 -45h-140q-56 0 -87 36t-23 89l65 415h35l-65 -415q-7 -42 15.5 -68.5t64.5 -26.5h140q51 0 96 57q21 27 37 58zM521 615h-40l-96 115l-134 -115h-40l163 145h30z" />
    <glyph glyph-name="udieresis" unicode="&#xfc;" horiz-adv-x="600" 
d="M466 135l62 395h35l-83 -530h-25l7 80h-5q-13 -26 -33 -45q-45 -45 -96 -45h-140q-56 0 -87 36t-23 89l65 415h35l-65 -415q-7 -42 15.5 -68.5t64.5 -26.5h140q51 0 96 57q21 27 37 58zM276 710h40l-12 -80h-40zM466 710h40l-12 -80h-40z" />
    <glyph glyph-name="yacute" unicode="&#xfd;" horiz-adv-x="520" 
d="M540 510l-288 -555q-64 -125 -159 -125h-60l4 30h60q74 0 120 95l15 30l1 5l-153 520l3 20h30l142 -495h5l253 495h30zM411 740h45l-135 -160h-30z" />
    <glyph glyph-name="thorn" unicode="&#xfe;" horiz-adv-x="590" 
d="M175 700h35l-27 -170h255q56 0 87.5 -36t23.5 -89l-45 -280q-8 -53 -50.5 -89t-98.5 -36h-255l-27 -170h-35zM469 125l45 280q6 42 -16 68.5t-64 26.5h-255l-75 -470h255q42 0 73 26.5t37 68.5z" />
    <glyph glyph-name="ydieresis" unicode="&#xff;" horiz-adv-x="520" 
d="M540 510l-288 -555q-64 -125 -159 -125h-60l4 30h60q74 0 120 95l15 30l1 5l-153 520l3 20h30l142 -495h5l253 495h30zM223 691h40l-12 -80h-40zM413 691h40l-12 -80h-40z" />
    <glyph glyph-name="Amacron" unicode="&#x100;" horiz-adv-x="625" 
d="M530 0l-44 200h-345l-106 -200h-30l3 20l362 680h45l148 -680l-3 -20h-30zM384 660l-228 -430h325l-92 430h-5zM562 840l-4 -30h-295l4 30h295z" />
    <glyph glyph-name="amacron" unicode="&#x101;" 
d="M58 115l46 290q8 53 50.5 89t98.5 36h290l-83 -530h-25l7 80h-5q-13 -26 -33 -45q-45 -45 -96 -45h-140q-56 0 -87 36t-23 89zM504 500h-255q-42 0 -73 -26.5t-37 -68.5l-46 -290q-7 -42 15.5 -68.5t64.5 -26.5h140q51 0 96 57q21 27 37 58zM525 691l-4 -30h-295l4 30
h295z" />
    <glyph glyph-name="Abreve" unicode="&#x102;" horiz-adv-x="625" 
d="M530 0l-44 200h-345l-106 -200h-30l3 20l362 680h45l148 -680l-3 -20h-30zM384 660l-228 -430h325l-92 430h-5zM449 775h-90q-34 0 -55.5 25.5t-15.5 59.5l4 30h30l-4 -30q-4 -23 9.5 -39t36.5 -16h90q23 0 41.5 16t22.5 39l4 30h30l-4 -30q-6 -34 -35.5 -59.5
t-63.5 -25.5z" />
    <glyph glyph-name="abreve" unicode="&#x103;" 
d="M58 115l46 290q8 53 50.5 89t98.5 36h290l-83 -530h-25l7 80h-5q-13 -26 -33 -45q-45 -45 -96 -45h-140q-56 0 -87 36t-23 89zM504 500h-255q-42 0 -73 -26.5t-37 -68.5l-46 -290q-7 -42 15.5 -68.5t64.5 -26.5h140q51 0 96 57q21 27 37 58zM403 625h-90
q-34 0 -55.5 25.5t-15.5 59.5l4 30h30l-4 -30q-4 -23 9.5 -39t36.5 -16h90q23 0 41.5 16t22.5 39l4 30h30l-4 -30q-6 -34 -35.5 -59.5t-63.5 -25.5z" />
    <glyph glyph-name="Aogonek" unicode="&#x104;" horiz-adv-x="625" 
d="M530 0l-44 200h-345l-106 -200h-30l3 20l362 680h45l148 -680l-5 -30q-24 -12 -55 -32q-57 -39 -62 -73q-3 -24 8 -39.5t34 -15.5h95l-4 -25h-95q-37 0 -55 22.5t-13 57.5q6 43 64 84q24 17 55 31zM384 660l-228 -430h325l-92 430h-5z" />
    <glyph glyph-name="aogonek" unicode="&#x105;" 
d="M58 115l46 290q8 53 50.5 89t98.5 36h290l-85 -540q-24 -12 -55 -32q-57 -39 -62 -73q-3 -24 8 -39.5t34 -15.5h95l-4 -25h-95q-37 0 -55 22.5t-13 57.5q7 46 66 84q22 16 58 31l7 80h-5q-13 -26 -33 -45q-45 -45 -96 -45h-140q-56 0 -87 36t-23 89zM504 500h-255
q-42 0 -73 -26.5t-37 -68.5l-46 -290q-7 -42 15.5 -68.5t64.5 -26.5h140q51 0 96 57q21 27 37 58z" />
    <glyph glyph-name="Cacute" unicode="&#x106;" horiz-adv-x="565" 
d="M214 30h290l-4 -30h-290q-72 0 -107.5 41t-24.5 109l64 400q11 69 59 109.5t119 40.5h290l-3 -20l-11 -10h-280q-57 0 -94 -31.5t-45 -88.5l-64 -400q-9 -57 17.5 -88.5t83.5 -31.5zM515 940h45l-135 -160h-30z" />
    <glyph glyph-name="cacute" unicode="&#x107;" horiz-adv-x="500" 
d="M144 405l-45 -280q-6 -42 16 -68.5t64 -26.5h260l-4 -30h-260q-56 0 -87.5 36t-23.5 89l45 280q8 53 50.5 89t98.5 36h260l-3 -20l-11 -10h-250q-42 0 -73 -26.5t-37 -68.5zM446 770h45l-135 -160h-30z" />
    <glyph glyph-name="Ccircumflex" unicode="&#x108;" horiz-adv-x="565" 
d="M214 30h290l-4 -30h-290q-72 0 -107.5 41t-24.5 109l64 400q11 69 59 109.5t119 40.5h290l-3 -20l-11 -10h-280q-57 0 -94 -31.5t-45 -88.5l-64 -400q-9 -57 17.5 -88.5t83.5 -31.5zM568 775h-40l-96 115l-134 -115h-40l163 145h30z" />
    <glyph glyph-name="ccircumflex" unicode="&#x109;" horiz-adv-x="500" 
d="M144 405l-45 -280q-6 -42 16 -68.5t64 -26.5h260l-4 -30h-260q-56 0 -87.5 36t-23.5 89l45 280q8 53 50.5 89t98.5 36h260l-3 -20l-11 -10h-250q-42 0 -73 -26.5t-37 -68.5zM501 615h-40l-96 115l-134 -115h-40l163 145h30z" />
    <glyph glyph-name="Cdotaccent" unicode="&#x10a;" horiz-adv-x="565" 
d="M214 30h290l-4 -30h-290q-72 0 -107.5 41t-24.5 109l64 400q11 69 59 109.5t119 40.5h290l-3 -20l-11 -10h-280q-57 0 -94 -31.5t-45 -88.5l-64 -400q-9 -57 17.5 -88.5t83.5 -31.5zM398 870h40l-12 -80h-40z" />
    <glyph glyph-name="cdotaccent" unicode="&#x10b;" horiz-adv-x="500" 
d="M144 405l-45 -280q-6 -42 16 -68.5t64 -26.5h260l-4 -30h-260q-56 0 -87.5 36t-23.5 89l45 280q8 53 50.5 89t98.5 36h260l-3 -20l-11 -10h-250q-42 0 -73 -26.5t-37 -68.5zM341 710h40l-12 -80h-40z" />
    <glyph glyph-name="Ccaron" unicode="&#x10c;" horiz-adv-x="565" 
d="M214 30h290l-4 -30h-290q-72 0 -107.5 41t-24.5 109l64 400q11 69 59 109.5t119 40.5h290l-3 -20l-11 -10h-280q-57 0 -94 -31.5t-45 -88.5l-64 -400q-9 -57 17.5 -88.5t83.5 -31.5zM540 910h40l-163 -145h-30l-117 145h40l97 -115z" />
    <glyph glyph-name="ccaron" unicode="&#x10d;" horiz-adv-x="500" 
d="M144 405l-45 -280q-6 -42 16 -68.5t64 -26.5h260l-4 -30h-260q-56 0 -87.5 36t-23.5 89l45 280q8 53 50.5 89t98.5 36h260l-3 -20l-11 -10h-250q-42 0 -73 -26.5t-37 -68.5zM472 750h40l-163 -145h-30l-117 145h40l97 -115z" />
    <glyph glyph-name="Dcaron" unicode="&#x10e;" horiz-adv-x="670" 
d="M80 0l110 700h320q72 0 107.5 -41t24.5 -109l-64 -400q-11 -69 -59 -109.5t-119 -40.5h-320zM221 670l-102 -640h285q57 0 93.5 31.5t45.5 88.5l64 400q8 57 -18 88.5t-83 31.5h-285zM563 910h40l-163 -145h-30l-117 145h40l97 -115z" />
    <glyph glyph-name="dcaron" unicode="&#x10f;" horiz-adv-x="660" 
d="M465 0h-25l7 80h-5q-14 -26 -33 -45q-45 -45 -96 -45h-140q-56 0 -87 36t-23 89l46 290q8 53 50.5 89t98.5 36h255l27 170h35zM451 135l58 365h-255q-42 0 -73 -26.5t-37 -68.5l-46 -290q-7 -42 15.5 -68.5t64.5 -26.5h140q51 0 96 57q21 27 37 58zM680 700h40l-9 -60
l-42 -140h-20z" />
    <glyph glyph-name="Dcroat" unicode="&#x110;" horiz-adv-x="670" 
d="M80 0l53 340h-80l5 30h80l52 330h320q72 0 107.5 -41t24.5 -109l-64 -400q-11 -69 -59 -109.5t-119 -40.5h-320zM221 670l-48 -300h180l-5 -30h-180l-49 -310h285q57 0 93.5 31.5t45.5 88.5l64 400q8 57 -18 88.5t-83 31.5h-285z" />
    <glyph glyph-name="dcroat" unicode="&#x111;" horiz-adv-x="590" 
d="M465 0h-25l7 80h-5q-14 -26 -33 -45q-45 -45 -96 -45h-140q-56 0 -87 36t-23 89l36 230q8 53 51 89t99 36h255l16 100h-210l5 30h210l15 100h35l-15 -100h65l-5 -30h-65zM451 135l48 305h-255q-42 0 -72.5 -26.5t-37.5 -68.5l-36 -230q-7 -42 15.5 -68.5t64.5 -26.5h140
q51 0 96 57q21 27 37 58z" />
    <glyph glyph-name="Emacron" unicode="&#x112;" 
d="M80 0l110 700h435l-3 -20l-11 -10h-390l-48 -300h320l-5 -30h-320l-49 -310h400l-4 -30h-435zM580 850l-4 -30h-295l4 30h295z" />
    <glyph glyph-name="emacron" unicode="&#x113;" horiz-adv-x="560" 
d="M372 235h-255l-18 -110q-6 -42 16 -68.5t64 -26.5h270l-4 -30h-270q-56 0 -87.5 36t-23.5 89l46 290q8 53 51 89t99 36h160q56 0 87 -36t23 -89l-8 -55q-10 -54 -51.5 -89.5t-98.5 -35.5zM487 360l8 55q7 42 -15.5 68.5t-64.5 26.5h-160q-42 0 -72.5 -26.5t-37.5 -68.5
l-24 -150h255q42 0 73 26.5t38 68.5zM508 681l-4 -30h-295l4 30h295z" />
    <glyph glyph-name="Ebreve" unicode="&#x114;" 
d="M80 0l110 700h435l-3 -20l-11 -10h-390l-48 -300h320l-5 -30h-320l-49 -310h400l-4 -30h-435zM460 795h-90q-34 0 -55.5 25.5t-15.5 59.5l4 30h30l-4 -30q-4 -23 9.5 -39t36.5 -16h90q23 0 41.5 16t22.5 39l4 30h30l-4 -30q-6 -34 -35.5 -59.5t-63.5 -25.5z" />
    <glyph glyph-name="ebreve" unicode="&#x115;" horiz-adv-x="560" 
d="M372 235h-255l-18 -110q-6 -42 16 -68.5t64 -26.5h270l-4 -30h-270q-56 0 -87.5 36t-23.5 89l46 290q8 53 51 89t99 36h160q56 0 87 -36t23 -89l-8 -55q-10 -54 -51.5 -89.5t-98.5 -35.5zM487 360l8 55q7 42 -15.5 68.5t-64.5 26.5h-160q-42 0 -72.5 -26.5t-37.5 -68.5
l-24 -150h255q42 0 73 26.5t38 68.5zM388 625h-90q-34 0 -55.5 25.5t-15.5 59.5l4 30h30l-4 -30q-4 -23 9.5 -39t36.5 -16h90q23 0 41.5 16t22.5 39l4 30h30l-4 -30q-6 -34 -35.5 -59.5t-63.5 -25.5z" />
    <glyph glyph-name="Edotaccent" unicode="&#x116;" 
d="M80 0l110 700h435l-3 -20l-11 -10h-390l-48 -300h320l-5 -30h-320l-49 -310h400l-4 -30h-435zM416 870h40l-12 -80h-40z" />
    <glyph glyph-name="edotaccent" unicode="&#x117;" horiz-adv-x="560" 
d="M372 235h-255l-18 -110q-6 -42 16 -68.5t64 -26.5h270l-4 -30h-270q-56 0 -87.5 36t-23.5 89l46 290q8 53 51 89t99 36h160q56 0 87 -36t23 -89l-8 -55q-10 -54 -51.5 -89.5t-98.5 -35.5zM487 360l8 55q7 42 -15.5 68.5t-64.5 26.5h-160q-42 0 -72.5 -26.5t-37.5 -68.5
l-24 -150h255q42 0 73 26.5t38 68.5zM346 710h40l-12 -80h-40z" />
    <glyph glyph-name="Eogonek" unicode="&#x118;" 
d="M80 0l110 700h435l-3 -20l-11 -10h-390l-48 -300h320l-5 -30h-320l-49 -310h400l-4 -30h-165q-37 -16 -65 -33q-68 -43 -74 -82q-3 -24 8 -39.5t34 -15.5h95l-4 -25h-95q-37 0 -55 22.5t-13 57.5q6 43 64 84q24 17 55 31h-220z" />
    <glyph glyph-name="eogonek" unicode="&#x119;" horiz-adv-x="560" 
d="M372 235h-255l-18 -110q-6 -42 16 -68.5t64 -26.5h270l-4 -30h-125q-37 -16 -65 -33q-68 -43 -74 -82q-3 -24 8 -39.5t34 -15.5h95l-4 -25h-95q-37 0 -55 22.5t-13 57.5q6 43 64 84q24 17 55 31h-95q-56 0 -87.5 36t-23.5 89l46 290q8 53 51 89t99 36h160q56 0 87 -36
t23 -89l-8 -55q-10 -54 -51.5 -89.5t-98.5 -35.5zM487 360l8 55q7 42 -15.5 68.5t-64.5 26.5h-160q-42 0 -72.5 -26.5t-37.5 -68.5l-24 -150h255q42 0 73 26.5t38 68.5z" />
    <glyph glyph-name="Ecaron" unicode="&#x11a;" 
d="M80 0l110 700h435l-3 -20l-11 -10h-390l-48 -300h320l-5 -30h-320l-49 -310h400l-4 -30h-435zM549 920h40l-163 -145h-30l-117 145h40l97 -115z" />
    <glyph glyph-name="ecaron" unicode="&#x11b;" horiz-adv-x="560" 
d="M372 235h-255l-18 -110q-6 -42 16 -68.5t64 -26.5h270l-4 -30h-270q-56 0 -87.5 36t-23.5 89l46 290q8 53 51 89t99 36h160q56 0 87 -36t23 -89l-8 -55q-10 -54 -51.5 -89.5t-98.5 -35.5zM487 360l8 55q7 42 -15.5 68.5t-64.5 26.5h-160q-42 0 -72.5 -26.5t-37.5 -68.5
l-24 -150h255q42 0 73 26.5t38 68.5zM487 750h40l-163 -145h-30l-117 145h40l97 -115z" />
    <glyph glyph-name="Gcircumflex" unicode="&#x11c;" horiz-adv-x="655" 
d="M214 30h285l51 320h-195l5 30h230l-60 -380h-320q-72 0 -107.5 41t-24.5 109l64 400q11 69 59 109.5t119 40.5h295l-3 -20l-11 -10h-285q-57 0 -94 -31.5t-45 -88.5l-64 -400q-9 -57 17.5 -88.5t83.5 -31.5zM573 775h-40l-96 115l-134 -115h-40l163 145h30z" />
    <glyph glyph-name="gcircumflex" unicode="&#x11d;" horiz-adv-x="590" 
d="M422 -45l11 65h-255q-56 0 -87.5 36t-23.5 89l42 260q8 53 50.5 89t98.5 36h290l-91 -575q-8 -53 -50.5 -89t-98.5 -36h-260l4 30h260q42 0 73 26.5t37 68.5zM144 405l-42 -260q-6 -42 16 -68.5t64 -26.5h255l72 450h-255q-42 0 -73 -26.5t-37 -68.5zM503 615h-40
l-96 115l-134 -115h-40l163 145h30z" />
    <glyph glyph-name="Gbreve" unicode="&#x11e;" horiz-adv-x="655" 
d="M214 30h285l51 320h-195l5 30h230l-60 -380h-320q-72 0 -107.5 41t-24.5 109l64 400q11 69 59 109.5t119 40.5h295l-3 -20l-11 -10h-285q-57 0 -94 -31.5t-45 -88.5l-64 -400q-9 -57 17.5 -88.5t83.5 -31.5zM457 795h-90q-34 0 -55.5 25.5t-15.5 59.5l4 30h30l-4 -30
q-4 -23 9.5 -39t36.5 -16h90q23 0 41.5 16t22.5 39l4 30h30l-4 -30q-6 -34 -35.5 -59.5t-63.5 -25.5z" />
    <glyph glyph-name="gbreve" unicode="&#x11f;" horiz-adv-x="590" 
d="M422 -45l11 65h-255q-56 0 -87.5 36t-23.5 89l42 260q8 53 50.5 89t98.5 36h290l-91 -575q-8 -53 -50.5 -89t-98.5 -36h-260l4 30h260q42 0 73 26.5t37 68.5zM144 405l-42 -260q-6 -42 16 -68.5t64 -26.5h255l72 450h-255q-42 0 -73 -26.5t-37 -68.5zM385 625h-90
q-34 0 -55.5 25.5t-15.5 59.5l4 30h30l-4 -30q-4 -23 9.5 -39t36.5 -16h90q23 0 41.5 16t22.5 39l4 30h30l-4 -30q-6 -34 -35.5 -59.5t-63.5 -25.5z" />
    <glyph glyph-name="Gdotaccent" unicode="&#x120;" horiz-adv-x="655" 
d="M214 30h285l51 320h-195l5 30h230l-60 -380h-320q-72 0 -107.5 41t-24.5 109l64 400q11 69 59 109.5t119 40.5h295l-3 -20l-11 -10h-285q-57 0 -94 -31.5t-45 -88.5l-64 -400q-9 -57 17.5 -88.5t83.5 -31.5zM415 880h40l-12 -80h-40z" />
    <glyph glyph-name="gdotaccent" unicode="&#x121;" horiz-adv-x="590" 
d="M422 -45l11 65h-255q-56 0 -87.5 36t-23.5 89l42 260q8 53 50.5 89t98.5 36h290l-91 -575q-8 -53 -50.5 -89t-98.5 -36h-260l4 30h260q42 0 73 26.5t37 68.5zM144 405l-42 -260q-6 -42 16 -68.5t64 -26.5h255l72 450h-255q-42 0 -73 -26.5t-37 -68.5zM343 710h40l-12 -80
h-40z" />
    <glyph glyph-name="Gcommaaccent" unicode="&#x122;" horiz-adv-x="655" 
d="M214 30h285l51 320h-195l5 30h230l-60 -380h-320q-72 0 -107.5 41t-24.5 109l64 400q11 69 59 109.5t119 40.5h295l-3 -20l-11 -10h-285q-57 0 -94 -31.5t-45 -88.5l-64 -400q-9 -57 17.5 -88.5t83.5 -31.5zM287 -59h40l-10 -60l-40 -125h-20z" />
    <glyph glyph-name="gcommaaccent" unicode="&#x123;" horiz-adv-x="590" 
d="M422 -45l11 65h-255q-56 0 -87.5 36t-23.5 89l42 260q8 53 50.5 89t98.5 36h290l-91 -575q-8 -53 -50.5 -89t-98.5 -36h-260l4 30h260q42 0 73 26.5t37 68.5zM144 405l-42 -260q-6 -42 16 -68.5t64 -26.5h255l72 450h-255q-42 0 -73 -26.5t-37 -68.5zM421 610h-40l10 60
l40 125h20z" />
    <glyph glyph-name="Hcircumflex" unicode="&#x124;" horiz-adv-x="690" 
d="M190 700h35l-52 -330h400l52 330h35l-110 -700h-35l53 340h-400l-53 -340h-35zM590 765h-40l-96 115l-134 -115h-40l163 145h30z" />
    <glyph glyph-name="hcircumflex" unicode="&#x125;" horiz-adv-x="605" 
d="M549 405l-64 -405h-35l64 405q6 42 -16 68.5t-64 26.5h-255l-79 -500h-35l110 700h35l-27 -170h255q56 0 87.5 -36t23.5 -89zM351 736h-40l-96 115l-134 -115h-40l163 145h30z" />
    <glyph glyph-name="Hbar" unicode="&#x126;" horiz-adv-x="690" 
d="M190 700h35l-15 -100h400l15 100h35l-15 -100h80l-5 -30h-80l-90 -570h-35l50 320h-400l-50 -320h-35l90 570h-80l5 30h80zM170 350h400l35 220h-400z" />
    <glyph glyph-name="hbar" unicode="&#x127;" horiz-adv-x="615" 
d="M470 0l48 305q7 42 -15.5 68.5t-64.5 26.5h-255l-63 -400h-35l87 550h-95l4 30h95l36 130h20l-21 -130h205l-4 -30h-205l-19 -120h255q56 0 87 -36t23 -89l-48 -305h-35z" />
    <glyph glyph-name="Itilde" unicode="&#x128;" horiz-adv-x="255" 
d="M190 700h35l-110 -700h-35zM236 805l-33 45q-3 5 -10 12q-13 13 -21 13h-5q-12 0 -22.5 -10t-12.5 -25l-10 -60h-30l10 60q4 26 23.5 43t45.5 17h5q18 0 37 -15l14 -15l32 -45q5 -7 10 -13q12 -12 22 -12h5q12 0 22.5 10t12.5 25l10 60h30l-10 -60q-4 -26 -23.5 -43
t-45.5 -17h-5q-20 0 -37 15q-9 7 -14 15z" />
    <glyph glyph-name="itilde" unicode="&#x129;" horiz-adv-x="215" 
d="M143 530h35l-83 -530h-35zM189 635l-33 45q-3 5 -10 12q-13 13 -21 13h-5q-12 0 -22.5 -10t-12.5 -25l-10 -60h-30l10 60q4 26 23.5 43t45.5 17h5q18 0 37 -15l14 -15l32 -45q5 -7 10 -13q12 -12 22 -12h5q12 0 22.5 10t12.5 25l10 60h30l-10 -60q-4 -26 -23.5 -43
t-45.5 -17h-5q-20 0 -37 15q-9 7 -14 15z" />
    <glyph glyph-name="Imacron" unicode="&#x12a;" horiz-adv-x="255" 
d="M190 700h35l-110 -700h-35zM379 840l-4 -30h-295l4 30h295z" />
    <glyph glyph-name="imacron" unicode="&#x12b;" horiz-adv-x="215" 
d="M143 530h35l-83 -530h-35zM335 691l-4 -30h-295l4 30h295z" />
    <glyph glyph-name="Ibreve" unicode="&#x12c;" horiz-adv-x="255" 
d="M190 700h35l-110 -700h-35zM267 775h-90q-34 0 -55.5 25.5t-15.5 59.5l4 30h30l-4 -30q-4 -23 9.5 -39t36.5 -16h90q23 0 41.5 16t22.5 39l4 30h30l-4 -30q-6 -34 -35.5 -59.5t-63.5 -25.5z" />
    <glyph glyph-name="ibreve" unicode="&#x12d;" horiz-adv-x="215" 
d="M143 530h35l-83 -530h-35zM223 625h-90q-34 0 -55.5 25.5t-15.5 59.5l4 30h30l-4 -30q-4 -23 9.5 -39t36.5 -16h90q23 0 41.5 16t22.5 39l4 30h30l-4 -30q-6 -34 -35.5 -59.5t-63.5 -25.5z" />
    <glyph glyph-name="Iogonek" unicode="&#x12e;" horiz-adv-x="255" 
d="M190 700h35l-112 -710q-24 -12 -55 -32q-57 -39 -62 -73q-3 -24 8 -39.5t34 -15.5h95l-4 -25h-95q-37 0 -54.5 22.5t-12.5 57.5q6 43 63 84q24 17 55 31h-5z" />
    <glyph glyph-name="iogonek" unicode="&#x12f;" horiz-adv-x="215" 
d="M143 530h35l-85 -540q-24 -12 -55 -32q-57 -39 -62 -73q-3 -24 8 -39.5t34 -15.5h95l-4 -25h-95q-36 0 -54 22.5t-13 57.5q6 43 63 84q24 17 55 31h-5zM174 720h35l-16 -100h-35z" />
    <glyph glyph-name="Idotaccent" unicode="&#x130;" horiz-adv-x="255" 
d="M190 700h35l-110 -700h-35zM212 860h40l-12 -80h-40z" />
    <glyph glyph-name="dotlessi" unicode="&#x131;" horiz-adv-x="215" 
d="M143 530h35l-83 -530h-35z" />
    <glyph glyph-name="IJ" unicode="&#x132;" horiz-adv-x="780" 
d="M190 700h35l-110 -700h-35zM483 -10h-250l5 30h250q57 0 93.5 31.5t45.5 88.5l88 560h35l-88 -560q-11 -69 -59 -109.5t-120 -40.5z" />
    <glyph glyph-name="ij" unicode="&#x133;" horiz-adv-x="465" 
d="M143 530h35l-83 -530h-35zM174 720h35l-16 -100h-35zM428 530l-91 -575q-8 -53 -50.5 -89t-98.5 -36h-94l4 30h94q42 0 73 26.5t37 68.5l91 575h35zM424 720h35l-16 -100h-35z" />
    <glyph glyph-name="Jcircumflex" unicode="&#x134;" horiz-adv-x="525" 
d="M228 -10h-250l5 30h250q57 0 93.5 31.5t45.5 88.5l88 560h35l-88 -560q-11 -69 -59 -109.5t-120 -40.5zM635 755h-40l-96 115l-134 -115h-40l163 145h30z" />
    <glyph glyph-name="jcircumflex" unicode="&#x135;" horiz-adv-x="250" 
d="M213 530l-91 -575q-8 -53 -50.5 -89t-98.5 -36h-94l4 30h94q42 0 73 26.5t37 68.5l91 575h35zM352 585h-40l-96 115l-134 -115h-40l163 145h30z" />
    <glyph glyph-name="Kcommaaccent" unicode="&#x136;" horiz-adv-x="630" 
d="M378 370l232 330h30l-3 -20l-231 -325l157 -335l-3 -20h-30l-157 340h-205l-53 -340h-35l110 700h35l-52 -330h205zM280 -30h40l-10 -60l-40 -125h-20z" />
    <glyph glyph-name="kcommaaccent" unicode="&#x137;" horiz-adv-x="550" 
d="M326 295l192 235h30l-3 -20l-191 -230l134 -260l-3 -20h-30l-134 265h-180l-41 -265h-35l110 700h35l-64 -405h180zM240 -30h40l-10 -60l-40 -125h-20z" />
    <glyph glyph-name="Lacute" unicode="&#x139;" horiz-adv-x="545" 
d="M190 700h35l-106 -670h390l-4 -30h-425zM323 930h45l-135 -160h-30z" />
    <glyph glyph-name="lacute" unicode="&#x13a;" horiz-adv-x="285" 
d="M83 115l92 585h35l-92 -585q-7 -42 15.5 -68.5t64.5 -26.5h25l-5 -30h-25q-56 0 -87 36t-23 89zM301 920h45l-135 -160h-30z" />
    <glyph glyph-name="Lcommaaccent" unicode="&#x13b;" horiz-adv-x="545" 
d="M190 700h35l-106 -670h390l-4 -30h-425zM262 -59h40l-10 -60l-40 -125h-20z" />
    <glyph glyph-name="lcommaaccent" unicode="&#x13c;" horiz-adv-x="285" 
d="M83 115l92 585h35l-92 -585q-7 -42 15.5 -68.5t64.5 -26.5h25l-5 -30h-25q-56 0 -87 36t-23 89zM92 -59h40l-10 -60l-40 -125h-20z" />
    <glyph glyph-name="Lcaron" unicode="&#x13d;" horiz-adv-x="545" 
d="M190 700h35l-106 -670h390l-4 -30h-425zM332 700h40l-9 -60l-42 -140h-20z" />
    <glyph glyph-name="lcaron" unicode="&#x13e;" horiz-adv-x="295" 
d="M83 115l92 585h35l-92 -585q-7 -42 15.5 -68.5t64.5 -26.5h25l-5 -30h-25q-56 0 -87 36t-23 89zM315 700h40l-9 -60l-42 -140h-20z" />
    <glyph glyph-name="Ldot" unicode="&#x13f;" horiz-adv-x="545" 
d="M190 700h35l-106 -670h390l-4 -30h-425zM307 415h40l-14 -90h-40z" />
    <glyph glyph-name="ldot" unicode="&#x140;" horiz-adv-x="295" 
d="M83 115l92 585h35l-92 -585q-7 -42 15.5 -68.5t64.5 -26.5h25l-5 -30h-25q-56 0 -87 36t-23 89zM258 405h40l-14 -90h-40z" />
    <glyph glyph-name="Lslash" unicode="&#x141;" horiz-adv-x="545" 
d="M190 700h35l-49 -312l116 72l-6 -40l-116 -72l-51 -318h390l-4 -30h-425l51 324l-89 -54l7 40l88 54z" />
    <glyph glyph-name="lslash" unicode="&#x142;" horiz-adv-x="285" 
d="M83 115l32 203l-73 -48l7 40l72 48l54 342h35l-50 -315l112 75l-6 -40l-112 -75l-36 -230q-7 -42 15.5 -68.5t64.5 -26.5h25l-5 -30h-25q-56 0 -87 36t-23 89z" />
    <glyph glyph-name="Nacute" unicode="&#x143;" horiz-adv-x="690" 
d="M505 0l-287 655h-5l-11 -105l-87 -550h-35l110 700h45l287 -655h5l11 105l87 550h35l-110 -700h-45zM523 910h45l-135 -160h-30z" />
    <glyph glyph-name="nacute" unicode="&#x144;" horiz-adv-x="600" 
d="M157 395l-62 -395h-35l83 530h25l-7 -80h5q14 26 33 45q45 45 96 45h140q56 0 87 -36t23 -89l-65 -415h-35l65 415q7 42 -15.5 68.5t-64.5 26.5h-140q-51 0 -97 -58q-19 -26 -36 -57zM456 770h45l-135 -160h-30z" />
    <glyph glyph-name="Ncommaaccent" unicode="&#x145;" horiz-adv-x="690" 
d="M505 0l-287 655h-5l-11 -105l-87 -550h-35l110 700h45l287 -655h5l11 105l87 550h35l-110 -700h-45zM288 -40h40l-10 -60l-40 -125h-20z" />
    <glyph glyph-name="ncommaaccent" unicode="&#x146;" horiz-adv-x="600" 
d="M157 395l-62 -395h-35l83 530h25l-7 -80h5q14 26 33 45q45 45 96 45h140q56 0 87 -36t23 -89l-65 -415h-35l65 415q7 42 -15.5 68.5t-64.5 26.5h-140q-51 0 -97 -58q-19 -26 -36 -57zM255 -30h40l-10 -60l-40 -125h-20z" />
    <glyph glyph-name="Ncaron" unicode="&#x147;" horiz-adv-x="690" 
d="M505 0l-287 655h-5l-11 -105l-87 -550h-35l110 700h45l287 -655h5l11 105l87 550h35l-110 -700h-45zM571 900h40l-163 -145h-30l-117 145h40l97 -115z" />
    <glyph glyph-name="ncaron" unicode="&#x148;" horiz-adv-x="600" 
d="M157 395l-62 -395h-35l83 530h25l-7 -80h5q14 26 33 45q45 45 96 45h140q56 0 87 -36t23 -89l-65 -415h-35l65 415q7 42 -15.5 68.5t-64.5 26.5h-140q-51 0 -97 -58q-19 -26 -36 -57zM492 750h40l-163 -145h-30l-117 145h40l97 -115z" />
    <glyph glyph-name="Omacron" unicode="&#x14c;" horiz-adv-x="665" 
d="M638 560l-66 -420q-11 -69 -59 -109.5t-120 -40.5h-185q-72 0 -107 40.5t-24 109.5l66 420q11 69 59 109.5t120 40.5h185q72 0 107 -40.5t24 -109.5zM213 20h185q57 0 93.5 31.5t45.5 88.5l66 420q9 57 -17.5 88.5t-83.5 31.5h-185q-57 0 -93.5 -31.5t-45.5 -88.5
l-66 -420q-9 -57 17.5 -88.5t83.5 -31.5zM583 850l-4 -30h-295l4 30h295z" />
    <glyph glyph-name="omacron" unicode="&#x14d;" horiz-adv-x="585" 
d="M63 115l47 300q8 53 51 89t99 36h175q56 0 87 -36t23 -89l-47 -300q-8 -53 -51 -89t-99 -36h-175q-56 0 -87 36t-23 89zM463 115l47 300q7 42 -15.5 68.5t-64.5 26.5h-175q-42 0 -72.5 -26.5t-37.5 -68.5l-47 -300q-7 -42 15.5 -68.5t64.5 -26.5h175q42 0 72.5 26.5
t37.5 68.5zM518 691l-4 -30h-295l4 30h295z" />
    <glyph glyph-name="Obreve" unicode="&#x14e;" horiz-adv-x="665" 
d="M638 560l-66 -420q-11 -69 -59 -109.5t-120 -40.5h-185q-72 0 -107 40.5t-24 109.5l66 420q11 69 59 109.5t120 40.5h185q72 0 107 -40.5t24 -109.5zM213 20h185q57 0 93.5 31.5t45.5 88.5l66 420q9 57 -17.5 88.5t-83.5 31.5h-185q-57 0 -93.5 -31.5t-45.5 -88.5
l-66 -420q-9 -57 17.5 -88.5t83.5 -31.5zM462 795h-90q-34 0 -55.5 25.5t-15.5 59.5l4 30h30l-4 -30q-4 -23 9.5 -39t36.5 -16h90q23 0 41.5 16t22.5 39l4 30h30l-4 -30q-6 -34 -35.5 -59.5t-63.5 -25.5z" />
    <glyph glyph-name="obreve" unicode="&#x14f;" horiz-adv-x="585" 
d="M63 115l47 300q8 53 51 89t99 36h175q56 0 87 -36t23 -89l-47 -300q-8 -53 -51 -89t-99 -36h-175q-56 0 -87 36t-23 89zM463 115l47 300q7 42 -15.5 68.5t-64.5 26.5h-175q-42 0 -72.5 -26.5t-37.5 -68.5l-47 -300q-7 -42 15.5 -68.5t64.5 -26.5h175q42 0 72.5 26.5
t37.5 68.5zM405 625h-90q-34 0 -55.5 25.5t-15.5 59.5l4 30h30l-4 -30q-4 -23 9.5 -39t36.5 -16h90q23 0 41.5 16t22.5 39l4 30h30l-4 -30q-6 -34 -35.5 -59.5t-63.5 -25.5z" />
    <glyph glyph-name="Ohungarumlaut" unicode="&#x150;" horiz-adv-x="665" 
d="M638 560l-66 -420q-11 -69 -59 -109.5t-120 -40.5h-185q-72 0 -107 40.5t-24 109.5l66 420q11 69 59 109.5t120 40.5h185q72 0 107 -40.5t24 -109.5zM213 20h185q57 0 93.5 31.5t45.5 88.5l66 420q9 57 -17.5 88.5t-83.5 31.5h-185q-57 0 -93.5 -31.5t-45.5 -88.5
l-66 -420q-9 -57 17.5 -88.5t83.5 -31.5zM440 940h40l-130 -160h-30zM595 940h40l-130 -160h-30z" />
    <glyph glyph-name="ohungarumlaut" unicode="&#x151;" horiz-adv-x="585" 
d="M63 115l47 300q8 53 51 89t99 36h175q56 0 87 -36t23 -89l-47 -300q-8 -53 -51 -89t-99 -36h-175q-56 0 -87 36t-23 89zM463 115l47 300q7 42 -15.5 68.5t-64.5 26.5h-175q-42 0 -72.5 -26.5t-37.5 -68.5l-47 -300q-7 -42 15.5 -68.5t64.5 -26.5h175q42 0 72.5 26.5
t37.5 68.5zM363 770h40l-130 -160h-30zM518 770h40l-130 -160h-30z" />
    <glyph glyph-name="OE" unicode="&#x152;" horiz-adv-x="950" 
d="M885 0h-675q-72 0 -107.5 41t-24.5 109l64 400q11 69 59 109.5t119 40.5h675l-3 -20l-11 -10h-380l-48 -300h310l-5 -30h-310l-49 -310h390zM214 30h250l102 640h-250q-57 0 -94 -31.5t-45 -88.5l-64 -400q-9 -57 17.5 -88.5t83.5 -31.5z" />
    <glyph glyph-name="oe" unicode="&#x153;" horiz-adv-x="970" 
d="M903 245h-385l-19 -125q-6 -39 16 -64.5t64 -25.5h270l-4 -30h-270q-51 0 -81 30q-12 12 -20 30q-15 -22 -31 -35q-39 -35 -95 -35h-175q-56 0 -87 36t-23 89l47 300q8 53 51 89t99 36h175q50 0 80 -30q13 -14 21 -30q12 16 30 30q40 30 94 30h160q56 0 87 -36t23 -89z
M464 120l46 295q7 42 -15.5 68.5t-64.5 26.5h-175q-42 0 -72.5 -26.5t-37.5 -68.5l-47 -300q-7 -42 15.5 -68.5t64.5 -26.5h175q42 0 72.5 27.5t38.5 72.5zM873 275l22 140q7 42 -15.5 68.5t-64.5 26.5h-160q-42 0 -72.5 -26.5t-37.5 -68.5l-22 -140h350z" />
    <glyph glyph-name="Racute" unicode="&#x154;" horiz-adv-x="655" 
d="M190 700h300q72 0 107.5 -41t24.5 -109l-18 -110q-11 -69 -59 -109.5t-120 -40.5l143 -270l-3 -20h-30l-144 290h-231l-45 -290h-35zM486 670h-265l-56 -350h265q57 0 93.5 31.5t45.5 88.5l18 110q8 57 -18 88.5t-83 31.5zM490 940h45l-135 -160h-30z" />
    <glyph glyph-name="racute" unicode="&#x155;" horiz-adv-x="425" 
d="M157 395l-62 -395h-35l83 530h25l-7 -80h5q14 26 33 45q45 45 96 45h165l-5 -30h-165q-51 0 -97 -58q-19 -26 -36 -57zM388 770h45l-135 -160h-30z" />
    <glyph glyph-name="Rcommaaccent" unicode="&#x156;" horiz-adv-x="655" 
d="M190 700h300q72 0 107.5 -41t24.5 -109l-18 -110q-11 -69 -59 -109.5t-120 -40.5l143 -270l-3 -20h-30l-144 290h-231l-45 -290h-35zM486 670h-265l-56 -350h265q57 0 93.5 31.5t45.5 88.5l18 110q8 57 -18 88.5t-83 31.5zM282 -30h40l-10 -60l-40 -125h-20z" />
    <glyph glyph-name="rcommaaccent" unicode="&#x157;" horiz-adv-x="425" 
d="M157 395l-62 -395h-35l83 530h25l-7 -80h5q14 26 33 45q45 45 96 45h165l-5 -30h-165q-51 0 -97 -58q-19 -26 -36 -57zM50 -69h40l-10 -60l-40 -125h-20z" />
    <glyph glyph-name="Rcaron" unicode="&#x158;" horiz-adv-x="655" 
d="M190 700h300q72 0 107.5 -41t24.5 -109l-18 -110q-11 -69 -59 -109.5t-120 -40.5l143 -270l-3 -20h-30l-144 290h-231l-45 -290h-35zM486 670h-265l-56 -350h265q57 0 93.5 31.5t45.5 88.5l18 110q8 57 -18 88.5t-83 31.5zM536 920h40l-163 -145h-30l-117 145h40l97 -115
z" />
    <glyph glyph-name="rcaron" unicode="&#x159;" horiz-adv-x="425" 
d="M157 395l-62 -395h-35l83 530h25l-7 -80h5q14 26 33 45q45 45 96 45h165l-5 -30h-165q-51 0 -97 -58q-19 -26 -36 -57zM436 760h40l-163 -145h-30l-117 145h40l97 -115z" />
    <glyph glyph-name="Sacute" unicode="&#x15a;" 
d="M104 505l8 45q11 69 59 109.5t119 40.5h285l-3 -20l-11 -10h-275q-57 0 -94 -31.5t-45 -88.5l-8 -45q-6 -39 14.5 -67.5t54.5 -37.5l226 -55q50 -12 76 -47.5t18 -87.5l-10 -60q-11 -69 -59 -109.5t-119 -40.5h-315l4 30h315q57 0 93.5 31.5t45.5 88.5l10 60q6 40 -14 68
t-55 37l-226 55q-50 12 -76 47.5t-18 87.5zM463 940h45l-135 -160h-30z" />
    <glyph glyph-name="sacute" unicode="&#x15b;" horiz-adv-x="515" 
d="M177 300l195 -30q48 -8 71.5 -36.5t16.5 -73.5l-6 -40q-9 -54 -48 -87t-96 -33h-290l4 30h290q42 0 70 24t35 66l6 40q11 68 -62 80l-196 30q-49 8 -72 37t-15 73l4 30q9 54 48 87t96 33h265l-3 -20l-11 -10h-255q-42 0 -70 -24t-35 -66l-4 -30q-11 -68 62 -80zM403 770
h45l-135 -160h-30z" />
    <glyph glyph-name="Scircumflex" unicode="&#x15c;" 
d="M104 505l8 45q11 69 59 109.5t119 40.5h285l-3 -20l-11 -10h-275q-57 0 -94 -31.5t-45 -88.5l-8 -45q-6 -39 14.5 -67.5t54.5 -37.5l226 -55q50 -12 76 -47.5t18 -87.5l-10 -60q-11 -69 -59 -109.5t-119 -40.5h-315l4 30h315q57 0 93.5 31.5t45.5 88.5l10 60q6 40 -14 68
t-55 37l-226 55q-50 12 -76 47.5t-18 87.5zM526 775h-40l-96 115l-134 -115h-40l163 145h30z" />
    <glyph glyph-name="scircumflex" unicode="&#x15d;" horiz-adv-x="515" 
d="M177 300l195 -30q48 -8 71.5 -36.5t16.5 -73.5l-6 -40q-9 -54 -48 -87t-96 -33h-290l4 30h290q42 0 70 24t35 66l6 40q11 68 -62 80l-196 30q-49 8 -72 37t-15 73l4 30q9 54 48 87t96 33h265l-3 -20l-11 -10h-255q-42 0 -70 -24t-35 -66l-4 -30q-11 -68 62 -80zM477 611
h-40l-96 115l-134 -115h-40l163 145h30z" />
    <glyph glyph-name="Scedilla" unicode="&#x15e;" 
d="M104 505l8 45q11 69 59 109.5t119 40.5h285l-3 -20l-11 -10h-275q-57 0 -94 -31.5t-45 -88.5l-8 -45q-6 -39 14.5 -67.5t54.5 -37.5l226 -55q50 -12 76 -47.5t18 -87.5l-10 -60q-11 -69 -59 -109.5t-119 -40.5h-95l-10 -60h50q38 0 55.5 -20.5t12.5 -54.5l-4 -25
q-5 -34 -29.5 -54.5t-62.5 -20.5h-110l4 25h110q23 0 38.5 13.5t19.5 36.5l4 25q4 23 -7.5 36.5t-34.5 13.5h-80l14 85h-190l4 30h315q57 0 93.5 31.5t45.5 88.5l10 60q6 40 -14 68t-55 37l-226 55q-50 12 -76 47.5t-18 87.5z" />
    <glyph glyph-name="scedilla" unicode="&#x15f;" horiz-adv-x="515" 
d="M177 300l195 -30q48 -8 71.5 -36.5t16.5 -73.5l-6 -40q-9 -54 -48 -87t-96 -33h-98l-10 -60h50q38 0 55.5 -20.5t12.5 -54.5l-4 -25q-5 -34 -29.5 -54.5t-62.5 -20.5h-110l4 25h110q23 0 38.5 13.5t19.5 36.5l4 25q4 23 -7.5 36.5t-34.5 13.5h-80l14 85h-162l4 30h290
q42 0 70 24t35 66l6 40q11 68 -62 80l-196 30q-49 8 -72 37t-15 73l4 30q9 54 48 87t96 33h265l-3 -20l-11 -10h-255q-42 0 -70 -24t-35 -66l-4 -30q-11 -68 62 -80z" />
    <glyph glyph-name="Scaron" unicode="&#x160;" 
d="M104 505l8 45q11 69 59 109.5t119 40.5h285l-3 -20l-11 -10h-275q-57 0 -94 -31.5t-45 -88.5l-8 -45q-6 -39 14.5 -67.5t54.5 -37.5l226 -55q50 -12 76 -47.5t18 -87.5l-10 -60q-11 -69 -59 -109.5t-119 -40.5h-315l4 30h315q57 0 93.5 31.5t45.5 88.5l10 60q6 40 -14 68
t-55 37l-226 55q-50 12 -76 47.5t-18 87.5zM509 915h40l-163 -145h-30l-117 145h40l97 -115z" />
    <glyph glyph-name="scaron" unicode="&#x161;" horiz-adv-x="515" 
d="M177 300l195 -30q48 -8 71.5 -36.5t16.5 -73.5l-6 -40q-9 -54 -48 -87t-96 -33h-290l4 30h290q42 0 70 24t35 66l6 40q11 68 -62 80l-196 30q-49 8 -72 37t-15 73l4 30q9 54 48 87t96 33h265l-3 -20l-11 -10h-255q-42 0 -70 -24t-35 -66l-4 -30q-11 -68 62 -80zM449 750
h40l-163 -145h-30l-117 145h40l97 -115z" />
    <glyph glyph-name="Tcommaaccent" unicode="&#x162;" horiz-adv-x="545" 
d="M366 670l-106 -670h-35l106 670h-235l4 30h505l-3 -20l-11 -10h-225zM212 -59h40l-10 -60l-40 -125h-20z" />
    <glyph glyph-name="tcommaaccent" unicode="&#x163;" horiz-adv-x="425" 
d="M108 115l61 385h-100l4 30h100l38 140h20l-23 -140h170l-4 -30h-170l-61 -385q-7 -42 15.5 -68.5t64.5 -26.5h155l-5 -30h-155q-56 0 -87 36t-23 89zM189 -79h40l-10 -60l-40 -125h-20z" />
    <glyph glyph-name="Tcaron" unicode="&#x164;" horiz-adv-x="545" 
d="M366 670l-106 -670h-35l106 670h-235l4 30h505l-3 -20l-11 -10h-225zM501 920h40l-163 -145h-30l-117 145h40l97 -115z" />
    <glyph glyph-name="tcaron" unicode="&#x165;" horiz-adv-x="455" 
d="M108 115l61 385h-100l4 30h100l38 140h20l-23 -140h170l-4 -30h-170l-61 -385q-7 -42 15.5 -68.5t64.5 -26.5h155l-5 -30h-155q-56 0 -87 36t-23 89zM470 671h40l-9 -60l-42 -140h-20z" />
    <glyph glyph-name="Tbar" unicode="&#x166;" horiz-adv-x="545" 
d="M562 520l-5 -30h-220l-77 -490h-35l77 490h-220l5 30h220l24 150h-235l4 30h505l-3 -20l-11 -10h-225l-24 -150h220z" />
    <glyph glyph-name="tbar" unicode="&#x167;" horiz-adv-x="425" 
d="M108 115l42 265h-95l4 30h95l15 90h-100l4 30h100l38 140h20l-23 -140h170l-4 -30h-170l-15 -90h165l-4 -30h-165l-42 -265q-7 -42 15.5 -68.5t64.5 -26.5h155l-5 -30h-155q-56 0 -87 36t-23 89z" />
    <glyph glyph-name="Utilde" unicode="&#x168;" horiz-adv-x="705" 
d="M238 20h175q57 0 93.5 31.5t45.5 88.5l88 560h35l-88 -560q-11 -69 -59 -109.5t-120 -40.5h-175q-72 0 -107 40.5t-24 109.5l88 560h35l-88 -560q-9 -57 17.5 -88.5t83.5 -31.5zM455 785l-33 45q-3 5 -10 12q-13 13 -21 13h-5q-12 0 -22.5 -10t-12.5 -25l-10 -60h-30
l10 60q4 26 23.5 43t45.5 17h5q18 0 37 -15l14 -15l32 -45q5 -7 10 -13q12 -12 22 -12h5q12 0 22.5 10t12.5 25l10 60h30l-10 -60q-4 -26 -23.5 -43t-45.5 -17h-5q-20 0 -37 15q-9 7 -14 15z" />
    <glyph glyph-name="utilde" unicode="&#x169;" horiz-adv-x="600" 
d="M466 135l62 395h35l-83 -530h-25l7 80h-5q-13 -26 -33 -45q-45 -45 -96 -45h-140q-56 0 -87 36t-23 89l65 415h35l-65 -415q-7 -42 15.5 -68.5t64.5 -26.5h140q51 0 96 57q21 27 37 58zM378 625l-33 45q-3 5 -10 12q-13 13 -21 13h-5q-12 0 -22.5 -10t-12.5 -25l-10 -60
h-30l10 60q4 26 23.5 43t45.5 17h5q18 0 37 -15l14 -15l32 -45q5 -7 10 -13q12 -12 22 -12h5q12 0 22.5 10t12.5 25l10 60h30l-10 -60q-4 -26 -23.5 -43t-45.5 -17h-5q-20 0 -37 15q-9 7 -14 15z" />
    <glyph glyph-name="Umacron" unicode="&#x16a;" horiz-adv-x="705" 
d="M238 20h175q57 0 93.5 31.5t45.5 88.5l88 560h35l-88 -560q-11 -69 -59 -109.5t-120 -40.5h-175q-72 0 -107 40.5t-24 109.5l88 560h35l-88 -560q-9 -57 17.5 -88.5t83.5 -31.5zM602 840l-4 -30h-295l4 30h295z" />
    <glyph glyph-name="umacron" unicode="&#x16b;" horiz-adv-x="600" 
d="M466 135l62 395h35l-83 -530h-25l7 80h-5q-13 -26 -33 -45q-45 -45 -96 -45h-140q-56 0 -87 36t-23 89l65 415h35l-65 -415q-7 -42 15.5 -68.5t64.5 -26.5h140q51 0 96 57q21 27 37 58zM523 681l-4 -30h-295l4 30h295z" />
    <glyph glyph-name="Ubreve" unicode="&#x16c;" horiz-adv-x="705" 
d="M238 20h175q57 0 93.5 31.5t45.5 88.5l88 560h35l-88 -560q-11 -69 -59 -109.5t-120 -40.5h-175q-72 0 -107 40.5t-24 109.5l88 560h35l-88 -560q-9 -57 17.5 -88.5t83.5 -31.5zM487 765h-90q-34 0 -55.5 25.5t-15.5 59.5l4 30h30l-4 -30q-4 -23 9.5 -39t36.5 -16h90
q23 0 41.5 16t22.5 39l4 30h30l-4 -30q-6 -34 -35.5 -59.5t-63.5 -25.5z" />
    <glyph glyph-name="ubreve" unicode="&#x16d;" horiz-adv-x="600" 
d="M466 135l62 395h35l-83 -530h-25l7 80h-5q-13 -26 -33 -45q-45 -45 -96 -45h-140q-56 0 -87 36t-23 89l65 415h35l-65 -415q-7 -42 15.5 -68.5t64.5 -26.5h140q51 0 96 57q21 27 37 58zM410 605h-90q-34 0 -55.5 25.5t-15.5 59.5l4 30h30l-4 -30q-4 -23 9.5 -39t36.5 -16
h90q23 0 41.5 16t22.5 39l4 30h30l-4 -30q-6 -34 -35.5 -59.5t-63.5 -25.5z" />
    <glyph glyph-name="Uring" unicode="&#x16e;" horiz-adv-x="705" 
d="M238 20h175q57 0 93.5 31.5t45.5 88.5l88 560h35l-88 -560q-11 -69 -59 -109.5t-120 -40.5h-175q-72 0 -107 40.5t-24 109.5l88 560h35l-88 -560q-9 -57 17.5 -88.5t83.5 -31.5zM350 815l6 40q6 34 30 54.5t62 20.5h40q38 0 56 -20.5t12 -54.5l-6 -40q-5 -34 -29.5 -54.5
t-62.5 -20.5h-40q-38 0 -55.5 20.5t-12.5 54.5zM520 815l6 40q4 23 -7.5 36.5t-34.5 13.5h-40q-23 0 -38.5 -13.5t-19.5 -36.5l-6 -40q-4 -23 7.5 -36.5t34.5 -13.5h40q23 0 38.5 13.5t19.5 36.5z" />
    <glyph glyph-name="uring" unicode="&#x16f;" horiz-adv-x="600" 
d="M466 135l62 395h35l-83 -530h-25l7 80h-5q-13 -26 -33 -45q-45 -45 -96 -45h-140q-56 0 -87 36t-23 89l65 415h35l-65 -415q-7 -42 15.5 -68.5t64.5 -26.5h140q51 0 96 57q21 27 37 58zM281 645l6 40q6 34 30 54.5t62 20.5h40q38 0 56 -20.5t12 -54.5l-6 -40
q-5 -34 -29.5 -54.5t-62.5 -20.5h-40q-38 0 -55.5 20.5t-12.5 54.5zM451 645l6 40q4 23 -7.5 36.5t-34.5 13.5h-40q-23 0 -38.5 -13.5t-19.5 -36.5l-6 -40q-4 -23 7.5 -36.5t34.5 -13.5h40q23 0 38.5 13.5t19.5 36.5z" />
    <glyph glyph-name="Uhungarumlaut" unicode="&#x170;" horiz-adv-x="705" 
d="M238 20h175q57 0 93.5 31.5t45.5 88.5l88 560h35l-88 -560q-11 -69 -59 -109.5t-120 -40.5h-175q-72 0 -107 40.5t-24 109.5l88 560h35l-88 -560q-9 -57 17.5 -88.5t83.5 -31.5zM458 930h40l-130 -160h-30zM613 930h40l-130 -160h-30z" />
    <glyph glyph-name="uhungarumlaut" unicode="&#x171;" horiz-adv-x="601" 
d="M466 135l62 395h35l-83 -530h-25l7 80h-5q-13 -26 -33 -45q-45 -45 -96 -45h-140q-56 0 -87 36t-23 89l65 415h35l-65 -415q-7 -42 15.5 -68.5t64.5 -26.5h140q51 0 96 57q21 27 37 58zM369 760h40l-130 -160h-30zM524 760h40l-130 -160h-30z" />
    <glyph glyph-name="Uogonek" unicode="&#x172;" horiz-adv-x="705" 
d="M238 20h175q57 0 93.5 31.5t45.5 88.5l88 560h35l-88 -560q-11 -69 -59 -109.5t-120 -40.5h-30q-24 -12 -55 -32q-57 -39 -62 -73q-3 -24 8 -39.5t34 -15.5h95l-4 -25h-95q-37 0 -55 22.5t-13 57.5q5 34 35 61t63 44h-96q-72 0 -107 40.5t-24 109.5l88 560h35l-88 -560
q-9 -57 17.5 -88.5t83.5 -31.5z" />
    <glyph glyph-name="uogonek" unicode="&#x173;" horiz-adv-x="600" 
d="M466 135l62 395h35l-85 -540q-24 -12 -55 -32q-57 -39 -62 -73q-3 -24 8 -39.5t34 -15.5h95l-4 -25h-95q-37 0 -55 22.5t-13 57.5q6 43 64 84q24 17 55 31h5l7 80h-5q-13 -26 -33 -45q-45 -45 -96 -45h-140q-56 0 -87 36t-23 89l65 415h35l-65 -415q-7 -42 15.5 -68.5
t64.5 -26.5h140q51 0 96 57q21 27 37 58z" />
    <glyph glyph-name="Wcircumflex" unicode="&#x174;" horiz-adv-x="915" 
d="M211 40l287 550h45l113 -550h5l259 660h30l-3 -20l-272 -680h-45l-113 555h-5l-287 -555h-45l-58 680l3 20h30l51 -660h5zM697 735h-40l-96 115l-134 -115h-40l163 145h30z" />
    <glyph glyph-name="wcircumflex" unicode="&#x175;" horiz-adv-x="775" 
d="M424 405h-5l-229 -405h-40l-60 510l3 20h30l53 -490h5l223 400h45l97 -400h5l207 490h30l-3 -20l-220 -510h-40zM597 546h-40l-96 115l-134 -115h-40l163 145h30z" />
    <glyph glyph-name="Ycircumflex" unicode="&#x176;" horiz-adv-x="595" 
d="M140 700l166 -440h5l304 440h30l-3 -20l-322 -455l-35 -225h-35l35 225l-178 455l3 20h30zM540 755h-40l-96 115l-134 -115h-40l163 145h30z" />
    <glyph glyph-name="ycircumflex" unicode="&#x177;" horiz-adv-x="520" 
d="M540 510l-288 -555q-64 -125 -159 -125h-60l4 30h60q74 0 120 95l15 30l1 5l-153 520l3 20h30l142 -495h5l253 495h30zM479 605h-40l-96 115l-134 -115h-40l163 145h30z" />
    <glyph glyph-name="Ydieresis" unicode="&#x178;" horiz-adv-x="595" 
d="M140 700l166 -440h5l304 440h30l-3 -20l-322 -455l-35 -225h-35l35 225l-178 455l3 20h30zM284 840h40l-12 -80h-40zM474 840h40l-12 -80h-40z" />
    <glyph glyph-name="Zacute" unicode="&#x179;" horiz-adv-x="550" 
d="M489 30l-4 -30h-480l4 30l526 635l1 5h-415l-9 10l3 20h470l-4 -30l-526 -635l-1 -5h435zM448 940h45l-135 -160h-30z" />
    <glyph glyph-name="zacute" unicode="&#x17a;" horiz-adv-x="485" 
d="M424 30l-4 -30h-415l4 30l434 465l1 5h-350l-9 10l3 20h405l-4 -30l-434 -465l-1 -5h370zM388 770h45l-135 -160h-30z" />
    <glyph glyph-name="Zdotaccent" unicode="&#x17b;" horiz-adv-x="550" 
d="M489 30l-4 -30h-480l4 30l526 635l1 5h-415l-9 10l3 20h470l-4 -30l-526 -635l-1 -5h435zM361 870h40l-12 -80h-40z" />
    <glyph glyph-name="zdotaccent" unicode="&#x17c;" horiz-adv-x="485" 
d="M424 30l-4 -30h-415l4 30l434 465l1 5h-350l-9 10l3 20h405l-4 -30l-434 -465l-1 -5h370zM303 710h40l-12 -80h-40z" />
    <glyph glyph-name="Zcaron" unicode="&#x17d;" horiz-adv-x="550" 
d="M489 30l-4 -30h-480l4 30l526 635l1 5h-415l-9 10l3 20h470l-4 -30l-526 -635l-1 -5h435zM504 915h40l-163 -145h-30l-117 145h40l97 -115z" />
    <glyph glyph-name="zcaron" unicode="&#x17e;" horiz-adv-x="485" 
d="M424 30l-4 -30h-415l4 30l434 465l1 5h-350l-9 10l3 20h405l-4 -30l-434 -465l-1 -5h370zM435 755h40l-163 -145h-30l-117 145h40l97 -115z" />
    <glyph glyph-name="florin" unicode="&#x192;" horiz-adv-x="365" 
d="M192 585l-21 -135h195l-5 -30h-195l-74 -465q-8 -53 -50.5 -89t-97.5 -36h-55l4 30h55q41 0 72 26.5t37 68.5l100 630q8 53 51 89t99 36h200l-3 -20l-12 -10h-190q-42 0 -72.5 -26.5t-37.5 -68.5z" />
    <glyph glyph-name="AEacute" unicode="&#x1fc;" horiz-adv-x="945" 
d="M445 0l39 250h-320l-164 -250h-30l3 20l452 680h565l-3 -20l-11 -10h-390l-48 -300h320l-5 -30h-320l-49 -310h400l-4 -30h-435zM446 670l-262 -390h305l62 390h-105zM755 940h45l-135 -160h-30z" />
    <glyph glyph-name="aeacute" unicode="&#x1fd;" horiz-adv-x="950" 
d="M163 530h250q47 0 79 -30q15 -15 22 -30q12 17 33 35q43 35 93 35h160q56 0 87 -36t23 -89l-27 -170h-385l-19 -120q-6 -42 16 -68.5t64 -26.5h270l-4 -30h-270q-60 0 -89 45q-12 18 -17 45q-16 -27 -37 -50q-48 -50 -104 -50h-140q-56 0 -87 36t-23 89l6 40q8 53 51 89
t99 36h255l20 125q6 42 -16 68.5t-64 26.5h-250zM853 275l22 140q7 42 -15.5 68.5t-64.5 26.5h-160q-41 0 -71 -25t-38 -65l-2 -15l-21 -130h350zM464 250h-255q-42 0 -72.5 -26.5t-37.5 -68.5l-6 -40q-7 -42 15.5 -68.5t64.5 -26.5h140q51 0 96 57q21 27 37 58zM641 770h45
l-135 -160h-30z" />
    <glyph glyph-name="Oslashacute" unicode="&#x1fe;" horiz-adv-x="665" 
d="M127 -50h-30l3 20l25 41q-64 40 -48 129l66 420q11 69 59 109.5t120 40.5h185q24 0 52 -7l29 47h30l-3 -20l-25 -41q62 -40 48 -129l-66 -420q-11 -69 -59 -109.5t-120 -40.5h-185q-26 0 -52 7zM213 20h185q57 0 93.5 31.5t45.5 88.5l66 420q10 70 -32 101l-398 -636
q15 -5 40 -5zM178 560l-66 -420q-12 -69 31 -101l398 636q-20 5 -39 5h-185q-57 0 -93.5 -31.5t-45.5 -88.5zM525 940h45l-135 -160h-30z" />
    <glyph glyph-name="oslashacute" unicode="&#x1ff;" horiz-adv-x="585" 
d="M63 115l47 300q8 53 51 89t99 36h175q24 0 46 -8l35 48h25l-3 -20l-31 -42q49 -36 38 -103l-47 -300q-8 -53 -51 -89t-99 -36h-175q-23 0 -47 8l-34 -48h-25l3 20l30 42q-48 36 -37 103zM463 115l47 300q8 48 -23 75l-341 -465q18 -5 32 -5h175q42 0 72.5 26.5t37.5 68.5
zM145 415l-47 -300q-7 -48 23 -75l340 465q-17 5 -31 5h-175q-42 0 -72.5 -26.5t-37.5 -68.5zM448 770h45l-135 -160h-30z" />
    <glyph glyph-name="Scommaaccent" unicode="&#x218;" 
d="M104 505l8 45q11 69 59 109.5t119 40.5h285l-3 -20l-11 -10h-275q-57 0 -94 -31.5t-45 -88.5l-8 -45q-6 -39 14.5 -67.5t54.5 -37.5l226 -55q50 -12 76 -47.5t18 -87.5l-10 -60q-11 -69 -59 -109.5t-119 -40.5h-315l4 30h315q57 0 93.5 31.5t45.5 88.5l10 60q6 40 -14 68
t-55 37l-226 55q-50 12 -76 47.5t-18 87.5zM235 -69h40l-10 -60l-40 -125h-20z" />
    <glyph glyph-name="scommaaccent" unicode="&#x219;" horiz-adv-x="515" 
d="M177 300l195 -30q48 -8 71.5 -36.5t16.5 -73.5l-6 -40q-9 -54 -48 -87t-96 -33h-290l4 30h290q42 0 70 24t35 66l6 40q11 68 -62 80l-196 30q-49 8 -72 37t-15 73l4 30q9 54 48 87t96 33h265l-3 -20l-11 -10h-255q-42 0 -70 -24t-35 -66l-4 -30q-11 -68 62 -80zM195 -69
h40l-10 -60l-40 -125h-20z" />
    <glyph glyph-name="circumflex" unicode="&#x2c6;" horiz-adv-x="390" 
d="M407 555h-40l-96 115l-134 -115h-40l163 145h30z" />
    <glyph glyph-name="caron" unicode="&#x2c7;" horiz-adv-x="390" 
d="M390 700h40l-163 -145h-30l-117 145h40l97 -115z" />
    <glyph glyph-name="breve" unicode="&#x2d8;" horiz-adv-x="340" 
d="M277 585h-90q-34 0 -55.5 25.5t-15.5 59.5l4 30h30l-4 -30q-4 -23 9.5 -39t36.5 -16h90q23 0 41.5 16t22.5 39l4 30h30l-4 -30q-6 -34 -35.5 -59.5t-63.5 -25.5z" />
    <glyph glyph-name="dotaccent" unicode="&#x2d9;" horiz-adv-x="120" 
d="M120 700h40l-12 -80h-40z" />
    <glyph glyph-name="ring" unicode="&#x2da;" horiz-adv-x="280" 
d="M102 585l6 40q6 34 30 54.5t62 20.5h40q38 0 56 -20.5t12 -54.5l-6 -40q-5 -34 -29.5 -54.5t-62.5 -20.5h-40q-38 0 -55.5 20.5t-12.5 54.5zM272 585l6 40q4 23 -7.5 36.5t-34.5 13.5h-40q-23 0 -38.5 -13.5t-19.5 -36.5l-6 -40q-4 -23 7.5 -36.5t34.5 -13.5h40
q23 0 38.5 13.5t19.5 36.5z" />
    <glyph glyph-name="ogonek" unicode="&#x2db;" horiz-adv-x="255" 
d="M110 0h30l-2 -10q-24 -12 -55 -32q-57 -39 -62 -73q-3 -24 8 -39.5t34 -15.5h95l-4 -25h-95q-37 0 -55 22.5t-13 57.5q6 43 64 84q24 17 55 31z" />
    <glyph glyph-name="tilde" unicode="&#x2dc;" horiz-adv-x="340" 
d="M245 605l-33 45q-3 5 -10 12q-13 13 -21 13h-5q-12 0 -22.5 -10t-12.5 -25l-10 -60h-30l10 60q4 26 23.5 43t45.5 17h5q18 0 37 -15l14 -15l32 -45q5 -7 10 -13q12 -12 22 -12h5q12 0 22.5 10t12.5 25l10 60h30l-10 -60q-4 -26 -23.5 -43t-45.5 -17h-5q-20 0 -37 15
q-9 7 -14 15z" />
    <glyph glyph-name="hungarumlaut" unicode="&#x2dd;" horiz-adv-x="370" 
d="M215 700h40l-130 -160h-30zM370 700h40l-130 -160h-30z" />
    <glyph glyph-name="afii10023" unicode="&#x401;" 
d="M309 880h40l-13 -80h-40zM529 880h40l-13 -80h-40zM80 0l110 700h435l-3 -20l-11 -10h-390l-48 -300h320l-5 -30h-320l-49 -310h400l-4 -30h-435z" />
    <glyph glyph-name="afii10051" unicode="&#x402;" horiz-adv-x="685" 
d="M261 670l-38 -240h270q72 0 107 -40.5t24 -109.5l-26 -165q-8 -52 -52.5 -88.5t-97.5 -36.5h-45l5 30h45q42 0 72.5 26.5t37.5 68.5l26 165q9 57 -17.5 88.5t-83.5 31.5h-270l-63 -400h-35l106 670h-150l4 30h405l-3 -20l-11 -10h-210z" />
    <glyph glyph-name="afii10052" unicode="&#x403;" horiz-adv-x="545" 
d="M505 920h45l-135 -160h-30zM115 0h-35l110 700h425l-3 -20l-11 -10h-380z" />
    <glyph glyph-name="afii10053" unicode="&#x404;" horiz-adv-x="565" 
d="M214 30h290l-4 -30h-290q-72 0 -107.5 41t-24.5 109l64 400q11 69 59 109.5t119 40.5h290l-3 -20l-11 -10h-280q-57 0 -94 -31.5t-45 -88.5l-30 -185h295l-4 -30h-295l-30 -185q-9 -57 17.5 -88.5t83.5 -31.5z" />
    <glyph glyph-name="afii10054" unicode="&#x405;" 
d="M104 505l8 45q11 69 59 109.5t119 40.5h285l-3 -20l-11 -10h-275q-57 0 -94 -31.5t-45 -88.5l-8 -45q-6 -39 14.5 -67.5t54.5 -37.5l226 -55q50 -12 76 -47.5t18 -87.5l-10 -60q-11 -69 -59 -109.5t-119 -40.5h-315l4 30h315q57 0 93.5 31.5t45.5 88.5l10 60q6 40 -14 68
t-55 37l-226 55q-50 12 -76 47.5t-18 87.5z" />
    <glyph glyph-name="afii10055" unicode="&#x406;" horiz-adv-x="255" 
d="M190 700h35l-110 -700h-35z" />
    <glyph glyph-name="afii10056" unicode="&#x407;" horiz-adv-x="275" 
d="M200 700h35l-110 -700h-35zM116 860h40l-13 -80h-40zM331 860h40l-13 -80h-40z" />
    <glyph glyph-name="afii10057" unicode="&#x408;" horiz-adv-x="525" 
d="M228 -10h-250l5 30h250q57 0 93.5 31.5t45.5 88.5l88 560h35l-88 -560q-11 -69 -59 -109.5t-120 -40.5z" />
    <glyph glyph-name="afii10058" unicode="&#x409;" horiz-adv-x="1005" 
d="M255 700h360l-46 -290h255q72 0 107.5 -41t24.5 -109l-18 -110q-11 -69 -59 -109.5t-119 -40.5h-290l106 670h-295l-130 -535q-16 -63 -61 -104t-97 -41h-15l5 30h15q39 0 72.5 31.5t45.5 83.5zM903 150l18 110q9 57 -17.5 88.5t-83.5 31.5h-255l-56 -350h255
q57 0 93.5 31.5t45.5 88.5z" />
    <glyph glyph-name="afii10059" unicode="&#x40a;" horiz-adv-x="1020" 
d="M190 700h35l-47 -300h370l47 300h35l-47 -300h255q72 0 107 -40.5t24 -109.5l-16 -100q-11 -69 -59 -109.5t-119 -40.5h-290l58 370h-370l-58 -370h-35zM918 150l16 100q9 57 -17.5 88.5t-83.5 31.5h-255l-54 -340h255q57 0 93.5 31.5t45.5 88.5z" />
    <glyph glyph-name="afii10060" unicode="&#x40b;" horiz-adv-x="690" 
d="M261 670l-38 -240h270q72 0 107 -40.5t24 -109.5l-44 -280h-35l44 280q9 57 -17.5 88.5t-83.5 31.5h-270l-63 -400h-35l106 670h-150l4 30h405l-3 -20l-11 -10h-210z" />
    <glyph glyph-name="afii10061" unicode="&#x40c;" horiz-adv-x="630" 
d="M492 900h45l-135 -160h-30zM378 370l232 330h30l-3 -20l-231 -325l157 -335l-3 -20h-30l-157 340h-205l-53 -340h-35l110 700h35l-52 -330h205z" />
    <glyph glyph-name="afii10062" unicode="&#x40e;" horiz-adv-x="600" 
d="M110 700h30l180 -510h5l295 510h30l-3 -20l-328 -560q-76 -130 -186 -130h-50l5 30h50q88 0 146 100l13 25l-190 535zM453 750h-110q-34 0 -55 25.5t-16 59.5l5 35h30l-5 -35q-4 -23 9.5 -39t36.5 -16h110q23 0 41.5 16t22.5 39l5 35h30l-5 -35q-6 -34 -35.5 -59.5
t-63.5 -25.5z" />
    <glyph glyph-name="afii10145" unicode="&#x40f;" horiz-adv-x="690" 
d="M80 0l110 700h35l-106 -670h400l106 670h35l-110 -700h-215l-33 -140h-20l13 140h-215z" />
    <glyph glyph-name="afii10017" unicode="&#x410;" horiz-adv-x="625" 
d="M530 0l-44 200h-345l-106 -200h-30l3 20l362 680h45l148 -680l-3 -20h-30zM384 660l-228 -430h325l-92 430h-5z" />
    <glyph glyph-name="afii10018" unicode="&#x411;" horiz-adv-x="655" 
d="M190 700h435l-3 -20l-11 -10h-390l-43 -270h285q72 0 107 -40.5t24 -109.5l-16 -100q-11 -69 -59 -109.5t-119 -40.5h-320zM543 150l16 100q9 57 -17.5 88.5t-83.5 31.5h-285l-54 -340h285q57 0 93.5 31.5t45.5 88.5z" />
    <glyph glyph-name="afii10019" unicode="&#x412;" horiz-adv-x="665" 
d="M190 700h295q72 0 107.5 -41t24.5 -109l-9 -55q-11 -65 -56 -102q-17 -15 -44 -23l-1 -5q32 -8 54 -25q51 -37 39 -115l-12 -75q-11 -69 -59 -109.5t-119 -40.5h-330zM119 30h295q57 0 93.5 31.5t45.5 88.5l12 75q9 57 -17.5 88.5t-83.5 31.5h-295zM481 670h-260
l-47 -295h264q55 0 90.5 31.5t44.5 88.5l9 55q8 57 -18 88.5t-83 31.5z" />
    <glyph glyph-name="afii10020" unicode="&#x413;" horiz-adv-x="545" 
d="M115 0h-35l110 700h425l-3 -20l-11 -10h-380z" />
    <glyph glyph-name="afii10021" unicode="&#x414;" horiz-adv-x="715" 
d="M270 700h390l-106 -670h100l-27 -170h-30l18 140h-600l-28 -140h-29l26 170h50q30 22 43 34q44 40 56 86zM296 670l-128 -520q-12 -46 -50 -84q-15 -15 -38 -31l-1 -5h440l102 640h-325z" />
    <glyph glyph-name="afii10022" unicode="&#x415;" 
d="M80 0l110 700h435l-3 -20l-11 -10h-390l-48 -300h320l-5 -30h-320l-49 -310h400l-4 -30h-435z" />
    <glyph glyph-name="afii10024" unicode="&#x416;" horiz-adv-x="965" 
d="M180 700l118 -330h195l52 330h35l-52 -330h195l222 330h30l-3 -20l-221 -325l147 -335l-3 -20h-30l-147 340h-195l-53 -340h-35l53 340h-195l-253 -340h-30l3 20l253 335l-119 325l3 20h30z" />
    <glyph glyph-name="afii10025" unicode="&#x417;" horiz-adv-x="555" 
d="M396 670h-275l-9 10l3 20h285q72 0 107.5 -41t24.5 -109l-9 -55q-11 -68 -65 -106q-24 -17 -51 -24v-5q29 -8 48 -24q46 -38 35 -111l-12 -75q-11 -69 -59 -109.5t-119 -40.5h-305l4 30h305q57 0 93.5 31.5t45.5 88.5l12 75q9 57 -17.5 88.5t-83.5 31.5h-175l5 30h169
q56 0 91 31.5t44 88.5l9 55q8 57 -18 88.5t-83 31.5z" />
    <glyph glyph-name="afii10026" unicode="&#x418;" horiz-adv-x="690" 
d="M618 655l-493 -655h-45l110 700h35l-87 -550l-21 -105h5l493 655h45l-110 -700h-35l87 550l21 105h-5z" />
    <glyph glyph-name="afii10027" unicode="&#x419;" horiz-adv-x="690" 
d="M491 770h-110q-34 0 -55 25.5t-16 59.5l5 35h30l-5 -35q-4 -23 9.5 -39t36.5 -16h110q23 0 41.5 16t22.5 39l5 35h30l-5 -35q-6 -34 -35.5 -59.5t-63.5 -25.5zM618 655l-493 -655h-45l110 700h35l-87 -550l-21 -105h5l493 655h45l-110 -700h-35l87 550l21 105h-5z" />
    <glyph glyph-name="afii10028" unicode="&#x41a;" horiz-adv-x="630" 
d="M378 370l232 330h30l-3 -20l-231 -325l157 -335l-3 -20h-30l-157 340h-205l-53 -340h-35l110 700h35l-52 -330h205z" />
    <glyph glyph-name="afii10029" unicode="&#x41b;" horiz-adv-x="680" 
d="M255 700h395l-110 -700h-35l106 670h-330l-130 -535q-16 -63 -61 -104t-97 -41h-15l5 30h15q39 0 72.5 31.5t45.5 83.5z" />
    <glyph glyph-name="afii10030" unicode="&#x41c;" horiz-adv-x="955" 
d="M484 90h-45l-160 570h-5l-194 -660h-30l3 20l202 680h45l164 -575h5l346 575h45l-12 -680l-3 -20h-30l14 660h-5z" />
    <glyph glyph-name="afii10031" unicode="&#x41d;" horiz-adv-x="690" 
d="M190 700h35l-52 -330h400l52 330h35l-110 -700h-35l53 340h-400l-53 -340h-35z" />
    <glyph glyph-name="afii10032" unicode="&#x41e;" horiz-adv-x="665" 
d="M638 560l-66 -420q-11 -69 -59 -109.5t-120 -40.5h-185q-72 0 -107 40.5t-24 109.5l66 420q11 69 59 109.5t120 40.5h185q72 0 107 -40.5t24 -109.5zM213 20h185q57 0 93.5 31.5t45.5 88.5l66 420q9 57 -17.5 88.5t-83.5 31.5h-185q-57 0 -93.5 -31.5t-45.5 -88.5
l-66 -420q-9 -57 17.5 -88.5t83.5 -31.5z" />
    <glyph glyph-name="afii10033" unicode="&#x41f;" horiz-adv-x="690" 
d="M190 700h470l-110 -700h-35l106 670h-400l-106 -670h-35z" />
    <glyph glyph-name="afii10034" unicode="&#x420;" horiz-adv-x="635" 
d="M190 700h300q72 0 107.5 -41t24.5 -109l-24 -150q-11 -69 -59 -109.5t-120 -40.5h-265l-39 -250h-35zM486 670h-265l-62 -390h265q57 0 93.5 31.5t45.5 88.5l24 150q8 57 -18 88.5t-83 31.5z" />
    <glyph glyph-name="afii10035" unicode="&#x421;" horiz-adv-x="565" 
d="M214 30h290l-4 -30h-290q-72 0 -107.5 41t-24.5 109l64 400q11 69 59 109.5t119 40.5h290l-3 -20l-11 -10h-280q-57 0 -94 -31.5t-45 -88.5l-64 -400q-9 -57 17.5 -88.5t83.5 -31.5z" />
    <glyph glyph-name="afii10036" unicode="&#x422;" horiz-adv-x="545" 
d="M366 670l-106 -670h-35l106 670h-235l4 30h505l-3 -20l-11 -10h-225z" />
    <glyph glyph-name="afii10037" unicode="&#x423;" horiz-adv-x="600" 
d="M110 700h30l180 -510h5l295 510h30l-3 -20l-328 -560q-76 -130 -186 -130h-50l5 30h50q88 0 146 100l13 25l-190 535z" />
    <glyph glyph-name="afii10038" unicode="&#x424;" horiz-adv-x="911" 
d="M561 750l-16 -105h208q72 0 107 -40.5t24 -109.5l-46 -290q-11 -69 -59 -109.5t-120 -40.5h-208l-15 -95h-35l15 95h-208q-72 0 -107 40.5t-24 109.5l46 290q11 69 59 109.5t120 40.5h208l16 105h35zM748 615h-208l-84 -530h208q57 0 93.5 31.5t45.5 88.5l46 290
q9 57 -17.5 88.5t-83.5 31.5zM213 85h208l84 530h-208q-57 0 -93.5 -31.5t-45.5 -88.5l-46 -290q-9 -57 17.5 -88.5t83.5 -31.5z" />
    <glyph glyph-name="afii10039" unicode="&#x425;" horiz-adv-x="595" 
d="M500 0l-177 335h-5l-283 -335h-30l3 20l294 340l-170 320l3 20h30l160 -315h5l260 315h30l-3 -20l-270 -320l186 -340l-3 -20h-30z" />
    <glyph glyph-name="afii10040" unicode="&#x426;" horiz-adv-x="705" 
d="M605 0h-525l110 700h35l-106 -670h390l106 670h35l-106 -670h100l-27 -170h-30z" />
    <glyph glyph-name="afii10041" unicode="&#x427;" horiz-adv-x="650" 
d="M252 300h270l63 400h35l-110 -700h-35l42 270h-270q-72 0 -107 40.5t-24 109.5l44 280h35l-44 -280q-9 -57 17.5 -88.5t83.5 -31.5z" />
    <glyph glyph-name="afii10042" unicode="&#x428;" horiz-adv-x="1025" 
d="M885 0h-805l110 700h35l-106 -670h350l106 670h35l-106 -670h350l106 670h35z" />
    <glyph glyph-name="afii10043" unicode="&#x429;" horiz-adv-x="1050" 
d="M80 0l110 700h35l-106 -670h350l106 670h35l-106 -670h350l106 670h35l-106 -670h100l-27 -170h-30l18 140h-870z" />
    <glyph glyph-name="afii10044" unicode="&#x42a;" horiz-adv-x="705" 
d="M80 700h215l-46 -290h275q72 0 107.5 -41t24.5 -109l-18 -110q-11 -69 -59 -109.5t-119 -40.5h-310l106 670h-180zM603 150l18 110q9 57 -17.5 88.5t-83.5 31.5h-275l-56 -350h275q57 0 93.5 31.5t45.5 88.5z" />
    <glyph glyph-name="afii10045" unicode="&#x42b;" horiz-adv-x="905" 
d="M190 700h35l-46 -290h275q72 0 107.5 -41t24.5 -109l-18 -110q-11 -69 -59 -109.5t-119 -40.5h-310zM533 150l18 110q9 57 -17.5 88.5t-83.5 31.5h-275l-56 -350h275q57 0 93.5 31.5t45.5 88.5zM840 700h35l-110 -700h-35z" />
    <glyph glyph-name="afii10046" unicode="&#x42c;" horiz-adv-x="645" 
d="M190 700h35l-46 -290h285q72 0 107.5 -41t24.5 -109l-18 -110q-11 -69 -59 -109.5t-119 -40.5h-320zM543 150l18 110q9 57 -17.5 88.5t-83.5 31.5h-285l-56 -350h285q57 0 93.5 31.5t45.5 88.5z" />
    <glyph glyph-name="afii10047" unicode="&#x42d;" horiz-adv-x="565" 
d="M9 30h290q57 0 93.5 31.5t45.5 88.5l30 185h-295l4 30h295l30 185q8 57 -18 88.5t-83 31.5h-280l-9 10l3 20h290q72 0 107.5 -41t24.5 -109l-64 -400q-11 -69 -59 -109.5t-119 -40.5h-290z" />
    <glyph glyph-name="afii10048" unicode="&#x42e;" horiz-adv-x="905" 
d="M878 560l-66 -420q-11 -69 -59 -109.5t-120 -40.5h-165q-72 0 -107 40.5t-24 109.5l31 200h-200l-53 -340h-35l110 700h35l-52 -330h200l30 190q11 69 59 109.5t120 40.5h165q72 0 107 -40.5t24 -109.5zM473 20h165q57 0 93.5 31.5t45.5 88.5l66 420q9 57 -17.5 88.5
t-83.5 31.5h-165q-57 0 -93.5 -31.5t-45.5 -88.5l-66 -420q-9 -57 17.5 -88.5t83.5 -31.5z" />
    <glyph glyph-name="afii10049" unicode="&#x42f;" horiz-adv-x="655" 
d="M515 0h-35l45 290h-205l-250 -290h-30l3 20l237 270h-30q-72 0 -107 40.5t-24 109.5l18 110q11 69 59 109.5t119 40.5h310zM172 550l-18 -110q-9 -57 17.5 -88.5t83.5 -31.5h275l56 350h-275q-57 0 -94 -31.5t-45 -88.5z" />
    <glyph glyph-name="afii10065" unicode="&#x430;" 
d="M58 115l46 290q8 53 50.5 89t98.5 36h290l-83 -530h-25l7 80h-5q-13 -26 -33 -45q-45 -45 -96 -45h-140q-56 0 -87 36t-23 89zM504 500h-255q-42 0 -73 -26.5t-37 -68.5l-46 -290q-7 -42 15.5 -68.5t64.5 -26.5h140q51 0 96 57q21 27 37 58z" />
    <glyph glyph-name="afii10066" unicode="&#x431;" horiz-adv-x="595" 
d="M545 350l-37 -235q-8 -53 -51 -89t-99 -36h-170q-56 0 -87 36t-23 89l65 415q11 70 54.5 112.5t107.5 52.5l277 45v-30l-277 -45q-49 -9 -83.5 -43t-43.5 -92l-8 -55h265q56 0 87 -36t23 -89zM473 115l37 235q7 42 -15.5 68.5t-64.5 26.5h-265l-52 -330
q-7 -42 15.5 -68.5t64.5 -26.5h170q42 0 72.5 26.5t37.5 68.5z" />
    <glyph glyph-name="afii10067" unicode="&#x432;" horiz-adv-x="575" 
d="M143 530h270q56 0 87.5 -36t23.5 -89l-4 -25q-10 -56 -52 -86q-17 -13 -40 -19l-1 -5q25 -4 45 -19q42 -32 33 -91l-6 -35q-8 -53 -50.5 -89t-98.5 -36h-290zM99 30h255q42 0 73 26.5t37 68.5l6 35q7 42 -15.5 68.5t-64.5 26.5h-255zM409 500h-235l-34 -215h235
q42 0 72.5 26.5t37.5 68.5l4 25q6 42 -16 68.5t-64 26.5z" />
    <glyph glyph-name="afii10068" unicode="&#x433;" horiz-adv-x="530" 
d="M176 265l200 30q77 12 88 80l5 35q7 42 -13 66t-62 24h-250l-9 10l3 20h260q57 0 86 -33.5t20 -86.5l-5 -35q-8 -45 -40 -73.5t-83 -36.5l-199 -30q-77 -12 -88 -80l-5 -35q-7 -42 13 -66t62 -24h270l-4 -30h-270q-57 0 -86 33.5t-20 86.5l5 35q8 45 40 73.5t82 36.5z
" />
    <glyph glyph-name="afii10069" unicode="&#x434;" horiz-adv-x="595" 
d="M135 350l-37 -235q-7 -42 15.5 -68.5t64.5 -26.5h170q42 0 72.5 26.5t37.5 68.5l52 330h-265q-42 0 -72.5 -26.5t-37.5 -68.5zM63 115l37 235q8 53 51 89t99 36h265l8 55q9 58 -14 92t-69 43l-243 45l10 30l243 -45q61 -10 90 -52.5t18 -112.5l-65 -415q-8 -53 -51 -89
t-99 -36h-170q-56 0 -87 36t-23 89z" />
    <glyph glyph-name="afii10070" unicode="&#x435;" horiz-adv-x="560" 
d="M372 235h-255l-18 -110q-6 -42 16 -68.5t64 -26.5h270l-4 -30h-270q-56 0 -87.5 36t-23.5 89l46 290q8 53 51 89t99 36h160q56 0 87 -36t23 -89l-8 -55q-10 -54 -51.5 -89.5t-98.5 -35.5zM487 360l8 55q7 42 -15.5 68.5t-64.5 26.5h-160q-42 0 -72.5 -26.5t-37.5 -68.5
l-24 -150h255q42 0 73 26.5t38 68.5z" />
    <glyph glyph-name="afii10072" unicode="&#x436;" horiz-adv-x="835" 
d="M138 530l107 -245h170l38 245h35l-38 -245h170l183 245h30l-3 -20l-183 -240l126 -250l-3 -20h-30l-125 255h-170l-40 -255h-35l40 255h-170l-205 -255h-30l3 20l204 250l-107 240l3 20h30z" />
    <glyph glyph-name="afii10073" unicode="&#x437;" horiz-adv-x="500" 
d="M344 500h-245l-9 10l3 20h255q56 0 87.5 -36t23.5 -89l-4 -25q-9 -52 -54 -84q-19 -13 -43 -21l-1 -5q24 -8 42 -21q40 -32 31 -89l-6 -35q-8 -53 -51 -89t-98 -36h-280l4 30h280q42 0 73 26.5t37 68.5l6 35q7 42 -16 68.5t-64 26.5h-160l5 30h150q42 0 72.5 26.5
t37.5 68.5l4 25q6 42 -16 68.5t-64 26.5z" />
    <glyph glyph-name="afii10074" unicode="&#x438;" horiz-adv-x="600" 
d="M466 135l62 395h35l-83 -530h-25l7 80h-5q-13 -26 -33 -45q-45 -45 -96 -45h-140q-56 0 -87 36t-23 89l65 415h35l-65 -415q-7 -42 15.5 -68.5t64.5 -26.5h140q51 0 96 57q21 27 37 58z" />
    <glyph glyph-name="afii10075" unicode="&#x439;" horiz-adv-x="600" 
d="M410 605h-90q-34 0 -55 25.5t-16 59.5l5 30h30l-5 -30q-4 -23 9.5 -39t36.5 -16h90q23 0 41.5 16t22.5 39l5 30h30l-5 -30q-6 -34 -35.5 -59.5t-63.5 -25.5zM466 135l62 395h35l-83 -530h-25l7 80h-5q-13 -26 -33 -45q-45 -45 -96 -45h-140q-56 0 -87 36t-23 89l65 415
h35l-65 -415q-7 -42 15.5 -68.5t64.5 -26.5h140q51 0 96 57q21 27 37 58z" />
    <glyph glyph-name="afii10076" unicode="&#x43a;" horiz-adv-x="545" 
d="M320 285l193 245h30l-3 -20l-193 -240l136 -250l-3 -20h-30l-135 255h-180l-40 -255h-35l83 530h35l-38 -245h180z" />
    <glyph glyph-name="afii10077" unicode="&#x43b;" horiz-adv-x="590" 
d="M-22 -10l5 30h10q39 0 69 29t43 81l98 400h350l-83 -530h-35l79 500h-285l-89 -370q-15 -63 -57 -101.5t-95 -38.5h-10z" />
    <glyph glyph-name="afii10078" unicode="&#x43c;" horiz-adv-x="785" 
d="M381 105l272 425h45l-5 -510l-3 -20h-30l7 490h-5l-266 -420h-45l-134 420h-5l-147 -490h-30l3 20l155 510h45l138 -425h5z" />
    <glyph glyph-name="afii10079" unicode="&#x43d;" horiz-adv-x="600" 
d="M95 0h-35l83 530h35l-39 -250h350l39 250h35l-83 -530h-35l39 250h-350z" />
    <glyph glyph-name="afii10080" unicode="&#x43e;" horiz-adv-x="585" 
d="M63 115l47 300q8 53 51 89t99 36h175q56 0 87 -36t23 -89l-47 -300q-8 -53 -51 -89t-99 -36h-175q-56 0 -87 36t-23 89zM463 115l47 300q7 42 -15.5 68.5t-64.5 26.5h-175q-42 0 -72.5 -26.5t-37.5 -68.5l-47 -300q-7 -42 15.5 -68.5t64.5 -26.5h175q42 0 72.5 26.5
t37.5 68.5z" />
    <glyph glyph-name="afii10081" unicode="&#x43f;" horiz-adv-x="600" 
d="M157 395l-62 -395h-35l83 530h25l-7 -80h5q14 26 33 45q45 45 96 45h140q56 0 87 -36t23 -89l-65 -415h-35l65 415q7 42 -15.5 68.5t-64.5 26.5h-140q-51 0 -97 -58q-19 -26 -36 -57z" />
    <glyph glyph-name="afii10082" unicode="&#x440;" horiz-adv-x="585" 
d="M143 530h25l-7 -80h5q14 26 33 45q45 45 96 45h140q56 0 87 -36t23 -89l-46 -290q-8 -53 -50.5 -89t-98.5 -36h-255l-27 -170h-35zM157 395l-58 -365h255q42 0 73 26.5t37 68.5l46 290q7 42 -15.5 68.5t-64.5 26.5h-140q-51 0 -97 -58q-19 -26 -36 -57z" />
    <glyph glyph-name="afii10083" unicode="&#x441;" horiz-adv-x="500" 
d="M144 405l-45 -280q-6 -42 16 -68.5t64 -26.5h260l-4 -30h-260q-56 0 -87.5 36t-23.5 89l45 280q8 53 50.5 89t98.5 36h260l-3 -20l-11 -10h-250q-42 0 -73 -26.5t-37 -68.5z" />
    <glyph glyph-name="afii10084" unicode="&#x442;" horiz-adv-x="895" 
d="M615 540h115q56 0 87 -36t23 -89l-65 -415h-35l65 415q7 42 -15.5 68.5t-64.5 26.5h-115q-42 0 -72.5 -26.5t-37.5 -68.5l-65 -415h-35l65 415q7 42 -15.5 68.5t-64.5 26.5h-95q-51 0 -97 -58q-19 -26 -36 -57l-62 -395h-35l83 530h25l-7 -80h5q14 26 33 45q45 45 96 45
h95q48 0 79 -35q12 -15 20 -35h5q11 17 30 35q41 35 91 35z" />
    <glyph glyph-name="afii10085" unicode="&#x443;" horiz-adv-x="520" 
d="M540 510l-288 -555q-64 -125 -159 -125h-60l4 30h60q74 0 120 95l15 30l1 5l-153 520l3 20h30l142 -495h5l253 495h30z" />
    <glyph glyph-name="afii10086" unicode="&#x444;" horiz-adv-x="785" 
d="M64 125l45 280q8 53 50.5 89t98.5 36h170l29 180h35l-29 -180h170q56 0 87.5 -36t23.5 -89l-45 -280q-8 -53 -50.5 -89t-98.5 -36h-170l-27 -170h-35l27 170h-170q-56 0 -87.5 36t-23.5 89zM144 405l-45 -280q-6 -42 16 -68.5t64 -26.5h170l75 470h-170q-42 0 -73 -26.5
t-37 -68.5zM629 500h-170l-75 -470h170q42 0 73 26.5t37 68.5l45 280q6 42 -16 68.5t-64 26.5z" />
    <glyph glyph-name="afii10087" unicode="&#x445;" horiz-adv-x="505" 
d="M128 530l137 -240h5l213 240h30l-3 -20l-224 -245l162 -245l-3 -20h-30l-152 240h-5l-228 -240h-30l3 20l238 245l-146 245l3 20h30z" />
    <glyph glyph-name="afii10088" unicode="&#x446;" horiz-adv-x="620" 
d="M452 80h-5q-13 -26 -33 -45q-45 -45 -96 -45h-130q-56 0 -87 36t-23 89l65 415h35l-65 -415q-7 -42 15.5 -68.5t64.5 -26.5h130q51 0 96 57q21 27 37 58l62 395h35l-71 -450q-3 -18 9.5 -34t27.5 -16h50l-25 -160h-30l16 130h-15q-27 0 -47 25t-16 55z" />
    <glyph glyph-name="afii10089" unicode="&#x447;" horiz-adv-x="575" 
d="M96 325l32 205h35l-32 -205q-7 -42 15.5 -68.5t64.5 -26.5h245l47 300h35l-83 -530h-35l31 200h-245q-56 0 -87 36t-23 89z" />
    <glyph glyph-name="afii10090" unicode="&#x448;" horiz-adv-x="865" 
d="M288 -10h-100q-56 0 -87 36t-23 89l65 415h35l-65 -415q-7 -42 15.5 -68.5t64.5 -26.5h100q42 0 72.5 26.5t37.5 68.5l65 415h35l-65 -415q-7 -42 15.5 -68.5t64.5 -26.5h80q51 0 96 57q21 27 37 58l62 395h35l-83 -530h-25l7 80h-5q-14 -26 -33 -45q-45 -45 -96 -45h-80
q-52 0 -80 35q-13 14 -19 35h-5q-15 -22 -31 -35q-37 -35 -90 -35z" />
    <glyph glyph-name="afii10091" unicode="&#x449;" horiz-adv-x="895" 
d="M288 -10h-100q-56 0 -87 36t-23 89l65 415h35l-65 -415q-7 -42 15.5 -68.5t64.5 -26.5h100q42 0 72.5 26.5t37.5 68.5l65 415h35l-65 -415q-7 -42 15.5 -68.5t64.5 -26.5h80q51 0 96 57q21 27 37 58l62 395h35l-71 -450q-3 -18 9.5 -34t27.5 -16h50l-25 -160h-30l16 130
h-15q-27 0 -47 25t-16 55h-5q-14 -26 -33 -45q-45 -45 -96 -45h-80q-52 0 -80 35q-13 14 -19 35h-5q-15 -22 -31 -35q-37 -35 -90 -35z" />
    <glyph glyph-name="afii10092" unicode="&#x44a;" horiz-adv-x="620" 
d="M49 500l4 30h205l-31 -200h235q56 0 87 -36t23 -89l-13 -80q-8 -53 -50.5 -89t-98.5 -36h-270l79 500h-170zM524 125l13 80q7 42 -15.5 68.5t-64.5 26.5h-235l-43 -270h235q42 0 73 26.5t37 68.5z" />
    <glyph glyph-name="afii10093" unicode="&#x44b;" horiz-adv-x="775" 
d="M620 0l83 530h35l-83 -530h-35zM492 205l-13 -80q-8 -53 -50.5 -89t-98.5 -36h-270l83 530h35l-31 -200h235q56 0 87 -36t23 -89zM444 125l13 80q7 42 -15.5 68.5t-64.5 26.5h-235l-43 -270h235q42 0 73 26.5t37 68.5z" />
    <glyph glyph-name="afii10094" unicode="&#x44c;" horiz-adv-x="550" 
d="M502 205l-13 -80q-8 -53 -50.5 -89t-98.5 -36h-280l83 530h35l-31 -200h245q56 0 87 -36t23 -89zM454 125l13 80q7 42 -15.5 68.5t-64.5 26.5h-245l-43 -270h245q42 0 73 26.5t37 68.5z" />
    <glyph glyph-name="afii10095" unicode="&#x44d;" horiz-adv-x="500" 
d="M379 125l20 125h-245l5 30h245l20 125q6 42 -16 68.5t-64 26.5h-250l-9 10l3 20h260q56 0 87.5 -36t23.5 -89l-45 -280q-8 -53 -50.5 -89t-98.5 -36h-260l4 30h260q42 0 73 26.5t37 68.5z" />
    <glyph glyph-name="afii10096" unicode="&#x44e;" horiz-adv-x="810" 
d="M314 280l21 135q8 53 51 89t99 36h175q56 0 87 -36t23 -89l-47 -300q-8 -53 -51 -89t-99 -36h-175q-56 0 -87 36t-23 89l21 135h-175l-39 -250h-35l83 530h35l-39 -250h175zM688 115l47 300q7 42 -15.5 68.5t-64.5 26.5h-175q-42 0 -72.5 -26.5t-37.5 -68.5l-47 -300
q-7 -42 15.5 -68.5t64.5 -26.5h175q42 0 72.5 26.5t37.5 68.5z" />
    <glyph glyph-name="afii10097" unicode="&#x44f;" horiz-adv-x="570" 
d="M93 340l11 65q8 53 50.5 89t98.5 36h280l-83 -530h-35l34 215h-185l-209 -215h-30l3 20l196 195h-20q-56 0 -87.5 36t-23.5 89zM139 405l-11 -65q-6 -42 16 -68.5t64 -26.5h245l41 255h-245q-42 0 -73 -26.5t-37 -68.5z" />
    <glyph glyph-name="afii10071" unicode="&#x451;" horiz-adv-x="560" 
d="M237 710h40l-13 -80h-40zM457 710h40l-13 -80h-40zM372 235h-255l-18 -110q-6 -42 16 -68.5t64 -26.5h270l-4 -30h-270q-56 0 -87.5 36t-23.5 89l46 290q8 53 51 89t99 36h160q56 0 87 -36t23 -89l-8 -55q-10 -54 -51.5 -89.5t-98.5 -35.5zM487 360l8 55q7 42 -15.5 68.5
t-64.5 26.5h-160q-42 0 -72.5 -26.5t-37.5 -68.5l-24 -150h255q42 0 73 26.5t38 68.5z" />
    <glyph glyph-name="afii10099" unicode="&#x452;" horiz-adv-x="605" 
d="M488 115l30 190q7 42 -15.5 68.5t-64.5 26.5h-255l-63 -400h-35l87 550h-95l4 30h95l36 130h20l-21 -130h205l-4 -30h-205l-19 -120h255q56 0 87 -36t23 -89l-30 -190q-8 -53 -51 -89t-99 -36h-35l5 30h35q42 0 72.5 26.5t37.5 68.5z" />
    <glyph glyph-name="afii10100" unicode="&#x453;" horiz-adv-x="530" 
d="M433 750h45l-135 -160h-30zM176 265l200 30q77 12 88 80l5 35q7 42 -13 66t-62 24h-250l-9 10l3 20h260q57 0 86 -33.5t20 -86.5l-5 -35q-8 -45 -40 -73.5t-83 -36.5l-199 -30q-77 -12 -88 -80l-5 -35q-7 -42 13 -66t62 -24h270l-4 -30h-270q-57 0 -86 33.5t-20 86.5
l5 35q8 45 40 73.5t82 36.5z" />
    <glyph glyph-name="afii10101" unicode="&#x454;" horiz-adv-x="500" 
d="M119 250l-20 -125q-6 -42 16 -68.5t64 -26.5h260l-4 -30h-260q-56 0 -87.5 36t-23.5 89l45 280q8 53 50.5 89t98.5 36h260l-3 -20l-11 -10h-250q-42 0 -73 -26.5t-37 -68.5l-20 -125h250l-5 -30h-250z" />
    <glyph glyph-name="afii10102" unicode="&#x455;" horiz-adv-x="515" 
d="M177 300l195 -30q48 -8 71.5 -36.5t16.5 -73.5l-6 -40q-9 -54 -48 -87t-96 -33h-290l4 30h290q42 0 70 24t35 66l6 40q11 68 -62 80l-196 30q-49 8 -72 37t-15 73l4 30q9 54 48 87t96 33h265l-3 -20l-11 -10h-255q-42 0 -70 -24t-35 -66l-4 -30q-11 -68 62 -80z" />
    <glyph glyph-name="afii10103" unicode="&#x456;" horiz-adv-x="215" 
d="M143 530h35l-83 -530h-35zM174 720h35l-16 -100h-35z" />
    <glyph glyph-name="afii10104" unicode="&#x457;" horiz-adv-x="275" 
d="M173 530h35l-83 -530h-35zM90 700h40l-12 -80h-40zM305 700h40l-12 -80h-40z" />
    <glyph glyph-name="afii10105" unicode="&#x458;" horiz-adv-x="250" 
d="M213 530l-91 -575q-8 -53 -50.5 -89t-98.5 -36h-94l4 30h94q42 0 73 26.5t37 68.5l91 575h35zM209 720h35l-16 -100h-35z" />
    <glyph glyph-name="afii10106" unicode="&#x459;" horiz-adv-x="880" 
d="M829 185l-10 -60q-8 -53 -50.5 -89t-98.5 -36h-265l79 500h-255l-89 -370q-15 -63 -57 -101.5t-95 -38.5h-10l5 30h10q39 0 69 29t43 81l98 400h320l-34 -220h230q56 0 87 -36t23 -89zM784 125l10 60q7 42 -15.5 68.5t-64.5 26.5h-230l-40 -250h230q42 0 73 26.5t37 68.5
z" />
    <glyph glyph-name="afii10107" unicode="&#x45a;" horiz-adv-x="885" 
d="M832 175l-8 -50q-8 -53 -50.5 -89t-98.5 -36h-265l42 270h-315l-42 -270h-35l83 530h35l-36 -230h315l36 230h35l-36 -230h230q56 0 87 -36t23 -89zM789 125l8 50q7 42 -15.5 68.5t-64.5 26.5h-230l-38 -240h230q42 0 73 26.5t37 68.5z" />
    <glyph glyph-name="afii10108" unicode="&#x45b;" horiz-adv-x="615" 
d="M470 0l48 305q7 42 -15.5 68.5t-64.5 26.5h-255l-63 -400h-35l87 550h-95l4 30h95l36 130h20l-21 -130h205l-4 -30h-205l-19 -120h255q56 0 87 -36t23 -89l-48 -305h-35z" />
    <glyph glyph-name="afii10109" unicode="&#x45c;" horiz-adv-x="545" 
d="M433 750h45l-135 -160h-30zM320 285l193 245h30l-3 -20l-193 -240l136 -250l-3 -20h-30l-135 255h-180l-40 -255h-35l83 530h35l-38 -245h180z" />
    <glyph glyph-name="afii10110" unicode="&#x45e;" horiz-adv-x="510" 
d="M530 510l-288 -555q-64 -125 -159 -125h-60l4 30h60q74 0 120 95l15 30l1 5l-143 520l3 20h30l132 -495h5l253 495h30zM367 585h-90q-34 0 -55.5 25.5t-15.5 59.5l4 30h30l-4 -30q-4 -23 9.5 -39t36.5 -16h90q23 0 41.5 16t22.5 39l4 30h30l-4 -30q-6 -34 -35.5 -59.5
t-63.5 -25.5z" />
    <glyph glyph-name="afii10193" unicode="&#x45f;" horiz-adv-x="600" 
d="M250 0h-190l83 530h35l-79 -500h350l79 500h35l-83 -530h-190l-31 -130h-20z" />
    <glyph glyph-name="uni0472" unicode="&#x472;" horiz-adv-x="665" 
d="M638 560l-66 -420q-11 -69 -59 -109.5t-120 -40.5h-185q-72 0 -107 40.5t-24 109.5l66 420q11 69 59 109.5t120 40.5h185q72 0 107 -40.5t24 -109.5zM213 20h185q57 0 93.5 31.5t45.5 88.5l31 195h-425l-31 -195q-9 -57 17.5 -88.5t83.5 -31.5zM178 560l-31 -195h425
l31 195q9 57 -17.5 88.5t-83.5 31.5h-185q-57 0 -93.5 -31.5t-45.5 -88.5z" />
    <glyph glyph-name="uni0473" unicode="&#x473;" horiz-adv-x="585" 
d="M63 115l47 300q8 53 51 89t99 36h175q56 0 87 -36t23 -89l-47 -300q-8 -53 -51 -89t-99 -36h-175q-56 0 -87 36t-23 89zM463 115l21 135h-365l-21 -135q-7 -42 15.5 -68.5t64.5 -26.5h175q42 0 72.5 26.5t37.5 68.5zM145 415l-21 -135h365l21 135q7 42 -15.5 68.5
t-64.5 26.5h-175q-42 0 -72.5 -26.5t-37.5 -68.5z" />
    <glyph glyph-name="afii10050" unicode="&#x490;" horiz-adv-x="545" 
d="M580 700l29 115h25l-23 -145h-390l-106 -670h-35l110 700h390z" />
    <glyph glyph-name="afii10098" unicode="&#x491;" horiz-adv-x="460" 
d="M499 500h-325l-79 -500h-35l83 530h325l27 105h25z" />
    <glyph glyph-name="uni0492" unicode="&#x492;" horiz-adv-x="545" 
d="M115 0h-35l57 360h-90l4 30h90l49 310h425l-3 -20l-11 -10h-380l-45 -280h195l-4 -30h-195z" />
    <glyph glyph-name="uni0493" unicode="&#x493;" horiz-adv-x="465" 
d="M315 290l-4 -30h-175l-41 -260h-35l41 260h-70l4 30h70l38 240h365l-3 -20l-11 -10h-320l-34 -210h175z" />
    <glyph glyph-name="uni0496" unicode="&#x496;" horiz-adv-x="970" 
d="M900 0h-35l-147 340h-195l-53 -340h-35l53 340h-195l-253 -340h-30l3 20l253 335l-119 325l3 20h30l118 -330h195l52 330h35l-52 -330h195l222 330h30l-3 -20l-221 -325l142 -325h46l-27 -170h-30z" />
    <glyph glyph-name="uni0497" unicode="&#x497;" horiz-adv-x="850" 
d="M775 0h-35l-125 255h-170l-40 -255h-35l40 255h-170l-205 -255h-30l3 20l204 250l-107 240l3 20h30l107 -245h170l38 245h35l-38 -245h170l183 245h30l-3 -20l-183 -240l120 -240h47l-25 -160h-30z" />
    <glyph glyph-name="uni0498" unicode="&#x498;" horiz-adv-x="555" 
d="M245 0h-250l4 30h305q57 0 93.5 31.5t45.5 88.5l12 75q9 57 -17.5 88.5t-83.5 31.5h-175l5 30h169q56 0 91 31.5t44 88.5l9 55q8 57 -18 88.5t-83 31.5h-275l-9 10l3 20h285q72 0 107.5 -41t24.5 -109l-9 -55q-11 -68 -65 -106q-24 -17 -51 -24v-5q29 -8 48 -24
q46 -38 35 -111l-12 -75q-11 -69 -59 -109.5t-119 -40.5h-20l-15 -90q-6 -38 -36 -64t-68 -26h-85l5 30h85q23 0 41.5 17t22.5 43z" />
    <glyph glyph-name="uni0499" unicode="&#x499;" horiz-adv-x="500" 
d="M215 0h-220l4 30h280q42 0 73 26.5t37 68.5l6 35q7 42 -16 68.5t-64 26.5h-160l5 30h150q42 0 72.5 26.5t37.5 68.5l4 25q6 42 -16 68.5t-64 26.5h-245l-9 10l3 20h255q56 0 87.5 -36t23.5 -89l-4 -25q-9 -52 -54 -84q-19 -13 -43 -21l-1 -5q24 -8 42 -21q40 -32 31 -89
l-6 -35q-8 -53 -51 -89t-98 -36h-25l-13 -80q-6 -38 -36 -64t-68 -26h-85l4 30h85q23 0 41.5 17t23.5 43z" />
    <glyph glyph-name="uni049A" unicode="&#x49a;" horiz-adv-x="640" 
d="M565 0h-35l-157 340h-205l-53 -340h-35l110 700h35l-52 -330h205l232 330h30l-3 -20l-231 -325l151 -325h47l-27 -170h-30z" />
    <glyph glyph-name="uni049B" unicode="&#x49b;" horiz-adv-x="560" 
d="M485 0h-35l-135 255h-180l-40 -255h-35l83 530h35l-38 -245h180l193 245h30l-3 -20l-193 -240l130 -240h47l-25 -160h-30z" />
    <glyph glyph-name="uni049C" unicode="&#x49c;" horiz-adv-x="630" 
d="M286 480h30l-18 -110h80l232 330h30l-3 -20l-231 -325l157 -335l-3 -20h-30l-157 340h-80l-19 -120h-30l19 120h-95l-53 -340h-35l110 700h35l-52 -330h95z" />
    <glyph glyph-name="uni049D" unicode="&#x49d;" horiz-adv-x="545" 
d="M235 385h30l-15 -100h70l193 245h30l-3 -20l-193 -240l136 -250l-3 -20h-30l-135 255h-70l-18 -110h-30l18 110h-80l-40 -255h-35l83 530h35l-38 -245h80z" />
    <glyph glyph-name="uni04A0" unicode="&#x4a0;" horiz-adv-x="640" 
d="M235 700l-52 -330h205l232 330h30l-3 -20l-231 -325l157 -335l-3 -20h-30l-157 340h-205l-53 -340h-35l106 670h-110l4 30h145z" />
    <glyph glyph-name="uni04A1" unicode="&#x4a1;" horiz-adv-x="555" 
d="M188 530l-38 -245h180l193 245h30l-3 -20l-193 -240l136 -250l-3 -20h-30l-135 255h-180l-40 -255h-35l79 500h-90l4 30h125z" />
    <glyph glyph-name="uni04A2" unicode="&#x4a2;" horiz-adv-x="690" 
d="M565 0h-50l53 340h-400l-53 -340h-35l110 700h35l-52 -330h400l52 330h35l-106 -670h50l-27 -170h-30z" />
    <glyph glyph-name="uni04A3" unicode="&#x4a3;" horiz-adv-x="600" 
d="M495 0h-50l39 250h-350l-39 -250h-35l83 530h35l-39 -250h350l39 250h35l-79 -500h50l-25 -160h-30z" />
    <glyph glyph-name="uni04AA" unicode="&#x4aa;" horiz-adv-x="565" 
d="M245 0h-35q-72 0 -107.5 41t-24.5 109l64 400q11 69 59 109.5t119 40.5h290l-3 -20l-11 -10h-280q-57 0 -94 -31.5t-45 -88.5l-64 -400q-9 -57 17.5 -88.5t83.5 -31.5h290l-4 -30h-220l-15 -90q-4 -26 9.5 -43t36.5 -17h85l-5 -30h-85q-38 0 -60 26t-16 64z" />
    <glyph glyph-name="uni04AB" unicode="&#x4ab;" horiz-adv-x="500" 
d="M343 -170h-85q-38 0 -60 26t-16 64l13 80h-20q-56 0 -87.5 36t-23.5 89l45 280q8 53 50.5 89t98.5 36h260l-3 -20l-11 -10h-250q-42 0 -73 -26.5t-37 -68.5l-45 -280q-6 -42 16 -68.5t64 -26.5h260l-4 -30h-205l-13 -80q-5 -26 8 -43t37 -17h85z" />
    <glyph glyph-name="uni04AE" unicode="&#x4ae;" horiz-adv-x="595" 
d="M311 260l304 440h30l-3 -20l-322 -455l-35 -225h-35l35 225l-178 455l3 20h30l166 -440h5z" />
    <glyph glyph-name="uni04AF" unicode="&#x4af;" horiz-adv-x="525" 
d="M242 45l276 485h30l-3 -20l-295 -510l-27 -170h-35l27 170l-135 510l3 20h30l124 -485h5z" />
    <glyph glyph-name="uni04B0" unicode="&#x4b0;" horiz-adv-x="595" 
d="M448 180l-5 -30h-135l-23 -150h-35l23 150h-135l5 30h135l7 45l-178 455l3 20h30l166 -440h5l304 440h30l-3 -20l-322 -455l-7 -45h135z" />
    <glyph glyph-name="uni04B1" unicode="&#x4b1;" horiz-adv-x="525" 
d="M370 -30l-5 -30h-125l-17 -110h-35l17 110h-125l5 30h125l5 30l-135 510l3 20h30l124 -485h5l276 485h30l-3 -20l-295 -510l-5 -30h125z" />
    <glyph glyph-name="uni04B2" unicode="&#x4b2;" horiz-adv-x="610" 
d="M500 0l-177 335h-5l-283 -335h-30l3 20l294 340l-170 320l3 20h30l160 -315h5l260 315h30l-3 -20l-270 -320l180 -330h47l-27 -170h-30l18 140h-35z" />
    <glyph glyph-name="uni04B3" unicode="&#x4b3;" horiz-adv-x="525" 
d="M450 0h-35l-152 240h-5l-228 -240h-30l3 20l238 245l-146 245l3 20h30l137 -240h5l213 240h30l-3 -20l-224 -245l155 -235h48l-25 -160h-30z" />
    <glyph glyph-name="uni04B8" unicode="&#x4b8;" horiz-adv-x="650" 
d="M349 410h30l-17 -110h160l63 400h35l-110 -700h-35l42 270h-160l-19 -120h-30l19 120h-80q-72 0 -107 40.5t-24 109.5l44 280h35l-44 -280q-9 -57 17.5 -88.5t83.5 -31.5h80z" />
    <glyph glyph-name="uni04B9" unicode="&#x4b9;" horiz-adv-x="575" 
d="M298 335h30l-17 -105h145l47 300h35l-83 -530h-35l31 200h-145l-16 -105h-30l16 105h-70q-56 0 -87 36t-23 89l32 205h35l-32 -205q-7 -42 15.5 -68.5t64.5 -26.5h70z" />
    <glyph glyph-name="uni04BA" unicode="&#x4ba;" horiz-adv-x="650" 
d="M448 400h-270l-63 -400h-35l110 700h35l-42 -270h270q72 0 107 -40.5t24 -109.5l-44 -280h-35l44 280q9 57 -17.5 88.5t-83.5 31.5z" />
    <glyph glyph-name="uni04BB" unicode="&#x4bb;" horiz-adv-x="605" 
d="M549 405l-64 -405h-35l64 405q6 42 -16 68.5t-64 26.5h-255l-79 -500h-35l110 700h35l-27 -170h255q56 0 87.5 -36t23.5 -89z" />
    <glyph glyph-name="uni04D8" unicode="&#x4d8;" horiz-adv-x="665" 
d="M393 -10h-185q-72 0 -107 40.5t-24 109.5l36 230h460l29 180q8 57 -18 88.5t-83 31.5h-305l4 30h305q72 0 107.5 -41t24.5 -109l-65 -410q-11 -69 -59 -109.5t-120 -40.5zM568 340h-425l-31 -200q-9 -57 17.5 -88.5t83.5 -31.5h185q57 0 93.5 31.5t45.5 88.5z" />
    <glyph glyph-name="uni04D9" unicode="&#x4d9;" horiz-adv-x="570" 
d="M89 280h385l20 125q6 42 -16 68.5t-64 26.5h-255l4 30h255q56 0 87.5 -36t23.5 -89l-46 -290q-8 -53 -51 -89t-99 -36h-160q-56 0 -87 36t-23 89zM119 250l-21 -135q-7 -42 15.5 -68.5t64.5 -26.5h160q42 0 72.5 26.5t37.5 68.5l21 135h-350z" />
    <glyph glyph-name="Wgrave" unicode="&#x1e80;" horiz-adv-x="915" 
d="M211 40l287 550h45l113 -550h5l259 660h30l-3 -20l-272 -680h-45l-113 555h-5l-287 -555h-45l-58 680l3 20h30l51 -660h5zM442 860h45l70 -160h-30z" />
    <glyph glyph-name="wgrave" unicode="&#x1e81;" horiz-adv-x="775" 
d="M424 405h-5l-229 -405h-40l-60 510l3 20h30l53 -490h5l223 400h45l97 -400h5l207 490h30l-3 -20l-220 -510h-40zM348 710h45l70 -160h-30z" />
    <glyph glyph-name="Wacute" unicode="&#x1e82;" horiz-adv-x="915" 
d="M211 40l287 550h45l113 -550h5l259 660h30l-3 -20l-272 -680h-45l-113 555h-5l-287 -555h-45l-58 680l3 20h30l51 -660h5zM648 870h45l-135 -160h-30z" />
    <glyph glyph-name="wacute" unicode="&#x1e83;" horiz-adv-x="775" 
d="M424 405h-5l-229 -405h-40l-60 510l3 20h30l53 -490h5l223 400h45l97 -400h5l207 490h30l-3 -20l-220 -510h-40zM543 710h45l-135 -160h-30z" />
    <glyph glyph-name="Wdieresis" unicode="&#x1e84;" horiz-adv-x="915" 
d="M211 40l287 550h45l113 -550h5l259 660h30l-3 -20l-272 -680h-45l-113 555h-5l-287 -555h-45l-58 680l3 20h30l51 -660h5zM437 800h40l-12 -80h-40zM627 800h40l-12 -80h-40z" />
    <glyph glyph-name="wdieresis" unicode="&#x1e85;" horiz-adv-x="775" 
d="M424 405h-5l-229 -405h-40l-60 510l3 20h30l53 -490h5l223 400h45l97 -400h5l207 490h30l-3 -20l-220 -510h-40zM345 661h40l-12 -80h-40zM535 661h40l-12 -80h-40z" />
    <glyph glyph-name="Ygrave" unicode="&#x1ef2;" horiz-adv-x="595" 
d="M140 700l166 -440h5l304 440h30l-3 -20l-322 -455l-35 -225h-35l35 225l-178 455l3 20h30zM300 910h45l70 -160h-30z" />
    <glyph glyph-name="ygrave" unicode="&#x1ef3;" horiz-adv-x="520" 
d="M540 510l-288 -555q-64 -125 -159 -125h-60l4 30h60q74 0 120 95l15 30l1 5l-153 520l3 20h30l142 -495h5l253 495h30zM257 750h45l70 -160h-30z" />
    <glyph glyph-name="endash" unicode="&#x2013;" horiz-adv-x="530" 
d="M520 320l-5 -30h-470l5 30h470z" />
    <glyph glyph-name="emdash" unicode="&#x2014;" horiz-adv-x="775" 
d="M765 320l-5 -30h-715l5 30h715z" />
    <glyph glyph-name="quoteleft" unicode="&#x2018;" horiz-adv-x="200" 
d="M169 500h-40l9 60l42 140h20z" />
    <glyph glyph-name="quoteright" unicode="&#x2019;" horiz-adv-x="200" 
d="M160 700h40l-9 -60l-42 -140h-20z" />
    <glyph glyph-name="quotesinglbase" unicode="&#x201a;" horiz-adv-x="200" 
d="M64 90h40l-10 -60l-42 -140h-20z" />
    <glyph glyph-name="quotedblleft" unicode="&#x201c;" horiz-adv-x="340" 
d="M309 500h-40l9 60l42 140h20zM169 500h-40l9 60l42 140h20z" />
    <glyph glyph-name="quotedblright" unicode="&#x201d;" horiz-adv-x="340" 
d="M160 700h40l-9 -60l-42 -140h-20zM300 700h40l-9 -60l-42 -140h-20z" />
    <glyph glyph-name="quotedblbase" unicode="&#x201e;" horiz-adv-x="340" 
d="M64 90h40l-10 -60l-42 -140h-20zM204 90h40l-10 -60l-42 -140h-20z" />
    <glyph glyph-name="dagger" unicode="&#x2020;" horiz-adv-x="485" 
d="M310 700h25l-26 -200h195l-5 -30h-195l-101 -640h-35l101 640h-195l5 30h195z" />
    <glyph glyph-name="daggerdbl" unicode="&#x2021;" horiz-adv-x="505" 
d="M208 -170h-25l26 200h-195l5 30h195l65 410h-195l5 30h195l36 200h25l-26 -200h195l-5 -30h-195l-65 -410h195l-5 -30h-195z" />
    <glyph glyph-name="bullet" unicode="&#x2022;" horiz-adv-x="370" 
d="M167 300l5 30q1 8 8 14t15 6h30q8 0 13 -6t4 -14l-5 -30q-5 -20 -23 -20h-30q-8 0 -13.5 6t-3.5 14z" />
    <glyph glyph-name="ellipsis" unicode="&#x2026;" horiz-adv-x="620" 
d="M64 90h40l-14 -90h-40zM274 90h40l-14 -90h-40zM484 90h40l-14 -90h-40z" />
    <glyph glyph-name="perthousand" unicode="&#x2030;" horiz-adv-x="1175" 
d="M700 700h25l-3 -20l-537 -680h-25l3 20zM418 620l-26 -160q-6 -38 -36 -64t-68 -26h-115q-38 0 -60 26t-16 64l26 160q6 38 36 64t68 26h115q38 0 60 -26t16 -64zM158 620l-26 -160q-4 -26 9.5 -43t36.5 -17h115q23 0 41.5 17t22.5 43l26 160q4 26 -9.5 43t-36.5 17h-115
q-23 0 -41.5 -17t-22.5 -43zM768 240l-26 -160q-6 -38 -36 -64t-68 -26h-115q-38 0 -60 26t-16 64l26 160q6 38 36 64t68 26h115q38 0 59.5 -26t16.5 -64zM508 240l-26 -160q-4 -26 9.5 -43t36.5 -17h115q23 0 41.5 17t22.5 43l26 160q4 26 -9.5 43t-36.5 17h-115
q-23 0 -41.5 -17t-22.5 -43zM1128 240l-26 -160q-6 -38 -36 -64t-68 -26h-115q-38 0 -60 26t-16 64l26 160q6 38 36 64t68 26h115q38 0 59.5 -26t16.5 -64zM868 240l-26 -160q-4 -26 9.5 -43t36.5 -17h115q23 0 41.5 17t22.5 43l26 160q4 26 -9.5 43t-36.5 17h-115
q-23 0 -41.5 -17t-22.5 -43z" />
    <glyph glyph-name="guilsinglleft" unicode="&#x2039;" horiz-adv-x="315" 
d="M91 260l160 220h30l-4 -20l-146 -200l83 -200l-3 -20h-30z" />
    <glyph glyph-name="guilsinglright" unicode="&#x203a;" horiz-adv-x="315" 
d="M156 480l90 -220l-160 -220h-30l3 20l147 200l-84 200l4 20h30z" />
    <glyph glyph-name="Euro" unicode="&#x20ac;" horiz-adv-x="600" 
d="M69 410l5 30h90l18 110q11 69 59 109.5t119 40.5h285l-3 -20l-11 -10h-275q-57 0 -94 -31.5t-45 -88.5l-18 -110h300l-5 -30h-300l-19 -120h300l-4 -30h-300l-18 -110q-9 -57 17.5 -88.5t83.5 -31.5h285l-4 -30h-285q-72 0 -107.5 41t-24.5 109l18 110h-90l4 30h90
l19 120h-90z" />
    <glyph glyph-name="afii61352" unicode="&#x2116;" horiz-adv-x="1050" 
d="M982 270l-4 -30h-245l4 30h245zM505 0l-287 655h-5l-11 -105l-87 -550h-35l110 700h45l287 -655h5l11 105l87 550h35l-110 -700h-45zM1063 620l-26 -160q-6 -38 -36 -64t-68 -26h-115q-38 0 -60 26t-16 64l26 160q6 38 36 64t68 26h115q38 0 60 -26t16 -64zM803 620
l-26 -160q-4 -26 9.5 -43t36.5 -17h115q23 0 41.5 17t22.5 43l26 160q4 26 -9.5 43t-36.5 17h-115q-23 0 -41.5 -17t-22.5 -43z" />
    <glyph glyph-name="trademark" unicode="&#x2122;" horiz-adv-x="835" 
d="M90 700h295l-3 -20l-11 -10h-120l-48 -300h-35l48 300h-130zM600 445l165 255h45l-9 -310l-3 -20h-30l12 295h-5l-166 -255h-35l-84 255h-5l-82 -295h-30l3 20l89 310h45l85 -255h5z" />
    <glyph glyph-name="commaaccent" horiz-adv-x="120" 
d="M2 -50h40l-10 -60l-40 -125h-20z" />
    <glyph glyph-name="foundryicon" horiz-adv-x="1330" 
d="M211 265h-170l198 175zM435 350q-6 -38 -36 -64t-68 -26t-60 26t-16 64t36 64t68 26t60 -26t16 -64zM448 435h180l-117 -175zM948 435l-24 -155l-126 155h150zM756 265l25 155l125 -155h-150zM736 265h-180l118 175zM1143 435l-24 -155l-126 155h150zM951 265l25 155
l125 -155h-150zM1158 435h180l-117 -175z" />
    <glyph glyph-name=".ttfautohint" horiz-adv-x="590" 
 />
    </font>
</defs>
</svg>
