<?xml version="1.0" standalone="no"?>
<!DOCTYPE svg PUBLIC "-//W3C//DTD SVG 1.1//EN" "http://www.w3.org/Graphics/SVG/1.1/DTD/svg11.dtd" >
<svg xmlns="http://www.w3.org/2000/svg" xmlns:xlink="http://www.w3.org/1999/xlink" version="1.1">
<metadata>
Created by FontForge 20150824 at Sun Jun 26 12:05:45 2016
 By Everything Fonts
Copyright (c) 2013 by Roman Ershov, Jovanny Lemonad. All rights reserved.
</metadata>
<defs>
<font id="SupermolotBold" horiz-adv-x="600" >
  <font-face 
    font-family="SupermolotBold"
    font-weight="700"
    font-stretch="normal"
    units-per-em="1000"
    panose-1="2 0 8 3 5 0 0 2 0 4"
    ascent="809"
    descent="-191"
    x-height="530"
    cap-height="700"
    bbox="-55 -275 1300 960"
    underline-thickness="50"
    underline-position="-150"
    unicode-range="U+0020-2122"
  />
<missing-glyph horiz-adv-x="740" 
d="M100 605h540v-510h-540v510zM580 545h-420v-390h420v390zM370 390l115 105l40 -40l-115 -105l115 -105l-40 -40l-115 105l-115 -105l-40 40l115 105l-115 105l40 40z" />
    <glyph glyph-name=".notdef" horiz-adv-x="740" 
d="M100 605h540v-510h-540v510zM580 545h-420v-390h420v390zM370 390l115 105l40 -40l-115 -105l115 -105l-40 -40l-115 105l-115 -105l-40 40l115 105l-115 105l40 40z" />
    <glyph glyph-name=".null" horiz-adv-x="0" 
 />
    <glyph glyph-name="nonmarkingreturn" horiz-adv-x="333" 
 />
    <glyph glyph-name="space" unicode=" " horiz-adv-x="310" 
 />
    <glyph glyph-name="exclam" unicode="!" horiz-adv-x="330" 
d="M100 230l-30 320v150h190v-150l-30 -320h-130zM240 0h-150v150h150v-150z" />
    <glyph glyph-name="quotedbl" unicode="&#x22;" horiz-adv-x="445" 
d="M70 475l-20 120v105h145v-105l-20 -120h-105zM270 475l-20 120v105h145v-105l-20 -120h-105z" />
    <glyph glyph-name="numbersign" unicode="#" horiz-adv-x="745" 
d="M90 0l25 145h-80v130h100l25 150h-90v130h105l25 145h175l-25 -145h105l25 145h175l-25 -145h80v-130h-100l-25 -150h90v-130h-105l-25 -145h-175l25 145h-105l-25 -145h-175zM335 425l-25 -150h100l25 150h-100z" />
    <glyph glyph-name="dollar" unicode="$" 
d="M35 465v85q0 65 44.5 107.5t115.5 42.5h25v90h160v-90h155v-85l-40 -45h-245q-15 0 -25 -10t-10 -25v-50q0 -38 40 -45l185 -40q55 -13 90 -52.5t35 -97.5v-100q0 -65 -44.5 -107.5t-115.5 -42.5h-25v-90h-160v90h-185v130h315q15 0 25 10t10 25v65q0 38 -40 45l-185 40
q-55 13 -90 52.5t-35 97.5z" />
    <glyph glyph-name="percent" unicode="%" horiz-adv-x="885" 
d="M570 700h145v-60l-400 -640h-145v60zM850 230v-140q0 -43 -32.5 -71.5t-87.5 -28.5h-95q-55 0 -87.5 28.5t-32.5 71.5v140q0 43 32.5 71.5t87.5 28.5h95q55 0 87.5 -28.5t32.5 -71.5zM645 210v-100q0 -30 30 -30h15q30 0 30 30v100q0 30 -30 30h-15q-30 0 -30 -30z
M370 610v-140q0 -43 -32.5 -71.5t-87.5 -28.5h-95q-55 0 -87.5 28.5t-32.5 71.5v140q0 43 32.5 71.5t87.5 28.5h95q55 0 87.5 -28.5t32.5 -71.5zM165 590v-100q0 -30 30 -30h15q30 0 30 30v100q0 30 -30 30h-15q-30 0 -30 -30z" />
    <glyph glyph-name="ampersand" unicode="&#x26;" horiz-adv-x="690" 
d="M515 0l-50 55h-10q-14 -20 -31 -33q-42 -32 -94 -32h-130q-71 0 -115.5 42.5t-44.5 107.5v105q0 50 41.5 87.5t103.5 37.5v10q-22 15 -35 31q-35 37 -35 84v55q0 65 44.5 107.5t115.5 42.5h290v-85l-40 -45h-195q-15 0 -25 -10t-10 -25v-40q0 -22 50 -76q25 -26 50 -49
l290 -305v-65h-170zM385 150l-120 125q-45 0 -45 -40v-80q0 -15 10 -25t25 -10h75q25 0 42 15q9 7 13 15z" />
    <glyph glyph-name="quotesingle" unicode="'" horiz-adv-x="245" 
d="M70 475l-20 121v104h145v-105l-20 -120h-105z" />
    <glyph glyph-name="parenleft" unicode="(" horiz-adv-x="390" 
d="M295 -50h55v-130h-110q-71 0 -115.5 42.5t-44.5 107.5v650q0 65 44.5 107.5t115.5 42.5h110v-130h-55q-15 0 -25 -10t-10 -25v-620q0 -15 10 -25t25 -10z" />
    <glyph glyph-name="parenright" unicode=")" horiz-adv-x="390" 
d="M40 -50h55q15 0 25 10t10 25v620q0 15 -10 25t-25 10h-55v130h110q71 0 115.5 -42.5t44.5 -107.5v-650q0 -65 -44.5 -107.5t-115.5 -42.5h-110v130z" />
    <glyph glyph-name="asterisk" unicode="*" horiz-adv-x="440" 
d="M260 700l15 -115l110 20l20 -70l-100 -40l65 -95l-65 -45l-85 85l-85 -85l-65 45l65 95l-100 40l20 70l110 -20l15 115h80z" />
    <glyph glyph-name="plus" unicode="+" horiz-adv-x="510" 
d="M30 380h160v165h130v-165h160v-130h-160v-165h-130v165h-160v130z" />
    <glyph glyph-name="comma" unicode="," horiz-adv-x="270" 
d="M210 35l-70 -135h-80v250h150v-115z" />
    <glyph glyph-name="hyphen" unicode="-" horiz-adv-x="490" 
d="M30 380h430v-130h-430v130z" />
    <glyph glyph-name="period" unicode="." horiz-adv-x="270" 
d="M210 0h-150v150h150v-150z" />
    <glyph glyph-name="slash" unicode="/" horiz-adv-x="545" 
d="M525 695l-350 -745h-155v55l350 745h155v-55z" />
    <glyph glyph-name="zero" unicode="0" horiz-adv-x="660" 
d="M280 120h100q15 0 25 10t10 25v390q0 15 -10 25t-25 10h-100q-15 0 -25 -10t-10 -25v-390q0 -15 10 -25t25 -10zM435 -10h-210q-71 0 -115.5 42.5t-44.5 107.5v420q0 65 44.5 107.5t115.5 42.5h210q73 0 116.5 -44t43.5 -106v-420q0 -65 -44.5 -107.5t-115.5 -42.5z" />
    <glyph glyph-name="one" unicode="1" horiz-adv-x="415" 
d="M15 640l185 60h130v-700h-180v560h-135v80z" />
    <glyph glyph-name="two" unicode="2" horiz-adv-x="570" 
d="M245 130h285v-130h-505v120l290 305q10 9 17 18q18 22 18 37v56q0 14 -10 24t-25 10h-240l-40 45v85h335q71 0 115.5 -42.5t44.5 -107.5v-70q0 -45 -40 -99q-18 -25 -40 -46l-205 -195v-10z" />
    <glyph glyph-name="three" unicode="3" horiz-adv-x="585" 
d="M330 420h55q71 0 115.5 -42.5t44.5 -107.5v-120q0 -65 -44.5 -107.5t-115.5 -42.5h-350v130h295q15 0 25 10t10 25v90q0 15 -10 25t-25 10h-195v120l180 150v10h-250l-40 45v85h500v-120l-195 -150v-10z" />
    <glyph glyph-name="four" unicode="4" horiz-adv-x="650" 
d="M540 0h-180v135h-340v120l280 445h240v-435h90v-130h-90v-135zM365 505h-10l-140 -230v-10h150v240z" />
    <glyph glyph-name="five" unicode="5" horiz-adv-x="620" 
d="M260 430h160q71 0 115.5 -42.5t44.5 -107.5v-130q0 -65 -44.5 -107.5t-115.5 -42.5h-340v130h285q15 0 25 10t10 25v100q0 15 -10 25t-25 10h-285v400h475v-85l-40 -45h-255v-140z" />
    <glyph glyph-name="six" unicode="6" horiz-adv-x="635" 
d="M245 535v-100h185q71 0 115.5 -42.5t44.5 -107.5v-145q0 -65 -44.5 -107.5t-115.5 -42.5h-205q-71 0 -115.5 42.5t-44.5 107.5v410q0 65 44.5 107.5t115.5 42.5h335v-85l-40 -45h-240q-15 0 -25 -10t-10 -25zM280 120h95q15 0 25 10t10 25v115q0 15 -10 25t-25 10h-130
v-150q0 -15 10 -25t25 -10z" />
    <glyph glyph-name="seven" unicode="7" horiz-adv-x="540" 
d="M285 0h-180v70l225 490v10h-320v130h510v-120z" />
    <glyph glyph-name="eight" unicode="8" horiz-adv-x="665" 
d="M450 -10h-235q-71 0 -115.5 42.5t-44.5 107.5v120q0 57 57 86q23 12 58 19v10q-28 6 -48 19q-47 29 -47 86v80q0 65 44.5 107.5t115.5 42.5h195q71 0 115.5 -42.5t44.5 -107.5v-80q0 -56 -48 -86q-19 -13 -47 -19v-10q33 -6 57 -19q58 -30 58 -86v-120
q0 -65 -44.5 -107.5t-115.5 -42.5zM395 295h-125q-15 0 -25 -10t-10 -25v-105q0 -15 10 -25t25 -10h125q15 0 25 10t10 25v105q0 15 -10 25t-25 10zM375 580h-85q-15 0 -25 -10t-10 -25v-85q0 -15 10 -25t25 -10h85q15 0 25 10t10 25v85q0 15 -10 25t-25 10z" />
    <glyph glyph-name="nine" unicode="9" horiz-adv-x="635" 
d="M390 165v90h-185q-71 0 -115.5 42.5t-44.5 107.5v155q0 65 44.5 107.5t115.5 42.5h205q71 0 115.5 -42.5t44.5 -107.5v-410q0 -65 -44.5 -107.5t-115.5 -42.5h-335v130h280q15 0 25 10t10 25zM355 580h-95q-15 0 -25 -10t-10 -25v-125q0 -15 10 -25t25 -10h130v160
q0 15 -10 25t-25 10z" />
    <glyph glyph-name="colon" unicode=":" horiz-adv-x="260" 
d="M205 0h-150v150h150v-150zM205 380h-150v150h150v-150z" />
    <glyph glyph-name="semicolon" unicode=";" horiz-adv-x="270" 
d="M210 380h-150v150h150v-150zM210 35l-70 -135h-80v250h150v-115z" />
    <glyph glyph-name="less" unicode="&#x3c;" horiz-adv-x="540" 
d="M60 335l420 200v-150l-255 -115v-10l255 -115v-150l-420 200v140z" />
    <glyph glyph-name="equal" unicode="=" horiz-adv-x="530" 
d="M40 490h450v-130h-450v130zM40 260h450v-130h-450v130z" />
    <glyph glyph-name="greater" unicode="&#x3e;" horiz-adv-x="540" 
d="M60 535l420 -200v-140l-420 -200v150l255 115v10l-255 115v150z" />
    <glyph glyph-name="question" unicode="?" horiz-adv-x="535" 
d="M295 0h-150v150h150v-150zM315 485v50q0 15 -10 25t-25 10h-230l-40 45v85h325q71 0 115.5 -42.5t44.5 -107.5v-85q0 -73 -55 -100l-110 -55q-30 -16 -30 -40v-40h-160v70q0 73 55 100l90 45q30 16 30 40z" />
    <glyph glyph-name="at" unicode="@" horiz-adv-x="910" 
d="M490 510h175v65q0 15 -10 25t-25 10h-360q-15 0 -25 -10t-10 -25v-450q0 -15 10 -25t25 -10h545v-120h-590q-71 0 -115.5 42.5t-44.5 107.5v460q0 65 44.5 107.5t115.5 42.5h450q71 0 115.5 -42.5t44.5 -107.5v-390h-110l-25 55h-10q-8 -21 -20 -33q-30 -32 -80 -32h-100
q-67 0 -108.5 39.5t-41.5 100.5v50q0 61 41.5 100.5t108.5 39.5zM510 370v-40q0 -11 9.5 -20.5t20.5 -9.5h80q23 0 36 17q6 7 9 18v65h-125q-11 0 -20.5 -9.5t-9.5 -20.5z" />
    <glyph glyph-name="A" unicode="A" horiz-adv-x="690" 
d="M485 0l-35 150h-210l-35 -150h-180v70l200 630h240l200 -630v-70h-180zM415 280l-65 260h-10l-65 -260h140z" />
    <glyph glyph-name="B" unicode="B" horiz-adv-x="685" 
d="M80 700h365q71 0 115.5 -42.5t44.5 -107.5v-80q0 -56 -48 -86q-19 -13 -47 -19v-10q36 -6 60 -19q60 -29 60 -86v-100q0 -65 -44.5 -107.5t-115.5 -42.5h-390v700zM260 130h155q15 0 25 10t10 25v85q0 15 -10 25t-25 10h-155v-155zM390 570h-130v-155h130q15 0 25 10
t10 25v85q0 15 -10 25t-25 10z" />
    <glyph glyph-name="C" unicode="C" horiz-adv-x="605" 
d="M280 130h290v-130h-345q-71 0 -115.5 42.5t-44.5 107.5v400q0 65 44.5 107.5t115.5 42.5h345v-85l-40 -45h-250q-15 0 -25 -10t-10 -25v-370q0 -15 10 -25t25 -10z" />
    <glyph glyph-name="D" unicode="D" horiz-adv-x="690" 
d="M465 0h-385v700h385q71 0 115.5 -42.5t44.5 -107.5v-400q0 -65 -44.5 -107.5t-115.5 -42.5zM410 570h-150v-440h150q15 0 25 10t10 25v370q0 15 -10 25t-25 10z" />
    <glyph glyph-name="E" unicode="E" horiz-adv-x="615" 
d="M580 700v-85l-40 -45h-280v-150h230v-130h-230v-160h320v-130h-500v700h500z" />
    <glyph glyph-name="F" unicode="F" 
d="M580 700v-85l-40 -45h-280v-180h230v-130h-230v-260h-180v700h500z" />
    <glyph glyph-name="G" unicode="G" horiz-adv-x="665" 
d="M325 415h275v-415h-375q-71 0 -115.5 42.5t-44.5 107.5v400q0 65 44.5 107.5t115.5 42.5h354v-85l-40 -45h-259q-15 0 -25 -10t-10 -25v-370q0 -15 10 -25t25 -10h150v155h-105v130z" />
    <glyph glyph-name="H" unicode="H" horiz-adv-x="710" 
d="M260 0h-180v700h180v-285h190v285h180v-700h-180v285h-190v-285z" />
    <glyph glyph-name="I" unicode="I" horiz-adv-x="340" 
d="M260 0h-180v700h180v-700z" />
    <glyph glyph-name="J" unicode="J" horiz-adv-x="545" 
d="M305 -10h-295v130h240q15 0 25 10t10 25v545h180v-560q0 -65 -44.5 -107.5t-115.5 -42.5z" />
    <glyph glyph-name="K" unicode="K" horiz-adv-x="680" 
d="M260 0h-180v700h180v-285h85l110 285h180v-70l-140 -275l155 -285v-70h-180l-125 285h-85v-285z" />
    <glyph glyph-name="L" unicode="L" horiz-adv-x="570" 
d="M560 0h-480v700h180v-570h300v-130z" />
    <glyph glyph-name="M" unicode="M" horiz-adv-x="990" 
d="M600 85h-210l-115 400h-10l-35 -485h-180v70l85 630h225l130 -420h10l130 420h225l85 -630v-70h-180l-35 485h-10z" />
    <glyph glyph-name="N" unicode="N" horiz-adv-x="710" 
d="M630 700v-700h-195l-200 440h-10l35 -240v-200h-180v700h195l200 -440h10l-35 240v200h180z" />
    <glyph glyph-name="O" unicode="O" horiz-adv-x="690" 
d="M280 120h130q15 0 25 10t10 25v390q0 15 -10 25t-25 10h-130q-15 0 -25 -10t-10 -25v-390q0 -15 10 -25t25 -10zM465 -10h-240q-71 0 -115.5 42.5t-44.5 107.5v420q0 65 44.5 107.5t115.5 42.5h240q73 0 116.5 -44t43.5 -106v-420q0 -65 -44.5 -107.5t-115.5 -42.5z" />
    <glyph glyph-name="P" unicode="P" horiz-adv-x="665" 
d="M260 0h-180v700h380q72 0 116 -44t44 -106v-185q0 -65 -44.5 -107.5t-115.5 -42.5h-200v-215zM405 570h-145v-225h145q15 0 25 10t10 25v155q0 15 -10 25t-25 10z" />
    <glyph glyph-name="Q" unicode="Q" horiz-adv-x="690" 
d="M285 -10h-60q-71 0 -115.5 42.5t-44.5 107.5v420q0 65 44.5 107.5t115.5 42.5h240q73 0 116.5 -44t43.5 -106v-420q0 -65 -44.5 -107.5t-115.5 -42.5h-40l70 -70v-60h-155zM280 120h130q15 0 25 10t10 25v390q0 15 -10 25t-25 10h-130q-15 0 -25 -10t-10 -25v-390
q0 -15 10 -25t25 -10z" />
    <glyph glyph-name="R" unicode="R" horiz-adv-x="695" 
d="M260 0h-180v700h380q72 0 116 -44t44 -106v-150q0 -66 -53 -107q-20 -16 -52 -28l135 -195v-70h-180l-135 250h-75v-250zM405 570h-145v-190h145q15 0 25 10t10 25v120q0 15 -10 25t-25 10z" />
    <glyph glyph-name="S" unicode="S" 
d="M35 465v85q0 65 44.5 107.5t115.5 42.5h340v-85l-40 -45h-245q-15 0 -25 -10t-10 -25v-50q0 -38 40 -45l185 -40q55 -13 90 -52.5t35 -97.5v-100q0 -65 -44.5 -107.5t-115.5 -42.5h-370v130h315q15 0 25 10t10 25v65q0 38 -40 45l-185 40q-55 13 -90 52.5t-35 97.5z" />
    <glyph glyph-name="T" unicode="T" 
d="M15 570v130h570v-85l-40 -45h-155v-570h-180v570h-195z" />
    <glyph glyph-name="U" unicode="U" horiz-adv-x="720" 
d="M480 -10h-240q-71 0 -115.5 42.5t-44.5 107.5v560h180v-545q0 -15 10 -25t25 -10h130q15 0 25 10t10 25v545h180v-560q0 -65 -44.5 -107.5t-115.5 -42.5z" />
    <glyph glyph-name="V" unicode="V" horiz-adv-x="670" 
d="M340 160l125 540h180v-70l-190 -630h-240l-190 630v70h180l125 -540h10z" />
    <glyph glyph-name="W" unicode="W" horiz-adv-x="980" 
d="M595 590l90 -375h10l70 485h180v-70l-125 -630h-225l-100 395h-10l-100 -395h-225l-125 630v70h180l70 -485h10l90 375h210z" />
    <glyph glyph-name="X" unicode="X" horiz-adv-x="650" 
d="M320 265l-115 -265h-180v70l170 285l-155 275v70h180l100 -265h10l100 265h180v-70l-155 -275l170 -285v-70h-180l-115 265h-10z" />
    <glyph glyph-name="Y" unicode="Y" horiz-adv-x="650" 
d="M450 700h180v-70l-215 -425v-205h-180v205l-215 425v70h180l120 -330h10z" />
    <glyph glyph-name="Z" unicode="Z" 
d="M245 130h320v-130h-530v125l310 435v10h-270l-40 45v85h520v-125l-310 -435v-10z" />
    <glyph glyph-name="bracketleft" unicode="[" horiz-adv-x="390" 
d="M260 640v-690h90v-130h-270v950h270v-130h-90z" />
    <glyph glyph-name="backslash" unicode="\" horiz-adv-x="545" 
d="M370 -50l-350 745v55h155l350 -745v-55h-155z" />
    <glyph glyph-name="bracketright" unicode="]" horiz-adv-x="390" 
d="M130 -50v690h-90v130h270v-950h-270v130h90z" />
    <glyph glyph-name="asciicircum" unicode="^" horiz-adv-x="470" 
d="M150 455h-140l160 245h130l160 -245h-140l-80 130h-10z" />
    <glyph glyph-name="underscore" unicode="_" horiz-adv-x="470" 
d="M10 -40h450v-130h-450v130z" />
    <glyph glyph-name="grave" unicode="`" horiz-adv-x="310" 
d="M30 700h175l75 -160h-130z" />
    <glyph glyph-name="a" unicode="a" horiz-adv-x="610" 
d="M190 320h185v65q0 11 -9.5 20.5t-20.5 9.5h-250v120h300q67 0 108.5 -39.5t41.5 -100.5v-395h-110l-25 65h-5q-9 -24 -20 -38q-29 -37 -80 -37h-115q-67 0 -108.5 39.5t-41.5 100.5v50q0 61 41.5 100.5t108.5 39.5zM210 180v-40q0 -11 9.5 -20.5t20.5 -9.5h90q23 0 36 17
q6 7 9 18v65h-135q-11 0 -20.5 -9.5t-9.5 -20.5z" />
    <glyph glyph-name="b" unicode="b" horiz-adv-x="625" 
d="M245 530h175q67 0 108.5 -39.5t41.5 -100.5v-250q0 -61 -41.5 -100.5t-108.5 -39.5h-345v700h170v-170zM400 150v230q0 11 -9.5 20.5t-20.5 9.5h-125v-290h125q11 0 20.5 9.5t9.5 20.5z" />
    <glyph glyph-name="c" unicode="c" horiz-adv-x="540" 
d="M255 120h250v-120h-300q-67 0 -108.5 39.5t-41.5 100.5v250q0 61 41.5 100.5t108.5 39.5h300v-75l-40 -45h-210q-11 0 -20.5 -9.5t-9.5 -20.5v-230q0 -11 9.5 -20.5t20.5 -9.5z" />
    <glyph glyph-name="d" unicode="d" horiz-adv-x="625" 
d="M205 530h175v170h170v-700h-110l-25 65h-5q-9 -24 -20 -38q-29 -37 -80 -37h-105q-67 0 -108.5 39.5t-41.5 100.5v260q0 61 41.5 100.5t108.5 39.5zM225 380v-240q0 -11 9.5 -20.5t20.5 -9.5h80q23 0 36 17q6 7 9 18v265h-125q-11 0 -20.5 -9.5t-9.5 -20.5z" />
    <glyph glyph-name="e" unicode="e" 
d="M255 120h265v-120h-315q-67 0 -108.5 39.5t-41.5 100.5v260q0 61 41.5 100.5t108.5 39.5h190q67 0 108.5 -39.5t41.5 -100.5v-195h-320v-55q0 -11 9.5 -20.5t20.5 -9.5zM225 390v-70h150v70q0 11 -9.5 20.5t-20.5 9.5h-90q-11 0 -20.5 -9.5t-9.5 -20.5z" />
    <glyph glyph-name="f" unicode="f" horiz-adv-x="465" 
d="M440 590h-165q-11 0 -20.5 -9.5t-9.5 -20.5v-105h170v-120h-170v-335h-170v570q0 61 41.5 100.5t108.5 39.5h255v-75z" />
    <glyph glyph-name="g" unicode="g" horiz-adv-x="620" 
d="M225 405v-75q0 -11 9.5 -20.5t20.5 -9.5h105q11 0 20.5 9.5t9.5 20.5v75q0 11 -9.5 20.5t-20.5 9.5h-105q-11 0 -20.5 -9.5t-9.5 -20.5zM395 30h-175q-11 0 -20.5 -9.5t-9.5 -20.5v-30q0 -11 9.5 -20.5t20.5 -9.5h175q11 0 20.5 9.5t9.5 20.5v30q0 11 -9.5 20.5
t-20.5 9.5zM125 100v5q-11 3 -18 10q-17 13 -17 40v20q0 25 17 40q6 5 18 10v5q-17 6 -30 18q-30 30 -30 82v75q0 61 41.5 100.5t108.5 39.5h150l25 75h125v-60l-45 -30v-5q22 -7 40 -24q40 -38 40 -96v-75q0 -61 -41.5 -100.5t-108.5 -39.5h-161q-4 0 -9 -4t-5 -11v-20
q0 -15 15 -15h195q67 0 108.5 -39.5t41.5 -100.5v-30q0 -61 -41.5 -100.5t-108.5 -39.5h-255q-67 0 -108.5 39.5t-41.5 100.5v30q0 53 47 82q21 12 48 18z" />
    <glyph glyph-name="h" unicode="h" horiz-adv-x="635" 
d="M245 530h175q67 0 108.5 -39.5t41.5 -100.5v-390h-170v380q0 11 -9.5 20.5t-20.5 9.5h-125v-410h-170v700h170v-170z" />
    <glyph glyph-name="i" unicode="i" horiz-adv-x="300" 
d="M235 530v-530h-170v530h170zM235 580h-170v140h170v-140z" />
    <glyph glyph-name="j" unicode="j" horiz-adv-x="320" 
d="M-55 -50h110q11 0 20.5 9.5t9.5 20.5v550h170v-560q0 -61 -41.5 -100.5t-108.5 -39.5h-160v120zM255 580h-170v140h170v-140z" />
    <glyph glyph-name="k" unicode="k" horiz-adv-x="610" 
d="M245 700v-375h69l81 205h170v-65l-115 -195l130 -205v-65h-170l-96 205h-69v-205h-170v700h170z" />
    <glyph glyph-name="l" unicode="l" horiz-adv-x="360" 
d="M275 110h45v-120h-95q-67 0 -108.5 39.5t-41.5 100.5v570h170v-560q0 -11 9.5 -20.5t20.5 -9.5z" />
    <glyph glyph-name="m" unicode="m" horiz-adv-x="930" 
d="M550 390v-390h-170v390q0 11 -9.5 20.5t-20.5 9.5h-70q-22 0 -36 -18q-6 -7 -9 -17v-385h-170v530h110l25 -65h5q9 24 20 37q30 38 80 38h95q50 0 80 -38q11 -13 20 -37h5q9 24 20 37q30 38 80 38h110q67 0 108.5 -39.5t41.5 -100.5v-400h-170v390q0 11 -9.5 20.5
t-20.5 9.5h-85q-11 0 -20.5 -9.5t-9.5 -20.5z" />
    <glyph glyph-name="n" unicode="n" horiz-adv-x="635" 
d="M305 540h115q67 0 108.5 -39.5t41.5 -100.5v-400h-170v390q0 11 -9.5 20.5t-20.5 9.5h-90q-22 0 -36 -18q-6 -7 -9 -17v-385h-170v530h110l25 -65h5q9 24 20 37q30 38 80 38z" />
    <glyph glyph-name="o" unicode="o" horiz-adv-x="625" 
d="M570 400v-270q0 -61 -41.5 -100.5t-108.5 -39.5h-215q-67 0 -108.5 39.5t-41.5 100.5v270q0 61 41.5 100.5t108.5 39.5h215q67 0 108.5 -39.5t41.5 -100.5zM255 110h115q11 0 20.5 9.5t9.5 20.5v250q0 11 -9.5 20.5t-20.5 9.5h-115q-11 0 -20.5 -9.5t-9.5 -20.5v-250
q0 -11 9.5 -20.5t20.5 -9.5z" />
    <glyph glyph-name="p" unicode="p" horiz-adv-x="615" 
d="M410 0h-175v-170h-170v700h110l25 -65h5q9 24 20 37q30 38 80 38h105q67 0 108.5 -39.5t41.5 -100.5v-260q0 -61 -41.5 -100.5t-108.5 -39.5zM390 150v240q0 11 -9.5 20.5t-20.5 9.5h-80q-22 0 -36 -18q-6 -7 -9 -17v-265h125q11 0 20.5 9.5t9.5 20.5z" />
    <glyph glyph-name="q" unicode="q" horiz-adv-x="615" 
d="M380 0h-175q-67 0 -108.5 39.5t-41.5 100.5v250q0 61 41.5 100.5t108.5 39.5h345v-700h-170v170zM225 380v-230q0 -11 9.5 -20.5t20.5 -9.5h125v290h-125q-11 0 -20.5 -9.5t-9.5 -20.5z" />
    <glyph glyph-name="r" unicode="r" horiz-adv-x="470" 
d="M305 540h150v-120h-175q-22 0 -36 -18q-6 -7 -9 -17v-385h-170v530h110l25 -60h5q8 20 20 35q31 35 80 35z" />
    <glyph glyph-name="s" unicode="s" horiz-adv-x="545" 
d="M340 145v20q0 24 -30 30l-170 30q-44 9 -74.5 44t-30.5 86v40q0 61 39 98t106 37h300v-75l-40 -45h-210q-25 0 -25 -25v-15q0 -24 30 -30l170 -30q44 -9 74.5 -44t30.5 -86v-45q0 -61 -39 -98t-106 -37h-330v120h280q25 0 25 25z" />
    <glyph glyph-name="t" unicode="t" horiz-adv-x="465" 
d="M290 110h160v-120h-210q-67 0 -108.5 39.5t-41.5 100.5v280h-70v120h80l60 140h100v-140h135v-120h-135v-270q0 -11 9.5 -20.5t20.5 -9.5z" />
    <glyph glyph-name="u" unicode="u" horiz-adv-x="635" 
d="M330 -10h-115q-67 0 -108.5 39.5t-41.5 100.5v400h170v-390q0 -11 9.5 -20.5t20.5 -9.5h90q23 0 36 17q6 7 9 18v385h170v-530h-110l-25 65h-5q-9 -24 -20 -38q-29 -37 -80 -37z" />
    <glyph glyph-name="v" unicode="v" 
d="M405 0h-210l-165 465v65h170l95 -385h10l95 385h170v-65z" />
    <glyph glyph-name="w" unicode="w" horiz-adv-x="840" 
d="M425 280h-10l-75 -280h-205l-100 465v65h170l45 -340h10l70 265h180l70 -265h10l45 340h170v-65l-100 -465h-205z" />
    <glyph glyph-name="x" unicode="x" horiz-adv-x="570" 
d="M280 350h10l75 180h170v-65l-130 -200l140 -200v-65h-170l-85 185h-10l-85 -185h-170v65l140 200l-130 200v65h170z" />
    <glyph glyph-name="y" unicode="y" horiz-adv-x="580" 
d="M560 465l-185 -515q-17 -50 -61.5 -85t-103.5 -35h-115v120h80q38 0 45 40v10l-200 465v65h170l105 -370h10l85 370h170v-65z" />
    <glyph glyph-name="z" unicode="z" horiz-adv-x="525" 
d="M280 400v10h-210l-40 45v75h455v-115l-250 -285v-10h260v-120h-465v115z" />
    <glyph glyph-name="braceleft" unicode="{" horiz-adv-x="425" 
d="M295 180v-195q0 -15 10 -25t25 -10h55v-130h-110q-71 0 -115.5 42.5t-44.5 107.5v210q0 19 -13 32t-32 13h-30v140h30q19 0 32 13t13 32v210q0 65 44.5 107.5t115.5 42.5h110v-130h-55q-15 0 -25 -10t-10 -25v-195q0 -57 -50 -89q-23 -14 -50 -21v-10q27 -7 50 -21
q50 -32 50 -89z" />
    <glyph glyph-name="bar" unicode="|" horiz-adv-x="340" 
d="M260 770v-980h-180v980h180z" />
    <glyph glyph-name="braceright" unicode="}" horiz-adv-x="425" 
d="M130 -15v195q0 57 50 89q23 14 50 21v10q-27 7 -50 21q-50 32 -50 89v195q0 15 -10 25t-25 10h-55v130h110q71 0 115.5 -42.5t44.5 -107.5v-210q0 -19 13 -32t32 -13h30v-140h-30q-19 0 -32 -13t-13 -32v-210q0 -65 -44.5 -107.5t-115.5 -42.5h-110v130h55q15 0 25 10
t10 25z" />
    <glyph glyph-name="asciitilde" unicode="~" horiz-adv-x="525" 
d="M480 435v-145q0 -34 -23 -57t-57 -23h-50q-30 0 -54 15q-10 6 -21 15l-65 60l-8 7q-8 8 -12 8q-10 0 -10 -10v-85h-135v145q0 34 23 57t57 23h50q26 0 54 -15l21 -15l65 -60l8 -8q7 -7 12 -7q10 0 10 10v85h135z" />
    <glyph glyph-name="nbspace" unicode="&#xa0;" horiz-adv-x="310" 
 />
    <glyph glyph-name="exclamdown" unicode="&#xa1;" horiz-adv-x="330" 
d="M70 -20l30 320h130l30 -320v-150h-190v150zM90 530h150v-150h-150v150z" />
    <glyph glyph-name="cent" unicode="&#xa2;" horiz-adv-x="540" 
d="M390 600v-70h115v-75l-40 -45h-210q-11 0 -20.5 -9.5t-9.5 -20.5v-230q0 -11 9.5 -20.5t20.5 -9.5h250v-120h-115v-70h-180v70h-5q-67 0 -108.5 39.5t-41.5 100.5v250q0 61 41.5 100.5t108.5 39.5h5v70h180z" />
    <glyph glyph-name="sterling" unicode="&#xa3;" horiz-adv-x="585" 
d="M125 220v105h-60v120h60v125q0 61 41.5 100.5t108.5 39.5h250v-75l-40 -45h-160q-11 0 -20.5 -9.5t-9.5 -20.5v-115h135v-120h-135v-105q0 -41 -28 -63q-13 -11 -27 -17v-10h315v-130h-525v130h30q20 10 32 22q33 31 33 68z" />
    <glyph glyph-name="currency" unicode="&#xa4;" horiz-adv-x="690" 
d="M35 215h70v60h-70v110h70v315h380q73 0 116.5 -44t43.5 -106v-125q0 -65 -44.5 -107.5t-115.5 -42.5h-200v-60h245v-110h-245v-105h-180v105h-70v110zM430 570h-145v-185h145q15 0 25 10t10 25v115q0 15 -10 25t-25 10z" />
    <glyph glyph-name="yen" unicode="&#xa5;" horiz-adv-x="650" 
d="M493 360h67v-120h-128l-17 -35v-15h145v-120h-145v-70h-180v70h-145v120h145v15l-18 35h-127v120h66l-136 270v70h180l120 -330h10l120 330h180v-70z" />
    <glyph glyph-name="brokenbar" unicode="&#xa6;" horiz-adv-x="340" 
d="M260 -210h-180v410h180v-410zM260 770v-410h-180v410h180z" />
    <glyph glyph-name="section" unicode="&#xa7;" horiz-adv-x="585" 
d="M370 215v90q0 25 -25 30l-95 15q-15 0 -25 -10t-10 -25v-90q0 -25 25 -30l95 -15q15 0 25 10t10 25zM45 210v100q0 48 37 73q18 11 38 17v10q-18 6 -33 17q-32 26 -32 73v60q0 61 41.5 100.5t108.5 39.5h300v-75l-40 -45h-210q-11 0 -20.5 -9.5t-9.5 -20.5v-50
q0 -11 9 -19.5t21 -10.5l165 -25q49 -8 84.5 -44.5t35.5 -80.5v-95q0 -46 -35 -73q-19 -12 -35 -17v-10q16 -5 35 -17q35 -27 35 -73v-65q0 -61 -41.5 -100.5t-108.5 -39.5h-335v120h285q11 0 20.5 9.5t9.5 20.5v50q0 11 -9 19.5t-21 10.5l-175 25q-49 6 -84.5 43t-35.5 82z
" />
    <glyph glyph-name="dieresis" unicode="&#xa8;" horiz-adv-x="430" 
d="M180 560h-150v140h150v-140zM400 560h-150v140h150v-140z" />
    <glyph glyph-name="copyright" unicode="&#xa9;" horiz-adv-x="985" 
d="M629 460h-150q-30 0 -30 -30v-160q0 -30 30 -30h180v-100h-220q-63 0 -96.5 31.5t-33.5 88.5v180q0 57 33.5 88.5t96.5 31.5h220v-65zM920 580v-460q0 -65 -44.5 -107.5t-115.5 -42.5h-535q-71 0 -115.5 42.5t-44.5 107.5v460q0 65 44.5 107.5t115.5 42.5h535
q71 0 115.5 -42.5t44.5 -107.5zM235 575v-450q0 -15 10 -25t25 -10h445q15 0 25 10t10 25v450q0 15 -10 25t-25 10h-445q-15 0 -25 -10t-10 -25z" />
    <glyph glyph-name="ordfeminine" unicode="&#xaa;" horiz-adv-x="410" 
d="M285 415h-5q-6 -13 -16 -23q-22 -22 -54 -22h-60q-54 0 -84.5 30t-30.5 74t29.5 72t84.5 28h101v21q0 30 -30 30h-140v85h175q55 0 87.5 -28.5t32.5 -71.5v-230h-73zM155 474q0 -16 5.5 -22.5t19.5 -6.5h30q18 0 29 9t11 21v29h-71q-14 0 -19 -7t-5 -23z" />
    <glyph glyph-name="guillemotleft" unicode="&#xab;" horiz-adv-x="590" 
d="M65 260l100 205h130v-55l-75 -150l75 -150v-55h-130zM295 260l100 205h130v-55l-75 -150l75 -150v-55h-130z" />
    <glyph glyph-name="logicalnot" unicode="&#xac;" horiz-adv-x="510" 
d="M30 450h450v-230h-145v100h-305v130z" />
    <glyph glyph-name="uni00AD" unicode="&#xad;" horiz-adv-x="490" 
d="M30 380h430v-130h-430v130z" />
    <glyph glyph-name="registered" unicode="&#xae;" horiz-adv-x="985" 
d="M920 580v-460q0 -65 -44.5 -107.5t-115.5 -42.5h-535q-71 0 -115.5 42.5t-44.5 107.5v460q0 65 44.5 107.5t115.5 42.5h535q71 0 115.5 -42.5t44.5 -107.5zM235 575v-450q0 -15 10 -25t25 -10h445q15 0 25 10t10 25v450q0 15 -10 25t-25 10h-445q-15 0 -25 -10t-10 -25z
M445 140h-140v420h250q63 0 96.5 -31.5t33.5 -88.5v-40q0 -45 -35 -76q-16 -12 -35 -19l85 -110v-55h-140l-70 140h-45v-140zM515 465h-70v-90h70q30 0 30 30v30q0 30 -30 30z" />
    <glyph glyph-name="macron" unicode="&#xaf;" horiz-adv-x="415" 
d="M370 700v-110h-325v110h325z" />
    <glyph glyph-name="degree" unicode="&#xb0;" horiz-adv-x="435" 
d="M390 610v-140q0 -43 -32.5 -71.5t-87.5 -28.5h-105q-55 0 -87.5 28.5t-32.5 71.5v140q0 43 32.5 71.5t87.5 28.5h105q55 0 87.5 -28.5t32.5 -71.5zM175 590v-100q0 -30 30 -30h25q30 0 30 30v100q0 30 -30 30h-25q-30 0 -30 -30z" />
    <glyph glyph-name="plusminus" unicode="&#xb1;" horiz-adv-x="530" 
d="M40 460h160v165h130v-165h160v-130h-160v-140h160v-130h-450v130h160v140h-160v130z" />
    <glyph glyph-name="twosuperior" unicode="&#xb2;" horiz-adv-x="360" 
d="M325 370h-290v80l140 100l10 9q10 14 10 21q0 30 -30 30h-120v90h160q55 0 87.5 -28.5t32.5 -71.5q0 -33 -33 -68q-13 -14 -32 -27l-55 -35v-10h120v-90z" />
    <glyph glyph-name="threesuperior" unicode="&#xb3;" horiz-adv-x="360" 
d="M325 470v-10q0 -35 -31.5 -62.5t-78.5 -27.5h-180v80h130q30 0 30 30t-30 30h-75v50l85 50v10h-140v80h275v-80l-95 -60q49 0 79.5 -24t30.5 -66z" />
    <glyph glyph-name="acute" unicode="&#xb4;" horiz-adv-x="310" 
d="M105 700h175l-120 -160h-130z" />
    <glyph glyph-name="mu" unicode="&#xb5;" horiz-adv-x="635" 
d="M330 -10h-49q-12 0 -28 10q-7 4 -13 10h-5v-180h-170v700h170v-390q0 -11 9.5 -20.5t20.5 -9.5h90q23 0 36 17q6 7 9 18v385h170v-530h-110l-25 65h-5q-9 -24 -20 -38q-29 -37 -80 -37z" />
    <glyph glyph-name="paragraph" unicode="&#xb6;" horiz-adv-x="670" 
d="M190 700h455v-130h-80v-740h-150v740h-55v-740h-150v480h-20q-67 0 -108.5 39.5t-41.5 100.5v110q0 61 41.5 100.5t108.5 39.5z" />
    <glyph glyph-name="periodcentered" unicode="&#xb7;" horiz-adv-x="310" 
d="M230 275h-150v150h150v-150z" />
    <glyph glyph-name="cedilla" unicode="&#xb8;" horiz-adv-x="306" 
d="M46 -115v115h95v-35h40q42 0 68.5 -25.5t26.5 -64.5v-31q0 -37 -27 -63t-68 -26h-151v80h101q25 0 25 25t-25 25h-85z" />
    <glyph glyph-name="onesuperior" unicode="&#xb9;" horiz-adv-x="270" 
d="M105 610h-70v70l100 20h100v-330h-130v240z" />
    <glyph glyph-name="ordmasculine" unicode="&#xba;" horiz-adv-x="405" 
d="M370 610v-140q0 -43 -32.5 -71.5t-87.5 -28.5h-95q-55 0 -87.5 28.5t-32.5 71.5v140q0 43 32.5 71.5t87.5 28.5h95q55 0 87.5 -28.5t32.5 -71.5zM165 590v-100q0 -30 30 -30h15q30 0 30 30v100q0 30 -30 30h-15q-30 0 -30 -30z" />
    <glyph glyph-name="guillemotright" unicode="&#xbb;" horiz-adv-x="590" 
d="M425 465l100 -205l-100 -205h-130v55l75 150l-75 150v55h130zM195 465l100 -205l-100 -205h-130v55l75 150l-75 150v55h130z" />
    <glyph glyph-name="onequarter" unicode="&#xbc;" horiz-adv-x="816" 
d="M526 700h145v-60l-400 -640h-145v60zM105 610h-70v70l100 20h100v-330h-130v240zM606 330h135v-205h40v-80h-40v-45h-120v45h-175v70zM561 130v-5h60v80h-5z" />
    <glyph glyph-name="onehalf" unicode="&#xbd;" horiz-adv-x="841" 
d="M526 700h145v-60l-400 -640h-145v60zM105 610h-70v70l100 20h100v-330h-130v240zM806 0h-290v80l140 100l10 9q10 14 10 21q0 30 -30 30h-120v90h160q55 0 87.5 -28.5t32.5 -71.5q0 -33 -33 -68q-13 -14 -32 -27l-55 -35v-10h120v-90z" />
    <glyph glyph-name="threequarters" unicode="&#xbe;" horiz-adv-x="855" 
d="M565 700h145v-60l-400 -640h-145v60zM645 330h135v-205h40v-80h-40v-45h-120v45h-175v70zM600 130v-5h60v80h-5zM325 470v-10q0 -35 -31.5 -62.5t-78.5 -27.5h-180v80h130q30 0 30 30t-30 30h-75v50l85 50v10h-140v80h275v-80l-95 -60q49 0 79.5 -24t30.5 -66z" />
    <glyph glyph-name="questiondown" unicode="&#xbf;" horiz-adv-x="505" 
d="M240 530h150v-150h-150v150zM220 45v-50q0 -15 10 -25t25 -10h230l40 -45v-85h-325q-71 0 -115.5 42.5t-44.5 107.5v85q0 73 55 100l110 55q30 16 30 40v40h160v-70q0 -73 -55 -100l-90 -45q-30 -17 -30 -40z" />
    <glyph glyph-name="Agrave" unicode="&#xc0;" horiz-adv-x="690" 
d="M485 0l-35 150h-210l-35 -150h-180v70l200 630h240l200 -630v-70h-180zM415 280l-65 260h-10l-65 -260h140zM170 930h175l75 -160h-130z" />
    <glyph glyph-name="Aacute" unicode="&#xc1;" horiz-adv-x="690" 
d="M485 0l-35 150h-210l-35 -150h-180v70l200 630h240l200 -630v-70h-180zM415 280l-65 260h-10l-65 -260h140zM355 930h175l-120 -160h-130z" />
    <glyph glyph-name="Acircumflex" unicode="&#xc2;" horiz-adv-x="690" 
d="M485 0l-35 150h-210l-35 -150h-180v70l200 630h240l200 -630v-70h-180zM415 280l-65 260h-10l-65 -260h140zM280 770h-135l125 150h150l125 -150h-135l-65 70z" />
    <glyph glyph-name="Atilde" unicode="&#xc3;" horiz-adv-x="690" 
d="M485 0l-35 150h-210l-35 -150h-180v70l200 630h240l200 -630v-70h-180zM415 280l-65 260h-10l-65 -260h140zM180 765v95q0 30 21 50t54 20h15q15 0 35 -13q8 -3 20 -12l45 -30q7 -5 8 -5q8 -5 12 -5q10 0 10 15v45h110v-95q0 -30 -21 -50t-54 -20h-15q-16 0 -35 12
q-5 2 -20 13l-45 30q-1 0 -8 5t-12 5q-10 0 -10 -15v-45h-110z" />
    <glyph glyph-name="Adieresis" unicode="&#xc4;" horiz-adv-x="690" 
d="M485 0l-35 150h-210l-35 -150h-180v70l200 630h240l200 -630v-70h-180zM415 280l-65 260h-10l-65 -260h140zM310 770h-150v140h150v-140zM530 770h-150v140h150v-140z" />
    <glyph glyph-name="Aring" unicode="&#xc5;" horiz-adv-x="690" 
d="M485 0l-35 150h-210l-35 -150h-180v70l196 617q-6 15 -6 33v40q0 39 26.5 64.5t68.5 25.5h70q42 0 68.5 -25.5t26.5 -64.5v-40q0 -18 -6 -33l196 -617v-70h-180zM415 280l-65 260h-10l-65 -260h140zM355 780h-20q-20 0 -20 -20v-40q0 -20 20 -20h22q18 1 18 20v40
q0 20 -20 20z" />
    <glyph glyph-name="AE" unicode="&#xc6;" horiz-adv-x="1005" 
d="M970 700v-85l-40 -45h-275v-150h225v-130h-225v-160h315v-130h-495v180h-220l-65 -180h-175v70l275 630h680zM405 570l-100 -260h170v260h-70z" />
    <glyph glyph-name="Ccedilla" unicode="&#xc7;" horiz-adv-x="605" 
d="M280 130h290v-130h-220v-35h40q42 0 68.5 -25.5t26.5 -64.5v-31q0 -37 -27 -63t-68 -26h-151v80h101q25 0 25 25t-25 25h-85v115h-30q-71 0 -115.5 42.5t-44.5 107.5v400q0 65 44.5 107.5t115.5 42.5h345v-85l-40 -45h-250q-15 0 -25 -10t-10 -25v-370q0 -15 10 -25
t25 -10z" />
    <glyph glyph-name="Egrave" unicode="&#xc8;" horiz-adv-x="615" 
d="M580 700v-85l-40 -45h-280v-150h230v-130h-230v-160h320v-130h-500v700h500zM162 930h175l75 -160h-130z" />
    <glyph glyph-name="Eacute" unicode="&#xc9;" horiz-adv-x="615" 
d="M580 700v-85l-40 -45h-280v-150h230v-130h-230v-160h320v-130h-500v700h500zM307 930h175l-120 -160h-130z" />
    <glyph glyph-name="Ecircumflex" unicode="&#xca;" horiz-adv-x="615" 
d="M580 700v-85l-40 -45h-280v-150h230v-130h-230v-160h320v-130h-500v700h500zM262 770h-135l125 150h150l125 -150h-135l-65 70z" />
    <glyph glyph-name="Edieresis" unicode="&#xcb;" horiz-adv-x="615" 
d="M580 700v-85l-40 -45h-280v-150h230v-130h-230v-160h320v-130h-500v700h500zM292 770h-150v140h150v-140zM512 770h-150v140h150v-140z" />
    <glyph glyph-name="Igrave" unicode="&#xcc;" horiz-adv-x="340" 
d="M260 0h-180v700h180v-700zM-4 930h175l75 -160h-130z" />
    <glyph glyph-name="Iacute" unicode="&#xcd;" horiz-adv-x="340" 
d="M260 0h-180v700h180v-700zM170 930h175l-120 -160h-130z" />
    <glyph glyph-name="Icircumflex" unicode="&#xce;" horiz-adv-x="340" 
d="M260 0h-180v700h180v-700zM106 770h-135l125 150h150l125 -150h-135l-65 70z" />
    <glyph glyph-name="Idieresis" unicode="&#xcf;" horiz-adv-x="340" 
d="M260 0h-180v700h180v-700zM136 770h-150v140h150v-140zM356 770h-150v140h150v-140z" />
    <glyph glyph-name="Eth" unicode="&#xd0;" horiz-adv-x="690" 
d="M465 0h-385v300h-60v110h60v290h385q71 0 115.5 -42.5t44.5 -107.5v-400q0 -65 -44.5 -107.5t-115.5 -42.5zM410 570h-150v-160h115v-110h-115v-170h150q15 0 25 10t10 25v370q0 15 -10 25t-25 10z" />
    <glyph glyph-name="Ntilde" unicode="&#xd1;" horiz-adv-x="710" 
d="M630 700v-700h-195l-200 440h-10l35 -240v-200h-180v700h195l200 -440h10l-35 240v200h180zM190 775v95q0 30 21 50t54 20h15q15 0 35 -13q8 -3 20 -12l45 -30q7 -5 8 -5q8 -5 12 -5q10 0 10 15v45h110v-95q0 -30 -21 -50t-54 -20h-15q-16 0 -35 12q-4 2 -20 13l-45 30
q-1 0 -8 5t-12 5q-10 0 -10 -15v-45h-110z" />
    <glyph glyph-name="Ograve" unicode="&#xd2;" horiz-adv-x="690" 
d="M280 120h130q15 0 25 10t10 25v390q0 15 -10 25t-25 10h-130q-15 0 -25 -10t-10 -25v-390q0 -15 10 -25t25 -10zM465 -10h-240q-71 0 -115.5 42.5t-44.5 107.5v420q0 65 44.5 107.5t115.5 42.5h240q73 0 116.5 -44t43.5 -106v-420q0 -65 -44.5 -107.5t-115.5 -42.5z
M180 930h175l75 -160h-130z" />
    <glyph glyph-name="Oacute" unicode="&#xd3;" horiz-adv-x="690" 
d="M280 120h130q15 0 25 10t10 25v390q0 15 -10 25t-25 10h-130q-15 0 -25 -10t-10 -25v-390q0 -15 10 -25t25 -10zM465 -10h-240q-71 0 -115.5 42.5t-44.5 107.5v420q0 65 44.5 107.5t115.5 42.5h240q73 0 116.5 -44t43.5 -106v-420q0 -65 -44.5 -107.5t-115.5 -42.5z
M355 930h175l-120 -160h-130z" />
    <glyph glyph-name="Ocircumflex" unicode="&#xd4;" horiz-adv-x="690" 
d="M280 120h130q15 0 25 10t10 25v390q0 15 -10 25t-25 10h-130q-15 0 -25 -10t-10 -25v-390q0 -15 10 -25t25 -10zM465 -10h-240q-71 0 -115.5 42.5t-44.5 107.5v420q0 65 44.5 107.5t115.5 42.5h240q73 0 116.5 -44t43.5 -106v-420q0 -65 -44.5 -107.5t-115.5 -42.5z
M280 770h-135l125 150h150l125 -150h-135l-65 70z" />
    <glyph glyph-name="Otilde" unicode="&#xd5;" horiz-adv-x="690" 
d="M280 120h130q15 0 25 10t10 25v390q0 15 -10 25t-25 10h-130q-15 0 -25 -10t-10 -25v-390q0 -15 10 -25t25 -10zM465 -10h-240q-71 0 -115.5 42.5t-44.5 107.5v420q0 65 44.5 107.5t115.5 42.5h240q73 0 116.5 -44t43.5 -106v-420q0 -65 -44.5 -107.5t-115.5 -42.5z
M180 775v95q0 30 21 50t54 20h15q15 0 35 -13q8 -3 20 -12l45 -30q7 -5 8 -5q8 -5 12 -5q10 0 10 15v45h110v-95q0 -30 -21 -50t-54 -20h-15q-16 0 -35 12q-5 2 -20 13l-45 30q-1 0 -8 5t-12 5q-10 0 -10 -15v-45h-110z" />
    <glyph glyph-name="Odieresis" unicode="&#xd6;" horiz-adv-x="690" 
d="M280 120h130q15 0 25 10t10 25v390q0 15 -10 25t-25 10h-130q-15 0 -25 -10t-10 -25v-390q0 -15 10 -25t25 -10zM465 -10h-240q-71 0 -115.5 42.5t-44.5 107.5v420q0 65 44.5 107.5t115.5 42.5h240q73 0 116.5 -44t43.5 -106v-420q0 -65 -44.5 -107.5t-115.5 -42.5z
M310 770h-150v140h150v-140zM530 770h-150v140h150v-140z" />
    <glyph glyph-name="multiply" unicode="&#xd7;" horiz-adv-x="510" 
d="M255 215l-125 -120l-90 95l125 115l-125 115l90 95l125 -120l125 120l90 -95l-125 -115l125 -115l-90 -95z" />
    <glyph glyph-name="Oslash" unicode="&#xd8;" horiz-adv-x="690" 
d="M617 695l-24 -42q32 -41 32 -93v-420q0 -65 -44.5 -107.5t-115.5 -42.5h-240h-6l-22 -40h-125v55l24 43q-31 38 -31 92v420q0 65 44.5 107.5t115.5 42.5h240h4l23 40h125v-55zM283 120h127q15 0 25 10t10 25v265zM245 545v-263l161 298h-126q-15 0 -25 -10t-10 -25z" />
    <glyph glyph-name="Ugrave" unicode="&#xd9;" horiz-adv-x="720" 
d="M480 -10h-240q-71 0 -115.5 42.5t-44.5 107.5v560h180v-545q0 -15 10 -25t25 -10h130q15 0 25 10t10 25v545h180v-560q0 -65 -44.5 -107.5t-115.5 -42.5zM195 930h175l75 -160h-130z" />
    <glyph glyph-name="Uacute" unicode="&#xda;" horiz-adv-x="720" 
d="M480 -10h-240q-71 0 -115.5 42.5t-44.5 107.5v560h180v-545q0 -15 10 -25t25 -10h130q15 0 25 10t10 25v545h180v-560q0 -65 -44.5 -107.5t-115.5 -42.5zM360 930h175l-120 -160h-130z" />
    <glyph glyph-name="Ucircumflex" unicode="&#xdb;" horiz-adv-x="720" 
d="M480 -10h-240q-71 0 -115.5 42.5t-44.5 107.5v560h180v-545q0 -15 10 -25t25 -10h130q15 0 25 10t10 25v545h180v-560q0 -65 -44.5 -107.5t-115.5 -42.5zM295 770h-135l125 150h150l125 -150h-135l-65 70z" />
    <glyph glyph-name="Udieresis" unicode="&#xdc;" horiz-adv-x="720" 
d="M480 -10h-240q-71 0 -115.5 42.5t-44.5 107.5v560h180v-545q0 -15 10 -25t25 -10h130q15 0 25 10t10 25v545h180v-560q0 -65 -44.5 -107.5t-115.5 -42.5zM325 770h-150v140h150v-140zM545 770h-150v140h150v-140z" />
    <glyph glyph-name="Yacute" unicode="&#xdd;" horiz-adv-x="650" 
d="M450 700h180v-70l-215 -425v-205h-180v205l-215 425v70h180l120 -330h10zM325 910h175l-120 -160h-130z" />
    <glyph glyph-name="Thorn" unicode="&#xde;" horiz-adv-x="665" 
d="M260 0h-180v700h180v-100h200q72 0 116 -44t44 -106v-205q0 -65 -44.5 -107.5t-115.5 -42.5h-200v-95zM405 470h-145v-245h145q15 0 25 10t10 25v175q0 15 -10 25t-25 10z" />
    <glyph glyph-name="germandbls" unicode="&#xdf;" horiz-adv-x="670" 
d="M540 565q0 -43 -19 -73t-37.5 -54.5t-18.5 -52.5v-15q0 -22 17.5 -39.5t42.5 -30.5t50 -28t42.5 -38.5t17.5 -53.5v-45q0 -61 -39 -98t-106 -37h-195v120h145q25 0 25 25v20q0 21 -25 40t-55 33.5t-55 47.5t-25 79v20q0 43 16.5 72.5t32.5 51.5t16 46q0 25 -25 25h-70
q-15 0 -25 -10t-10 -25v-545h-170v550q0 65 44.5 107.5t115.5 42.5h165q67 0 106 -37t39 -98z" />
    <glyph glyph-name="agrave" unicode="&#xe0;" horiz-adv-x="610" 
d="M190 320h185v65q0 11 -9.5 20.5t-20.5 9.5h-250v120h300q67 0 108.5 -39.5t41.5 -100.5v-395h-110l-25 65h-5q-9 -24 -20 -38q-29 -37 -80 -37h-115q-67 0 -108.5 39.5t-41.5 100.5v50q0 61 41.5 100.5t108.5 39.5zM210 180v-40q0 -11 9.5 -20.5t20.5 -9.5h90q23 0 36 17
q6 7 9 18v65h-135q-11 0 -20.5 -9.5t-9.5 -20.5zM150 780h175l75 -160h-130z" />
    <glyph glyph-name="aacute" unicode="&#xe1;" horiz-adv-x="610" 
d="M190 320h185v65q0 11 -9.5 20.5t-20.5 9.5h-250v120h300q67 0 108.5 -39.5t41.5 -100.5v-395h-110l-25 65h-5q-9 -24 -20 -38q-29 -37 -80 -37h-115q-67 0 -108.5 39.5t-41.5 100.5v50q0 61 41.5 100.5t108.5 39.5zM210 180v-40q0 -11 9.5 -20.5t20.5 -9.5h90q23 0 36 17
q6 7 9 18v65h-135q-11 0 -20.5 -9.5t-9.5 -20.5zM315 780h175l-120 -160h-130z" />
    <glyph glyph-name="acircumflex" unicode="&#xe2;" horiz-adv-x="610" 
d="M190 320h185v65q0 11 -9.5 20.5t-20.5 9.5h-250v120h300q67 0 108.5 -39.5t41.5 -100.5v-395h-110l-25 65h-5q-9 -24 -20 -38q-29 -37 -80 -37h-115q-67 0 -108.5 39.5t-41.5 100.5v50q0 61 41.5 100.5t108.5 39.5zM210 180v-40q0 -11 9.5 -20.5t20.5 -9.5h90q23 0 36 17
q6 7 9 18v65h-135q-11 0 -20.5 -9.5t-9.5 -20.5zM250 620h-135l125 150h150l125 -150h-135l-65 70z" />
    <glyph glyph-name="atilde" unicode="&#xe3;" horiz-adv-x="610" 
d="M190 320h185v65q0 11 -9.5 20.5t-20.5 9.5h-250v120h300q67 0 108.5 -39.5t41.5 -100.5v-395h-110l-25 65h-5q-9 -24 -20 -38q-29 -37 -80 -37h-115q-67 0 -108.5 39.5t-41.5 100.5v50q0 61 41.5 100.5t108.5 39.5zM210 180v-40q0 -11 9.5 -20.5t20.5 -9.5h90q23 0 36 17
q6 7 9 18v65h-135q-11 0 -20.5 -9.5t-9.5 -20.5zM140 615v95q0 30 21 50t54 20h15q15 0 35 -13q8 -3 20 -12l45 -30q7 -5 8 -5q8 -5 12 -5q10 0 10 15v45h110v-95q0 -30 -21 -50t-54 -20h-15q-16 0 -35 12q-5 2 -20 13l-45 30q-1 0 -8 5t-12 5q-10 0 -10 -15v-45h-110z" />
    <glyph glyph-name="adieresis" unicode="&#xe4;" horiz-adv-x="610" 
d="M190 320h185v65q0 11 -9.5 20.5t-20.5 9.5h-250v120h300q67 0 108.5 -39.5t41.5 -100.5v-395h-110l-25 65h-5q-9 -24 -20 -38q-29 -37 -80 -37h-115q-67 0 -108.5 39.5t-41.5 100.5v50q0 61 41.5 100.5t108.5 39.5zM210 180v-40q0 -11 9.5 -20.5t20.5 -9.5h90q23 0 36 17
q6 7 9 18v65h-135q-11 0 -20.5 -9.5t-9.5 -20.5zM280 620h-150v140h150v-140zM500 620h-150v140h150v-140z" />
    <glyph glyph-name="aring" unicode="&#xe5;" horiz-adv-x="610" 
d="M190 320h185v65q0 11 -9.5 20.5t-20.5 9.5h-250v120h300q67 0 108.5 -39.5t41.5 -100.5v-395h-110l-25 65h-5q-9 -24 -20 -38q-29 -37 -80 -37h-115q-67 0 -108.5 39.5t-41.5 100.5v50q0 61 41.5 100.5t108.5 39.5zM210 180v-40q0 -11 9.5 -20.5t20.5 -9.5h90q23 0 36 17
q6 7 9 18v65h-135q-11 0 -20.5 -9.5t-9.5 -20.5zM340 580h-70q-42 0 -68.5 25.5t-26.5 64.5v40q0 39 26.5 64.5t68.5 25.5h70q42 0 68.5 -25.5t26.5 -64.5v-40q0 -39 -26.5 -64.5t-68.5 -25.5zM315 730h-20q-20 0 -20 -20v-40q0 -20 20 -20h20q20 0 20 20v40q0 20 -20 20z
" />
    <glyph glyph-name="ae" unicode="&#xe6;" horiz-adv-x="920" 
d="M575 120h265v-120h-315q-43 0 -72 35q-14 16 -23 35q-10 -21 -27 -40q-38 -40 -98 -40h-115q-67 0 -108.5 39.5t-41.5 100.5v50q0 61 41.5 100.5t108.5 39.5h185v68q-2 12 -10.5 19.5t-19.5 7.5h-250v120h270q36 0 67 -33q10 -10 23 -32q9 19 22 35q31 35 68 35h170
q67 0 108.5 -39.5t41.5 -100.5v-195h-320v-55q0 -11 9.5 -20.5t20.5 -9.5zM210 180v-40q0 -11 9.5 -20.5t20.5 -9.5h90q14 0 25.5 8t15.5 15.5t4 10.5v66h-135q-11 0 -20.5 -9.5t-9.5 -20.5zM545 390v-70h150v70q0 11 -9.5 20.5t-20.5 9.5h-90q-11 0 -20.5 -9.5t-9.5 -20.5z
" />
    <glyph glyph-name="ccedilla" unicode="&#xe7;" horiz-adv-x="540" 
d="M255 120h250v-120h-197v-35h40q42 0 68.5 -25.5t26.5 -64.5v-31q0 -37 -27 -63t-68 -26h-151v80h101q25 0 25 25t-25 25h-85v115h-8q-67 0 -108.5 39.5t-41.5 100.5v250q0 61 41.5 100.5t108.5 39.5h300v-75l-40 -45h-210q-11 0 -20.5 -9.5t-9.5 -20.5v-230
q0 -11 9.5 -20.5t20.5 -9.5z" />
    <glyph glyph-name="egrave" unicode="&#xe8;" 
d="M255 120h265v-120h-315q-67 0 -108.5 39.5t-41.5 100.5v260q0 61 41.5 100.5t108.5 39.5h190q67 0 108.5 -39.5t41.5 -100.5v-195h-320v-55q0 -11 9.5 -20.5t20.5 -9.5zM225 390v-70h150v70q0 11 -9.5 20.5t-20.5 9.5h-90q-11 0 -20.5 -9.5t-9.5 -20.5zM145 770h175
l75 -160h-130z" />
    <glyph glyph-name="eacute" unicode="&#xe9;" 
d="M255 120h265v-120h-315q-67 0 -108.5 39.5t-41.5 100.5v260q0 61 41.5 100.5t108.5 39.5h190q67 0 108.5 -39.5t41.5 -100.5v-195h-320v-55q0 -11 9.5 -20.5t20.5 -9.5zM225 390v-70h150v70q0 11 -9.5 20.5t-20.5 9.5h-90q-11 0 -20.5 -9.5t-9.5 -20.5zM300 770h175
l-120 -160h-130z" />
    <glyph glyph-name="ecircumflex" unicode="&#xea;" 
d="M255 120h265v-120h-315q-67 0 -108.5 39.5t-41.5 100.5v260q0 61 41.5 100.5t108.5 39.5h190q67 0 108.5 -39.5t41.5 -100.5v-195h-320v-55q0 -11 9.5 -20.5t20.5 -9.5zM225 390v-70h150v70q0 11 -9.5 20.5t-20.5 9.5h-90q-11 0 -20.5 -9.5t-9.5 -20.5zM235 610h-135
l125 150h150l125 -150h-135l-65 70z" />
    <glyph glyph-name="edieresis" unicode="&#xeb;" 
d="M255 120h265v-120h-315q-67 0 -108.5 39.5t-41.5 100.5v260q0 61 41.5 100.5t108.5 39.5h190q67 0 108.5 -39.5t41.5 -100.5v-195h-320v-55q0 -11 9.5 -20.5t20.5 -9.5zM225 390v-70h150v70q0 11 -9.5 20.5t-20.5 9.5h-90q-11 0 -20.5 -9.5t-9.5 -20.5zM265 610h-150v140
h150v-140zM485 610h-150v140h150v-140z" />
    <glyph glyph-name="igrave" unicode="&#xec;" horiz-adv-x="300" 
d="M235 530v-530h-170v530h170zM-34 770h175l75 -160h-130z" />
    <glyph glyph-name="iacute" unicode="&#xed;" horiz-adv-x="300" 
d="M235 530v-530h-170v530h170zM150 780h175l-120 -160h-130z" />
    <glyph glyph-name="icircumflex" unicode="&#xee;" horiz-adv-x="300" 
d="M235 530v-530h-170v530h170zM86 610h-135l125 150h150l125 -150h-135l-65 70z" />
    <glyph glyph-name="idieresis" unicode="&#xef;" horiz-adv-x="300" 
d="M235 530v-530h-170v530h170zM116 610h-150v140h150v-140zM336 610h-150v140h150v-140z" />
    <glyph glyph-name="eth" unicode="&#xf0;" horiz-adv-x="630" 
d="M355 775l-10 -65l40 -5q86 -11 130.5 -53.5t44.5 -111.5v-410q0 -61 -41.5 -100.5t-108.5 -39.5h-205q-67 0 -108.5 39.5t-41.5 100.5v195q0 61 41.5 100.5t108.5 39.5h185v75q0 29 -35 35l-30 5l-10 -75l-130 15l10 75l-95 10l20 130l95 -10l10 65zM390 345h-135
q-11 0 -20.5 -9.5t-9.5 -20.5v-175q0 -11 9.5 -20.5t20.5 -9.5h105q11 0 20.5 9.5t9.5 20.5v205z" />
    <glyph glyph-name="ntilde" unicode="&#xf1;" horiz-adv-x="635" 
d="M305 540h115q67 0 108.5 -39.5t41.5 -100.5v-400h-170v390q0 11 -9.5 20.5t-20.5 9.5h-90q-22 0 -36 -18q-6 -7 -9 -17v-385h-170v530h110l25 -65h5q9 24 20 37q30 38 80 38zM152 625v95q0 30 21 50t54 20h15q15 0 35 -13q8 -3 20 -12l45 -30q7 -5 8 -5q8 -5 12 -5
q10 0 10 15v45h110v-95q0 -30 -21 -50t-54 -20h-15q-16 0 -35 12q-5 2 -20 13l-45 30q-1 0 -8 5t-12 5q-10 0 -10 -15v-45h-110z" />
    <glyph glyph-name="ograve" unicode="&#xf2;" horiz-adv-x="625" 
d="M570 400v-270q0 -61 -41.5 -100.5t-108.5 -39.5h-215q-67 0 -108.5 39.5t-41.5 100.5v270q0 61 41.5 100.5t108.5 39.5h215q67 0 108.5 -39.5t41.5 -100.5zM255 110h115q11 0 20.5 9.5t9.5 20.5v250q0 11 -9.5 20.5t-20.5 9.5h-115q-11 0 -20.5 -9.5t-9.5 -20.5v-250
q0 -11 9.5 -20.5t20.5 -9.5zM137 770h175l75 -160h-130z" />
    <glyph glyph-name="oacute" unicode="&#xf3;" horiz-adv-x="625" 
d="M570 400v-270q0 -61 -41.5 -100.5t-108.5 -39.5h-215q-67 0 -108.5 39.5t-41.5 100.5v270q0 61 41.5 100.5t108.5 39.5h215q67 0 108.5 -39.5t41.5 -100.5zM255 110h115q11 0 20.5 9.5t9.5 20.5v250q0 11 -9.5 20.5t-20.5 9.5h-115q-11 0 -20.5 -9.5t-9.5 -20.5v-250
q0 -11 9.5 -20.5t20.5 -9.5zM312 770h175l-120 -160h-130z" />
    <glyph glyph-name="ocircumflex" unicode="&#xf4;" horiz-adv-x="625" 
d="M570 400v-270q0 -61 -41.5 -100.5t-108.5 -39.5h-215q-67 0 -108.5 39.5t-41.5 100.5v270q0 61 41.5 100.5t108.5 39.5h215q67 0 108.5 -39.5t41.5 -100.5zM255 110h115q11 0 20.5 9.5t9.5 20.5v250q0 11 -9.5 20.5t-20.5 9.5h-115q-11 0 -20.5 -9.5t-9.5 -20.5v-250
q0 -11 9.5 -20.5t20.5 -9.5zM247 610h-135l125 150h150l125 -150h-135l-65 70z" />
    <glyph glyph-name="otilde" unicode="&#xf5;" horiz-adv-x="625" 
d="M570 400v-270q0 -61 -41.5 -100.5t-108.5 -39.5h-215q-67 0 -108.5 39.5t-41.5 100.5v270q0 61 41.5 100.5t108.5 39.5h215q67 0 108.5 -39.5t41.5 -100.5zM255 110h115q11 0 20.5 9.5t9.5 20.5v250q0 11 -9.5 20.5t-20.5 9.5h-115q-11 0 -20.5 -9.5t-9.5 -20.5v-250
q0 -11 9.5 -20.5t20.5 -9.5zM147 605v95q0 30 21 50t54 20h15q15 0 35 -13q8 -3 20 -12l45 -30q7 -5 8 -5q8 -5 12 -5q10 0 10 15v45h110v-95q0 -30 -21 -50t-54 -20h-15q-16 0 -35 12q-5 2 -20 13l-45 30q-1 0 -8 5t-12 5q-10 0 -10 -15v-45h-110z" />
    <glyph glyph-name="odieresis" unicode="&#xf6;" horiz-adv-x="625" 
d="M570 400v-270q0 -61 -41.5 -100.5t-108.5 -39.5h-215q-67 0 -108.5 39.5t-41.5 100.5v270q0 61 41.5 100.5t108.5 39.5h215q67 0 108.5 -39.5t41.5 -100.5zM255 110h115q11 0 20.5 9.5t9.5 20.5v250q0 11 -9.5 20.5t-20.5 9.5h-115q-11 0 -20.5 -9.5t-9.5 -20.5v-250
q0 -11 9.5 -20.5t20.5 -9.5zM277 610h-150v140h150v-140zM497 610h-150v140h150v-140z" />
    <glyph glyph-name="divide" unicode="&#xf7;" horiz-adv-x="490" 
d="M30 380h430v-130h-430v130zM320 60h-150v140h150v-140zM320 430h-150v140h150v-140z" />
    <glyph glyph-name="oslash" unicode="&#xf8;" horiz-adv-x="625" 
d="M535 535l-16 -28q51 -40 51 -107v-270q0 -61 -41.5 -100.5t-108.5 -39.5h-193l-22 -40h-115v45l15 27q-50 39 -50 108v270q0 61 41.5 100.5t108.5 39.5h192l23 40h115v-45zM285 110h85q11 0 20.5 9.5t9.5 20.5v176zM225 390v-176l114 206h-84q-11 0 -20.5 -9.5
t-9.5 -20.5z" />
    <glyph glyph-name="ugrave" unicode="&#xf9;" horiz-adv-x="635" 
d="M330 -10h-115q-67 0 -108.5 39.5t-41.5 100.5v400h170v-390q0 -11 9.5 -20.5t20.5 -9.5h90q23 0 36 17q6 7 9 18v385h170v-530h-110l-25 65h-5q-9 -24 -20 -38q-29 -37 -80 -37zM152 760h175l75 -160h-130z" />
    <glyph glyph-name="uacute" unicode="&#xfa;" horiz-adv-x="635" 
d="M330 -10h-115q-67 0 -108.5 39.5t-41.5 100.5v400h170v-390q0 -11 9.5 -20.5t20.5 -9.5h90q23 0 36 17q6 7 9 18v385h170v-530h-110l-25 65h-5q-9 -24 -20 -38q-29 -37 -80 -37zM317 750h175l-120 -160h-130z" />
    <glyph glyph-name="ucircumflex" unicode="&#xfb;" horiz-adv-x="635" 
d="M330 -10h-115q-67 0 -108.5 39.5t-41.5 100.5v400h170v-390q0 -11 9.5 -20.5t20.5 -9.5h90q23 0 36 17q6 7 9 18v385h170v-530h-110l-25 65h-5q-9 -24 -20 -38q-29 -37 -80 -37zM262 610h-135l125 150h150l125 -150h-135l-65 70z" />
    <glyph glyph-name="udieresis" unicode="&#xfc;" horiz-adv-x="635" 
d="M330 -10h-115q-67 0 -108.5 39.5t-41.5 100.5v400h170v-390q0 -11 9.5 -20.5t20.5 -9.5h90q23 0 36 17q6 7 9 18v385h170v-530h-110l-25 65h-5q-9 -24 -20 -38q-29 -37 -80 -37zM282 610h-150v140h150v-140zM502 610h-150v140h150v-140z" />
    <glyph glyph-name="yacute" unicode="&#xfd;" horiz-adv-x="580" 
d="M560 465l-185 -515q-17 -50 -61.5 -85t-103.5 -35h-115v120h80q38 0 45 40v10l-200 465v65h170l105 -370h10l85 370h170v-65zM290 770h175l-120 -160h-130z" />
    <glyph glyph-name="thorn" unicode="&#xfe;" horiz-adv-x="625" 
d="M245 530h175q67 0 108.5 -39.5t41.5 -100.5v-250q0 -61 -41.5 -100.5t-108.5 -39.5h-175v-170h-170v870h170v-170zM400 150v230q0 11 -9.5 20.5t-20.5 9.5h-125v-290h125q11 0 20.5 9.5t9.5 20.5z" />
    <glyph glyph-name="ydieresis" unicode="&#xff;" horiz-adv-x="580" 
d="M560 465l-185 -515q-17 -50 -61.5 -85t-103.5 -35h-115v120h80q38 0 45 40v10l-200 465v65h170l105 -370h10l85 370h170v-65zM255 610h-150v140h150v-140zM475 610h-150v140h150v-140z" />
    <glyph glyph-name="Amacron" unicode="&#x100;" horiz-adv-x="690" 
d="M485 0l-35 150h-210l-35 -150h-180v70l200 630h240l200 -630v-70h-180zM415 280l-65 260h-10l-65 -260h140zM507 890v-110h-325v110h325z" />
    <glyph glyph-name="amacron" unicode="&#x101;" horiz-adv-x="610" 
d="M190 320h185v65q0 11 -9.5 20.5t-20.5 9.5h-250v120h300q67 0 108.5 -39.5t41.5 -100.5v-395h-110l-25 65h-5q-9 -24 -20 -38q-29 -37 -80 -37h-115q-67 0 -108.5 39.5t-41.5 100.5v50q0 61 41.5 100.5t108.5 39.5zM210 180v-40q0 -11 9.5 -20.5t20.5 -9.5h90q23 0 36 17
q6 7 9 18v65h-135q-11 0 -20.5 -9.5t-9.5 -20.5zM467 720v-110h-325v110h325z" />
    <glyph glyph-name="Abreve" unicode="&#x102;" horiz-adv-x="690" 
d="M485 0l-35 150h-210l-35 -150h-180v70l200 630h240l200 -630v-70h-180zM415 280l-65 260h-10l-65 -260h140zM425 770h-160q-42 0 -66 24t-24 66v70h120v-45q0 -25 25 -25h50q25 0 25 25v45h120v-70q0 -42 -24 -66t-66 -24z" />
    <glyph glyph-name="abreve" unicode="&#x103;" horiz-adv-x="610" 
d="M190 320h185v65q0 11 -9.5 20.5t-20.5 9.5h-250v120h300q67 0 108.5 -39.5t41.5 -100.5v-395h-110l-25 65h-5q-9 -24 -20 -38q-29 -37 -80 -37h-115q-67 0 -108.5 39.5t-41.5 100.5v50q0 61 41.5 100.5t108.5 39.5zM210 180v-40q0 -11 9.5 -20.5t20.5 -9.5h90q23 0 36 17
q6 7 9 18v65h-135q-11 0 -20.5 -9.5t-9.5 -20.5zM385 610h-160q-42 0 -66 24t-24 66v70h120v-45q0 -25 25 -25h50q25 0 25 25v45h120v-70q0 -42 -24 -66t-66 -24z" />
    <glyph glyph-name="Aogonek" unicode="&#x104;" horiz-adv-x="690" 
d="M485 0l-35 150h-210l-35 -150h-180v70l200 630h240l200 -630v-95q-33 -8 -53 -19q-52 -29 -52 -71q0 -25 25 -25h80v-80h-90q-135 0 -135 105q0 50 55 87q27 19 55 28h-65zM415 280l-65 260h-10l-65 -260h140z" />
    <glyph glyph-name="aogonek" unicode="&#x105;" horiz-adv-x="610" 
d="M430 0h5l-25 65h-5q-9 -24 -20 -38q-29 -37 -80 -37h-115q-67 0 -108.5 39.5t-41.5 100.5v50q0 61 41.5 100.5t108.5 39.5h185v65q0 11 -9.5 20.5t-20.5 9.5h-250v120h300q67 0 108.5 -39.5t41.5 -100.5v-420q-33 -8 -53 -19q-52 -29 -52 -71q0 -25 25 -25h80v-80h-90
q-135 0 -135 105q0 50 55 87q27 19 55 28zM210 180v-40q0 -11 9.5 -20.5t20.5 -9.5h90q23 0 36 17q6 7 9 18v65h-135q-11 0 -20.5 -9.5t-9.5 -20.5z" />
    <glyph glyph-name="Cacute" unicode="&#x106;" horiz-adv-x="605" 
d="M280 130h290v-130h-345q-71 0 -115.5 42.5t-44.5 107.5v400q0 65 44.5 107.5t115.5 42.5h345v-85l-40 -45h-250q-15 0 -25 -10t-10 -25v-370q0 -15 10 -25t25 -10zM342 930h175l-120 -160h-130z" />
    <glyph glyph-name="cacute" unicode="&#x107;" horiz-adv-x="540" 
d="M255 120h250v-120h-300q-67 0 -108.5 39.5t-41.5 100.5v250q0 61 41.5 100.5t108.5 39.5h300v-75l-40 -45h-210q-11 0 -20.5 -9.5t-9.5 -20.5v-230q0 -11 9.5 -20.5t20.5 -9.5zM300 770h175l-120 -160h-130z" />
    <glyph glyph-name="Ccircumflex" unicode="&#x108;" horiz-adv-x="605" 
d="M280 130h290v-130h-345q-71 0 -115.5 42.5t-44.5 107.5v400q0 65 44.5 107.5t115.5 42.5h345v-85l-40 -45h-250q-15 0 -25 -10t-10 -25v-370q0 -15 10 -25t25 -10zM257 770h-135l125 150h150l125 -150h-135l-65 70z" />
    <glyph glyph-name="ccircumflex" unicode="&#x109;" horiz-adv-x="540" 
d="M255 120h250v-120h-300q-67 0 -108.5 39.5t-41.5 100.5v250q0 61 41.5 100.5t108.5 39.5h300v-75l-40 -45h-210q-11 0 -20.5 -9.5t-9.5 -20.5v-230q0 -11 9.5 -20.5t20.5 -9.5zM225 600h-135l125 150h150l125 -150h-135l-65 70z" />
    <glyph glyph-name="Cdotaccent" unicode="&#x10a;" horiz-adv-x="605" 
d="M280 130h290v-130h-345q-71 0 -115.5 42.5t-44.5 107.5v400q0 65 44.5 107.5t115.5 42.5h345v-85l-40 -45h-250q-15 0 -25 -10t-10 -25v-370q0 -15 10 -25t25 -10zM417 770h-170v140h170v-140z" />
    <glyph glyph-name="cdotaccent" unicode="&#x10b;" horiz-adv-x="540" 
d="M255 120h250v-120h-300q-67 0 -108.5 39.5t-41.5 100.5v250q0 61 41.5 100.5t108.5 39.5h300v-75l-40 -45h-210q-11 0 -20.5 -9.5t-9.5 -20.5v-230q0 -11 9.5 -20.5t20.5 -9.5zM385 610h-170v140h170v-140z" />
    <glyph glyph-name="Ccaron" unicode="&#x10c;" horiz-adv-x="605" 
d="M280 130h290v-130h-345q-71 0 -115.5 42.5t-44.5 107.5v400q0 65 44.5 107.5t115.5 42.5h345v-85l-40 -45h-250q-15 0 -25 -10t-10 -25v-370q0 -15 10 -25t25 -10zM132 920h135l65 -70l65 70h135l-125 -150h-150z" />
    <glyph glyph-name="ccaron" unicode="&#x10d;" horiz-adv-x="540" 
d="M255 120h250v-120h-300q-67 0 -108.5 39.5t-41.5 100.5v250q0 61 41.5 100.5t108.5 39.5h300v-75l-40 -45h-210q-11 0 -20.5 -9.5t-9.5 -20.5v-230q0 -11 9.5 -20.5t20.5 -9.5zM90 750h135l65 -70l65 70h135l-125 -150h-150z" />
    <glyph glyph-name="Dcaron" unicode="&#x10e;" horiz-adv-x="690" 
d="M465 0h-385v700h385q71 0 115.5 -42.5t44.5 -107.5v-400q0 -65 -44.5 -107.5t-115.5 -42.5zM410 570h-150v-440h150q15 0 25 10t10 25v370q0 15 -10 25t-25 10zM135 910h135l65 -70l65 70h135l-125 -150h-150z" />
    <glyph glyph-name="dcaron" unicode="&#x10f;" horiz-adv-x="795" 
d="M205 530h175v170h170v-700h-110l-25 65h-5q-9 -24 -20 -38q-29 -37 -80 -37h-105q-67 0 -108.5 39.5t-41.5 100.5v260q0 61 41.5 100.5t108.5 39.5zM225 380v-240q0 -11 9.5 -20.5t20.5 -9.5h80q23 0 36 17q6 7 9 18v265h-125q-11 0 -20.5 -9.5t-9.5 -20.5zM785 585
l-70 -135h-80v250h150v-115z" />
    <glyph glyph-name="Dcroat" unicode="&#x110;" horiz-adv-x="690" 
d="M465 0h-385v300h-60v110h60v290h385q71 0 115.5 -42.5t44.5 -107.5v-400q0 -65 -44.5 -107.5t-115.5 -42.5zM410 570h-150v-160h115v-110h-115v-170h150q15 0 25 10t10 25v370q0 15 -10 25t-25 10z" />
    <glyph glyph-name="dcroat" unicode="&#x111;" horiz-adv-x="625" 
d="M220 610h160v90h170v-90h60v-100h-60v-510h-110l-25 65h-5q-9 -24 -20 -38q-29 -37 -80 -37h-105q-67 0 -108.5 39.5t-41.5 100.5v180q0 61 41.5 100.5t108.5 39.5h175v60h-160v100zM225 300v-160q0 -11 9.5 -20.5t20.5 -9.5h80q23 0 36 17q6 7 9 18v185h-125
q-11 0 -20.5 -9.5t-9.5 -20.5z" />
    <glyph glyph-name="Emacron" unicode="&#x112;" horiz-adv-x="615" 
d="M580 700v-85l-40 -45h-280v-150h230v-130h-230v-160h320v-130h-500v700h500zM500 890v-110h-325v110h325z" />
    <glyph glyph-name="emacron" unicode="&#x113;" 
d="M255 120h265v-120h-315q-67 0 -108.5 39.5t-41.5 100.5v260q0 61 41.5 100.5t108.5 39.5h190q67 0 108.5 -39.5t41.5 -100.5v-195h-320v-55q0 -11 9.5 -20.5t20.5 -9.5zM225 390v-70h150v70q0 11 -9.5 20.5t-20.5 9.5h-90q-11 0 -20.5 -9.5t-9.5 -20.5zM472 730v-110
h-325v110h325z" />
    <glyph glyph-name="Ebreve" unicode="&#x114;" horiz-adv-x="615" 
d="M580 700v-85l-40 -45h-280v-150h230v-130h-230v-160h320v-130h-500v700h500zM407 770h-160q-42 0 -66 24t-24 66v70h120v-45q0 -25 25 -25h50q25 0 25 25v45h120v-70q0 -42 -24 -66t-66 -24z" />
    <glyph glyph-name="ebreve" unicode="&#x115;" 
d="M255 120h265v-120h-315q-67 0 -108.5 39.5t-41.5 100.5v260q0 61 41.5 100.5t108.5 39.5h190q67 0 108.5 -39.5t41.5 -100.5v-195h-320v-55q0 -11 9.5 -20.5t20.5 -9.5zM225 390v-70h150v70q0 11 -9.5 20.5t-20.5 9.5h-90q-11 0 -20.5 -9.5t-9.5 -20.5zM380 610h-160
q-42 0 -66 24t-24 66v70h120v-45q0 -25 25 -25h50q25 0 25 25v45h120v-70q0 -42 -24 -66t-66 -24z" />
    <glyph glyph-name="Edotaccent" unicode="&#x116;" horiz-adv-x="615" 
d="M580 700v-85l-40 -45h-280v-150h230v-130h-230v-160h320v-130h-500v700h500zM422 770h-170v140h170v-140z" />
    <glyph glyph-name="edotaccent" unicode="&#x117;" 
d="M255 120h265v-120h-315q-67 0 -108.5 39.5t-41.5 100.5v260q0 61 41.5 100.5t108.5 39.5h190q67 0 108.5 -39.5t41.5 -100.5v-195h-320v-55q0 -11 9.5 -20.5t20.5 -9.5zM225 390v-70h150v70q0 11 -9.5 20.5t-20.5 9.5h-90q-11 0 -20.5 -9.5t-9.5 -20.5zM385 610h-170v140
h170v-140z" />
    <glyph glyph-name="Eogonek" unicode="&#x118;" horiz-adv-x="615" 
d="M580 700v-85l-40 -45h-280v-150h230v-130h-230v-160h320v-130h-140q-38 -14 -63 -31q-62 -40 -62 -84q0 -25 25 -25h80v-80h-90q-135 0 -135 105q0 50 55 87q27 19 55 28h-225v700h500z" />
    <glyph glyph-name="eogonek" unicode="&#x119;" 
d="M255 120h265v-120h-125l10 -1q-36 -15 -58 -31q-57 -39 -57 -83q0 -25 25 -25h80v-80h-90q-135 0 -135 105q0 50 55 87q27 19 55 28h-75q-67 0 -108.5 39.5t-41.5 100.5v260q0 61 41.5 100.5t108.5 39.5h190q67 0 108.5 -39.5t41.5 -100.5v-195h-320v-55q0 -11 9.5 -20.5
t20.5 -9.5zM225 390v-70h150v70q0 11 -9.5 20.5t-20.5 9.5h-90q-11 0 -20.5 -9.5t-9.5 -20.5z" />
    <glyph glyph-name="Ecaron" unicode="&#x11a;" horiz-adv-x="615" 
d="M580 700v-85l-40 -45h-280v-150h230v-130h-230v-160h320v-130h-500v700h500zM127 910h135l65 -70l65 70h135l-125 -150h-150z" />
    <glyph glyph-name="ecaron" unicode="&#x11b;" 
d="M255 120h265v-120h-315q-67 0 -108.5 39.5t-41.5 100.5v260q0 61 41.5 100.5t108.5 39.5h190q67 0 108.5 -39.5t41.5 -100.5v-195h-320v-55q0 -11 9.5 -20.5t20.5 -9.5zM225 390v-70h150v70q0 11 -9.5 20.5t-20.5 9.5h-90q-11 0 -20.5 -9.5t-9.5 -20.5zM100 760h135
l65 -70l65 70h135l-125 -150h-150z" />
    <glyph glyph-name="Gcircumflex" unicode="&#x11c;" horiz-adv-x="665" 
d="M325 415h275v-415h-375q-71 0 -115.5 42.5t-44.5 107.5v400q0 65 44.5 107.5t115.5 42.5h354v-85l-40 -45h-259q-15 0 -25 -10t-10 -25v-370q0 -15 10 -25t25 -10h150v155h-105v130zM267 770h-135l125 150h150l125 -150h-135l-65 70z" />
    <glyph glyph-name="gcircumflex" unicode="&#x11d;" horiz-adv-x="620" 
d="M225 405v-75q0 -11 9.5 -20.5t20.5 -9.5h105q11 0 20.5 9.5t9.5 20.5v75q0 11 -9.5 20.5t-20.5 9.5h-105q-11 0 -20.5 -9.5t-9.5 -20.5zM395 30h-175q-11 0 -20.5 -9.5t-9.5 -20.5v-30q0 -11 9.5 -20.5t20.5 -9.5h175q11 0 20.5 9.5t9.5 20.5v30q0 11 -9.5 20.5
t-20.5 9.5zM125 100v5q-11 3 -18 10q-17 13 -17 40v20q0 25 17 40q6 5 18 10v5q-17 6 -30 18q-30 30 -30 82v75q0 61 41.5 100.5t108.5 39.5h150l25 75h125v-60l-45 -30v-5q22 -7 40 -24q40 -38 40 -96v-75q0 -61 -41.5 -100.5t-108.5 -39.5h-161q-4 0 -9 -4t-5 -11v-20
q0 -15 15 -15h195q67 0 108.5 -39.5t41.5 -100.5v-30q0 -61 -41.5 -100.5t-108.5 -39.5h-255q-67 0 -108.5 39.5t-41.5 100.5v30q0 53 47 82q21 12 48 18zM265 620h-135l125 150h150l125 -150h-135l-65 70z" />
    <glyph glyph-name="Gbreve" unicode="&#x11e;" horiz-adv-x="665" 
d="M325 415h275v-415h-375q-71 0 -115.5 42.5t-44.5 107.5v400q0 65 44.5 107.5t115.5 42.5h354v-85l-40 -45h-259q-15 0 -25 -10t-10 -25v-370q0 -15 10 -25t25 -10h150v155h-105v130zM422 770h-160q-42 0 -66 24t-24 66v70h120v-45q0 -25 25 -25h50q25 0 25 25v45h120v-70
q0 -42 -24 -66t-66 -24z" />
    <glyph glyph-name="gbreve" unicode="&#x11f;" horiz-adv-x="620" 
d="M225 405v-75q0 -11 9.5 -20.5t20.5 -9.5h105q11 0 20.5 9.5t9.5 20.5v75q0 11 -9.5 20.5t-20.5 9.5h-105q-11 0 -20.5 -9.5t-9.5 -20.5zM395 30h-175q-11 0 -20.5 -9.5t-9.5 -20.5v-30q0 -11 9.5 -20.5t20.5 -9.5h175q11 0 20.5 9.5t9.5 20.5v30q0 11 -9.5 20.5
t-20.5 9.5zM125 100v5q-11 3 -18 10q-17 13 -17 40v20q0 25 17 40q6 5 18 10v5q-17 6 -30 18q-30 30 -30 82v75q0 61 41.5 100.5t108.5 39.5h150l25 75h125v-60l-45 -30v-5q22 -7 40 -24q40 -38 40 -96v-75q0 -61 -41.5 -100.5t-108.5 -39.5h-161q-4 0 -9 -4t-5 -11v-20
q0 -15 15 -15h195q67 0 108.5 -39.5t41.5 -100.5v-30q0 -61 -41.5 -100.5t-108.5 -39.5h-255q-67 0 -108.5 39.5t-41.5 100.5v30q0 53 47 82q21 12 48 18zM380 610h-160q-42 0 -66 24t-24 66v70h120v-45q0 -25 25 -25h50q25 0 25 25v45h120v-70q0 -42 -24 -66t-66 -24z" />
    <glyph glyph-name="Gdotaccent" unicode="&#x120;" horiz-adv-x="665" 
d="M325 415h275v-415h-375q-71 0 -115.5 42.5t-44.5 107.5v400q0 65 44.5 107.5t115.5 42.5h354v-85l-40 -45h-259q-15 0 -25 -10t-10 -25v-370q0 -15 10 -25t25 -10h150v155h-105v130zM427 770h-170v140h170v-140z" />
    <glyph glyph-name="gdotaccent" unicode="&#x121;" horiz-adv-x="620" 
d="M225 405v-75q0 -11 9.5 -20.5t20.5 -9.5h105q11 0 20.5 9.5t9.5 20.5v75q0 11 -9.5 20.5t-20.5 9.5h-105q-11 0 -20.5 -9.5t-9.5 -20.5zM395 30h-175q-11 0 -20.5 -9.5t-9.5 -20.5v-30q0 -11 9.5 -20.5t20.5 -9.5h175q11 0 20.5 9.5t9.5 20.5v30q0 11 -9.5 20.5
t-20.5 9.5zM125 100v5q-11 3 -18 10q-17 13 -17 40v20q0 25 17 40q6 5 18 10v5q-17 6 -30 18q-30 30 -30 82v75q0 61 41.5 100.5t108.5 39.5h150l25 75h125v-60l-45 -30v-5q22 -7 40 -24q40 -38 40 -96v-75q0 -61 -41.5 -100.5t-108.5 -39.5h-161q-4 0 -9 -4t-5 -11v-20
q0 -15 15 -15h195q67 0 108.5 -39.5t41.5 -100.5v-30q0 -61 -41.5 -100.5t-108.5 -39.5h-255q-67 0 -108.5 39.5t-41.5 100.5v30q0 53 47 82q21 12 48 18zM395 630h-170v140h170v-140z" />
    <glyph glyph-name="Gcommaaccent" unicode="&#x122;" horiz-adv-x="665" 
d="M325 415h275v-415h-375q-71 0 -115.5 42.5t-44.5 107.5v400q0 65 44.5 107.5t115.5 42.5h354v-85l-40 -45h-259q-15 0 -25 -10t-10 -25v-370q0 -15 10 -25t25 -10h150v155h-105v130zM412 -171l-60 -85h-80v200h140v-115z" />
    <glyph glyph-name="gcommaaccent" unicode="&#x123;" horiz-adv-x="620" 
d="M225 405v-75q0 -11 9.5 -20.5t20.5 -9.5h105q11 0 20.5 9.5t9.5 20.5v75q0 11 -9.5 20.5t-20.5 9.5h-105q-11 0 -20.5 -9.5t-9.5 -20.5zM395 30h-175q-11 0 -20.5 -9.5t-9.5 -20.5v-30q0 -11 9.5 -20.5t20.5 -9.5h175q11 0 20.5 9.5t9.5 20.5v30q0 11 -9.5 20.5
t-20.5 9.5zM125 100v5q-11 3 -18 10q-17 13 -17 40v20q0 25 17 40q6 5 18 10v5q-17 6 -30 18q-30 30 -30 82v75q0 61 41.5 100.5t108.5 39.5h150l25 75h125v-60l-45 -30v-5q22 -7 40 -24q40 -38 40 -96v-75q0 -61 -41.5 -100.5t-108.5 -39.5h-161q-4 0 -9 -4t-5 -11v-20
q0 -15 15 -15h195q67 0 108.5 -39.5t41.5 -100.5v-30q0 -61 -41.5 -100.5t-108.5 -39.5h-255q-67 0 -108.5 39.5t-41.5 100.5v30q0 53 47 82q21 12 48 18zM227 739l60 85h80v-200h-140v115z" />
    <glyph glyph-name="Hcircumflex" unicode="&#x124;" horiz-adv-x="710" 
d="M260 0h-180v700h180v-285h190v285h180v-700h-180v285h-190v-285zM290 760h-135l125 150h150l125 -150h-135l-65 70z" />
    <glyph glyph-name="hcircumflex" unicode="&#x125;" horiz-adv-x="635" 
d="M245 530h175q67 0 108.5 -39.5t41.5 -100.5v-390h-170v380q0 11 -9.5 20.5t-20.5 9.5h-125v-410h-170v700h170v-170zM103 750h-135l125 150h150l125 -150h-135l-65 70z" />
    <glyph glyph-name="Hbar" unicode="&#x126;" horiz-adv-x="710" 
d="M260 0h-180v470h-60v110h60v120h180v-120h190v120h180v-120h60v-110h-60v-470h-180v245h-190v-245zM260 375h190v95h-190v-95z" />
    <glyph glyph-name="hbar" unicode="&#x127;" horiz-adv-x="650" 
d="M265 430h175q67 0 108.5 -39.5t41.5 -100.5v-290h-170v280q0 11 -9.5 20.5t-20.5 9.5h-125v-310h-170v490h-70v120h80l50 90h110v-90h145v-120h-145v-60z" />
    <glyph glyph-name="Itilde" unicode="&#x128;" horiz-adv-x="340" 
d="M260 0h-180v700h180v-700zM6 765v95q0 30 21 50t54 20h15q15 0 35 -13q8 -3 20 -12l45 -30q7 -5 8 -5q8 -5 12 -5q10 0 10 15v45h110v-95q0 -30 -21 -50t-54 -20h-15q-16 0 -35 12q-5 2 -20 13l-45 30q-1 0 -8 5t-12 5q-10 0 -10 -15v-45h-110z" />
    <glyph glyph-name="itilde" unicode="&#x129;" horiz-adv-x="300" 
d="M235 530v-530h-170v530h170zM-14 605v95q0 30 21 50t54 20h15q15 0 35 -13q8 -3 20 -12l45 -30q7 -5 8 -5q8 -5 12 -5q10 0 10 15v45h110v-95q0 -30 -21 -50t-54 -20h-15q-16 0 -35 12q-5 2 -20 13l-45 30q-1 0 -8 5t-12 5q-10 0 -10 -15v-45h-110z" />
    <glyph glyph-name="Imacron" unicode="&#x12a;" horiz-adv-x="340" 
d="M260 0h-180v700h180v-700zM334 890v-110h-325v110h325z" />
    <glyph glyph-name="imacron" unicode="&#x12b;" horiz-adv-x="300" 
d="M235 530v-530h-170v530h170zM314 720v-110h-325v110h325z" />
    <glyph glyph-name="Ibreve" unicode="&#x12c;" horiz-adv-x="340" 
d="M260 0h-180v700h180v-700zM251 770h-160q-42 0 -66 24t-24 66v70h120v-45q0 -25 25 -25h50q25 0 25 25v45h120v-70q0 -42 -24 -66t-66 -24z" />
    <glyph glyph-name="ibreve" unicode="&#x12d;" horiz-adv-x="300" 
d="M235 530v-530h-170v530h170zM231 610h-160q-42 0 -66 24t-24 66v70h120v-45q0 -25 25 -25h50q25 0 25 25v45h120v-70q0 -42 -24 -66t-66 -24z" />
    <glyph glyph-name="Iogonek" unicode="&#x12e;" horiz-adv-x="340" 
d="M145 0h-65v700h180v-725q-33 -8 -53 -19q-52 -29 -52 -71q0 -25 25 -25h80v-80h-90q-135 0 -135 105q0 50 55 87q27 19 55 28z" />
    <glyph glyph-name="iogonek" unicode="&#x12f;" horiz-adv-x="300" 
d="M235 530v-530h-3v-25q-33 -8 -53 -19q-52 -29 -52 -71q0 -25 25 -25h80v-80h-90q-135 0 -135 105q0 50 55 87q27 19 55 28h-52v530h170zM235 580h-170v140h170v-140z" />
    <glyph glyph-name="Idotaccent" unicode="&#x130;" horiz-adv-x="340" 
d="M260 0h-180v700h180v-700zM255 770h-170v140h170v-140z" />
    <glyph glyph-name="dotlessi" unicode="&#x131;" horiz-adv-x="300" 
d="M235 530v-530h-170v530h170z" />
    <glyph glyph-name="IJ" unicode="&#x132;" horiz-adv-x="885" 
d="M260 0h-180v700h180v-700zM645 -10h-295v130h240q15 0 25 10t10 25v545h180v-560q0 -65 -44.5 -107.5t-115.5 -42.5z" />
    <glyph glyph-name="ij" unicode="&#x133;" horiz-adv-x="620" 
d="M235 530v-530h-170v530h170zM235 580h-170v140h170v-140zM245 -50h110q11 0 20.5 9.5t9.5 20.5v550h170v-560q0 -61 -41.5 -100.5t-108.5 -39.5h-160v120zM555 580h-170v140h170v-140z" />
    <glyph glyph-name="Jcircumflex" unicode="&#x134;" horiz-adv-x="545" 
d="M305 -10h-295v130h240q15 0 25 10t10 25v545h180v-560q0 -65 -44.5 -107.5t-115.5 -42.5zM307 760h-135l125 150h150l125 -150h-135l-65 70z" />
    <glyph glyph-name="jcircumflex" unicode="&#x135;" horiz-adv-x="320" 
d="M-55 -50h110q11 0 20.5 9.5t9.5 20.5v550h170v-560q0 -61 -41.5 -100.5t-108.5 -39.5h-160v120zM105 600h-135l125 150h150l125 -150h-135l-65 70z" />
    <glyph glyph-name="Kcommaaccent" unicode="&#x136;" horiz-adv-x="680" 
d="M260 0h-180v700h180v-285h85l110 285h180v-70l-140 -275l155 -285v-70h-180l-125 285h-85v-285zM420 -151l-60 -85h-80v200h140v-115z" />
    <glyph glyph-name="kcommaaccent" unicode="&#x137;" horiz-adv-x="610" 
d="M245 700v-375h69l81 205h170v-65l-115 -195l130 -205v-65h-170l-96 205h-69v-205h-170v700h170zM395 -151l-60 -85h-80v200h140v-115z" />
    <glyph glyph-name="Lacute" unicode="&#x139;" horiz-adv-x="570" 
d="M560 0h-480v700h180v-570h300v-130zM175 930h175l-120 -160h-130z" />
    <glyph glyph-name="lacute" unicode="&#x13a;" horiz-adv-x="360" 
d="M275 110h45v-120h-95q-67 0 -108.5 39.5t-41.5 100.5v570h170v-560q0 -11 9.5 -20.5t20.5 -9.5zM160 940h175l-120 -160h-130z" />
    <glyph glyph-name="Lcommaaccent" unicode="&#x13b;" horiz-adv-x="570" 
d="M560 0h-480v700h180v-570h300v-130zM385 -180l-60 -85h-80v200h140v-115z" />
    <glyph glyph-name="lcommaaccent" unicode="&#x13c;" horiz-adv-x="360" 
d="M275 110h45v-120h-95q-67 0 -108.5 39.5t-41.5 100.5v570h170v-560q0 -11 9.5 -20.5t20.5 -9.5zM280 -180l-60 -85h-80v200h140v-115z" />
    <glyph glyph-name="Lcaron" unicode="&#x13d;" horiz-adv-x="570" 
d="M560 0h-480v700h180v-570h300v-130zM500 585l-70 -135h-80v250h150v-115z" />
    <glyph glyph-name="lcaron" unicode="&#x13e;" horiz-adv-x="475" 
d="M275 110h45v-120h-95q-67 0 -108.5 39.5t-41.5 100.5v570h170v-560q0 -11 9.5 -20.5t20.5 -9.5zM465 585l-70 -135h-80v250h150v-115z" />
    <glyph glyph-name="Ldot" unicode="&#x13f;" horiz-adv-x="570" 
d="M560 0h-480v700h180v-570h300v-130zM490 325h-150v150h150v-150z" />
    <glyph glyph-name="ldot" unicode="&#x140;" horiz-adv-x="510" 
d="M275 110h45v-120h-95q-67 0 -108.5 39.5t-41.5 100.5v570h170v-560q0 -11 9.5 -20.5t20.5 -9.5zM475 280h-150v150h150v-150z" />
    <glyph glyph-name="Lslash" unicode="&#x141;" horiz-adv-x="570" 
d="M15 350l65 28v322h180v-244l100 44v-140l-100 -44v-186h300v-130h-480v238l-65 -28v140z" />
    <glyph glyph-name="lslash" unicode="&#x142;" horiz-adv-x="360" 
d="M275 110h45v-120h-95q-67 0 -108.5 39.5t-41.5 100.5v106l-60 -26v140l60 26v324h170v-248l85 38v-140l-85 -38v-172q0 -11 9.5 -20.5t20.5 -9.5z" />
    <glyph glyph-name="Nacute" unicode="&#x143;" horiz-adv-x="710" 
d="M630 700v-700h-195l-200 440h-10l35 -240v-200h-180v700h195l200 -440h10l-35 240v200h180zM345 930h175l-120 -160h-130z" />
    <glyph glyph-name="nacute" unicode="&#x144;" horiz-adv-x="635" 
d="M305 540h115q67 0 108.5 -39.5t41.5 -100.5v-400h-170v390q0 11 -9.5 20.5t-20.5 9.5h-90q-22 0 -36 -18q-6 -7 -9 -17v-385h-170v530h110l25 -65h5q9 24 20 37q30 38 80 38zM327 770h175l-120 -160h-130z" />
    <glyph glyph-name="Ncommaaccent" unicode="&#x145;" horiz-adv-x="710" 
d="M630 700v-700h-195l-200 440h-10l35 -240v-200h-180v700h195l200 -440h10l-35 240v200h180zM425 -151l-60 -85h-80v200h140v-115z" />
    <glyph glyph-name="ncommaaccent" unicode="&#x146;" horiz-adv-x="635" 
d="M305 540h115q67 0 108.5 -39.5t41.5 -100.5v-400h-170v390q0 11 -9.5 20.5t-20.5 9.5h-90q-22 0 -36 -18q-6 -7 -9 -17v-385h-170v530h110l25 -65h5q9 24 20 37q30 38 80 38zM387 -161l-60 -85h-80v200h140v-115z" />
    <glyph glyph-name="Ncaron" unicode="&#x147;" horiz-adv-x="710" 
d="M630 700v-700h-195l-200 440h-10l35 -240v-200h-180v700h195l200 -440h10l-35 240v200h180zM155 920h135l65 -70l65 70h135l-125 -150h-150z" />
    <glyph glyph-name="ncaron" unicode="&#x148;" horiz-adv-x="635" 
d="M305 540h115q67 0 108.5 -39.5t41.5 -100.5v-400h-170v390q0 11 -9.5 20.5t-20.5 9.5h-90q-22 0 -36 -18q-6 -7 -9 -17v-385h-170v530h110l25 -65h5q9 24 20 37q30 38 80 38zM117 760h135l65 -70l65 70h135l-125 -150h-150z" />
    <glyph glyph-name="Omacron" unicode="&#x14c;" horiz-adv-x="690" 
d="M280 120h130q15 0 25 10t10 25v390q0 15 -10 25t-25 10h-130q-15 0 -25 -10t-10 -25v-390q0 -15 10 -25t25 -10zM465 -10h-240q-71 0 -115.5 42.5t-44.5 107.5v420q0 65 44.5 107.5t115.5 42.5h240q73 0 116.5 -44t43.5 -106v-420q0 -65 -44.5 -107.5t-115.5 -42.5z
M507 890v-110h-325v110h325z" />
    <glyph glyph-name="omacron" unicode="&#x14d;" horiz-adv-x="625" 
d="M570 400v-270q0 -61 -41.5 -100.5t-108.5 -39.5h-215q-67 0 -108.5 39.5t-41.5 100.5v270q0 61 41.5 100.5t108.5 39.5h215q67 0 108.5 -39.5t41.5 -100.5zM255 110h115q11 0 20.5 9.5t9.5 20.5v250q0 11 -9.5 20.5t-20.5 9.5h-115q-11 0 -20.5 -9.5t-9.5 -20.5v-250
q0 -11 9.5 -20.5t20.5 -9.5zM475 730v-110h-325v110h325z" />
    <glyph glyph-name="Obreve" unicode="&#x14e;" horiz-adv-x="690" 
d="M280 120h130q15 0 25 10t10 25v390q0 15 -10 25t-25 10h-130q-15 0 -25 -10t-10 -25v-390q0 -15 10 -25t25 -10zM465 -10h-240q-71 0 -115.5 42.5t-44.5 107.5v420q0 65 44.5 107.5t115.5 42.5h240q73 0 116.5 -44t43.5 -106v-420q0 -65 -44.5 -107.5t-115.5 -42.5z
M425 770h-160q-42 0 -66 24t-24 66v70h120v-45q0 -25 25 -25h50q25 0 25 25v45h120v-70q0 -42 -24 -66t-66 -24z" />
    <glyph glyph-name="obreve" unicode="&#x14f;" horiz-adv-x="625" 
d="M570 400v-270q0 -61 -41.5 -100.5t-108.5 -39.5h-215q-67 0 -108.5 39.5t-41.5 100.5v270q0 61 41.5 100.5t108.5 39.5h215q67 0 108.5 -39.5t41.5 -100.5zM255 110h115q11 0 20.5 9.5t9.5 20.5v250q0 11 -9.5 20.5t-20.5 9.5h-115q-11 0 -20.5 -9.5t-9.5 -20.5v-250
q0 -11 9.5 -20.5t20.5 -9.5zM392 610h-160q-42 0 -66 24t-24 66v70h120v-45q0 -25 25 -25h50q25 0 25 25v45h120v-70q0 -42 -24 -66t-66 -24z" />
    <glyph glyph-name="Ohungarumlaut" unicode="&#x150;" horiz-adv-x="690" 
d="M280 120h130q15 0 25 10t10 25v390q0 15 -10 25t-25 10h-130q-15 0 -25 -10t-10 -25v-390q0 -15 10 -25t25 -10zM465 -10h-240q-71 0 -115.5 42.5t-44.5 107.5v420q0 65 44.5 107.5t115.5 42.5h240q73 0 116.5 -44t43.5 -106v-420q0 -65 -44.5 -107.5t-115.5 -42.5z
M260 940h145l-110 -160h-110zM460 940h145l-110 -160h-110z" />
    <glyph glyph-name="ohungarumlaut" unicode="&#x151;" horiz-adv-x="625" 
d="M570 400v-270q0 -61 -41.5 -100.5t-108.5 -39.5h-215q-67 0 -108.5 39.5t-41.5 100.5v270q0 61 41.5 100.5t108.5 39.5h215q67 0 108.5 -39.5t41.5 -100.5zM255 110h115q11 0 20.5 9.5t9.5 20.5v250q0 11 -9.5 20.5t-20.5 9.5h-115q-11 0 -20.5 -9.5t-9.5 -20.5v-250
q0 -11 9.5 -20.5t20.5 -9.5zM217 770h145l-110 -160h-110zM417 770h145l-110 -160h-110z" />
    <glyph glyph-name="OE" unicode="&#x152;" horiz-adv-x="965" 
d="M930 700v-85l-40 -45h-280v-150h230v-130h-230v-160h320v-130h-705q-71 0 -115.5 42.5t-44.5 107.5v400q0 65 44.5 107.5t115.5 42.5h705zM430 570h-150q-15 0 -25 -10t-10 -25v-370q0 -15 10 -25t25 -10h150v440z" />
    <glyph glyph-name="oe" unicode="&#x153;" horiz-adv-x="945" 
d="M600 120h265v-120h-305q-28 0 -50 20q-11 9 -20 20q-14 -18 -23 -25q-29 -25 -67 -25h-195q-67 0 -108.5 39.5t-41.5 100.5v270q0 61 41.5 100.5t108.5 39.5h195q30 0 61 -25q12 -9 24 -25q12 16 24 25q31 25 61 25h170q67 0 108.5 -39.5t41.5 -100.5v-195h-320v-55
q0 -11 9.5 -20.5t20.5 -9.5zM255 110h115q11 0 20.5 9.5t9.5 20.5v250q0 11 -9.5 20.5t-20.5 9.5h-115q-11 0 -20.5 -9.5t-9.5 -20.5v-250q0 -11 9.5 -20.5t20.5 -9.5zM570 390v-70h150v70q0 11 -9.5 20.5t-20.5 9.5h-90q-11 0 -20.5 -9.5t-9.5 -20.5z" />
    <glyph glyph-name="Racute" unicode="&#x154;" horiz-adv-x="695" 
d="M260 0h-180v700h380q72 0 116 -44t44 -106v-150q0 -66 -53 -107q-20 -16 -52 -28l135 -195v-70h-180l-135 250h-75v-250zM405 570h-145v-190h145q15 0 25 10t10 25v120q0 15 -10 25t-25 10zM337 930h175l-120 -160h-130z" />
    <glyph glyph-name="racute" unicode="&#x155;" horiz-adv-x="470" 
d="M305 540h150v-120h-175q-22 0 -36 -18q-6 -7 -9 -17v-385h-170v530h110l25 -60h5q8 20 20 35q31 35 80 35zM255 770h175l-120 -160h-130z" />
    <glyph glyph-name="Rcommaaccent" unicode="&#x156;" horiz-adv-x="695" 
d="M260 0h-180v700h380q72 0 116 -44t44 -106v-150q0 -66 -53 -107q-20 -16 -52 -28l135 -195v-70h-180l-135 250h-75v-250zM405 570h-145v-190h145q15 0 25 10t10 25v120q0 15 -10 25t-25 10zM417 -151l-60 -85h-80v200h140v-115z" />
    <glyph glyph-name="rcommaaccent" unicode="&#x157;" horiz-adv-x="470" 
d="M305 540h150v-120h-175q-22 0 -36 -18q-6 -7 -9 -17v-385h-170v530h110l25 -60h5q8 20 20 35q31 35 80 35zM215 -180l-60 -85h-80v200h140v-115z" />
    <glyph glyph-name="Rcaron" unicode="&#x158;" horiz-adv-x="695" 
d="M260 0h-180v700h380q72 0 116 -44t44 -106v-150q0 -66 -53 -107q-20 -16 -52 -28l135 -195v-70h-180l-135 250h-75v-250zM405 570h-145v-190h145q15 0 25 10t10 25v120q0 15 -10 25t-25 10zM127 910h135l65 -70l65 70h135l-125 -150h-150z" />
    <glyph glyph-name="rcaron" unicode="&#x159;" horiz-adv-x="470" 
d="M305 540h150v-120h-175q-22 0 -36 -18q-6 -7 -9 -17v-385h-170v530h110l25 -60h5q8 20 20 35q31 35 80 35zM55 760h135l65 -70l65 70h135l-125 -150h-150z" />
    <glyph glyph-name="Sacute" unicode="&#x15a;" 
d="M35 465v85q0 65 44.5 107.5t115.5 42.5h340v-85l-40 -45h-245q-15 0 -25 -10t-10 -25v-50q0 -38 40 -45l185 -40q55 -13 90 -52.5t35 -97.5v-100q0 -65 -44.5 -107.5t-115.5 -42.5h-370v130h315q15 0 25 10t10 25v65q0 38 -40 45l-185 40q-55 13 -90 52.5t-35 97.5z
M300 930h175l-120 -160h-130z" />
    <glyph glyph-name="sacute" unicode="&#x15b;" horiz-adv-x="545" 
d="M340 145v20q0 24 -30 30l-170 30q-44 9 -74.5 44t-30.5 86v40q0 61 39 98t106 37h300v-75l-40 -45h-210q-25 0 -25 -25v-15q0 -24 30 -30l170 -30q44 -9 74.5 -44t30.5 -86v-45q0 -61 -39 -98t-106 -37h-330v120h280q25 0 25 25zM272 770h175l-120 -160h-130z" />
    <glyph glyph-name="Scircumflex" unicode="&#x15c;" 
d="M35 465v85q0 65 44.5 107.5t115.5 42.5h340v-85l-40 -45h-245q-15 0 -25 -10t-10 -25v-50q0 -38 40 -45l185 -40q55 -13 90 -52.5t35 -97.5v-100q0 -65 -44.5 -107.5t-115.5 -42.5h-370v130h315q15 0 25 10t10 25v65q0 38 -40 45l-185 40q-55 13 -90 52.5t-35 97.5z
M235 770h-135l125 150h150l125 -150h-135l-65 70z" />
    <glyph glyph-name="scircumflex" unicode="&#x15d;" horiz-adv-x="545" 
d="M340 145v20q0 24 -30 30l-170 30q-44 9 -74.5 44t-30.5 86v40q0 61 39 98t106 37h300v-75l-40 -45h-210q-25 0 -25 -25v-15q0 -24 30 -30l170 -30q44 -9 74.5 -44t30.5 -86v-45q0 -61 -39 -98t-106 -37h-330v120h280q25 0 25 25zM207 600h-135l125 150h150l125 -150h-135
l-65 70z" />
    <glyph glyph-name="Scedilla" unicode="&#x15e;" 
d="M35 465v85q0 65 44.5 107.5t115.5 42.5h340v-85l-40 -45h-245q-15 0 -25 -10t-10 -25v-50q0 -38 40 -45l185 -40q55 -13 90 -52.5t35 -97.5v-100q0 -65 -44.5 -107.5t-115.5 -42.5h-107v-35h40q42 0 68.5 -25.5t26.5 -64.5v-31q0 -37 -27 -63t-68 -26h-151v80h101
q25 0 25 25t-25 25h-85v115h-168v130h315q15 0 25 10t10 25v65q0 38 -40 45l-185 40q-55 13 -90 52.5t-35 97.5z" />
    <glyph glyph-name="scedilla" unicode="&#x15f;" horiz-adv-x="545" 
d="M340 145v20q0 24 -30 30l-170 30q-44 9 -74.5 44t-30.5 86v40q0 61 39 98t106 37h300v-75l-40 -45h-210q-25 0 -25 -25v-15q0 -24 30 -30l170 -30q44 -9 74.5 -44t30.5 -86v-45q0 -61 -39 -98t-106 -37h-85v-35h40q42 0 68.5 -25.5t26.5 -64.5v-31q0 -37 -27 -63t-68 -26
h-151v80h101q25 0 25 25t-25 25h-85v115h-150v120h280q25 0 25 25z" />
    <glyph glyph-name="Scaron" unicode="&#x160;" 
d="M35 465v85q0 65 44.5 107.5t115.5 42.5h340v-85l-40 -45h-245q-15 0 -25 -10t-10 -25v-50q0 -38 40 -45l185 -40q55 -13 90 -52.5t35 -97.5v-100q0 -65 -44.5 -107.5t-115.5 -42.5h-370v130h315q15 0 25 10t10 25v65q0 38 -40 45l-185 40q-55 13 -90 52.5t-35 97.5z
M100 920h135l65 -70l65 70h135l-125 -150h-150z" />
    <glyph glyph-name="scaron" unicode="&#x161;" horiz-adv-x="545" 
d="M340 145v20q0 24 -30 30l-170 30q-44 9 -74.5 44t-30.5 86v40q0 61 39 98t106 37h300v-75l-40 -45h-210q-25 0 -25 -25v-15q0 -24 30 -30l170 -30q44 -9 74.5 -44t30.5 -86v-45q0 -61 -39 -98t-106 -37h-330v120h280q25 0 25 25zM72 750h135l65 -70l65 70h135l-125 -150
h-150z" />
    <glyph glyph-name="Tcommaaccent" unicode="&#x162;" 
d="M15 570v130h570v-85l-40 -45h-155v-570h-180v570h-195zM370 -190l-60 -85h-80v200h140v-115z" />
    <glyph glyph-name="tcommaaccent" unicode="&#x163;" horiz-adv-x="465" 
d="M290 110h160v-120h-210q-67 0 -108.5 39.5t-41.5 100.5v280h-70v120h80l60 140h100v-140h135v-120h-135v-270q0 -11 9.5 -20.5t20.5 -9.5zM342 -180l-60 -85h-80v200h140v-115z" />
    <glyph glyph-name="Tcaron" unicode="&#x164;" 
d="M15 570v130h570v-85l-40 -45h-155v-570h-180v570h-195zM100 910h135l65 -70l65 70h135l-125 -150h-150z" />
    <glyph glyph-name="tcaron" unicode="&#x165;" 
d="M290 110h160v-120h-210q-67 0 -108.5 39.5t-41.5 100.5v280h-70v120h80l60 140h100v-140h135v-120h-135v-270q0 -11 9.5 -20.5t20.5 -9.5zM590 556l-70 -135h-80v250h150v-115z" />
    <glyph glyph-name="Tbar" unicode="&#x166;" 
d="M15 570v130h570v-85l-40 -45h-155v-110h174v-110h-174v-350h-180v350h-175v110h175v110h-195z" />
    <glyph glyph-name="tbar" unicode="&#x167;" horiz-adv-x="465" 
d="M290 110h160v-120h-210q-67 0 -108.5 39.5t-41.5 100.5v110h-70v110h70v60h-70v120h80l60 140h100v-140h135v-120h-135v-60h135v-110h-135v-100q0 -11 9.5 -20.5t20.5 -9.5z" />
    <glyph glyph-name="Utilde" unicode="&#x168;" horiz-adv-x="720" 
d="M480 -10h-240q-71 0 -115.5 42.5t-44.5 107.5v560h180v-545q0 -15 10 -25t25 -10h130q15 0 25 10t10 25v545h180v-560q0 -65 -44.5 -107.5t-115.5 -42.5zM195 775v95q0 30 21 50t54 20h15q15 0 35 -13q8 -3 20 -12l45 -30q7 -5 8 -5q8 -5 12 -5q10 0 10 15v45h110v-95
q0 -30 -21 -50t-54 -20h-15q-16 0 -35 12q-5 2 -20 13l-45 30q-1 0 -8 5t-12 5q-10 0 -10 -15v-45h-110z" />
    <glyph glyph-name="utilde" unicode="&#x169;" horiz-adv-x="635" 
d="M330 -10h-115q-67 0 -108.5 39.5t-41.5 100.5v400h170v-390q0 -11 9.5 -20.5t20.5 -9.5h90q23 0 36 17q6 7 9 18v385h170v-530h-110l-25 65h-5q-9 -24 -20 -38q-29 -37 -80 -37zM152 605v95q0 30 21 50t54 20h15q15 0 35 -13q8 -3 20 -12l45 -30q7 -5 8 -5q8 -5 12 -5
q10 0 10 15v45h110v-95q0 -30 -21 -50t-54 -20h-15q-16 0 -35 12q-5 2 -20 13l-45 30q-1 0 -8 5t-12 5q-10 0 -10 -15v-45h-110z" />
    <glyph glyph-name="Umacron" unicode="&#x16a;" horiz-adv-x="720" 
d="M480 -10h-240q-71 0 -115.5 42.5t-44.5 107.5v560h180v-545q0 -15 10 -25t25 -10h130q15 0 25 10t10 25v545h180v-560q0 -65 -44.5 -107.5t-115.5 -42.5zM522 890v-110h-325v110h325z" />
    <glyph glyph-name="umacron" unicode="&#x16b;" horiz-adv-x="635" 
d="M330 -10h-115q-67 0 -108.5 39.5t-41.5 100.5v400h170v-390q0 -11 9.5 -20.5t20.5 -9.5h90q23 0 36 17q6 7 9 18v385h170v-530h-110l-25 65h-5q-9 -24 -20 -38q-29 -37 -80 -37zM480 720v-110h-325v110h325z" />
    <glyph glyph-name="Ubreve" unicode="&#x16c;" horiz-adv-x="720" 
d="M480 -10h-240q-71 0 -115.5 42.5t-44.5 107.5v560h180v-545q0 -15 10 -25t25 -10h130q15 0 25 10t10 25v545h180v-560q0 -65 -44.5 -107.5t-115.5 -42.5zM440 780h-160q-42 0 -66 24t-24 66v70h120v-45q0 -25 25 -25h50q25 0 25 25v45h120v-70q0 -42 -24 -66t-66 -24z
" />
    <glyph glyph-name="ubreve" unicode="&#x16d;" horiz-adv-x="635" 
d="M330 -10h-115q-67 0 -108.5 39.5t-41.5 100.5v400h170v-390q0 -11 9.5 -20.5t20.5 -9.5h90q23 0 36 17q6 7 9 18v385h170v-530h-110l-25 65h-5q-9 -24 -20 -38q-29 -37 -80 -37zM397 600h-160q-42 0 -66 24t-24 66v70h120v-45q0 -25 25 -25h50q25 0 25 25v45h120v-70
q0 -42 -24 -66t-66 -24z" />
    <glyph glyph-name="Uring" unicode="&#x16e;" horiz-adv-x="720" 
d="M480 -10h-240q-71 0 -115.5 42.5t-44.5 107.5v560h180v-545q0 -15 10 -25t25 -10h130q15 0 25 10t10 25v545h180v-560q0 -65 -44.5 -107.5t-115.5 -42.5zM395 740h-70q-42 0 -68.5 25.5t-26.5 64.5v40q0 39 26.5 64.5t68.5 25.5h70q42 0 68.5 -25.5t26.5 -64.5v-40
q0 -39 -26.5 -64.5t-68.5 -25.5zM370 890h-20q-20 0 -20 -20v-40q0 -20 20 -20h20q20 0 20 20v40q0 20 -20 20z" />
    <glyph glyph-name="uring" unicode="&#x16f;" horiz-adv-x="635" 
d="M330 -10h-115q-67 0 -108.5 39.5t-41.5 100.5v400h170v-390q0 -11 9.5 -20.5t20.5 -9.5h90q23 0 36 17q6 7 9 18v385h170v-530h-110l-25 65h-5q-9 -24 -20 -38q-29 -37 -80 -37zM352 570h-70q-42 0 -68.5 25.5t-26.5 64.5v40q0 39 26.5 64.5t68.5 25.5h70
q42 0 68.5 -25.5t26.5 -64.5v-40q0 -39 -26.5 -64.5t-68.5 -25.5zM327 720h-20q-20 0 -20 -20v-40q0 -20 20 -20h20q20 0 20 20v40q0 20 -20 20z" />
    <glyph glyph-name="Uhungarumlaut" unicode="&#x170;" horiz-adv-x="720" 
d="M480 -10h-240q-71 0 -115.5 42.5t-44.5 107.5v560h180v-545q0 -15 10 -25t25 -10h130q15 0 25 10t10 25v545h180v-560q0 -65 -44.5 -107.5t-115.5 -42.5zM265 940h145l-110 -160h-110zM465 940h145l-110 -160h-110z" />
    <glyph glyph-name="uhungarumlaut" unicode="&#x171;" horiz-adv-x="635" 
d="M330 -10h-115q-67 0 -108.5 39.5t-41.5 100.5v400h170v-390q0 -11 9.5 -20.5t20.5 -9.5h90q23 0 36 17q6 7 9 18v385h170v-530h-110l-25 65h-5q-9 -24 -20 -38q-29 -37 -80 -37zM222 770h145l-110 -160h-110zM422 770h145l-110 -160h-110z" />
    <glyph glyph-name="Uogonek" unicode="&#x172;" horiz-adv-x="720" 
d="M480 -10h-22q-93 -48 -93 -105q0 -25 25 -25h80v-80h-90q-135 0 -135 105q0 64 85 105h-90q-71 0 -115.5 42.5t-44.5 107.5v560h180v-545q0 -15 10 -25t25 -10h130q15 0 25 10t10 25v545h180v-560q0 -65 -44.5 -107.5t-115.5 -42.5z" />
    <glyph glyph-name="uogonek" unicode="&#x173;" horiz-adv-x="635" 
d="M330 -10h-115q-67 0 -108.5 39.5t-41.5 100.5v400h170v-390q0 -11 9.5 -20.5t20.5 -9.5h90q23 0 36 17q6 7 9 18v385h170v-555q-33 -8 -53 -19q-52 -29 -52 -71q0 -25 25 -25h80v-80h-90q-135 0 -135 105q0 50 55 87q27 19 55 28h5l-25 65h-5q-9 -24 -20 -38
q-29 -37 -80 -37z" />
    <glyph glyph-name="Wcircumflex" unicode="&#x174;" horiz-adv-x="980" 
d="M595 590l90 -375h10l70 485h180v-70l-125 -630h-225l-100 395h-10l-100 -395h-225l-125 630v70h180l70 -485h10l90 375h210zM425 700h-135l125 150h150l125 -150h-135l-65 70z" />
    <glyph glyph-name="wcircumflex" unicode="&#x175;" horiz-adv-x="840" 
d="M425 280h-10l-75 -280h-205l-100 465v65h170l45 -340h10l70 265h180l70 -265h10l45 340h170v-65l-100 -465h-205zM355 560h-135l125 150h150l125 -150h-135l-65 70z" />
    <glyph glyph-name="Ycircumflex" unicode="&#x176;" horiz-adv-x="650" 
d="M450 700h180v-70l-215 -425v-205h-180v205l-215 425v70h180l120 -330h10zM260 770h-135l125 150h150l125 -150h-135l-65 70z" />
    <glyph glyph-name="ycircumflex" unicode="&#x177;" horiz-adv-x="580" 
d="M560 465l-185 -515q-17 -50 -61.5 -85t-103.5 -35h-115v120h80q38 0 45 40v10l-200 465v65h170l105 -370h10l85 370h170v-65zM225 610h-135l125 150h150l125 -150h-135l-65 70z" />
    <glyph glyph-name="Ydieresis" unicode="&#x178;" horiz-adv-x="650" 
d="M450 700h180v-70l-215 -425v-205h-180v205l-215 425v70h180l120 -330h10zM290 770h-150v140h150v-140zM510 770h-150v140h150v-140z" />
    <glyph glyph-name="Zacute" unicode="&#x179;" 
d="M245 130h320v-130h-530v125l310 435v10h-270l-40 45v85h520v-125l-310 -435v-10zM300 930h175l-120 -160h-130z" />
    <glyph glyph-name="zacute" unicode="&#x17a;" horiz-adv-x="525" 
d="M280 400v10h-210l-40 45v75h455v-115l-250 -285v-10h260v-120h-465v115zM262 770h175l-120 -160h-130z" />
    <glyph glyph-name="Zdotaccent" unicode="&#x17b;" 
d="M245 130h320v-130h-530v125l310 435v10h-270l-40 45v85h520v-125l-310 -435v-10zM385 770h-170v140h170v-140z" />
    <glyph glyph-name="zdotaccent" unicode="&#x17c;" horiz-adv-x="525" 
d="M280 400v10h-210l-40 45v75h455v-115l-250 -285v-10h260v-120h-465v115zM347 610h-170v140h170v-140z" />
    <glyph glyph-name="Zcaron" unicode="&#x17d;" 
d="M245 130h320v-130h-530v125l310 435v10h-270l-40 45v85h520v-125l-310 -435v-10zM100 920h135l65 -70l65 70h135l-125 -150h-150z" />
    <glyph glyph-name="zcaron" unicode="&#x17e;" horiz-adv-x="525" 
d="M280 400v10h-210l-40 45v75h455v-115l-250 -285v-10h260v-120h-465v115zM62 760h135l65 -70l65 70h135l-125 -150h-150z" />
    <glyph glyph-name="florin" unicode="&#x192;" horiz-adv-x="440" 
d="M-45 -50h90q11 0 20.5 9.5t9.5 20.5v590q0 61 41.5 100.5t108.5 39.5h255v-75l-40 -45h-165q-11 0 -20.5 -9.5t-9.5 -20.5v-105h160v-120h-160v-365q0 -61 -41.5 -100.5t-108.5 -39.5h-140v120z" />
    <glyph glyph-name="AEacute" unicode="&#x1fc;" horiz-adv-x="1005" 
d="M970 700v-85l-40 -45h-275v-150h225v-130h-225v-160h315v-130h-495v180h-220l-65 -180h-175v70l275 630h680zM405 570l-100 -260h170v260h-70zM570 930h175l-120 -160h-130z" />
    <glyph glyph-name="aeacute" unicode="&#x1fd;" horiz-adv-x="920" 
d="M575 120h265v-120h-315q-43 0 -72 35q-14 16 -23 35q-10 -21 -27 -40q-38 -40 -98 -40h-115q-67 0 -108.5 39.5t-41.5 100.5v50q0 61 41.5 100.5t108.5 39.5h185v68q-2 12 -10.5 19.5t-19.5 7.5h-250v120h270q36 0 67 -33q10 -10 23 -32q9 19 22 35q31 35 68 35h170
q67 0 108.5 -39.5t41.5 -100.5v-195h-320v-55q0 -11 9.5 -20.5t20.5 -9.5zM210 180v-40q0 -11 9.5 -20.5t20.5 -9.5h90q14 0 25.5 8t15.5 15.5t4 10.5v66h-135q-11 0 -20.5 -9.5t-9.5 -20.5zM545 390v-70h150v70q0 11 -9.5 20.5t-20.5 9.5h-90q-11 0 -20.5 -9.5t-9.5 -20.5z
M470 780h175l-120 -160h-130z" />
    <glyph glyph-name="Oslashacute" unicode="&#x1fe;" horiz-adv-x="690" 
d="M617 695l-24 -42q32 -41 32 -93v-420q0 -65 -44.5 -107.5t-115.5 -42.5h-240h-6l-22 -40h-125v55l24 43q-31 38 -31 92v420q0 65 44.5 107.5t115.5 42.5h240h4l23 40h125v-55zM283 120h127q15 0 25 10t10 25v265zM245 545v-263l161 298h-126q-15 0 -25 -10t-10 -25z
M335 930h175l-120 -160h-130z" />
    <glyph glyph-name="oslashacute" unicode="&#x1ff;" horiz-adv-x="625" 
d="M535 535l-16 -28q51 -40 51 -107v-270q0 -61 -41.5 -100.5t-108.5 -39.5h-193l-22 -40h-115v45l15 27q-50 39 -50 108v270q0 61 41.5 100.5t108.5 39.5h192l23 40h115v-45zM285 110h85q11 0 20.5 9.5t9.5 20.5v176zM225 390v-176l114 206h-84q-11 0 -20.5 -9.5
t-9.5 -20.5zM312 770h175l-120 -160h-130z" />
    <glyph glyph-name="Scommaaccent" unicode="&#x218;" 
d="M35 465v85q0 65 44.5 107.5t115.5 42.5h340v-85l-40 -45h-245q-15 0 -25 -10t-10 -25v-50q0 -38 40 -45l185 -40q55 -13 90 -52.5t35 -97.5v-100q0 -65 -44.5 -107.5t-115.5 -42.5h-370v130h315q15 0 25 10t10 25v65q0 38 -40 45l-185 40q-55 13 -90 52.5t-35 97.5z
M367 -171l-60 -85h-80v200h140v-115z" />
    <glyph glyph-name="scommaaccent" unicode="&#x219;" horiz-adv-x="545" 
d="M340 145v20q0 24 -30 30l-170 30q-44 9 -74.5 44t-30.5 86v40q0 61 39 98t106 37h300v-75l-40 -45h-210q-25 0 -25 -25v-15q0 -24 30 -30l170 -30q44 -9 74.5 -44t30.5 -86v-45q0 -61 -39 -98t-106 -37h-330v120h280q25 0 25 25zM332 -180l-60 -85h-80v200h140v-115z" />
    <glyph glyph-name="circumflex" unicode="&#x2c6;" horiz-adv-x="460" 
d="M165 550h-135l125 150h150l125 -150h-135l-65 70z" />
    <glyph glyph-name="caron" unicode="&#x2c7;" horiz-adv-x="460" 
d="M30 700h135l65 -70l65 70h135l-125 -150h-150z" />
    <glyph glyph-name="breve" unicode="&#x2d8;" horiz-adv-x="400" 
d="M280 540h-160q-42 0 -66 24t-24 66v70h120v-45q0 -25 25 -25h50q25 0 25 25v45h120v-70q0 -42 -24 -66t-66 -24z" />
    <glyph glyph-name="dotaccent" unicode="&#x2d9;" horiz-adv-x="230" 
d="M200 560h-170v140h170v-140z" />
    <glyph glyph-name="ring" unicode="&#x2da;" horiz-adv-x="320" 
d="M195 480h-70q-42 0 -68.5 25.5t-26.5 64.5v40q0 39 26.5 64.5t68.5 25.5h70q42 0 68.5 -25.5t26.5 -64.5v-40q0 -39 -26.5 -64.5t-68.5 -25.5zM170 630h-20q-20 0 -20 -20v-40q0 -20 20 -20h20q20 0 20 20v40q0 20 -20 20z" />
    <glyph glyph-name="ogonek" unicode="&#x2db;" horiz-adv-x="295" 
d="M140 0h115v-25q-33 -8 -53 -19q-52 -29 -52 -71q0 -25 25 -25h80v-80h-90q-135 0 -135 105q0 50 55 87q27 19 55 28z" />
    <glyph glyph-name="tilde" unicode="&#x2dc;" horiz-adv-x="385" 
d="M30 535v95q0 30 21 50t54 20h15q15 0 35 -13q8 -3 20 -12l45 -30q7 -5 8 -5q8 -5 12 -5q10 0 10 15v45h110v-95q0 -30 -21 -50t-54 -20h-15q-16 0 -35 12q-4 2 -20 13l-45 30q-1 0 -8 5t-12 5q-10 0 -10 -15v-45h-110z" />
    <glyph glyph-name="hungarumlaut" unicode="&#x2dd;" horiz-adv-x="480" 
d="M105 700h145l-110 -160h-110zM305 700h145l-110 -160h-110z" />
    <glyph glyph-name="afii10023" unicode="&#x401;" horiz-adv-x="615" 
d="M580 700v-85l-40 -45h-280v-150h230v-130h-230v-160h320v-130h-500v700h500zM295 775h-160v140h160v-140zM525 775h-160v140h160v-140z" />
    <glyph glyph-name="afii10051" unicode="&#x402;" horiz-adv-x="705" 
d="M500 -20h-80v130h25q15 0 25 10t10 25v135q0 15 -10 25t-25 10h-145v-315h-180v570h-110v130h470v-85l-40 -45h-140v-125h200q71 0 115.5 -42.5t44.5 -107.5v-165q0 -65 -44.5 -107.5t-115.5 -42.5z" />
    <glyph glyph-name="afii10052" unicode="&#x403;" horiz-adv-x="575" 
d="M315 930h175l-120 -160h-130zM80 0v700h485v-85l-40 -45h-265v-570h-180z" />
    <glyph glyph-name="afii10053" unicode="&#x404;" horiz-adv-x="605" 
d="M280 130h290v-130h-345q-71 0 -115.5 42.5t-44.5 107.5v400q0 65 44.5 107.5t115.5 42.5h345v-85l-40 -45h-250q-15 0 -25 -10t-10 -25v-120h215v-130h-215v-120q0 -15 10 -25t25 -10z" />
    <glyph glyph-name="afii10054" unicode="&#x405;" 
d="M35 465v85q0 65 44.5 107.5t115.5 42.5h340v-85l-40 -45h-245q-15 0 -25 -10t-10 -25v-50q0 -38 40 -45l185 -40q55 -13 90 -52.5t35 -97.5v-100q0 -65 -44.5 -107.5t-115.5 -42.5h-370v130h315q15 0 25 10t10 25v65q0 38 -40 45l-185 40q-55 13 -90 52.5t-35 97.5z" />
    <glyph glyph-name="afii10055" unicode="&#x406;" horiz-adv-x="340" 
d="M260 0h-180v700h180v-700z" />
    <glyph glyph-name="afii10056" unicode="&#x407;" horiz-adv-x="370" 
d="M275 0h-180v700h180v-700zM150 780h-160v140h160v-140zM380 780h-160v140h160v-140z" />
    <glyph glyph-name="afii10057" unicode="&#x408;" horiz-adv-x="545" 
d="M305 -10h-295v130h240q15 0 25 10t10 25v545h180v-560q0 -65 -44.5 -107.5t-115.5 -42.5z" />
    <glyph glyph-name="afii10058" unicode="&#x409;" horiz-adv-x="1000" 
d="M10 120h45q15 0 26.5 12t13.5 28l50 540h465v-250h180q71 0 115.5 -42.5t44.5 -107.5v-150q0 -62 -44 -106t-116 -44h-360v570h-125l-35 -410q-7 -85 -58 -127.5t-157 -42.5h-45v130zM610 130h125q15 0 25 10t10 25v120q0 15 -10 25t-25 10h-125v-190z" />
    <glyph glyph-name="afii10059" unicode="&#x40a;" horiz-adv-x="1000" 
d="M260 0h-180v700h180v-265h170v265h180v-260h180q71 0 115.5 -42.5t44.5 -107.5v-140q0 -62 -44 -106t-116 -44h-360v305h-170v-305zM610 130h125q15 0 25 10t10 25v110q0 15 -10 25t-25 10h-125v-180z" />
    <glyph glyph-name="afii10060" unicode="&#x40b;" horiz-adv-x="720" 
d="M10 570v130h470v-85l-40 -45h-140v-125h200q71 0 115.5 -42.5t44.5 -107.5v-295h-180v280q0 15 -10 25t-25 10h-145v-315h-180v570h-110z" />
    <glyph glyph-name="afii10061" unicode="&#x40c;" horiz-adv-x="680" 
d="M345 930h175l-120 -160h-130zM260 0h-180v700h180v-285h85l110 285h180v-70l-140 -275l155 -285v-70h-180l-125 285h-85v-285z" />
    <glyph glyph-name="afii10062" unicode="&#x40e;" horiz-adv-x="645" 
d="M410 760h-160q-42 0 -66 24t-24 66v70h120v-45q0 -25 25 -25h50q25 0 25 25v45h120v-70q0 -42 -24 -66t-66 -24zM20 700h180l135 -380h10l100 380h180v-70l-195 -480q-32 -80 -85 -120t-145 -40h-80v130h80q18 0 27 7t18 23l5 10l-230 470v70z" />
    <glyph glyph-name="afii10145" unicode="&#x40f;" horiz-adv-x="710" 
d="M630 0h-185l-30 -135h-120l-30 135h-185v700h180v-570h190v570h180v-700z" />
    <glyph glyph-name="afii10017" unicode="&#x410;" horiz-adv-x="690" 
d="M485 0l-35 150h-210l-35 -150h-180v70l200 630h240l200 -630v-70h-180zM415 280l-65 260h-10l-65 -260h140z" />
    <glyph glyph-name="afii10018" unicode="&#x411;" horiz-adv-x="680" 
d="M80 0v700h500v-85l-40 -45h-280v-135h200q71 0 115.5 -42.5t44.5 -107.5v-135q0 -62 -44 -106t-116 -44h-380zM260 130h145q15 0 25 10t10 25v105q0 15 -10 25t-25 10h-145v-175z" />
    <glyph glyph-name="afii10019" unicode="&#x412;" horiz-adv-x="685" 
d="M80 700h365q71 0 115.5 -42.5t44.5 -107.5v-80q0 -56 -48 -86q-19 -13 -47 -19v-10q36 -6 60 -19q60 -29 60 -86v-100q0 -65 -44.5 -107.5t-115.5 -42.5h-390v700zM260 130h155q15 0 25 10t10 25v85q0 15 -10 25t-25 10h-155v-155zM390 570h-130v-155h130q15 0 25 10
t10 25v85q0 15 -10 25t-25 10z" />
    <glyph glyph-name="afii10020" unicode="&#x413;" horiz-adv-x="575" 
d="M80 0v700h485v-85l-40 -45h-265v-570h-180z" />
    <glyph glyph-name="afii10021" unicode="&#x414;" horiz-adv-x="760" 
d="M175 0l-30 -135h-135v265h55q20 11 31 22q30 28 34 68q9 90 23 246.5t22 233.5h470v-570h90v-265h-135l-30 135h-395zM340 570l-30 -350q-4 -40 -34 -63q-14 -11 -31 -17v-10h220v440h-125z" />
    <glyph glyph-name="afii10022" unicode="&#x415;" horiz-adv-x="615" 
d="M580 700v-85l-40 -45h-280v-150h230v-130h-230v-160h320v-130h-500v700h500z" />
    <glyph glyph-name="afii10024" unicode="&#x416;" horiz-adv-x="1000" 
d="M590 0h-180v285h-80l-120 -285h-180v70l150 285l-135 275v70h180l105 -285h80v285h180v-285h80l105 285h180v-70l-135 -275l150 -285v-70h-180l-120 285h-80v-285z" />
    <glyph glyph-name="afii10025" unicode="&#x417;" horiz-adv-x="615" 
d="M335 570h-260l-40 45v85h355q71 0 115.5 -42.5t44.5 -107.5v-80q0 -57 -53 -86q-21 -12 -52 -19v-10q33 -6 57 -19q58 -30 58 -86v-100q0 -65 -44.5 -107.5t-115.5 -42.5h-370v130h315q15 0 25 10t10 25v85q0 15 -10 25t-25 10h-185v130h175q15 0 25 10t10 25v85
q0 15 -10 25t-25 10z" />
    <glyph glyph-name="afii10026" unicode="&#x418;" horiz-adv-x="710" 
d="M630 700v-700h-180v230l30 210h-10l-215 -440h-175v700h180v-230l-30 -210h10l215 440h175z" />
    <glyph glyph-name="afii10027" unicode="&#x419;" horiz-adv-x="710" 
d="M630 700v-700h-180v230l30 210h-10l-215 -440h-175v700h180v-230l-30 -210h10l215 440h175zM435 760h-160q-42 0 -66 24t-24 66v70h120v-45q0 -25 25 -25h50q25 0 25 25v45h120v-70q0 -42 -24 -66t-66 -24z" />
    <glyph glyph-name="afii10028" unicode="&#x41a;" horiz-adv-x="680" 
d="M260 0h-180v700h180v-285h85l110 285h180v-70l-140 -275l155 -285v-70h-180l-125 285h-85v-285z" />
    <glyph glyph-name="afii10029" unicode="&#x41b;" horiz-adv-x="715" 
d="M10 120h45q15 0 26.5 12t13.5 28l50 540h490v-700h-180v570h-150l-35 -410q-7 -85 -58 -127.5t-157 -42.5h-45v130z" />
    <glyph glyph-name="afii10030" unicode="&#x41c;" horiz-adv-x="990" 
d="M600 85h-210l-115 400h-10l-35 -485h-180v70l85 630h225l130 -420h10l130 420h225l85 -630v-70h-180l-35 485h-10z" />
    <glyph glyph-name="afii10031" unicode="&#x41d;" horiz-adv-x="720" 
d="M265 0h-180v700h180v-285h190v285h180v-700h-180v285h-190v-285z" />
    <glyph glyph-name="afii10032" unicode="&#x41e;" horiz-adv-x="690" 
d="M280 120h130q15 0 25 10t10 25v390q0 15 -10 25t-25 10h-130q-15 0 -25 -10t-10 -25v-390q0 -15 10 -25t25 -10zM465 -10h-240q-71 0 -115.5 42.5t-44.5 107.5v420q0 65 44.5 107.5t115.5 42.5h240q73 0 116.5 -44t43.5 -106v-420q0 -65 -44.5 -107.5t-115.5 -42.5z" />
    <glyph glyph-name="afii10033" unicode="&#x41f;" horiz-adv-x="710" 
d="M260 0h-180v700h550v-700h-180v570h-190v-570z" />
    <glyph glyph-name="afii10034" unicode="&#x420;" horiz-adv-x="665" 
d="M260 0h-180v700h380q72 0 116 -44t44 -106v-185q0 -65 -44.5 -107.5t-115.5 -42.5h-200v-215zM405 570h-145v-225h145q15 0 25 10t10 25v155q0 15 -10 25t-25 10z" />
    <glyph glyph-name="afii10035" unicode="&#x421;" horiz-adv-x="605" 
d="M280 130h290v-130h-345q-71 0 -115.5 42.5t-44.5 107.5v400q0 65 44.5 107.5t115.5 42.5h345v-85l-40 -45h-250q-15 0 -25 -10t-10 -25v-370q0 -15 10 -25t25 -10z" />
    <glyph glyph-name="afii10036" unicode="&#x422;" 
d="M15 570v130h570v-85l-40 -45h-155v-570h-180v570h-195z" />
    <glyph glyph-name="afii10037" unicode="&#x423;" horiz-adv-x="645" 
d="M20 700h180l135 -380h10l100 380h180v-70l-195 -480q-32 -80 -85 -120t-145 -40h-80v130h80q18 0 27 7t18 23l5 10l-230 470v70z" />
    <glyph glyph-name="afii10038" unicode="&#x424;" horiz-adv-x="960" 
d="M390 -35v75h-170q-71 0 -115.5 42.5t-44.5 107.5v330q0 65 44.5 107.5t115.5 42.5h170v75h180v-75h170q71 0 115.5 -42.5t44.5 -107.5v-330q0 -65 -44.5 -107.5t-115.5 -42.5h-170v-75h-180zM275 170h115v370h-115q-15 0 -25 -10t-10 -25v-300q0 -15 10 -25t25 -10z
M570 170h115q15 0 25 10t10 25v300q0 15 -10 25t-25 10h-115v-370z" />
    <glyph glyph-name="afii10039" unicode="&#x425;" horiz-adv-x="650" 
d="M320 265l-115 -265h-180v70l170 285l-155 275v70h180l100 -265h10l100 265h180v-70l-155 -275l170 -285v-70h-180l-115 265h-10z" />
    <glyph glyph-name="afii10040" unicode="&#x426;" horiz-adv-x="735" 
d="M545 0h-465v700h180v-570h180v570h180v-570h90v-265h-135z" />
    <glyph glyph-name="afii10041" unicode="&#x427;" horiz-adv-x="680" 
d="M60 385v315h180v-300q0 -15 10 -25t25 -10h145v335h180v-700h-180v235h-200q-71 0 -115.5 42.5t-44.5 107.5z" />
    <glyph glyph-name="afii10042" unicode="&#x428;" horiz-adv-x="1050" 
d="M435 700h180v-570h175v570h180v-700h-890v700h180v-570h175v570z" />
    <glyph glyph-name="afii10043" unicode="&#x429;" horiz-adv-x="1085" 
d="M435 700h180v-570h175v570h180v-570h90v-265h-135l-30 135h-815v700h180v-570h175v570z" />
    <glyph glyph-name="afii10044" unicode="&#x42a;" horiz-adv-x="725" 
d="M10 570v130h315v-240h190q71 0 115.5 -42.5t44.5 -107.5v-160q0 -62 -43.5 -106t-116.5 -44h-370v570h-135zM325 130h135q15 0 25 10t10 25v130q0 15 -10 25t-25 10h-135v-200z" />
    <glyph glyph-name="afii10045" unicode="&#x42b;" horiz-adv-x="970" 
d="M80 700h180v-240h190q71 0 115.5 -42.5t44.5 -107.5v-160q0 -62 -44 -106t-116 -44h-370v700zM260 130h135q15 0 25 10t10 25v130q0 15 -10 25t-25 10h-135v-200zM890 0h-180v700h180v-700z" />
    <glyph glyph-name="afii10046" unicode="&#x42c;" horiz-adv-x="670" 
d="M80 700h180v-240h200q71 0 115.5 -42.5t44.5 -107.5v-160q0 -62 -44 -106t-116 -44h-380v700zM260 130h145q15 0 25 10t10 25v130q0 15 -10 25t-25 10h-145v-200z" />
    <glyph glyph-name="afii10047" unicode="&#x42d;" horiz-adv-x="605" 
d="M35 130h290q15 0 25 10t10 25v120h-215v130h215v120q0 15 -10 25t-25 10h-250l-40 45v85h345q71 0 115.5 -42.5t44.5 -107.5v-400q0 -65 -44.5 -107.5t-115.5 -42.5h-345v130z" />
    <glyph glyph-name="afii10048" unicode="&#x42e;" horiz-adv-x="980" 
d="M260 0h-180v700h180v-285h105v145q0 65 44.5 107.5t115.5 42.5h230q73 0 116.5 -44t43.5 -106v-420q0 -65 -44.5 -107.5t-115.5 -42.5h-230q-71 0 -115.5 42.5t-44.5 107.5v145h-105v-285zM580 120h120q15 0 25 10t10 25v390q0 15 -10 25t-25 10h-120q-15 0 -25 -10
t-10 -25v-390q0 -15 10 -25t25 -10z" />
    <glyph glyph-name="afii10049" unicode="&#x42f;" horiz-adv-x="685" 
d="M605 0h-180v250h-80l-120 -250h-180v70l135 200q-32 9 -58 26q-57 37 -57 104v150q0 62 43.5 106t116.5 44h380v-700zM425 570h-145q-15 0 -25 -10t-10 -25v-120q0 -15 10 -25t25 -10h145v190z" />
    <glyph glyph-name="afii10065" unicode="&#x430;" horiz-adv-x="610" 
d="M190 320h185v65q0 11 -9.5 20.5t-20.5 9.5h-250v120h300q67 0 108.5 -39.5t41.5 -100.5v-395h-110l-25 65h-5q-9 -24 -20 -38q-29 -37 -80 -37h-115q-67 0 -108.5 39.5t-41.5 100.5v50q0 61 41.5 100.5t108.5 39.5zM210 180v-40q0 -11 9.5 -20.5t20.5 -9.5h90q23 0 36 17
q6 7 9 18v65h-135q-11 0 -20.5 -9.5t-9.5 -20.5z" />
    <glyph glyph-name="afii10066" unicode="&#x431;" horiz-adv-x="630" 
d="M375 355h-135v-215q0 -11 9.5 -20.5t20.5 -9.5h105q11 0 20.5 9.5t9.5 20.5v185q0 11 -9.5 20.5t-20.5 9.5zM575 335v-205q0 -61 -41.5 -100.5t-108.5 -39.5h-205q-67 0 -108.5 39.5t-41.5 100.5v410q0 69 44.5 111.5t130.5 53.5l290 35l20 -130l-280 -35q-35 -5 -35 -35
v-65h185q67 0 108.5 -39.5t41.5 -100.5z" />
    <glyph glyph-name="afii10067" unicode="&#x432;" horiz-adv-x="610" 
d="M65 0v530h325q67 0 108.5 -39.5t41.5 -100.5v-25q0 -46 -43 -73q-19 -11 -42 -17v-10q28 -6 52 -17q53 -26 53 -73v-35q0 -61 -41.5 -100.5t-108.5 -39.5h-345zM235 120h125q11 0 20.5 9.5t9.5 20.5v35q0 11 -9.5 20.5t-20.5 9.5h-125v-95zM340 410h-105v-85h105
q11 0 20.5 9.5t9.5 20.5v25q0 11 -9.5 20.5t-20.5 9.5z" />
    <glyph glyph-name="afii10068" unicode="&#x433;" horiz-adv-x="500" 
d="M65 0v530h425v-75l-40 -45h-215v-410h-170z" />
    <glyph glyph-name="afii10069" unicode="&#x434;" horiz-adv-x="685" 
d="M500 0h-330l-25 -125h-135v245h50q15 8 28 21q28 28 32 59l35 330h420v-410h85v-245h-135zM225 120h180v290h-105l-15 -210q-4 -33 -32 -54q-13 -10 -28 -16v-10z" />
    <glyph glyph-name="afii10070" unicode="&#x435;" 
d="M255 120h265v-120h-315q-67 0 -108.5 39.5t-41.5 100.5v260q0 61 41.5 100.5t108.5 39.5h190q67 0 108.5 -39.5t41.5 -100.5v-195h-320v-55q0 -11 9.5 -20.5t20.5 -9.5zM225 390v-70h150v70q0 11 -9.5 20.5t-20.5 9.5h-90q-11 0 -20.5 -9.5t-9.5 -20.5z" />
    <glyph glyph-name="afii10072" unicode="&#x436;" horiz-adv-x="880" 
d="M355 320v210h170v-210h64l76 210h170v-65l-110 -200l125 -200v-65h-170l-91 200h-64v-200h-170v200h-64l-91 -200h-170v65l125 200l-110 200v65h170l76 -210h64z" />
    <glyph glyph-name="afii10073" unicode="&#x437;" horiz-adv-x="550" 
d="M290 410h-215l-40 45v75h305q67 0 108.5 -39.5t41.5 -100.5v-25q0 -47 -48 -73q-22 -11 -47 -17v-10q28 -6 52 -17q53 -26 53 -73v-35q0 -61 -41.5 -100.5t-108.5 -39.5h-320v120h270q11 0 20.5 9.5t9.5 20.5v25q0 11 -9.5 20.5t-20.5 9.5h-150v120h140q11 0 20.5 9.5
t9.5 20.5v25q0 11 -9.5 20.5t-20.5 9.5z" />
    <glyph glyph-name="afii10074" unicode="&#x438;" horiz-adv-x="635" 
d="M415 310l-185 -310h-165v530h170v-150l-25 -160h10l185 310h165v-530h-170v150l25 160h-10z" />
    <glyph glyph-name="afii10075" unicode="&#x439;" horiz-adv-x="635" 
d="M415 310l-185 -310h-165v530h170v-150l-25 -160h10l185 310h165v-530h-170v150l25 160h-10zM400 595h-160q-42 0 -66 24t-24 66v70h120v-45q0 -25 25 -25h50q25 0 25 25v45h120v-70q0 -42 -24 -66t-66 -24z" />
    <glyph glyph-name="afii10076" unicode="&#x43a;" 
d="M235 530v-210h69l81 210h170v-65l-115 -200l130 -200v-65h-170l-96 200h-69v-200h-170v530h170z" />
    <glyph glyph-name="afii10077" unicode="&#x43b;" horiz-adv-x="630" 
d="M125 530h440v-530h-170v410h-115l-30 -290q-4 -53 -45.5 -91.5t-99.5 -38.5h-95v120h35q15 0 26.5 10t13.5 25z" />
    <glyph glyph-name="afii10078" unicode="&#x43c;" horiz-adv-x="830" 
d="M500 65h-170l-85 265h-10l-20 -330h-170v65l70 465h195l100 -290h10l100 290h195l70 -465v-65h-170l-20 330h-10z" />
    <glyph glyph-name="afii10079" unicode="&#x43d;" horiz-adv-x="635" 
d="M235 530v-200h165v200h170v-530h-170v210h-165v-210h-170v530h170z" />
    <glyph glyph-name="afii10080" unicode="&#x43e;" horiz-adv-x="625" 
d="M570 400v-270q0 -61 -41.5 -100.5t-108.5 -39.5h-215q-67 0 -108.5 39.5t-41.5 100.5v270q0 61 41.5 100.5t108.5 39.5h215q67 0 108.5 -39.5t41.5 -100.5zM255 110h115q11 0 20.5 9.5t9.5 20.5v250q0 11 -9.5 20.5t-20.5 9.5h-115q-11 0 -20.5 -9.5t-9.5 -20.5v-250
q0 -11 9.5 -20.5t20.5 -9.5z" />
    <glyph glyph-name="afii10081" unicode="&#x43f;" horiz-adv-x="635" 
d="M65 530h505v-530h-170v410h-165v-410h-170v530z" />
    <glyph glyph-name="afii10082" unicode="&#x440;" horiz-adv-x="615" 
d="M410 0h-175v-170h-170v700h110l25 -65h5q9 24 20 37q30 38 80 38h105q67 0 108.5 -39.5t41.5 -100.5v-260q0 -61 -41.5 -100.5t-108.5 -39.5zM390 150v240q0 11 -9.5 20.5t-20.5 9.5h-80q-22 0 -36 -18q-6 -7 -9 -17v-265h125q11 0 20.5 9.5t9.5 20.5z" />
    <glyph glyph-name="afii10083" unicode="&#x441;" horiz-adv-x="540" 
d="M255 120h250v-120h-300q-67 0 -108.5 39.5t-41.5 100.5v250q0 61 41.5 100.5t108.5 39.5h300v-75l-40 -45h-210q-11 0 -20.5 -9.5t-9.5 -20.5v-230q0 -11 9.5 -20.5t20.5 -9.5z" />
    <glyph glyph-name="afii10084" unicode="&#x442;" horiz-adv-x="530" 
d="M15 410v120h500v-75l-40 -45h-125v-410h-170v410h-165z" />
    <glyph glyph-name="afii10085" unicode="&#x443;" horiz-adv-x="580" 
d="M560 465l-185 -515q-17 -50 -61.5 -85t-103.5 -35h-115v120h80q38 0 45 40v10l-200 465v65h170l105 -370h10l85 370h170v-65z" />
    <glyph glyph-name="afii10086" unicode="&#x444;" horiz-adv-x="820" 
d="M325 0h-120q-67 0 -108.5 39.5t-41.5 100.5v250q0 61 41.5 100.5t108.5 39.5h120v170h170v-170h120q67 0 108.5 -39.5t41.5 -100.5v-250q0 -61 -41.5 -100.5t-108.5 -39.5h-120v-170h-170v170zM225 380v-230q0 -11 9.5 -20.5t20.5 -9.5h70v290h-70q-11 0 -20.5 -9.5
t-9.5 -20.5zM595 150v230q0 11 -9.5 20.5t-20.5 9.5h-70v-290h70q11 0 20.5 9.5t9.5 20.5z" />
    <glyph glyph-name="afii10087" unicode="&#x445;" horiz-adv-x="570" 
d="M280 350h10l75 180h170v-65l-130 -200l140 -200v-65h-170l-85 185h-10l-85 -185h-170v65l140 200l-130 200v65h170z" />
    <glyph glyph-name="afii10088" unicode="&#x446;" horiz-adv-x="670" 
d="M485 0h-420v530h170v-410h155v410h170v-410h85v-245h-135z" />
    <glyph glyph-name="afii10089" unicode="&#x447;" horiz-adv-x="605" 
d="M45 305v225h170v-215q0 -11 9.5 -20.5t20.5 -9.5h125v245h170v-530h-170v165h-175q-67 0 -108.5 39.5t-41.5 100.5z" />
    <glyph glyph-name="afii10090" unicode="&#x448;" horiz-adv-x="910" 
d="M845 0h-780v530h170v-410h135v410h170v-410h135v410h170v-530z" />
    <glyph glyph-name="afii10091" unicode="&#x449;" horiz-adv-x="955" 
d="M770 0h-705v530h170v-410h135v410h170v-410h135v410h170v-410h85v-245h-135z" />
    <glyph glyph-name="afii10092" unicode="&#x44a;" horiz-adv-x="645" 
d="M300 530v-170h155q67 0 108.5 -39.5t41.5 -100.5v-80q0 -61 -41.5 -100.5t-108.5 -39.5h-325v410h-120v120h290zM405 240h-105v-120h105q11 0 20.5 9.5t9.5 20.5v60q0 11 -9.5 20.5t-20.5 9.5z" />
    <glyph glyph-name="afii10093" unicode="&#x44b;" horiz-adv-x="855" 
d="M790 0h-170v535h170v-535zM235 530v-170h155q67 0 108.5 -39.5t41.5 -100.5v-80q0 -61 -41.5 -100.5t-108.5 -39.5h-325v530h170zM340 240h-105v-120h105q11 0 20.5 9.5t9.5 20.5v60q0 11 -9.5 20.5t-20.5 9.5z" />
    <glyph glyph-name="afii10094" unicode="&#x44c;" horiz-adv-x="590" 
d="M235 530v-170h165q67 0 108.5 -39.5t41.5 -100.5v-80q0 -61 -41.5 -100.5t-108.5 -39.5h-335v530h170zM350 240h-115v-120h115q11 0 20.5 9.5t9.5 20.5v60q0 11 -9.5 20.5t-20.5 9.5z" />
    <glyph glyph-name="afii10095" unicode="&#x44d;" horiz-adv-x="540" 
d="M35 120h250q11 0 20.5 9.5t9.5 20.5v55h-175v120h175v55q0 11 -9.5 20.5t-20.5 9.5h-210l-40 45v75h300q67 0 108.5 -39.5t41.5 -100.5v-250q0 -61 -41.5 -100.5t-108.5 -39.5h-300v120z" />
    <glyph glyph-name="afii10096" unicode="&#x44e;" horiz-adv-x="880" 
d="M235 530v-200h95v70q0 61 41.5 100.5t108.5 39.5h195q67 0 108.5 -39.5t41.5 -100.5v-270q0 -61 -41.5 -100.5t-108.5 -39.5h-195q-67 0 -108.5 39.5t-41.5 100.5v80h-95v-210h-170v530h170zM530 110h95q11 0 20.5 9.5t9.5 20.5v250q0 11 -9.5 20.5t-20.5 9.5h-95
q-11 0 -20.5 -9.5t-9.5 -20.5v-250q0 -11 9.5 -20.5t20.5 -9.5z" />
    <glyph glyph-name="afii10097" unicode="&#x44f;" horiz-adv-x="610" 
d="M375 0v180h-70l-90 -180h-170v65l115 135q-2 0 -11 2.5t-24.5 11t-29.5 21t-24.5 35t-10.5 50.5v70q0 61 41.5 100.5t108.5 39.5h335v-530h-170zM260 300h115v110h-115q-11 0 -20.5 -9.5t-9.5 -20.5v-50q0 -11 9.5 -20.5t20.5 -9.5z" />
    <glyph glyph-name="afii10071" unicode="&#x451;" 
d="M265 600h-160v140h160v-140zM495 600h-160v140h160v-140zM255 120h265v-120h-315q-67 0 -108.5 39.5t-41.5 100.5v260q0 61 41.5 100.5t108.5 39.5h190q67 0 108.5 -39.5t41.5 -100.5v-195h-320v-55q0 -11 9.5 -20.5t20.5 -9.5zM225 390v-70h150v70q0 11 -9.5 20.5
t-20.5 9.5h-90q-11 0 -20.5 -9.5t-9.5 -20.5z" />
    <glyph glyph-name="afii10099" unicode="&#x452;" horiz-adv-x="645" 
d="M360 110h30q11 0 20.5 9.5t9.5 20.5v140q0 11 -9.5 20.5t-20.5 9.5h-125v-310h-170v490h-70v120h80l50 90h110v-90h145v-120h-145v-60h175q67 0 108.5 -39.5t41.5 -100.5v-160q0 -61 -41.5 -100.5t-108.5 -39.5h-80v120z" />
    <glyph glyph-name="afii10100" unicode="&#x453;" horiz-adv-x="500" 
d="M280 760h175l-120 -160h-130zM65 0v530h425v-75l-40 -45h-215v-410h-170z" />
    <glyph glyph-name="afii10101" unicode="&#x454;" horiz-adv-x="540" 
d="M255 120h250v-120h-300q-67 0 -108.5 39.5t-41.5 100.5v250q0 61 41.5 100.5t108.5 39.5h300v-75l-40 -45h-210q-11 0 -20.5 -9.5t-9.5 -20.5v-55h175v-120h-175v-55q0 -11 9.5 -20.5t20.5 -9.5z" />
    <glyph glyph-name="afii10102" unicode="&#x455;" horiz-adv-x="545" 
d="M340 145v20q0 24 -30 30l-170 30q-44 9 -74.5 44t-30.5 86v40q0 61 39 98t106 37h300v-75l-40 -45h-210q-25 0 -25 -25v-15q0 -24 30 -30l170 -30q44 -9 74.5 -44t30.5 -86v-45q0 -61 -39 -98t-106 -37h-330v120h280q25 0 25 25z" />
    <glyph glyph-name="afii10103" unicode="&#x456;" horiz-adv-x="300" 
d="M235 530v-530h-170v530h170zM235 580h-170v140h170v-140z" />
    <glyph glyph-name="afii10104" unicode="&#x457;" horiz-adv-x="370" 
d="M270 530v-530h-170v530h170zM150 580h-160v140h160v-140zM380 580h-160v140h160v-140z" />
    <glyph glyph-name="afii10105" unicode="&#x458;" horiz-adv-x="320" 
d="M-55 -50h110q11 0 20.5 9.5t9.5 20.5v550h170v-560q0 -61 -41.5 -100.5t-108.5 -39.5h-160v120zM255 580h-170v140h170v-140z" />
    <glyph glyph-name="afii10106" unicode="&#x459;" horiz-adv-x="890" 
d="M125 530h420v-180h155q67 0 108.5 -39.5t41.5 -100.5v-70q0 -61 -41.5 -100.5t-108.5 -39.5h-325v410h-95l-30 -290q-4 -53 -45.5 -91.5t-99.5 -38.5h-95v120h35q15 0 26.5 10t13.5 25zM650 230h-105v-110h105q11 0 20.5 9.5t9.5 20.5v50q0 11 -9.5 20.5t-20.5 9.5z" />
    <glyph glyph-name="afii10107" unicode="&#x45a;" horiz-adv-x="895" 
d="M235 530v-190h145v190h170v-190h155q67 0 108.5 -39.5t41.5 -100.5v-60q0 -61 -41.5 -100.5t-108.5 -39.5h-325v220h-145v-220h-170v530h170zM655 220h-105v-100h105q11 0 20.5 9.5t9.5 20.5v40q0 11 -9.5 20.5t-20.5 9.5z" />
    <glyph glyph-name="afii10108" unicode="&#x45b;" horiz-adv-x="650" 
d="M265 430h175q67 0 108.5 -39.5t41.5 -100.5v-290h-170v280q0 11 -9.5 20.5t-20.5 9.5h-125v-310h-170v490h-70v120h80l50 90h110v-90h145v-120h-145v-60z" />
    <glyph glyph-name="afii10109" unicode="&#x45c;" 
d="M300 760h175l-120 -160h-130zM235 530v-210h69l81 210h170v-65l-115 -200l130 -200v-65h-170l-96 200h-69v-200h-170v530h170z" />
    <glyph glyph-name="afii10110" unicode="&#x45e;" horiz-adv-x="580" 
d="M370 590h-160q-42 0 -66 24t-24 66v70h120v-45q0 -25 25 -25h50q25 0 25 25v45h120v-70q0 -42 -24 -66t-66 -24zM560 465l-185 -515q-17 -50 -61.5 -85t-103.5 -35h-115v120h80q38 0 45 40v10l-200 465v65h170l105 -370h10l85 370h170v-65z" />
    <glyph glyph-name="afii10193" unicode="&#x45f;" horiz-adv-x="635" 
d="M570 0h-165l-25 -125h-125l-25 125h-165v530h170v-410h165v410h170v-530z" />
    <glyph glyph-name="uni0472" unicode="&#x472;" horiz-adv-x="690" 
d="M465 -10h-240q-71 0 -115.5 42.5t-44.5 107.5v420q0 65 44.5 107.5t115.5 42.5h240q73 0 116.5 -44t43.5 -106v-420q0 -65 -44.5 -107.5t-115.5 -42.5zM245 545v-135h200v135q0 15 -10 25t-25 10h-130q-15 0 -25 -10t-10 -25zM280 120h130q15 0 25 10t10 25v125h-200
v-125q0 -15 10 -25t25 -10z" />
    <glyph glyph-name="uni0473" unicode="&#x473;" horiz-adv-x="625" 
d="M570 400v-270q0 -61 -41.5 -100.5t-108.5 -39.5h-215q-67 0 -108.5 39.5t-41.5 100.5v270q0 61 41.5 100.5t108.5 39.5h215q67 0 108.5 -39.5t41.5 -100.5zM255 110h115q11 0 20.5 9.5t9.5 20.5v70h-175v-70q0 -11 9.5 -20.5t20.5 -9.5zM225 390v-70h175v70
q0 11 -9.5 20.5t-20.5 9.5h-115q-11 0 -20.5 -9.5t-9.5 -20.5z" />
    <glyph glyph-name="afii10050" unicode="&#x490;" horiz-adv-x="575" 
d="M565 790v-220h-305v-570h-180v700h325l30 90h130z" />
    <glyph glyph-name="afii10098" unicode="&#x491;" horiz-adv-x="500" 
d="M65 0v530h265l30 85h130v-205h-255v-410h-170z" />
    <glyph glyph-name="uni0492" unicode="&#x492;" horiz-adv-x="575" 
d="M10 400h70v300h485v-85l-40 -45h-265v-170h180v-130h-180v-270h-180v270h-70v130z" />
    <glyph glyph-name="uni0493" unicode="&#x493;" horiz-adv-x="500" 
d="M10 300h55v230h425v-75l-40 -45h-215v-110h135v-120h-135v-180h-170v180h-55v120z" />
    <glyph glyph-name="uni0496" unicode="&#x496;" horiz-adv-x="1005" 
d="M840 0h-50l-120 285h-80v-285h-180v285h-80l-120 -285h-180v70l150 285l-135 275v70h180l105 -285h80v285h180v-285h80l105 285h180v-70l-135 -275l118 -225h67v-265h-135z" />
    <glyph glyph-name="uni0497" unicode="&#x497;" horiz-adv-x="890" 
d="M730 0h-50l-91 200h-64v-200h-170v200h-64l-91 -200h-170v65l125 200l-110 200v65h170l76 -210h64v210h170v-210h64l76 210h170v-65l-110 -200l90 -145h75v-245h-135z" />
    <glyph glyph-name="uni0498" unicode="&#x498;" horiz-adv-x="615" 
d="M245 -180h-105v90h65q30 0 30 30v60h-205v130h315q15 0 25 10t10 25v85q0 15 -10 25t-25 10h-185v130h175q15 0 25 10t10 25v85q0 15 -10 25t-25 10h-260l-40 45v85h355q71 0 115.5 -42.5t44.5 -107.5v-80q0 -57 -53 -86q-21 -12 -52 -19v-10q33 -6 57 -19q58 -30 58 -86
v-100q0 -65 -44.5 -107.5t-115.5 -42.5h-35v-80q0 -43 -32.5 -71.5t-87.5 -28.5z" />
    <glyph glyph-name="uni0499" unicode="&#x499;" horiz-adv-x="550" 
d="M220 -170h-95v90h55q30 0 30 30v50h-180v120h270q11 0 20.5 9.5t9.5 20.5v25q0 11 -9.5 20.5t-20.5 9.5h-150v120h140q11 0 20.5 9.5t9.5 20.5v25q0 11 -9.5 20.5t-20.5 9.5h-215l-40 45v75h305q67 0 108.5 -39.5t41.5 -100.5v-25q0 -47 -48 -73q-22 -11 -47 -17v-10
q28 -6 52 -17q53 -26 53 -73v-35q0 -61 -41.5 -100.5t-108.5 -39.5h-10v-70q0 -43 -32.5 -71.5t-87.5 -28.5z" />
    <glyph glyph-name="uni049A" unicode="&#x49a;" horiz-adv-x="685" 
d="M520 0h-50l-125 285h-85v-285h-180v700h180v-285h85l110 285h180v-70l-140 -275l122 -225h68v-265h-135z" />
    <glyph glyph-name="uni049B" unicode="&#x49b;" horiz-adv-x="610" 
d="M450 0h-50l-96 200h-69v-200h-170v530h170v-210h69l81 210h170v-65l-115 -200l94 -145h76v-245h-135z" />
    <glyph glyph-name="uni049C" unicode="&#x49c;" horiz-adv-x="680" 
d="M345 200h-65v85h-20v-285h-180v700h180v-285h20v85h65v-85h10l100 285h180v-70l-130 -275l145 -285v-70h-180l-115 285h-10v-85z" />
    <glyph glyph-name="uni049D" unicode="&#x49d;" 
d="M305 120h-55v80h-15v-200h-170v530h170v-210h15v80h55v-80h9l71 210h170v-65l-105 -200l120 -200v-65h-170l-86 200h-9v-80z" />
    <glyph glyph-name="uni04A0" unicode="&#x4a0;" horiz-adv-x="690" 
d="M10 700h260v-285h85l110 285h180v-70l-140 -275l155 -285v-70h-180l-125 285h-85v-285h-180v570h-80v130z" />
    <glyph glyph-name="uni04A1" unicode="&#x4a1;" horiz-adv-x="610" 
d="M10 530h235v-210h69l81 210h170v-65l-115 -200l130 -200v-65h-170l-96 200h-69v-200h-170v400h-65v130z" />
    <glyph glyph-name="uni04A2" unicode="&#x4a2;" horiz-adv-x="720" 
d="M535 0h-80v285h-190v-285h-180v700h180v-285h190v285h180v-570h65v-265h-135z" />
    <glyph glyph-name="uni04A3" unicode="&#x4a3;" horiz-adv-x="635" 
d="M465 0h-65v210h-165v-210h-170v530h170v-200h165v200h170v-410h55v-245h-135z" />
    <glyph glyph-name="uni04AA" unicode="&#x4aa;" horiz-adv-x="605" 
d="M465 -180h-105q-55 0 -87.5 28.5t-32.5 71.5v80h-15q-71 0 -115.5 42.5t-44.5 107.5v400q0 65 44.5 107.5t115.5 42.5h345v-85l-40 -45h-250q-15 0 -25 -10t-10 -25v-370q0 -15 10 -25t25 -10h290v-130h-200v-60q0 -30 30 -30h65v-90z" />
    <glyph glyph-name="uni04AB" unicode="&#x4ab;" horiz-adv-x="540" 
d="M430 -170h-95q-55 0 -87.5 28.5t-32.5 71.5v70h-10q-67 0 -108.5 39.5t-41.5 100.5v250q0 61 41.5 100.5t108.5 39.5h300v-75l-40 -45h-210q-11 0 -20.5 -9.5t-9.5 -20.5v-230q0 -11 9.5 -20.5t20.5 -9.5h250v-120h-160v-50q0 -30 30 -30h55v-90z" />
    <glyph glyph-name="uni04AE" unicode="&#x4ae;" horiz-adv-x="650" 
d="M450 700h180v-70l-215 -425v-205h-180v205l-215 425v70h180l120 -330h10z" />
    <glyph glyph-name="uni04AF" unicode="&#x4af;" 
d="M385 -10v-160h-170v160l-185 475v65h170l95 -385h10l95 385h170v-65z" />
    <glyph glyph-name="uni04B0" unicode="&#x4b0;" horiz-adv-x="650" 
d="M120 260h87l-187 370v70h180l120 -330h10l120 330h180v-70l-187 -370h87v-130h-115v-130h-180v130h-115v130z" />
    <glyph glyph-name="uni04B1" unicode="&#x4b1;" 
d="M100 60h87l-157 405v65h170l95 -385h10l95 385h170v-65l-158 -405h88v-130h-115v-100h-170v100h-115v130z" />
    <glyph glyph-name="uni04B2" unicode="&#x4b2;" horiz-adv-x="665" 
d="M500 0h-55l-115 265h-10l-115 -265h-180v70l170 285l-155 275v70h180l100 -265h10l100 265h180v-70l-155 -275l134 -225h76v-265h-135z" />
    <glyph glyph-name="uni04B3" unicode="&#x4b3;" horiz-adv-x="585" 
d="M425 0h-50l-85 185h-10l-85 -185h-170v65l140 200l-130 200v65h170l75 -180h10l75 180h170v-65l-130 -200l101 -145h79v-245h-135z" />
    <glyph glyph-name="uni04B8" unicode="&#x4b8;" horiz-adv-x="680" 
d="M380 155h-100v80h-60q-71 0 -115.5 42.5t-44.5 107.5v315h180v-300q0 -15 10 -25t25 -10h5v90h100v-90h40v335h180v-700h-180v235h-40v-80z" />
    <glyph glyph-name="uni04B9" unicode="&#x4b9;" horiz-adv-x="605" 
d="M345 85h-100v80h-50q-67 0 -108.5 39.5t-41.5 100.5v225h170v-215q0 -11 9.5 -20.5t20.5 -9.5v80h100v-80h25v245h170v-530h-170v165h-25v-80z" />
    <glyph glyph-name="uni04BA" unicode="&#x4ba;" horiz-adv-x="680" 
d="M620 315v-315h-180v300q0 15 -10 25t-25 10h-145v-335h-180v700h180v-235h200q71 0 115.5 -42.5t44.5 -107.5z" />
    <glyph glyph-name="uni04BB" unicode="&#x4bb;" horiz-adv-x="635" 
d="M245 530h175q67 0 108.5 -39.5t41.5 -100.5v-390h-170v380q0 11 -9.5 20.5t-20.5 9.5h-125v-410h-170v700h170v-170z" />
    <glyph glyph-name="uni04D8" unicode="&#x4d8;" horiz-adv-x="690" 
d="M465 -10h-240q-71 0 -115.5 42.5t-44.5 107.5v280h380v115q0 15 -10 25t-25 10h-310v130h365q73 0 116.5 -44t43.5 -106v-410q0 -65 -44.5 -107.5t-115.5 -42.5zM280 120h130q15 0 25 10t10 25v135h-200v-135q0 -15 10 -25t25 -10z" />
    <glyph glyph-name="uni04D9" unicode="&#x4d9;" 
d="M345 410h-255v120h305q67 0 108.5 -39.5t41.5 -100.5v-260q0 -61 -41.5 -100.5t-108.5 -39.5h-190q-67 0 -108.5 39.5t-41.5 100.5v190h320v60q0 11 -9.5 20.5t-20.5 9.5zM375 140v65h-150v-65q0 -11 9.5 -20.5t20.5 -9.5h90q11 0 20.5 9.5t9.5 20.5z" />
    <glyph glyph-name="Wgrave" unicode="&#x1e80;" horiz-adv-x="980" 
d="M595 590l90 -375h10l70 485h180v-70l-125 -630h-225l-100 395h-10l-100 -395h-225l-125 630v70h180l70 -485h10l90 375h210zM315 860h175l75 -160h-130z" />
    <glyph glyph-name="wgrave" unicode="&#x1e81;" horiz-adv-x="840" 
d="M425 280h-10l-75 -280h-205l-100 465v65h170l45 -340h10l70 265h180l70 -265h10l45 340h170v-65l-100 -465h-205zM245 700h175l75 -160h-130z" />
    <glyph glyph-name="Wacute" unicode="&#x1e82;" horiz-adv-x="980" 
d="M595 590l90 -375h10l70 485h180v-70l-125 -630h-225l-100 395h-10l-100 -395h-225l-125 630v70h180l70 -485h10l90 375h210zM490 870h175l-120 -160h-130z" />
    <glyph glyph-name="wacute" unicode="&#x1e83;" horiz-adv-x="840" 
d="M425 280h-10l-75 -280h-205l-100 465v65h170l45 -340h10l70 265h180l70 -265h10l45 340h170v-65l-100 -465h-205zM420 700h175l-120 -160h-130z" />
    <glyph glyph-name="Wdieresis" unicode="&#x1e84;" horiz-adv-x="980" 
d="M595 590l90 -375h10l70 485h180v-70l-125 -630h-225l-100 395h-10l-100 -395h-225l-125 630v70h180l70 -485h10l90 375h210zM455 710h-150v140h150v-140zM675 710h-150v140h150v-140z" />
    <glyph glyph-name="wdieresis" unicode="&#x1e85;" horiz-adv-x="840" 
d="M425 280h-10l-75 -280h-205l-100 465v65h170l45 -340h10l70 265h180l70 -265h10l45 340h170v-65l-100 -465h-205zM385 560h-150v140h150v-140zM605 560h-150v140h150v-140z" />
    <glyph glyph-name="Ygrave" unicode="&#x1ef2;" horiz-adv-x="650" 
d="M450 700h180v-70l-215 -425v-205h-180v205l-215 425v70h180l120 -330h10zM160 920h175l75 -160h-130z" />
    <glyph glyph-name="ygrave" unicode="&#x1ef3;" horiz-adv-x="580" 
d="M560 465l-185 -515q-17 -50 -61.5 -85t-103.5 -35h-115v120h80q38 0 45 40v10l-200 465v65h170l105 -370h10l85 370h170v-65zM115 770h175l75 -160h-130z" />
    <glyph glyph-name="endash" unicode="&#x2013;" 
d="M30 360h540v-120h-540v120z" />
    <glyph glyph-name="emdash" unicode="&#x2014;" horiz-adv-x="875" 
d="M30 360h815v-120h-815v120z" />
    <glyph glyph-name="quoteleft" unicode="&#x2018;" horiz-adv-x="270" 
d="M60 565l70 135h80v-250h-150v115z" />
    <glyph glyph-name="quoteright" unicode="&#x2019;" horiz-adv-x="270" 
d="M210 585l-70 -135h-80v250h150v-115z" />
    <glyph glyph-name="quotesinglbase" unicode="&#x201a;" horiz-adv-x="270" 
d="M210 35l-70 -135h-80v250h150v-115z" />
    <glyph glyph-name="quotedblleft" unicode="&#x201c;" horiz-adv-x="480" 
d="M270 565l70 135h80v-250h-150v115zM60 565l70 135h80v-250h-150v115z" />
    <glyph glyph-name="quotedblright" unicode="&#x201d;" horiz-adv-x="480" 
d="M210 585l-70 -135h-80v250h150v-115zM420 585l-70 -135h-80v250h150v-115z" />
    <glyph glyph-name="quotedblbase" unicode="&#x201e;" horiz-adv-x="480" 
d="M210 35l-70 -135h-80v250h150v-115zM420 35l-70 -135h-80v250h150v-115z" />
    <glyph glyph-name="dagger" unicode="&#x2020;" horiz-adv-x="550" 
d="M185 530l25 170h130l25 -170h160v-130h-160v-570h-180v570h-160v130h160z" />
    <glyph glyph-name="daggerdbl" unicode="&#x2021;" horiz-adv-x="570" 
d="M220 -170l-25 170h-160v130h160v270h-160v130h160l25 170h130l25 -170h160v-130h-160v-270h160v-130h-160l-25 -170h-130z" />
    <glyph glyph-name="bullet" unicode="&#x2022;" horiz-adv-x="450" 
d="M320 345v-70q0 -23 -16 -39t-39 -16h-80q-23 0 -39 16t-16 39v70q0 23 16 39t39 16h80q23 0 39 -16t16 -39z" />
    <glyph glyph-name="ellipsis" unicode="&#x2026;" horiz-adv-x="800" 
d="M210 0h-150v150h150v-150zM475 0h-150v150h150v-150zM740 0h-150v150h150v-150z" />
    <glyph glyph-name="perthousand" unicode="&#x2030;" horiz-adv-x="1255" 
d="M570 700h145v-60l-400 -640h-145v60zM850 230v-140q0 -43 -32.5 -71.5t-87.5 -28.5h-95q-55 0 -87.5 28.5t-32.5 71.5v140q0 43 32.5 71.5t87.5 28.5h95q55 0 87.5 -28.5t32.5 -71.5zM645 210v-100q0 -30 30 -30h15q30 0 30 30v100q0 30 -30 30h-15q-30 0 -30 -30z
M370 610v-140q0 -43 -32.5 -71.5t-87.5 -28.5h-95q-55 0 -87.5 28.5t-32.5 71.5v140q0 43 32.5 71.5t87.5 28.5h95q55 0 87.5 -28.5t32.5 -71.5zM165 590v-100q0 -30 30 -30h15q30 0 30 30v100q0 30 -30 30h-15q-30 0 -30 -30zM1220 230v-140q0 -43 -32.5 -71.5t-87.5 -28.5
h-95q-55 0 -87.5 28.5t-32.5 71.5v140q0 43 32.5 71.5t87.5 28.5h95q55 0 87.5 -28.5t32.5 -71.5zM1015 210v-100q0 -30 30 -30h15q30 0 30 30v100q0 30 -30 30h-15q-30 0 -30 -30z" />
    <glyph glyph-name="guilsinglleft" unicode="&#x2039;" horiz-adv-x="385" 
d="M65 260l120 220h135v-55l-95 -165l95 -165v-55h-135z" />
    <glyph glyph-name="guilsinglright" unicode="&#x203a;" horiz-adv-x="385" 
d="M200 480l120 -220l-120 -220h-135v55l95 165l-95 165v55h135z" />
    <glyph glyph-name="Euro" unicode="&#x20ac;" horiz-adv-x="635" 
d="M30 320h70v60h-70v100h70v70q0 65 44.5 107.5t115.5 42.5h340v-85l-40 -45h-245q-15 0 -25 -10t-10 -25v-55h200v-100h-200v-60h200v-100h-200v-55q0 -15 10 -25t25 -10h285v-130h-340q-71 0 -115.5 42.5t-44.5 107.5v70h-70v100z" />
    <glyph glyph-name="afii61352" unicode="&#x2116;" horiz-adv-x="1085" 
d="M720 290h305v-115h-305v115zM630 700v-700h-195l-200 440h-10l35 -240v-200h-180v700h195l200 -440h10l-35 240v200h180zM1040 610v-140q0 -43 -32.5 -71.5t-87.5 -28.5h-95q-55 0 -87.5 28.5t-32.5 71.5v140q0 43 32.5 71.5t87.5 28.5h95q55 0 87.5 -28.5t32.5 -71.5z
M835 590v-100q0 -30 30 -30h15q30 0 30 30v100q0 30 -30 30h-15q-30 0 -30 -30z" />
    <glyph glyph-name="trademark" unicode="&#x2122;" horiz-adv-x="905" 
d="M10 610v90h340v-62l-25 -28h-80v-240h-130v240h-105zM660 410h-105l-50 160h-5v-200h-130v45l40 285h140l55 -175h5l55 175h140l40 -285v-45h-130v200h-5z" />
    <glyph glyph-name="commaaccent" horiz-adv-x="200" 
d="M170 -171l-60 -85h-80v200h140v-115z" />
    <glyph glyph-name="foundryicon" horiz-adv-x="1330" 
d="M200 265h-170l170 175v-175zM410 350q0 -38 -26 -64t-64 -26t-64 26t-26 64t26 64t64 26t64 -26t26 -64zM410 435h180l-90 -175zM910 435v-155l-150 155h150zM745 265v155l150 -155h-150zM725 265h-180l90 175zM1105 435v-155l-150 155h150zM940 265v155l150 -155h-150z
M1120 435h180l-90 -175z" />
    <glyph glyph-name=".ttfautohint" horiz-adv-x="1330" 
 />
    </font>
</defs>
</svg>
