<?xml version="1.0" standalone="no"?>
<!DOCTYPE svg PUBLIC "-//W3C//DTD SVG 1.1//EN" "http://www.w3.org/Graphics/SVG/1.1/DTD/svg11.dtd" >
<svg xmlns="http://www.w3.org/2000/svg" xmlns:xlink="http://www.w3.org/1999/xlink" version="1.1">
<metadata>
Created by FontForge 20150824 at Sun Jun 26 12:08:58 2016
 By Everything Fonts
Copyright (c) 2013 by Roman Ershov, Jovanny Lemonad. All rights reserved.
</metadata>
<defs>
<font id="Supermolot" horiz-adv-x="595" >
  <font-face 
    font-family="Supermolot"
    font-weight="400"
    font-stretch="normal"
    units-per-em="1000"
    panose-1="2 0 5 3 5 0 0 2 0 4"
    ascent="807"
    descent="-193"
    x-height="530"
    cap-height="700"
    bbox="-75 -274 1300 940"
    underline-thickness="50"
    underline-position="-150"
    unicode-range="U+0020-2122"
  />
<missing-glyph horiz-adv-x="740" 
d="M100 605h540v-510h-540v510zM580 545h-420v-390h420v390zM370 390l115 105l40 -40l-115 -105l115 -105l-40 -40l-115 105l-115 -105l-40 40l115 105l-115 105l40 40z" />
    <glyph glyph-name=".notdef" horiz-adv-x="740" 
d="M100 605h540v-510h-540v510zM580 545h-420v-390h420v390zM370 390l115 105l40 -40l-115 -105l115 -105l-40 -40l-115 105l-115 -105l-40 40l115 105l-115 105l40 40z" />
    <glyph glyph-name=".null" horiz-adv-x="0" 
 />
    <glyph glyph-name="nonmarkingreturn" horiz-adv-x="333" 
 />
    <glyph glyph-name="space" unicode=" " horiz-adv-x="300" 
 />
    <glyph glyph-name="exclam" unicode="!" horiz-adv-x="280" 
d="M105 215l-25 315v170h120v-170l-20 -315h-75zM195 120v-120h-105v120h105z" />
    <glyph glyph-name="quotedbl" unicode="&#x22;" horiz-adv-x="370" 
d="M70 480l-20 120v100h100v-100l-20 -120h-60zM240 480l-20 120v100h100v-100l-20 -120h-60z" />
    <glyph glyph-name="numbersign" unicode="#" horiz-adv-x="705" 
d="M70 450v80h120l25 170h105l-25 -170h175l25 170h105l-25 -170h100v-80h-115l-30 -200h105v-80h-120l-25 -170h-105l25 170h-175l-25 -170h-105l25 170h-100v80h115l30 200h-105zM280 450l-30 -200h175l30 200h-175z" />
    <glyph glyph-name="dollar" unicode="$" horiz-adv-x="590" 
d="M240 790h110v-90h160v-45l-30 -35h-250q-30 0 -50 -20t-20 -50v-60q0 -26 16.5 -45t43.5 -25l190 -45q130 -31 130 -155v-70q0 -70 -44 -110t-126 -40h-20v-90h-110v90h-190v80h310q30 0 50 20t20 50v70q0 26 -16.5 45t-43.5 25l-190 45q-130 31 -130 155v60q0 70 44 110
t126 40h20v90z" />
    <glyph glyph-name="percent" unicode="%" horiz-adv-x="840" 
d="M585 700h90v-40l-420 -660h-90v40zM40 475v130q0 50 30.5 77.5t89.5 27.5h75q59 0 89.5 -27.5t30.5 -77.5v-130q0 -50 -30.5 -77.5t-89.5 -27.5h-75q-59 0 -89.5 27.5t-30.5 77.5zM130 605v-130q0 -40 40 -40h55q40 0 40 40v130q0 40 -40 40h-55q-40 0 -40 -40zM485 95
v130q0 50 30.5 77.5t89.5 27.5h75q59 0 89.5 -27.5t30.5 -77.5v-130q0 -50 -30.5 -77.5t-89.5 -27.5h-75q-59 0 -89.5 27.5t-30.5 77.5zM575 225v-130q0 -40 40 -40h55q40 0 40 40v130q0 40 -40 40h-55q-40 0 -40 -40z" />
    <glyph glyph-name="ampersand" unicode="&#x26;" horiz-adv-x="665" 
d="M335 -10h-126q-82 0 -125.5 40t-43.5 110v85q0 76 77 115q33 17 78 25v5q-23 20 -38 40q-37 49 -37 100v40q0 70 45.5 110t134.5 40h240v-45l-30 -35h-210q-30 0 -50 -20t-20 -50v-40q0 -30 45 -83q23 -27 45 -46l335 -341v-40h-100l-75 75q-13 -24 -35 -43
q-48 -42 -110 -42zM219 70h116q41 0 71 30q11 12 19 30l-175 180q-48 0 -74 -23t-26 -62v-85q0 -30 19.5 -50t49.5 -20z" />
    <glyph glyph-name="quotesingle" unicode="'" horiz-adv-x="200" 
d="M70 480l-20 120v100h100v-100l-20 -120h-60z" />
    <glyph glyph-name="parenleft" unicode="(" horiz-adv-x="360" 
d="M90 -30v650q0 70 45.5 110t134.5 40h50v-80h-50q-30 0 -50 -20t-20 -50v-650q0 -30 20 -50t50 -20h50v-80h-50q-89 0 -134.5 40t-45.5 110z" />
    <glyph glyph-name="parenright" unicode=")" horiz-adv-x="360" 
d="M270 620v-650q0 -70 -45.5 -110t-134.5 -40h-50v80h50q30 0 50 20t20 50v650q0 30 -20 50t-50 20h-50v80h50q89 0 134.5 -40t45.5 -110z" />
    <glyph glyph-name="asterisk" unicode="*" horiz-adv-x="420" 
d="M165 570l15 130h60l15 -130l115 25l15 -55l-110 -40l70 -105l-50 -35l-85 95l-85 -95l-50 35l70 105l-110 40l15 55z" />
    <glyph glyph-name="plus" unicode="+" horiz-adv-x="525" 
d="M220 100v180h-180v80h180v180h85v-180h180v-80h-180v-180h-85z" />
    <glyph glyph-name="comma" unicode="," horiz-adv-x="225" 
d="M165 35l-50 -135h-55v220h105v-85z" />
    <glyph glyph-name="hyphen" unicode="-" horiz-adv-x="490" 
d="M40 360h410v-80h-410v80z" />
    <glyph glyph-name="period" unicode="." horiz-adv-x="225" 
d="M165 120v-120h-105v120h105z" />
    <glyph glyph-name="slash" unicode="/" horiz-adv-x="490" 
d="M470 710l-355 -760h-95v40l355 760h95v-40z" />
    <glyph glyph-name="zero" unicode="0" horiz-adv-x="650" 
d="M460 140v420q0 30 -20 50t-50 20h-130q-30 0 -50 -20t-20 -50v-420q0 -30 20 -50t50 -20h130q30 0 50 20t20 50zM570 560v-420q0 -70 -44 -110t-126 -40h-150q-82 0 -126 40t-44 110v420q0 70 44 110t126 40h150q82 0 126 -40t44 -110z" />
    <glyph glyph-name="one" unicode="1" horiz-adv-x="365" 
d="M20 660l170 40h80v-700h-110v610h-140v50z" />
    <glyph glyph-name="two" unicode="2" horiz-adv-x="555" 
d="M25 75l309 330q14 13 28 32q28 35 28 63v50q0 30 -20 50t-50 20h-255l-30 35v45h295q82 0 126 -40t44 -110v-50q0 -47 -43 -106q-20 -28 -42 -49l-250 -260v-5h335v-80h-475v75z" />
    <glyph glyph-name="three" unicode="3" horiz-adv-x="560" 
d="M505 250v-100q0 -70 -44 -110t-126 -40h-305v80h295q30 0 50 20t20 50v100q0 30 -20 50t-50 20h-195v70l230 225v5h-310l-30 35v45h465v-75l-220 -220v-5h70q82 0 126 -40t44 -110z" />
    <glyph glyph-name="four" unicode="4" horiz-adv-x="610" 
d="M490 0h-110v150h-360v70l325 480h145v-470h100v-80h-100v-150zM380 580h-5l-235 -345v-5h240v350z" />
    <glyph glyph-name="five" unicode="5" horiz-adv-x="590" 
d="M75 340v360h435v-45l-30 -35h-295v-200h180q82 0 126 -40t44 -110v-120q0 -70 -44 -110t-126 -40h-290v80h280q30 0 50 20t20 50v120q0 30 -20 50t-50 20h-280z" />
    <glyph glyph-name="six" unicode="6" horiz-adv-x="620" 
d="M565 280v-140q0 -70 -44 -110t-126 -40h-145q-82 0 -126 40t-44 110v410q0 70 44 110t126 40h280v-45l-30 -35h-240q-30 0 -50 -20t-20 -50v-120h205q82 0 126 -40t44 -110zM190 350v-210q0 -30 20 -50t50 -20h125q30 0 50 20t20 50v140q0 30 -20 50t-50 20h-195z" />
    <glyph glyph-name="seven" unicode="7" horiz-adv-x="510" 
d="M230 0h-110v50l250 565v5h-360v80h480v-70z" />
    <glyph glyph-name="eight" unicode="8" horiz-adv-x="640" 
d="M405 -10h-170q-82 0 -126 40t-44 110v115q0 64 55 95q26 14 55 20v5q-25 6 -45 18q-45 29 -45 82v85q0 70 44 110t126 40h130q82 0 126 -40t44 -110v-85q0 -53 -45 -82q-20 -12 -45 -18v-5q28 -6 55 -20q55 -33 55 -95v-115q0 -70 -44 -110t-126 -40zM395 325h-150
q-30 0 -50 -20t-20 -50v-115q0 -30 20 -50t50 -20h150q30 0 50 20t20 50v115q0 30 -20 50t-50 20zM375 630h-110q-30 0 -50 -20t-20 -50v-85q0 -30 20 -50t50 -20h110q30 0 50 20t20 50v85q0 30 -20 50t-50 20z" />
    <glyph glyph-name="nine" unicode="9" horiz-adv-x="620" 
d="M55 420v140q0 70 44 110t126 40h145q82 0 126 -40t44 -110v-410q0 -70 -44 -110t-126 -40h-290v80h280q30 0 50 20t20 50v120h-205q-82 0 -126 40t-44 110zM430 350v210q0 30 -20 50t-50 20h-125q-30 0 -50 -20t-20 -50v-140q0 -30 20 -50t50 -20h195z" />
    <glyph glyph-name="colon" unicode=":" horiz-adv-x="225" 
d="M165 120v-120h-105v120h105zM165 530v-120h-105v120h105z" />
    <glyph glyph-name="semicolon" unicode=";" horiz-adv-x="225" 
d="M165 530v-120h-105v120h105zM165 35l-50 -135h-55v220h105v-85z" />
    <glyph glyph-name="less" unicode="&#x3c;" horiz-adv-x="520" 
d="M160 270v-5l305 -160v-105l-410 220v95l410 220v-104z" />
    <glyph glyph-name="equal" unicode="=" horiz-adv-x="530" 
d="M50 460h430v-80h-430v80zM50 260h430v-80h-430v80z" />
    <glyph glyph-name="greater" unicode="&#x3e;" horiz-adv-x="520" 
d="M360 265v5l-305 160v105l410 -220v-95l-410 -220v105z" />
    <glyph glyph-name="question" unicode="?" horiz-adv-x="499" 
d="M139 215v35q0 43 18.5 73t41.5 42l100 55q40 22 40 60v70q0 30 -20 50t-50 20h-239l-30 35v45h279q82 0 126 -40t44 -110v-70q0 -77 -70 -115l-100 -55q-45 -27 -45 -60v-35h-95zM239 120v-120h-105v120h105z" />
    <glyph glyph-name="at" unicode="@" horiz-adv-x="895" 
d="M805 570v-380h-65l-20 65h-5q-9 -21 -26 -38q-37 -37 -94 -37h-90q-69 0 -112 38t-43 92v55q0 54 43 92t112 38h195v75q0 30 -20 50t-50 20h-360q-30 0 -50 -20t-20 -50v-440q0 -30 20 -50t50 -20h515v-80h-525q-82 0 -126 40t-44 110v440q0 70 44 110t126 40h380
q78 0 121.5 -40.5t43.5 -109.5zM515 250h80q50 0 82 42q15 20 23 43v90h-185q-26 0 -43 -17t-17 -43v-55q0 -26 17 -43t43 -17z" />
    <glyph glyph-name="A" unicode="A" horiz-adv-x="655" 
d="M520 0l-55 170h-275l-55 -170h-105v50l225 650h145l225 -650v-50h-105zM325 600l-110 -350h225l-110 350h-5z" />
    <glyph glyph-name="B" unicode="B" horiz-adv-x="660" 
d="M460 470v80q0 30 -20 50t-50 20h-190v-220h190q30 0 50 20t20 50zM490 365v-5q27 -4 55 -19q55 -33 55 -91v-100q0 -70 -44 -110t-126 -40h-340v700h310q82 0 126 -40t44 -110v-80q0 -56 -40 -86q-17 -13 -40 -19zM420 320h-220v-240h220q30 0 50 20t20 50v100
q0 30 -20 50t-50 20z" />
    <glyph glyph-name="C" unicode="C" 
d="M80 150v400q0 70 44 110t126 40h305v-45l-30 -35h-265q-30 0 -50 -20t-20 -50v-400q0 -30 20 -50t50 -20h295v-80h-305q-82 0 -126 40t-44 110z" />
    <glyph glyph-name="D" unicode="D" horiz-adv-x="680" 
d="M600 550v-400q0 -70 -44 -110t-126 -40h-340v700h340q82 0 126 -40t44 -110zM420 620h-220v-540h220q30 0 50 20t20 50v400q0 30 -20 50t-50 20z" />
    <glyph glyph-name="E" unicode="E" horiz-adv-x="590" 
d="M555 700v-45l-30 -35h-325v-230h265v-80h-265v-230h355v-80h-465v700h465z" />
    <glyph glyph-name="F" unicode="F" horiz-adv-x="570" 
d="M555 700v-45l-30 -35h-325v-240h265v-80h-265v-300h-110v700h465z" />
    <glyph glyph-name="G" unicode="G" horiz-adv-x="675" 
d="M480 310h-150v80h260v-390h-340q-82 0 -126 40t-44 110v400q0 70 44 110t126 40h305v-45l-30 -35h-265q-30 0 -50 -20t-20 -50v-400q0 -30 20 -50t50 -20h220v230z" />
    <glyph glyph-name="H" unicode="H" horiz-adv-x="690" 
d="M200 0h-110v700h110v-310h290v310h110v-700h-110v310h-290v-310z" />
    <glyph glyph-name="I" unicode="I" horiz-adv-x="290" 
d="M200 0h-110v700h110v-700z" />
    <glyph glyph-name="J" unicode="J" horiz-adv-x="525" 
d="M10 70h245q30 0 50 20t20 50v560h110v-560q0 -70 -44 -110t-126 -40h-255v80z" />
    <glyph glyph-name="K" unicode="K" horiz-adv-x="655" 
d="M200 0h-110v700h110v-305h135l155 305h105v-50l-170 -295l190 -305v-50h-105l-175 315h-135v-315z" />
    <glyph glyph-name="L" unicode="L" horiz-adv-x="555" 
d="M200 80h345v-80h-455v700h110v-620z" />
    <glyph glyph-name="M" unicode="M" horiz-adv-x="975" 
d="M560 85h-145l-175 505h-5l-65 -590h-105v50l90 650h150l180 -515h5l180 515h150l90 -650v-50h-105l-65 590h-5z" />
    <glyph glyph-name="N" unicode="N" horiz-adv-x="690" 
d="M90 700h120l290 -540h5l-15 170v370h110v-700h-120l-290 540h-5l15 -170v-370h-110v700z" />
    <glyph glyph-name="O" unicode="O" horiz-adv-x="680" 
d="M190 560v-420q0 -30 20 -50t50 -20h160q30 0 50 20t20 50v420q0 30 -20 50t-50 20h-160q-30 0 -50 -20t-20 -50zM80 140v420q0 70 44 110t126 40h180q82 0 126 -40t44 -110v-420q0 -70 -44 -110t-126 -40h-180q-82 0 -126 40t-44 110z" />
    <glyph glyph-name="P" unicode="P" horiz-adv-x="650" 
d="M200 0h-110v700h330q82 0 126 -40t44 -110v-170q0 -70 -44 -110t-126 -40h-220v-230zM200 620v-310h210q30 0 50 20t20 50v170q0 30 -20 50t-50 20h-210z" />
    <glyph glyph-name="Q" unicode="Q" horiz-adv-x="680" 
d="M80 140v420q0 70 44 110t126 40h180q82 0 126 -40t44 -110v-420q0 -70 -44 -110t-126 -40h-35l70 -80v-45h-105l-65 125h-45q-82 0 -126 40t-44 110zM190 560v-420q0 -30 20 -50t50 -20h160q30 0 50 20t20 50v420q0 30 -20 50t-50 20h-160q-30 0 -50 -20t-20 -50z" />
    <glyph glyph-name="R" unicode="R" horiz-adv-x="665" 
d="M200 0h-110v700h330q82 0 126 -40t44 -110v-130q0 -75 -70 -115q-30 -17 -70 -25l165 -230v-50h-105l-170 270h-140v-270zM200 620v-270h210q30 0 50 20t20 50v130q0 30 -20 50t-50 20h-210z" />
    <glyph glyph-name="S" unicode="S" horiz-adv-x="590" 
d="M370 290l-190 45q-130 31 -130 155v60q0 70 44 110t126 40h290v-45l-30 -35h-250q-30 0 -50 -20t-20 -50v-60q0 -26 16.5 -45t43.5 -25l190 -45q130 -31 130 -155v-70q0 -70 -44 -110t-126 -40h-320v80h310q30 0 50 20t20 50v70q0 26 -16.5 45t-43.5 25z" />
    <glyph glyph-name="T" unicode="T" horiz-adv-x="560" 
d="M15 620v80h530v-45l-30 -35h-180v-620h-110v620h-210z" />
    <glyph glyph-name="U" unicode="U" horiz-adv-x="710" 
d="M510 140v560h110v-560q0 -70 -44 -110t-126 -40h-190q-82 0 -126 40t-44 110v560h110v-560q0 -30 20 -50t50 -20h170q30 0 50 20t20 50z" />
    <glyph glyph-name="V" unicode="V" horiz-adv-x="635" 
d="M320 100l180 600h105v-50l-215 -650h-145l-215 650v50h105l180 -600h5z" />
    <glyph glyph-name="W" unicode="W" horiz-adv-x="955" 
d="M480 485h-5l-145 -485h-150l-140 650v50h105l115 -590h5l140 480h145l140 -480h5l115 590h105v-50l-140 -650h-150z" />
    <glyph glyph-name="X" unicode="X" horiz-adv-x="605" 
d="M305 280h-5l-165 -280h-105v50l205 305l-190 295v50h105l150 -280h5l150 280h105v-50l-190 -295l205 -305v-50h-105z" />
    <glyph glyph-name="Y" unicode="Y" horiz-adv-x="600" 
d="M20 700h105l170 -375h10l170 375h105v-50l-225 -435v-215h-110v215l-225 435v50z" />
    <glyph glyph-name="Z" unicode="Z" horiz-adv-x="585" 
d="M175 80h370v-80h-505v75l360 540v5h-330l-30 35v45h495v-75l-360 -540v-5z" />
    <glyph glyph-name="bracketleft" unicode="[" horiz-adv-x="360" 
d="M320 -180h-230v950h230v-80h-120v-790h120v-80z" />
    <glyph glyph-name="backslash" unicode="\" horiz-adv-x="490" 
d="M375 -50l-355 760v40h95l355 -760v-40h-95z" />
    <glyph glyph-name="bracketright" unicode="]" horiz-adv-x="360" 
d="M270 -180h-230v80h120v790h-120v80h230v-950z" />
    <glyph glyph-name="asciicircum" unicode="^" horiz-adv-x="465" 
d="M125 460h-105l165 240h95l165 -240h-105l-105 155h-5z" />
    <glyph glyph-name="underscore" unicode="_" horiz-adv-x="470" 
d="M20 -60h430v-80h-430v80z" />
    <glyph glyph-name="grave" unicode="`" horiz-adv-x="290" 
d="M40 700h120l90 -160h-95z" />
    <glyph glyph-name="a" unicode="a" horiz-adv-x="575" 
d="M290 -10h-90q-69 0 -112 38t-43 92v55q0 54 43 92t112 38h195v95q0 26 -17 43t-43 17h-240v70h250q69 0 112 -38t43 -92v-400h-65l-20 65h-5q-9 -21 -26 -38q-37 -37 -94 -37zM210 60h80q50 0 82 42q15 20 23 43v90h-185q-26 0 -43 -17t-17 -43v-55q0 -26 17 -43t43 -17z
" />
    <glyph glyph-name="b" unicode="b" horiz-adv-x="600" 
d="M185 700v-170h195q69 0 112 -38t43 -92v-270q0 -54 -43 -92t-112 -38h-300v700h105zM370 460h-185v-390h185q26 0 43 17t17 43v270q0 26 -17 43t-43 17z" />
    <glyph glyph-name="c" unicode="c" horiz-adv-x="520" 
d="M65 130v270q0 54 43 92t112 38h260v-35l-30 -35h-220q-26 0 -43 -17t-17 -43v-270q0 -26 17 -43t43 -17h250v-70h-260q-69 0 -112 38t-43 92z" />
    <glyph glyph-name="d" unicode="d" horiz-adv-x="600" 
d="M310 -10h-90q-69 0 -112 38t-43 92v280q0 54 43 92t112 38h195v170h105v-700h-65l-20 65h-5q-9 -21 -26 -38q-37 -37 -94 -37zM230 60h80q50 0 82 42q15 20 23 43v315h-185q-26 0 -43 -17t-17 -43v-280q0 -26 17 -43t43 -17z" />
    <glyph glyph-name="e" unicode="e" horiz-adv-x="570" 
d="M505 410v-185h-335v-95q0 -26 17 -43t43 -17h255v-70h-265q-69 0 -112 38t-43 92v280q0 54 43 92t112 38h130q69 0 112 -38t43 -92zM170 410v-115h230v115q0 26 -17 43t-43 17h-110q-26 0 -43 -17t-17 -43z" />
    <glyph glyph-name="f" unicode="f" horiz-adv-x="425" 
d="M380 385h-195v-385h-105v580q0 54 43 92t112 38h210v-35l-30 -35h-170q-26 0 -43 -17t-17 -43v-125h195v-70z" />
    <glyph glyph-name="g" unicode="g" 
d="M70 325v85q0 54 43 92t112 38h145l35 80h95v-40l-55 -50v-5q22 -9 40 -24q40 -38 40 -91v-85q0 -54 -43 -92t-112 -38h-170q-8 0 -14 -6t-6 -14v-25q0 -8 6 -14t14 -6h205q69 0 112 -38t43 -92v-40q0 -54 -43 -92t-112 -38h-215q-69 0 -112 38t-43 92v40q0 50 42 80
q16 12 43 20v5q-10 3 -18 9q-17 13 -17 36v25q0 23 17 36q8 6 18 9v5q-17 9 -25 20q-25 29 -25 80zM175 410v-85q0 -26 17 -43t43 -17h125q26 0 43 17t17 43v85q0 26 -17 43t-43 17h-125q-26 0 -43 -17t-17 -43zM140 0v-40q0 -26 17 -43t43 -17h195q26 0 43 17t17 43v40
q0 26 -17 43t-43 17h-195q-26 0 -43 -17t-17 -43z" />
    <glyph glyph-name="h" unicode="h" horiz-adv-x="610" 
d="M370 460h-185v-460h-105v700h105v-170h195q69 0 112 -38t43 -92v-400h-105v400q0 26 -17 43t-43 17z" />
    <glyph glyph-name="i" unicode="i" horiz-adv-x="255" 
d="M180 530v-530h-105v530h105zM180 710v-105h-105v105h105z" />
    <glyph glyph-name="j" unicode="j" horiz-adv-x="270" 
d="M40 -170h-115v70h105q26 0 43 17t17 43v570h105v-570q0 -54 -43 -92t-112 -38zM195 710v-105h-105v105h105z" />
    <glyph glyph-name="k" unicode="k" horiz-adv-x="575" 
d="M185 700v-400h120l115 230h100v-45l-130 -220l145 -220v-45h-100l-130 230h-120v-230h-105v700h105z" />
    <glyph glyph-name="l" unicode="l" horiz-adv-x="305" 
d="M275 -10h-40q-69 0 -112 38t-43 92v580h105v-580q0 -26 17 -43t43 -17h30v-70z" />
    <glyph glyph-name="m" unicode="m" horiz-adv-x="895" 
d="M335 470h-50q-73 0 -105 -84v-386h-105v530h65l20 -65h5q9 20 26 37q38 38 94 38h50q51 0 89 -30q14 -12 26 -30h5q9 16 24 30q34 30 81 30h105q69 0 112 -38t43 -92v-410h-105v410q0 27 -16.5 43.5t-43.5 16.5h-95q-26 0 -43 -17t-17 -43v-410h-105v410q0 26 -17 43
t-43 17z" />
    <glyph glyph-name="n" unicode="n" horiz-adv-x="610" 
d="M370 470h-85q-50 0 -83 -43q-15 -20 -22 -42v-385h-105v530h65l20 -65h5q9 20 26 37q38 38 94 38h95q69 0 112 -38t43 -92v-410h-105v410q0 26 -17 43t-43 17z" />
    <glyph glyph-name="o" unicode="o" 
d="M530 410v-290q0 -54 -43 -92t-112 -38h-155q-69 0 -112 38t-43 92v290q0 54 43 92t112 38h155q69 0 112 -38t43 -92zM170 410v-290q0 -26 17 -43t43 -17h135q26 0 43 17t17 43v290q0 26 -17 43t-43 17h-135q-26 0 -43 -17t-17 -43z" />
    <glyph glyph-name="p" unicode="p" 
d="M285 540h90q69 0 112 -38t43 -92v-280q0 -54 -43 -92t-112 -38h-195v-170h-105v700h65l20 -65h5q9 20 26 37q38 38 94 38zM365 470h-80q-50 0 -83 -43q-15 -20 -22 -42v-315h185q26 0 43 17t17 43v280q0 26 -17 43t-43 17z" />
    <glyph glyph-name="q" unicode="q" 
d="M415 -170v170h-195q-69 0 -112 38t-43 92v270q0 54 43 92t112 38h300v-700h-105zM230 70h185v390h-185q-26 0 -43 -17t-17 -43v-270q0 -26 17 -43t43 -17z" />
    <glyph glyph-name="r" unicode="r" horiz-adv-x="435" 
d="M160 465h5q9 20 26 37q38 38 94 38h130v-80h-130q-47 0 -81 -38q-14 -15 -24 -37v-385h-105v530h65z" />
    <glyph glyph-name="s" unicode="s" horiz-adv-x="530" 
d="M150 400v-35q0 -37 45 -45l180 -30q50 -7 80 -40t30 -85v-35q0 -54 -43 -92t-112 -38h-285v70h275q26 0 43 17t17 43v35q0 37 -45 45l-180 30q-50 7 -80 40t-30 85v35q0 54 43 92t112 38h260v-35l-30 -35h-220q-26 0 -43 -17t-17 -43z" />
    <glyph glyph-name="t" unicode="t" horiz-adv-x="440" 
d="M360 530v-70h-150v-340q0 -26 17 -43t43 -17h155v-70h-165q-69 0 -112 38t-43 92v340h-85v70h85l55 140h50v-140h150z" />
    <glyph glyph-name="u" unicode="u" horiz-adv-x="610" 
d="M240 60h85q50 0 82 42q15 20 23 43v385h105v-530h-65l-20 65h-5q-9 -21 -26 -38q-37 -37 -94 -37h-95q-69 0 -112 38t-43 92v410h105v-410q0 -26 17 -43t43 -17z" />
    <glyph glyph-name="v" unicode="v" horiz-adv-x="556" 
d="M345 0h-135l-180 485v45h100l145 -445h5l146 445h100v-45z" />
    <glyph glyph-name="w" unicode="w" horiz-adv-x="805" 
d="M470 455l110 -355h5l80 430h100v-45l-110 -485h-140l-110 365h-5l-110 -365h-140l-110 485v45h100l80 -430h5l110 355h135z" />
    <glyph glyph-name="x" unicode="x" horiz-adv-x="535" 
d="M270 200h-5l-135 -200h-100v45l175 220l-165 220v45h100l125 -200h5l125 200h100v-45l-165 -220l175 -220v-45h-100z" />
    <glyph glyph-name="y" unicode="y" horiz-adv-x="540" 
d="M515 485l-190 -525q-20 -56 -66.5 -93t-113.5 -37h-50v70h50q54 0 75 60l10 30v10l-205 485v45h100l155 -435h5l130 435h100v-45z" />
    <glyph glyph-name="z" unicode="z" horiz-adv-x="495" 
d="M325 450v10h-265l-30 35v35h425v-65l-295 -385v-10h305v-70h-435v65z" />
    <glyph glyph-name="braceleft" unicode="{" horiz-adv-x="400" 
d="M150 300v-5q26 -7 45 -21q45 -31 45 -84v-220q0 -30 20 -50t50 -20h50v-80h-50q-89 0 -134.5 40t-45.5 110v220q0 27 -20 46t-50 19h-10v85h10q30 0 50 19t20 46v215q0 70 45.5 110t134.5 40h50v-80h-50q-30 0 -50 -20t-20 -50v-215q0 -53 -45 -84q-19 -13 -45 -21z" />
    <glyph glyph-name="bar" unicode="|" horiz-adv-x="290" 
d="M200 -210h-110v980h110v-980z" />
    <glyph glyph-name="braceright" unicode="}" horiz-adv-x="400" 
d="M250 295v5q-26 8 -45 21q-45 31 -45 84v215q0 30 -20 50t-50 20h-50v80h50q89 0 134.5 -40t45.5 -110v-215q0 -27 20 -46t50 -19h10v-85h-10q-30 0 -50 -19t-20 -46v-220q0 -70 -45.5 -110t-134.5 -40h-50v80h50q30 0 50 20t20 50v220q0 53 45 84q19 14 45 21z" />
    <glyph glyph-name="asciitilde" unicode="~" horiz-adv-x="500" 
d="M240 400l75 -75l9 -8q8 -7 16 -7h10q8 0 14 6t6 14v95h85v-125q0 -34 -20.5 -54.5t-54.5 -20.5h-45q-25 0 -53 17q-11 7 -22 18l-75 75q-6 4 -9 7q-10 8 -16 8h-10q-8 0 -14 -6t-6 -14v-95h-85v125q0 34 20.5 54.5t54.5 20.5h45q22 0 52 -18q12 -7 23 -17z" />
    <glyph glyph-name="nbspace" unicode="&#xa0;" horiz-adv-x="300" 
 />
    <glyph glyph-name="exclamdown" unicode="&#xa1;" horiz-adv-x="280" 
d="M80 0l25 315h75l20 -315v-170h-120v170zM195 530v-120h-105v120h105z" />
    <glyph glyph-name="cent" unicode="&#xa2;" horiz-adv-x="520" 
d="M350 600v-70h130v-35l-30 -35h-220q-26 0 -43 -17t-17 -43v-270q0 -26 17 -43t43 -17h250v-70h-130v-70h-110v70h-20q-69 0 -112 38t-43 92v270q0 54 43 92t112 38h20v70h110z" />
    <glyph glyph-name="sterling" unicode="&#xa3;" horiz-adv-x="565" 
d="M185 80h355v-80h-495v80h35q19 11 32 24q33 31 33 61v190h-75v70h75v155q0 54 43 92t112 38h200v-35l-30 -35h-160q-26 0 -43 -17t-17 -43v-155h165v-70h-165v-190q-4 -31 -34 -59q-12 -11 -31 -21v-5z" />
    <glyph glyph-name="currency" unicode="&#xa4;" horiz-adv-x="675" 
d="M35 360h80v340h330q82 0 126 -40t44 -110v-120q0 -70 -44 -110t-126 -40h-220v-80h280v-80h-280v-120h-110v120h-80v80h80v80h-80v80zM225 620v-260h210q30 0 50 20t20 50v120q0 30 -20 50t-50 20h-210z" />
    <glyph glyph-name="yen" unicode="&#xa5;" horiz-adv-x="600" 
d="M75 320h115l-170 330v50h105l170 -375h10l170 375h105v-50l-171 -330h116v-80h-157l-13 -25v-45h170v-80h-170v-90h-110v90h-170v80h170v45l-13 25h-157v80z" />
    <glyph glyph-name="brokenbar" unicode="&#xa6;" horiz-adv-x="290" 
d="M200 -210h-110v410h110v-410zM200 770v-410h-110v410h110z" />
    <glyph glyph-name="section" unicode="&#xa7;" horiz-adv-x="550" 
d="M165 570v-60q0 -19 13 -33t32 -17l175 -30q50 -8 82.5 -42.5t32.5 -82.5v-95q0 -52 -30 -82q-14 -12 -30 -18v-5q16 -7 30 -18q30 -26 30 -67v-60q0 -54 -43 -92t-112 -38h-285v70h275q26 0 43 17t17 43v60q0 19 -13 33t-32 17l-185 30q-50 8 -82.5 42.5t-32.5 82.5v95
q0 52 35 80q13 11 35 20v5q-16 7 -30 18q-30 26 -30 67v60q0 54 43 92t112 38h260v-35l-30 -35h-220q-26 0 -43 -17t-17 -43zM155 320v-95q0 -19 13 -33t32 -17l140 -25q23 0 39 17t16 43v95q0 19 -13 33t-32 17l-140 25q-23 0 -39 -17t-16 -43z" />
    <glyph glyph-name="dieresis" unicode="&#xa8;" horiz-adv-x="385" 
d="M145 700v-105h-105v105h105zM345 700v-105h-105v105h105z" />
    <glyph glyph-name="copyright" unicode="&#xa9;" horiz-adv-x="970" 
d="M890 570v-440q0 -70 -44 -110t-126 -40h-470q-82 0 -126 40t-44 110v440q0 70 44 110t126 40h470q82 0 126 -40t44 -110zM260 60h450q30 0 50 20t20 50v440q0 30 -20 50t-50 20h-450q-30 0 -50 -20t-20 -50v-440q0 -30 20 -50t50 -20zM310 260v180q0 55 36.5 87.5
t103.5 32.5h200v-40l-30 -35h-160q-19 0 -32 -13t-13 -32v-180q0 -19 13 -32t32 -13h190v-75h-200q-67 0 -103.5 32.5t-36.5 87.5z" />
    <glyph glyph-name="ordfeminine" unicode="&#xaa;" horiz-adv-x="385" 
d="M200 365h-40q-59 0 -89.5 27.5t-30.5 77.5t30.5 77.5t89.5 27.5h95v30q0 40 -40 40h-130v65h140q59 0 89.5 -27.5t30.5 -77.5v-235h-60l-15 50q-6 -17 -16 -28q-20 -27 -54 -27zM255 470v40h-85q-40 0 -40 -40t40 -40h30q25 0 40 12t15 28z" />
    <glyph glyph-name="guillemotleft" unicode="&#xab;" horiz-adv-x="520" 
d="M365 55l-100 205l100 205h95v-45l-80 -160l80 -160v-45h-95zM160 55l-100 205l100 205h95v-45l-80 -160l80 -160v-45h-95z" />
    <glyph glyph-name="logicalnot" unicode="&#xac;" horiz-adv-x="510" 
d="M40 430h430v-195h-100v115h-330v80z" />
    <glyph glyph-name="uni00AD" unicode="&#xad;" horiz-adv-x="500" 
d="M40 360h420v-80h-420v80z" />
    <glyph glyph-name="registered" unicode="&#xae;" horiz-adv-x="970" 
d="M305 560h220q67 0 103.5 -32.5t36.5 -87.5v-30q0 -50 -40 -80q-16 -12 -40 -20l100 -125v-45h-100l-90 150h-85v-150h-105v420zM515 485h-105v-120h105q19 0 32 13t13 32v30q0 19 -13 32t-32 13zM890 570v-440q0 -70 -44 -110t-126 -40h-470q-82 0 -126 40t-44 110v440
q0 70 44 110t126 40h470q82 0 126 -40t44 -110zM260 60h450q30 0 50 20t20 50v440q0 30 -20 50t-50 20h-450q-30 0 -50 -20t-20 -50v-440q0 -30 20 -50t50 -20z" />
    <glyph glyph-name="macron" unicode="&#xaf;" horiz-adv-x="410" 
d="M355 700v-70h-300v70h300z" />
    <glyph glyph-name="degree" unicode="&#xb0;" horiz-adv-x="405" 
d="M40 475v130q0 50 30.5 77.5t89.5 27.5h85q59 0 89.5 -27.5t30.5 -77.5v-130q0 -50 -30.5 -77.5t-89.5 -27.5h-85q-59 0 -89.5 27.5t-30.5 77.5zM130 605v-130q0 -40 40 -40h65q40 0 40 40v130q0 40 -40 40h-65q-40 0 -40 -40z" />
    <glyph glyph-name="plusminus" unicode="&#xb1;" horiz-adv-x="545" 
d="M495 90h-445v80h180v190h-180v80h180v180h85v-180h180v-80h-180v-190h180v-80z" />
    <glyph glyph-name="twosuperior" unicode="&#xb2;" horiz-adv-x="360" 
d="M225 589v6q0 40 -40 40h-135v65h145q58 0 89 -26t31 -69v-6q0 -33 -35 -72q-22 -22 -35 -31l-85 -56v-5h160v-65h-280v60l150 105q12 10 17 16q18 22 18 38z" />
    <glyph glyph-name="threesuperior" unicode="&#xb3;" horiz-adv-x="360" 
d="M200 370h-160v65h150q40 0 40 40t-40 40h-90v50l90 65v5h-146v65h255v-55l-104 -69q57 0 91 -28t34 -73q0 -50 -30.5 -77.5t-89.5 -27.5z" />
    <glyph glyph-name="acute" unicode="&#xb4;" horiz-adv-x="290" 
d="M130 700h120l-115 -160h-95z" />
    <glyph glyph-name="mu" unicode="&#xb5;" horiz-adv-x="610" 
d="M240 60h85q50 0 82 42q15 20 23 43v385h105v-530h-65l-20 65h-5q-9 -21 -26 -38q-37 -37 -94 -37h-80q-26 0 -45 12q-8 4 -15 13h-5v-185h-105v700h105v-410q0 -26 17 -43t43 -17z" />
    <glyph glyph-name="paragraph" unicode="&#xb6;" horiz-adv-x="625" 
d="M40 460v100q0 60 40 100t100 40h425v-80h-95v-790h-105v790h-80v-790h-105v490h-40q-60 0 -100 40t-40 100z" />
    <glyph glyph-name="periodcentered" unicode="&#xb7;" horiz-adv-x="300" 
d="M202 410v-120h-105v120h105z" />
    <glyph glyph-name="cedilla" unicode="&#xb8;" horiz-adv-x="305" 
d="M65 -105v105h65v-45h40q42 0 68.5 -25.5t26.5 -64.5v-15q0 -39 -26.5 -64.5t-68.5 -25.5h-130v60h105q11 0 20.5 9.5t9.5 20.5v15q0 11 -9.5 20.5t-20.5 9.5h-80z" />
    <glyph glyph-name="onesuperior" unicode="&#xb9;" horiz-adv-x="255" 
d="M125 630h-85v50l100 20h75v-330h-90v260z" />
    <glyph glyph-name="ordmasculine" unicode="&#xba;" horiz-adv-x="395" 
d="M40 475v130q0 50 30.5 77.5t89.5 27.5h75q59 0 89.5 -27.5t30.5 -77.5v-130q0 -50 -30.5 -77.5t-89.5 -27.5h-75q-59 0 -89.5 27.5t-30.5 77.5zM130 605v-130q0 -40 40 -40h55q40 0 40 40v130q0 40 -40 40h-55q-40 0 -40 -40z" />
    <glyph glyph-name="guillemotright" unicode="&#xbb;" horiz-adv-x="520" 
d="M255 260l-100 -205h-95v45l80 160l-80 160v45h95zM460 260l-100 -205h-95v45l80 160l-80 160v45h95z" />
    <glyph glyph-name="onequarter" unicode="&#xbc;" horiz-adv-x="796" 
d="M566 700h90v-40l-420 -660h-90v40zM125 630h-85v50l100 20h75v-330h-90v260zM446 120l180 210h85v-205h45v-65h-45v-60h-90v60h-175v60zM541 130v-5h80v95h-5z" />
    <glyph glyph-name="onehalf" unicode="&#xbd;" horiz-adv-x="811" 
d="M546 700h90v-40l-420 -660h-90v40zM125 630h-85v50l100 20h75v-330h-90v260zM676 219v6q0 40 -40 40h-135v65h145q58 0 89 -26t31 -69v-6q0 -33 -35 -72q-22 -22 -35 -31l-85 -56v-5h160v-65h-280v60l150 105q12 10 17 16q18 22 18 38z" />
    <glyph glyph-name="threequarters" unicode="&#xbe;" horiz-adv-x="816" 
d="M586 700h90v-40l-420 -660h-90v40zM466 120l180 210h85v-205h45v-65h-45v-60h-90v60h-175v60zM561 130v-5h80v95h-5zM200 370h-160v65h150q40 0 40 40t-40 40h-90v50l90 65v5h-146v65h255v-55l-104 -69q57 0 91 -28t34 -73q0 -50 -30.5 -77.5t-89.5 -27.5z" />
    <glyph glyph-name="questiondown" unicode="&#xbf;" horiz-adv-x="469" 
d="M360 315v-35q0 -43 -18.5 -73t-41.5 -42l-100 -55q-40 -22 -40 -60v-70q0 -30 20 -50t50 -20h239l30 -35v-45h-279q-82 0 -126 40t-44 110v70q0 77 70 115l100 55q45 27 45 60v35h95zM260 410v120h105v-120h-105z" />
    <glyph glyph-name="Agrave" unicode="&#xc0;" horiz-adv-x="655" 
d="M520 0l-55 170h-275l-55 -170h-105v50l225 650h145l225 -650v-50h-105zM325 600l-110 -350h225l-110 350h-5zM162 930h120l90 -160h-95z" />
    <glyph glyph-name="Aacute" unicode="&#xc1;" horiz-adv-x="655" 
d="M520 0l-55 170h-275l-55 -170h-105v50l225 650h145l225 -650v-50h-105zM325 600l-110 -350h225l-110 350h-5zM362 930h120l-115 -160h-95z" />
    <glyph glyph-name="Acircumflex" unicode="&#xc2;" horiz-adv-x="655" 
d="M520 0l-55 170h-275l-55 -170h-105v50l225 650h145l225 -650v-50h-105zM325 600l-110 -350h225l-110 350h-5zM502 760h-95l-80 90l-80 -90h-95l130 150h90z" />
    <glyph glyph-name="Atilde" unicode="&#xc3;" horiz-adv-x="655" 
d="M520 0l-55 170h-275l-55 -170h-105v50l225 650h145l225 -650v-50h-105zM325 600l-110 -350h225l-110 350h-5zM397 905h80v-70q0 -30 -20 -50t-50 -20h-25q-12 0 -30 10q-10 6 -15 10l-39 35q-6 4 -9 7q-10 8 -16 8q-16 0 -16 -20v-45h-80v70q0 30 20 50t50 20h25
q12 0 30 -10q10 -6 15 -10l40 -35l9 -8q8 -7 16 -7q7 0 10.5 3t4 6.5t0.5 10.5v45z" />
    <glyph glyph-name="Adieresis" unicode="&#xc4;" horiz-adv-x="655" 
d="M520 0l-55 170h-275l-55 -170h-105v50l225 650h145l225 -650v-50h-105zM325 600l-110 -350h225l-110 350h-5zM280 860v-105h-105v105h105zM480 860v-105h-105v105h105z" />
    <glyph glyph-name="Aring" unicode="&#xc5;" horiz-adv-x="655" 
d="M520 0l-55 170h-275l-55 -170h-105v50l211 609q-34 24 -34 66v50q0 31 24 55.5t61 24.5h70q38 0 61.5 -23t23.5 -57v-50q0 -40 -33 -65l211 -610v-50h-105zM325 600l-110 -350h225l-110 350h-5zM313 700h24q25 0 25 25v50q0 25 -25 25h-20q-25 0 -25 -25v-50
q0 -23 21 -25z" />
    <glyph glyph-name="AE" unicode="&#xc6;" horiz-adv-x="960" 
d="M925 700v-45l-30 -35h-315v-230h255v-80h-255v-230h345v-80h-455v210h-265l-90 -210h-105v50l304 650h611zM385 620l-145 -330h230v330h-85z" />
    <glyph glyph-name="Ccedilla" unicode="&#xc7;" 
d="M80 150v400q0 70 44 110t126 40h305v-45l-30 -35h-265q-30 0 -50 -20t-20 -50v-400q0 -30 20 -50t50 -20h295v-80h-210v-45h40q42 0 68.5 -25.5t26.5 -64.5v-15q0 -39 -26.5 -64.5t-68.5 -25.5h-130v60h105q11 0 20.5 9.5t9.5 20.5v15q0 11 -9.5 20.5t-20.5 9.5h-80v105
h-30q-82 0 -126 40t-44 110z" />
    <glyph glyph-name="Egrave" unicode="&#xc8;" horiz-adv-x="590" 
d="M555 700v-45l-30 -35h-325v-230h265v-80h-265v-230h355v-80h-465v700h465zM170 930h120l90 -160h-95z" />
    <glyph glyph-name="Eacute" unicode="&#xc9;" horiz-adv-x="590" 
d="M555 700v-45l-30 -35h-325v-230h265v-80h-265v-230h355v-80h-465v700h465zM340 930h120l-115 -160h-95z" />
    <glyph glyph-name="Ecircumflex" unicode="&#xca;" horiz-adv-x="590" 
d="M555 700v-45l-30 -35h-325v-230h265v-80h-265v-230h355v-80h-465v700h465zM500 770h-95l-80 90l-80 -90h-95l130 150h90z" />
    <glyph glyph-name="Edieresis" unicode="&#xcb;" horiz-adv-x="590" 
d="M555 700v-45l-30 -35h-325v-230h265v-80h-265v-230h355v-80h-465v700h465zM267 880v-105h-105v105h105zM467 880v-105h-105v105h105z" />
    <glyph glyph-name="Igrave" unicode="&#xcc;" horiz-adv-x="290" 
d="M200 0h-110v700h110v-700zM-9 930h120l90 -160h-95z" />
    <glyph glyph-name="Iacute" unicode="&#xcd;" horiz-adv-x="290" 
d="M200 0h-110v700h110v-700zM180 930h120l-115 -160h-95z" />
    <glyph glyph-name="Icircumflex" unicode="&#xce;" horiz-adv-x="290" 
d="M200 0h-110v700h110v-700zM321 770h-95l-80 90l-80 -90h-95l130 150h90z" />
    <glyph glyph-name="Idieresis" unicode="&#xcf;" horiz-adv-x="295" 
d="M202 0h-110v700h110v-700zM101 870v-105h-105v105h105zM301 870v-105h-105v105h105z" />
    <glyph glyph-name="Eth" unicode="&#xd0;" horiz-adv-x="680" 
d="M600 550v-400q0 -70 -44 -110t-126 -40h-340v320h-70v70h70v310h340q82 0 126 -40t44 -110zM420 620h-220v-230h150v-70h-150v-240h220q30 0 50 20t20 50v400q0 30 -20 50t-50 20z" />
    <glyph glyph-name="Ntilde" unicode="&#xd1;" horiz-adv-x="690" 
d="M90 700h120l290 -540h5l-15 170v370h110v-700h-120l-290 540h-5l15 -170v-370h-110v700zM415 905h80v-70q0 -30 -20 -50t-50 -20h-25q-12 0 -30 10q-10 6 -15 10l-39 35q-6 4 -9 7q-10 8 -16 8q-16 0 -16 -20v-45h-80v70q0 30 20 50t50 20h25q12 0 30 -10q10 -6 15 -10
l40 -35l9 -8q8 -7 16 -7q7 0 10.5 3t4 6.5t0.5 10.5v45z" />
    <glyph glyph-name="Ograve" unicode="&#xd2;" horiz-adv-x="680" 
d="M190 560v-420q0 -30 20 -50t50 -20h160q30 0 50 20t20 50v420q0 30 -20 50t-50 20h-160q-30 0 -50 -20t-20 -50zM80 140v420q0 70 44 110t126 40h180q82 0 126 -40t44 -110v-420q0 -70 -44 -110t-126 -40h-180q-82 0 -126 40t-44 110zM195 930h120l90 -160h-95z" />
    <glyph glyph-name="Oacute" unicode="&#xd3;" horiz-adv-x="680" 
d="M190 560v-420q0 -30 20 -50t50 -20h160q30 0 50 20t20 50v420q0 30 -20 50t-50 20h-160q-30 0 -50 -20t-20 -50zM80 140v420q0 70 44 110t126 40h180q82 0 126 -40t44 -110v-420q0 -70 -44 -110t-126 -40h-180q-82 0 -126 40t-44 110zM375 930h120l-115 -160h-95z" />
    <glyph glyph-name="Ocircumflex" unicode="&#xd4;" horiz-adv-x="680" 
d="M190 560v-420q0 -30 20 -50t50 -20h160q30 0 50 20t20 50v420q0 30 -20 50t-50 20h-160q-30 0 -50 -20t-20 -50zM80 140v420q0 70 44 110t126 40h180q82 0 126 -40t44 -110v-420q0 -70 -44 -110t-126 -40h-180q-82 0 -126 40t-44 110zM515 770h-95l-80 90l-80 -90h-95
l130 150h90z" />
    <glyph glyph-name="Otilde" unicode="&#xd5;" horiz-adv-x="680" 
d="M190 560v-420q0 -30 20 -50t50 -20h160q30 0 50 20t20 50v420q0 30 -20 50t-50 20h-160q-30 0 -50 -20t-20 -50zM80 140v420q0 70 44 110t126 40h180q82 0 126 -40t44 -110v-420q0 -70 -44 -110t-126 -40h-180q-82 0 -126 40t-44 110zM410 915h80v-70q0 -30 -20 -50
t-50 -20h-25q-12 0 -30 10q-10 6 -15 10l-39 35q-6 4 -9 7q-10 8 -16 8q-16 0 -16 -20v-45h-80v70q0 30 20 50t50 20h25q12 0 30 -10q10 -6 15 -10l40 -35l9 -8q8 -7 16 -7q7 0 10.5 3t4 6.5t0.5 10.5v45z" />
    <glyph glyph-name="Odieresis" unicode="&#xd6;" horiz-adv-x="680" 
d="M190 560v-420q0 -30 20 -50t50 -20h160q30 0 50 20t20 50v420q0 30 -20 50t-50 20h-160q-30 0 -50 -20t-20 -50zM80 140v420q0 70 44 110t126 40h180q82 0 126 -40t44 -110v-420q0 -70 -44 -110t-126 -40h-180q-82 0 -126 40t-44 110zM292 880v-105h-105v105h105z
M492 880v-105h-105v105h105z" />
    <glyph glyph-name="multiply" unicode="&#xd7;" horiz-adv-x="480" 
d="M240 375l135 130l55 -55l-135 -130l135 -130l-55 -55l-135 130l-135 -130l-55 55l135 130l-135 130l55 55z" />
    <glyph glyph-name="Oslash" unicode="&#xd8;" horiz-adv-x="680" 
d="M565 710l-17 -35q52 -40 52 -115v-420q0 -70 -44 -110t-126 -40h-180q-3 0 -10 0.5t-11 0.5l-19 -41h-95v40l16 35q-51 40 -51 115v420q0 70 44 110t126 40h180q4 0 11 -0.5t10 -0.5l19 41h95v-40zM190 560v-430l234 500h-164q-30 0 -50 -20t-20 -50zM256 70h164
q30 0 50 20t20 50v429z" />
    <glyph glyph-name="Ugrave" unicode="&#xd9;" horiz-adv-x="710" 
d="M510 140v560h110v-560q0 -70 -44 -110t-126 -40h-190q-82 0 -126 40t-44 110v560h110v-560q0 -30 20 -50t50 -20h170q30 0 50 20t20 50zM210 920h120l90 -160h-95z" />
    <glyph glyph-name="Uacute" unicode="&#xda;" horiz-adv-x="710" 
d="M510 140v560h110v-560q0 -70 -44 -110t-126 -40h-190q-82 0 -126 40t-44 110v560h110v-560q0 -30 20 -50t50 -20h170q30 0 50 20t20 50zM370 910h120l-115 -160h-95z" />
    <glyph glyph-name="Ucircumflex" unicode="&#xdb;" horiz-adv-x="710" 
d="M510 140v560h110v-560q0 -70 -44 -110t-126 -40h-190q-82 0 -126 40t-44 110v560h110v-560q0 -30 20 -50t50 -20h170q30 0 50 20t20 50zM530 760h-95l-80 90l-80 -90h-95l130 150h90z" />
    <glyph glyph-name="Udieresis" unicode="&#xdc;" horiz-adv-x="710" 
d="M510 140v560h110v-560q0 -70 -44 -110t-126 -40h-190q-82 0 -126 40t-44 110v560h110v-560q0 -30 20 -50t50 -20h170q30 0 50 20t20 50zM307 870v-105h-105v105h105zM507 870v-105h-105v105h105z" />
    <glyph glyph-name="Yacute" unicode="&#xdd;" horiz-adv-x="600" 
d="M20 700h105l170 -375h10l170 375h105v-50l-225 -435v-215h-110v215l-225 435v50zM325 900h120l-115 -160h-95z" />
    <glyph glyph-name="Thorn" unicode="&#xde;" horiz-adv-x="650" 
d="M200 0h-110v700h110v-110h220q82 0 126 -40t44 -110v-190q0 -70 -44 -110t-126 -40h-220v-100zM200 510v-330h210q30 0 50 20t20 50v190q0 30 -20 50t-50 20h-210z" />
    <glyph glyph-name="germandbls" unicode="&#xdf;" horiz-adv-x="620" 
d="M495 570q0 -30 -15 -55t-32.5 -39t-32.5 -36.5t-15 -49.5v-35q0 -18 20 -32.5t49 -27t57.5 -28t48.5 -41.5t20 -61v-35q0 -54 -43 -92t-112 -38h-165v70h155q26 0 43 17t17 43v35q0 18 -20 32.5t-49 27t-57.5 28t-48.5 41.5t-20 61v35q0 30 15 55t32.5 39t32.5 36.5
t15 49.5q0 26 -17 43t-43 17h-75q-30 0 -50 -20t-20 -50v-560h-105v560q0 65 42 102.5t123 37.5h96q70 0 112 -38t42 -92z" />
    <glyph glyph-name="agrave" unicode="&#xe0;" horiz-adv-x="575" 
d="M290 -10h-90q-69 0 -112 38t-43 92v55q0 54 43 92t112 38h195v95q0 26 -17 43t-43 17h-240v70h250q69 0 112 -38t43 -92v-400h-65l-20 65h-5q-9 -21 -26 -38q-37 -37 -94 -37zM210 60h80q50 0 82 42q15 20 23 43v90h-185q-26 0 -43 -17t-17 -43v-55q0 -26 17 -43t43 -17z
M152 770h120l90 -160h-95z" />
    <glyph glyph-name="aacute" unicode="&#xe1;" horiz-adv-x="575" 
d="M290 -10h-90q-69 0 -112 38t-43 92v55q0 54 43 92t112 38h195v95q0 26 -17 43t-43 17h-240v70h250q69 0 112 -38t43 -92v-400h-65l-20 65h-5q-9 -21 -26 -38q-37 -37 -94 -37zM210 60h80q50 0 82 42q15 20 23 43v90h-185q-26 0 -43 -17t-17 -43v-55q0 -26 17 -43t43 -17z
M302 770h120l-115 -160h-95z" />
    <glyph glyph-name="acircumflex" unicode="&#xe2;" horiz-adv-x="575" 
d="M290 -10h-90q-69 0 -112 38t-43 92v55q0 54 43 92t112 38h195v95q0 26 -17 43t-43 17h-240v70h250q69 0 112 -38t43 -92v-400h-65l-20 65h-5q-9 -21 -26 -38q-37 -37 -94 -37zM210 60h80q50 0 82 42q15 20 23 43v90h-185q-26 0 -43 -17t-17 -43v-55q0 -26 17 -43t43 -17z
M472 600h-95l-80 90l-80 -90h-95l130 150h90z" />
    <glyph glyph-name="atilde" unicode="&#xe3;" horiz-adv-x="575" 
d="M290 -10h-90q-69 0 -112 38t-43 92v55q0 54 43 92t112 38h195v95q0 26 -17 43t-43 17h-240v70h250q69 0 112 -38t43 -92v-400h-65l-20 65h-5q-9 -21 -26 -38q-37 -37 -94 -37zM210 60h80q50 0 82 42q15 20 23 43v90h-185q-26 0 -43 -17t-17 -43v-55q0 -26 17 -43t43 -17z
M357 745h80v-70q0 -30 -20 -50t-50 -20h-25q-12 0 -30 10q-10 6 -15 10l-39 35q-6 4 -9 7q-10 8 -16 8q-16 0 -16 -20v-45h-80v70q0 30 20 50t50 20h25q12 0 30 -10q10 -6 15 -10l40 -35l9 -8q8 -7 16 -7q7 0 10.5 3t4 6.5t0.5 10.5v45z" />
    <glyph glyph-name="adieresis" unicode="&#xe4;" horiz-adv-x="575" 
d="M290 -10h-90q-69 0 -112 38t-43 92v55q0 54 43 92t112 38h195v95q0 26 -17 43t-43 17h-240v70h250q69 0 112 -38t43 -92v-400h-65l-20 65h-5q-9 -21 -26 -38q-37 -37 -94 -37zM210 60h80q50 0 82 42q15 20 23 43v90h-185q-26 0 -43 -17t-17 -43v-55q0 -26 17 -43t43 -17z
M250 710v-105h-105v105h105zM450 710v-105h-105v105h105z" />
    <glyph glyph-name="aring" unicode="&#xe5;" horiz-adv-x="575" 
d="M290 -10h-90q-69 0 -112 38t-43 92v55q0 54 43 92t112 38h195v95q0 26 -17 43t-43 17h-240v70h250q69 0 112 -38t43 -92v-400h-65l-20 65h-5q-9 -21 -26 -38q-37 -37 -94 -37zM210 60h80q50 0 82 42q15 20 23 43v90h-185q-26 0 -43 -17t-17 -43v-55q0 -26 17 -43t43 -17z
M407 710v-50q0 -34 -23.5 -57t-61.5 -23h-70q-38 0 -61.5 23t-23.5 57v50q0 31 24 55.5t61 24.5h70q38 0 61.5 -23t23.5 -57zM277 635h20q25 0 25 25v50q0 25 -25 25h-20q-25 0 -25 -25v-50q0 -25 25 -25z" />
    <glyph glyph-name="ae" unicode="&#xe6;" horiz-adv-x="900" 
d="M835 410v-185h-335v-95q0 -26 17 -43t43 -17h255v-70h-265q-54 0 -92 32q-18 15 -28 33q-13 -23 -31 -38q-45 -37 -109 -37h-90q-69 0 -112 38t-43 92v55q0 54 43 92t112 38h195v95q0 26 -17 43t-43 17h-240v70h250q43 0 76 -25q12 -9 24 -25q9 16 24 30q34 30 81 30h130
q69 0 112 -38t43 -92zM210 60h80q74 0 105 84v91h-185q-26 0 -43 -17t-17 -43v-55q0 -26 17 -43t43 -17zM500 410v-115h230v115q0 26 -17 43t-43 17h-110q-26 0 -43 -17t-17 -43z" />
    <glyph glyph-name="ccedilla" unicode="&#xe7;" horiz-adv-x="520" 
d="M65 130v270q0 54 43 92t112 38h260v-35l-30 -35h-220q-26 0 -43 -17t-17 -43v-270q0 -26 17 -43t43 -17h250v-70h-193v-45h40q42 0 68.5 -25.5t26.5 -64.5v-15q0 -39 -26.5 -64.5t-68.5 -25.5h-130v60h105q11 0 20.5 9.5t9.5 20.5v15q0 11 -9.5 20.5t-20.5 9.5h-80v105
h-2q-69 0 -112 38t-43 92z" />
    <glyph glyph-name="egrave" unicode="&#xe8;" horiz-adv-x="570" 
d="M505 410v-185h-335v-95q0 -26 17 -43t43 -17h255v-70h-265q-69 0 -112 38t-43 92v280q0 54 43 92t112 38h130q69 0 112 -38t43 -92zM170 410v-115h230v115q0 26 -17 43t-43 17h-110q-26 0 -43 -17t-17 -43zM140 770h120l90 -160h-95z" />
    <glyph glyph-name="eacute" unicode="&#xe9;" horiz-adv-x="570" 
d="M505 410v-185h-335v-95q0 -26 17 -43t43 -17h255v-70h-265q-69 0 -112 38t-43 92v280q0 54 43 92t112 38h130q69 0 112 -38t43 -92zM170 410v-115h230v115q0 26 -17 43t-43 17h-110q-26 0 -43 -17t-17 -43zM310 770h120l-115 -160h-95z" />
    <glyph glyph-name="ecircumflex" unicode="&#xea;" horiz-adv-x="570" 
d="M505 410v-185h-335v-95q0 -26 17 -43t43 -17h255v-70h-265q-69 0 -112 38t-43 92v280q0 54 43 92t112 38h130q69 0 112 -38t43 -92zM170 410v-115h230v115q0 26 -17 43t-43 17h-110q-26 0 -43 -17t-17 -43zM460 610h-95l-80 90l-80 -90h-95l130 150h90z" />
    <glyph glyph-name="edieresis" unicode="&#xeb;" horiz-adv-x="570" 
d="M505 410v-185h-335v-95q0 -26 17 -43t43 -17h255v-70h-265q-69 0 -112 38t-43 92v280q0 54 43 92t112 38h130q69 0 112 -38t43 -92zM170 410v-115h230v115q0 26 -17 43t-43 17h-110q-26 0 -43 -17t-17 -43zM237 720v-105h-105v105h105zM437 720v-105h-105v105h105z" />
    <glyph glyph-name="igrave" unicode="&#xec;" horiz-adv-x="255" 
d="M180 530v-530h-105v530h105zM-26 770h120l90 -160h-95z" />
    <glyph glyph-name="iacute" unicode="&#xed;" horiz-adv-x="255" 
d="M180 530v-530h-105v530h105zM163 770h120l-115 -160h-95z" />
    <glyph glyph-name="icircumflex" unicode="&#xee;" horiz-adv-x="255" 
d="M180 530v-530h-105v530h105zM304 600h-95l-80 90l-80 -90h-95l130 150h90z" />
    <glyph glyph-name="idieresis" unicode="&#xef;" horiz-adv-x="255" 
d="M180 530v-530h-105v530h105zM81 700v-105h-105v105h105zM281 700v-105h-105v105h105z" />
    <glyph glyph-name="eth" unicode="&#xf0;" horiz-adv-x="600" 
d="M225 565l15 75l-115 20l15 80l115 -20l15 80l80 -15l-15 -75l25 -5q74 -14 119.5 -64t45.5 -126v-395q0 -54 -43 -92t-112 -38h-150q-69 0 -112 38t-43 92v225q0 54 43 92t112 38h200v40q0 46 -22.5 74.5t-52.5 35.5l-25 5l-15 -80zM420 120v285h-190q-26 0 -43 -17
t-17 -43v-225q0 -26 17 -43t43 -17h130q26 0 43 17t17 43z" />
    <glyph glyph-name="ntilde" unicode="&#xf1;" horiz-adv-x="610" 
d="M370 470h-85q-50 0 -83 -43q-15 -20 -22 -42v-385h-105v530h65l20 -65h5q9 20 26 37q38 38 94 38h95q69 0 112 -38t43 -92v-410h-105v410q0 26 -17 43t-43 17zM375 745h80v-70q0 -30 -20 -50t-50 -20h-25q-12 0 -30 10q-10 6 -15 10l-39 35q-6 4 -9 7q-10 8 -16 8
q-16 0 -16 -20v-45h-80v70q0 30 20 50t50 20h25q12 0 30 -10q10 -6 15 -10l40 -35l9 -8q8 -7 16 -7q7 0 10.5 3t4 6.5t0.5 10.5v45z" />
    <glyph glyph-name="ograve" unicode="&#xf2;" 
d="M530 410v-290q0 -54 -43 -92t-112 -38h-155q-69 0 -112 38t-43 92v290q0 54 43 92t112 38h155q69 0 112 -38t43 -92zM170 410v-290q0 -26 17 -43t43 -17h135q26 0 43 17t17 43v290q0 26 -17 43t-43 17h-135q-26 0 -43 -17t-17 -43zM152 770h120l90 -160h-95z" />
    <glyph glyph-name="oacute" unicode="&#xf3;" 
d="M530 410v-290q0 -54 -43 -92t-112 -38h-155q-69 0 -112 38t-43 92v290q0 54 43 92t112 38h155q69 0 112 -38t43 -92zM170 410v-290q0 -26 17 -43t43 -17h135q26 0 43 17t17 43v290q0 26 -17 43t-43 17h-135q-26 0 -43 -17t-17 -43zM332 770h120l-115 -160h-95z" />
    <glyph glyph-name="ocircumflex" unicode="&#xf4;" 
d="M530 410v-290q0 -54 -43 -92t-112 -38h-155q-69 0 -112 38t-43 92v290q0 54 43 92t112 38h155q69 0 112 -38t43 -92zM170 410v-290q0 -26 17 -43t43 -17h135q26 0 43 17t17 43v290q0 26 -17 43t-43 17h-135q-26 0 -43 -17t-17 -43zM472 600h-95l-80 90l-80 -90h-95
l130 150h90z" />
    <glyph glyph-name="otilde" unicode="&#xf5;" 
d="M530 410v-290q0 -54 -43 -92t-112 -38h-155q-69 0 -112 38t-43 92v290q0 54 43 92t112 38h155q69 0 112 -38t43 -92zM170 410v-290q0 -26 17 -43t43 -17h135q26 0 43 17t17 43v290q0 26 -17 43t-43 17h-135q-26 0 -43 -17t-17 -43zM367 745h80v-70q0 -30 -20 -50t-50 -20
h-25q-12 0 -30 10q-10 6 -15 10l-39 35q-6 4 -9 7q-10 8 -16 8q-16 0 -16 -20v-45h-80v70q0 30 20 50t50 20h25q12 0 30 -10q10 -6 15 -10l40 -35l9 -8q8 -7 16 -7q7 0 10.5 3t4 6.5t0.5 10.5v45z" />
    <glyph glyph-name="odieresis" unicode="&#xf6;" 
d="M530 410v-290q0 -54 -43 -92t-112 -38h-155q-69 0 -112 38t-43 92v290q0 54 43 92t112 38h155q69 0 112 -38t43 -92zM170 410v-290q0 -26 17 -43t43 -17h135q26 0 43 17t17 43v290q0 26 -17 43t-43 17h-135q-26 0 -43 -17t-17 -43zM250 710v-105h-105v105h105zM450 710
v-105h-105v105h105z" />
    <glyph glyph-name="divide" unicode="&#xf7;" horiz-adv-x="490" 
d="M40 360h410v-80h-410v80zM295 190v-110h-105v110h105zM295 560v-110h-105v110h105z" />
    <glyph glyph-name="oslash" unicode="&#xf8;" 
d="M530 540l-32 -49q32 -35 32 -81v-290q0 -54 -43 -92t-112 -38h-155q-21 0 -46 5l-29 -45h-85v40l34 52q-29 35 -29 78v290q0 54 43 92t112 38h155q24 0 41 -4l29 44h85v-40zM220 60h145q26 0 43 17t17 43v279l-218 -338q3 -1 13 -1zM170 410v-272l213 331q-2 1 -8 1h-145
q-26 0 -43 -17t-17 -43z" />
    <glyph glyph-name="ugrave" unicode="&#xf9;" horiz-adv-x="610" 
d="M240 60h85q50 0 82 42q15 20 23 43v385h105v-530h-65l-20 65h-5q-9 -21 -26 -38q-37 -37 -94 -37h-95q-69 0 -112 38t-43 92v410h105v-410q0 -26 17 -43t43 -17zM160 760h120l90 -160h-95z" />
    <glyph glyph-name="uacute" unicode="&#xfa;" horiz-adv-x="610" 
d="M240 60h85q50 0 82 42q15 20 23 43v385h105v-530h-65l-20 65h-5q-9 -21 -26 -38q-37 -37 -94 -37h-95q-69 0 -112 38t-43 92v410h105v-410q0 -26 17 -43t43 -17zM340 740h120l-115 -160h-95z" />
    <glyph glyph-name="ucircumflex" unicode="&#xfb;" horiz-adv-x="610" 
d="M240 60h85q50 0 82 42q15 20 23 43v385h105v-530h-65l-20 65h-5q-9 -21 -26 -38q-37 -37 -94 -37h-95q-69 0 -112 38t-43 92v410h105v-410q0 -26 17 -43t43 -17zM490 600h-95l-80 90l-80 -90h-95l130 150h90z" />
    <glyph glyph-name="udieresis" unicode="&#xfc;" horiz-adv-x="610" 
d="M240 60h85q50 0 82 42q15 20 23 43v385h105v-530h-65l-20 65h-5q-9 -21 -26 -38q-37 -37 -94 -37h-95q-69 0 -112 38t-43 92v410h105v-410q0 -26 17 -43t43 -17zM267 710v-105h-105v105h105zM467 710v-105h-105v105h105z" />
    <glyph glyph-name="yacute" unicode="&#xfd;" horiz-adv-x="540" 
d="M515 485l-190 -525q-20 -56 -66.5 -93t-113.5 -37h-50v70h50q54 0 75 60l10 30v10l-205 485v45h100l155 -435h5l130 435h100v-45zM305 760h120l-115 -160h-95z" />
    <glyph glyph-name="thorn" unicode="&#xfe;" horiz-adv-x="600" 
d="M185 700v-170h195q69 0 112 -38t43 -92v-270q0 -54 -43 -92t-112 -38h-195v-170h-105v870h105zM370 460h-185v-390h185q26 0 43 17t17 43v270q0 26 -17 43t-43 17z" />
    <glyph glyph-name="ydieresis" unicode="&#xff;" horiz-adv-x="540" 
d="M515 485l-190 -525q-20 -56 -66.5 -93t-113.5 -37h-50v70h50q54 0 75 60l10 30v10l-205 485v45h100l155 -435h5l130 435h100v-45zM232 710v-105h-105v105h105zM432 710v-105h-105v105h105z" />
    <glyph glyph-name="Amacron" unicode="&#x100;" horiz-adv-x="655" 
d="M520 0l-55 170h-275l-55 -170h-105v50l225 650h145l225 -650v-50h-105zM325 600l-110 -350h225l-110 350h-5zM477 850v-70h-300v70h300z" />
    <glyph glyph-name="amacron" unicode="&#x101;" horiz-adv-x="575" 
d="M290 -10h-90q-69 0 -112 38t-43 92v55q0 54 43 92t112 38h195v95q0 26 -17 43t-43 17h-240v70h250q69 0 112 -38t43 -92v-400h-65l-20 65h-5q-9 -21 -26 -38q-37 -37 -94 -37zM210 60h80q50 0 82 42q15 20 23 43v90h-185q-26 0 -43 -17t-17 -43v-55q0 -26 17 -43t43 -17z
M447 691v-70h-300v70h300z" />
    <glyph glyph-name="Abreve" unicode="&#x102;" horiz-adv-x="655" 
d="M520 0l-55 170h-275l-55 -170h-105v50l225 650h145l225 -650v-50h-105zM325 600l-110 -350h225l-110 350h-5zM377 760h-100q-48 0 -74 25t-26 70v45h85v-45q0 -30 30 -30h70q30 0 30 30v45h85v-45q0 -45 -26 -70t-74 -25z" />
    <glyph glyph-name="abreve" unicode="&#x103;" horiz-adv-x="575" 
d="M290 -10h-90q-69 0 -112 38t-43 92v55q0 54 43 92t112 38h195v95q0 26 -17 43t-43 17h-240v70h250q69 0 112 -38t43 -92v-400h-65l-20 65h-5q-9 -21 -26 -38q-37 -37 -94 -37zM210 60h80q50 0 82 42q15 20 23 43v90h-185q-26 0 -43 -17t-17 -43v-55q0 -26 17 -43t43 -17z
M337 600h-100q-48 0 -74 25t-26 70v45h85v-45q0 -30 30 -30h70q30 0 30 30v45h85v-45q0 -45 -26 -70t-74 -25z" />
    <glyph glyph-name="Aogonek" unicode="&#x104;" horiz-adv-x="655" 
d="M520 0l-55 170h-275l-55 -170h-105v50l225 650h145l225 -650v-70q-23 -9 -48 -25q-47 -31 -47 -70q0 -15 10 -25t25 -10h80v-60h-80q-125 0 -125 95q0 48 50 86q25 19 50 29h-20zM325 600l-110 -350h225l-110 350h-5z" />
    <glyph glyph-name="aogonek" unicode="&#x105;" horiz-adv-x="575" 
d="M290 -10h-90q-69 0 -112 38t-43 92v55q0 54 43 92t112 38h195v95q0 26 -17 43t-43 17h-240v70h250q69 0 112 -38t43 -92v-420q-23 -9 -48 -25q-47 -31 -47 -70q0 -15 10 -25t25 -10h80v-60h-80q-125 0 -125 95q0 48 50 86q25 19 50 29h20l-20 65h-5q-9 -21 -26 -38
q-37 -37 -94 -37zM210 60h80q50 0 82 42q15 20 23 43v90h-185q-26 0 -43 -17t-17 -43v-55q0 -26 17 -43t43 -17z" />
    <glyph glyph-name="Cacute" unicode="&#x106;" 
d="M80 150v400q0 70 44 110t126 40h305v-45l-30 -35h-265q-30 0 -50 -20t-20 -50v-400q0 -30 20 -50t50 -20h295v-80h-305q-82 0 -126 40t-44 110zM352 930h120l-115 -160h-95z" />
    <glyph glyph-name="cacute" unicode="&#x107;" horiz-adv-x="520" 
d="M65 130v270q0 54 43 92t112 38h260v-35l-30 -35h-220q-26 0 -43 -17t-17 -43v-270q0 -26 17 -43t43 -17h250v-70h-260q-69 0 -112 38t-43 92zM315 770h120l-115 -160h-95z" />
    <glyph glyph-name="Ccircumflex" unicode="&#x108;" 
d="M80 150v400q0 70 44 110t126 40h305v-45l-30 -35h-265q-30 0 -50 -20t-20 -50v-400q0 -30 20 -50t50 -20h295v-80h-305q-82 0 -126 40t-44 110zM502 770h-95l-80 90l-80 -90h-95l130 150h90z" />
    <glyph glyph-name="ccircumflex" unicode="&#x109;" horiz-adv-x="520" 
d="M65 130v270q0 54 43 92t112 38h260v-35l-30 -35h-220q-26 0 -43 -17t-17 -43v-270q0 -26 17 -43t43 -17h250v-70h-260q-69 0 -112 38t-43 92zM455 610h-95l-80 90l-80 -90h-95l130 150h90z" />
    <glyph glyph-name="Cdotaccent" unicode="&#x10a;" 
d="M80 150v400q0 70 44 110t126 40h305v-45l-30 -35h-265q-30 0 -50 -20t-20 -50v-400q0 -30 20 -50t50 -20h295v-80h-305q-82 0 -126 40t-44 110zM380 870v-105h-105v105h105z" />
    <glyph glyph-name="cdotaccent" unicode="&#x10b;" horiz-adv-x="520" 
d="M65 130v270q0 54 43 92t112 38h260v-35l-30 -35h-220q-26 0 -43 -17t-17 -43v-270q0 -26 17 -43t43 -17h250v-70h-260q-69 0 -112 38t-43 92zM332 720v-105h-105v105h105z" />
    <glyph glyph-name="Ccaron" unicode="&#x10c;" 
d="M80 150v400q0 70 44 110t126 40h305v-45l-30 -35h-265q-30 0 -50 -20t-20 -50v-400q0 -30 20 -50t50 -20h295v-80h-305q-82 0 -126 40t-44 110zM417 920h95l-130 -150h-90l-130 150h95l80 -90z" />
    <glyph glyph-name="ccaron" unicode="&#x10d;" horiz-adv-x="520" 
d="M65 130v270q0 54 43 92t112 38h260v-35l-30 -35h-220q-26 0 -43 -17t-17 -43v-270q0 -26 17 -43t43 -17h250v-70h-260q-69 0 -112 38t-43 92zM360 750h95l-130 -150h-90l-130 150h95l80 -90z" />
    <glyph glyph-name="Dcaron" unicode="&#x10e;" horiz-adv-x="680" 
d="M600 550v-400q0 -70 -44 -110t-126 -40h-340v700h340q82 0 126 -40t44 -110zM420 620h-220v-540h220q30 0 50 20t20 50v400q0 30 -20 50t-50 20zM410 920h95l-130 -150h-90l-130 150h95l80 -90z" />
    <glyph glyph-name="dcaron" unicode="&#x10f;" horiz-adv-x="745" 
d="M310 -10h-90q-69 0 -112 38t-43 92v280q0 54 43 92t112 38h195v170h105v-700h-65l-20 65h-5q-9 -21 -26 -38q-37 -37 -94 -37zM230 60h80q50 0 82 42q15 20 23 43v315h-185q-26 0 -43 -17t-17 -43v-280q0 -26 17 -43t43 -17zM715 615l-50 -135h-55v220h105v-85z" />
    <glyph glyph-name="Dcroat" unicode="&#x110;" horiz-adv-x="680" 
d="M600 550v-400q0 -70 -44 -110t-126 -40h-340v320h-70v70h70v310h340q82 0 126 -40t44 -110zM420 620h-220v-230h150v-70h-150v-240h220q30 0 50 20t20 50v400q0 30 -20 50t-50 20z" />
    <glyph glyph-name="dcroat" unicode="&#x111;" horiz-adv-x="600" 
d="M310 -10h-90q-69 0 -112 38t-43 92v200q0 54 43 92t112 38h195v80h-185v70h185v100h105v-100h60v-70h-60v-530h-65l-20 65h-5q-9 -21 -26 -38q-37 -37 -94 -37zM230 60h80q50 0 82 42q15 20 23 43v235h-185q-26 0 -43 -17t-17 -43v-200q0 -26 17 -43t43 -17z" />
    <glyph glyph-name="Emacron" unicode="&#x112;" horiz-adv-x="590" 
d="M555 700v-45l-30 -35h-325v-230h265v-80h-265v-230h355v-80h-465v700h465zM465 870v-70h-300v70h300z" />
    <glyph glyph-name="emacron" unicode="&#x113;" horiz-adv-x="570" 
d="M505 410v-185h-335v-95q0 -26 17 -43t43 -17h255v-70h-265q-69 0 -112 38t-43 92v280q0 54 43 92t112 38h130q69 0 112 -38t43 -92zM170 410v-115h230v115q0 26 -17 43t-43 17h-110q-26 0 -43 -17t-17 -43zM435 700v-70h-300v70h300z" />
    <glyph glyph-name="Ebreve" unicode="&#x114;" horiz-adv-x="590" 
d="M555 700v-45l-30 -35h-325v-230h265v-80h-265v-230h355v-80h-465v700h465zM365 770h-100q-48 0 -74 25t-26 70v45h85v-45q0 -30 30 -30h70q30 0 30 30v45h85v-45q0 -45 -26 -70t-74 -25z" />
    <glyph glyph-name="ebreve" unicode="&#x115;" horiz-adv-x="570" 
d="M505 410v-185h-335v-95q0 -26 17 -43t43 -17h255v-70h-265q-69 0 -112 38t-43 92v280q0 54 43 92t112 38h130q69 0 112 -38t43 -92zM170 410v-115h230v115q0 26 -17 43t-43 17h-110q-26 0 -43 -17t-17 -43zM335 600h-100q-48 0 -74 25t-26 70v45h85v-45q0 -30 30 -30h70
q30 0 30 30v45h85v-45q0 -45 -26 -70t-74 -25z" />
    <glyph glyph-name="Edotaccent" unicode="&#x116;" horiz-adv-x="590" 
d="M555 700v-45l-30 -35h-325v-230h265v-80h-265v-230h355v-80h-465v700h465zM367 880v-105h-105v105h105z" />
    <glyph glyph-name="edotaccent" unicode="&#x117;" horiz-adv-x="570" 
d="M505 410v-185h-335v-95q0 -26 17 -43t43 -17h255v-70h-265q-69 0 -112 38t-43 92v280q0 54 43 92t112 38h130q69 0 112 -38t43 -92zM170 410v-115h230v115q0 26 -17 43t-43 17h-110q-26 0 -43 -17t-17 -43zM337 720v-105h-105v105h105z" />
    <glyph glyph-name="Eogonek" unicode="&#x118;" horiz-adv-x="590" 
d="M555 700v-45l-30 -35h-325v-230h265v-80h-265v-230h355v-80l-150 -1q-30 -16 -53 -35q-52 -40 -52 -79q0 -15 10 -25t25 -10h80v-60h-80q-125 0 -125 95q0 48 50 86q25 19 50 29h-220v700h465z" />
    <glyph glyph-name="eogonek" unicode="&#x119;" horiz-adv-x="570" 
d="M505 410v-185h-335v-95q0 -26 17 -43t43 -17h255v-70h-120q-30 -16 -53 -35q-52 -40 -52 -80q0 -15 10 -25t25 -10h80v-60h-80q-125 0 -125 95q0 48 50 86q25 19 50 29h-50q-69 0 -112 38t-43 92v280q0 54 43 92t112 38h130q69 0 112 -38t43 -92zM170 410v-115h230v115
q0 26 -17 43t-43 17h-110q-26 0 -43 -17t-17 -43z" />
    <glyph glyph-name="Ecaron" unicode="&#x11a;" horiz-adv-x="590" 
d="M555 700v-45l-30 -35h-325v-230h265v-80h-265v-230h355v-80h-465v700h465zM395 920h95l-130 -150h-90l-130 150h95l80 -90z" />
    <glyph glyph-name="ecaron" unicode="&#x11b;" horiz-adv-x="570" 
d="M505 410v-185h-335v-95q0 -26 17 -43t43 -17h255v-70h-265q-69 0 -112 38t-43 92v280q0 54 43 92t112 38h130q69 0 112 -38t43 -92zM170 410v-115h230v115q0 26 -17 43t-43 17h-110q-26 0 -43 -17t-17 -43zM365 750h95l-130 -150h-90l-130 150h95l80 -90z" />
    <glyph glyph-name="Gcircumflex" unicode="&#x11c;" horiz-adv-x="675" 
d="M480 310h-150v80h260v-390h-340q-82 0 -126 40t-44 110v400q0 70 44 110t126 40h305v-45l-30 -35h-265q-30 0 -50 -20t-20 -50v-400q0 -30 20 -50t50 -20h220v230zM502 760h-95l-80 90l-80 -90h-95l130 150h90z" />
    <glyph glyph-name="gcircumflex" unicode="&#x11d;" 
d="M70 325v85q0 54 43 92t112 38h145l35 80h95v-40l-55 -50v-5q22 -9 40 -24q40 -38 40 -91v-85q0 -54 -43 -92t-112 -38h-170q-8 0 -14 -6t-6 -14v-25q0 -8 6 -14t14 -6h205q69 0 112 -38t43 -92v-40q0 -54 -43 -92t-112 -38h-215q-69 0 -112 38t-43 92v40q0 50 42 80
q16 12 43 20v5q-10 3 -18 9q-17 13 -17 36v25q0 23 17 36q8 6 18 9v5q-17 9 -25 20q-25 29 -25 80zM175 410v-85q0 -26 17 -43t43 -17h125q26 0 43 17t17 43v85q0 26 -17 43t-43 17h-125q-26 0 -43 -17t-17 -43zM140 0v-40q0 -26 17 -43t43 -17h195q26 0 43 17t17 43v40
q0 26 -17 43t-43 17h-195q-26 0 -43 -17t-17 -43zM472 630h-95l-80 90l-80 -90h-95l130 150h90z" />
    <glyph glyph-name="Gbreve" unicode="&#x11e;" horiz-adv-x="675" 
d="M480 310h-150v80h260v-390h-340q-82 0 -126 40t-44 110v400q0 70 44 110t126 40h305v-45l-30 -35h-265q-30 0 -50 -20t-20 -50v-400q0 -30 20 -50t50 -20h220v230zM377 770h-100q-48 0 -74 25t-26 70v45h85v-45q0 -30 30 -30h70q30 0 30 30v45h85v-45q0 -45 -26 -70
t-74 -25z" />
    <glyph glyph-name="gbreve" unicode="&#x11f;" 
d="M70 325v85q0 54 43 92t112 38h145l35 80h95v-40l-55 -50v-5q22 -9 40 -24q40 -38 40 -91v-85q0 -54 -43 -92t-112 -38h-170q-8 0 -14 -6t-6 -14v-25q0 -8 6 -14t14 -6h205q69 0 112 -38t43 -92v-40q0 -54 -43 -92t-112 -38h-215q-69 0 -112 38t-43 92v40q0 50 42 80
q16 12 43 20v5q-10 3 -18 9q-17 13 -17 36v25q0 23 17 36q8 6 18 9v5q-17 9 -25 20q-25 29 -25 80zM175 410v-85q0 -26 17 -43t43 -17h125q26 0 43 17t17 43v85q0 26 -17 43t-43 17h-125q-26 0 -43 -17t-17 -43zM140 0v-40q0 -26 17 -43t43 -17h195q26 0 43 17t17 43v40
q0 26 -17 43t-43 17h-195q-26 0 -43 -17t-17 -43zM347 620h-100q-48 0 -74 25t-26 70v45h85v-45q0 -30 30 -30h70q30 0 30 30v45h85v-45q0 -45 -26 -70t-74 -25z" />
    <glyph glyph-name="Gdotaccent" unicode="&#x120;" horiz-adv-x="675" 
d="M480 310h-150v80h260v-390h-340q-82 0 -126 40t-44 110v400q0 70 44 110t126 40h305v-45l-30 -35h-265q-30 0 -50 -20t-20 -50v-400q0 -30 20 -50t50 -20h220v230zM390 880v-105h-105v105h105z" />
    <glyph glyph-name="gdotaccent" unicode="&#x121;" 
d="M70 325v85q0 54 43 92t112 38h145l35 80h95v-40l-55 -50v-5q22 -9 40 -24q40 -38 40 -91v-85q0 -54 -43 -92t-112 -38h-170q-8 0 -14 -6t-6 -14v-25q0 -8 6 -14t14 -6h205q69 0 112 -38t43 -92v-40q0 -54 -43 -92t-112 -38h-215q-69 0 -112 38t-43 92v40q0 50 42 80
q16 12 43 20v5q-10 3 -18 9q-17 13 -17 36v25q0 23 17 36q8 6 18 9v5q-17 9 -25 20q-25 29 -25 80zM175 410v-85q0 -26 17 -43t43 -17h125q26 0 43 17t17 43v85q0 26 -17 43t-43 17h-125q-26 0 -43 -17t-17 -43zM140 0v-40q0 -26 17 -43t43 -17h195q26 0 43 17t17 43v40
q0 26 -17 43t-43 17h-195q-26 0 -43 -17t-17 -43zM350 720v-105h-105v105h105z" />
    <glyph glyph-name="Gcommaaccent" unicode="&#x122;" horiz-adv-x="675" 
d="M480 310h-150v80h260v-390h-340q-82 0 -126 40t-44 110v400q0 70 44 110t126 40h305v-45l-30 -35h-265q-30 0 -50 -20t-20 -50v-400q0 -30 20 -50t50 -20h220v230zM395 -144l-40 -110h-55v195h95v-85z" />
    <glyph glyph-name="gcommaaccent" unicode="&#x123;" 
d="M70 325v85q0 54 43 92t112 38h145l35 80h95v-40l-55 -50v-5q22 -9 40 -24q40 -38 40 -91v-85q0 -54 -43 -92t-112 -38h-170q-8 0 -14 -6t-6 -14v-25q0 -8 6 -14t14 -6h205q69 0 112 -38t43 -92v-40q0 -54 -43 -92t-112 -38h-215q-69 0 -112 38t-43 92v40q0 50 42 80
q16 12 43 20v5q-10 3 -18 9q-17 13 -17 36v25q0 23 17 36q8 6 18 9v5q-17 9 -25 20q-25 29 -25 80zM175 410v-85q0 -26 17 -43t43 -17h125q26 0 43 17t17 43v85q0 26 -17 43t-43 17h-125q-26 0 -43 -17t-17 -43zM140 0v-40q0 -26 17 -43t43 -17h195q26 0 43 17t17 43v40
q0 26 -17 43t-43 17h-195q-26 0 -43 -17t-17 -43zM245 715l40 110h55v-195h-95v85z" />
    <glyph glyph-name="Hcircumflex" unicode="&#x124;" horiz-adv-x="690" 
d="M200 0h-110v700h110v-310h290v310h110v-700h-110v310h-290v-310zM520 770h-95l-80 90l-80 -90h-95l130 150h90z" />
    <glyph glyph-name="hcircumflex" unicode="&#x125;" horiz-adv-x="610" 
d="M370 460h-185v-460h-105v700h105v-170h195q69 0 112 -38t43 -92v-400h-105v400q0 26 -17 43t-43 17zM311 750h-95l-80 90l-80 -90h-95l130 150h90z" />
    <glyph glyph-name="Hbar" unicode="&#x126;" horiz-adv-x="690" 
d="M200 0h-110v490h-60v70h60v140h110v-140h290v140h110v-140h60v-70h-60v-490h-110v300h-290v-300zM200 380h290v110h-290v-110z" />
    <glyph glyph-name="hbar" unicode="&#x127;" horiz-adv-x="615" 
d="M350 590v-70h-150v-90h195q69 0 112 -38t43 -92v-300h-105v300q0 26 -17 43t-43 17h-185v-360h-105v520h-85v70h85l55 110h50v-110h150z" />
    <glyph glyph-name="Itilde" unicode="&#x128;" horiz-adv-x="290" 
d="M200 0h-110v700h110v-700zM216 905h80v-70q0 -30 -20 -50t-50 -20h-25q-12 0 -30 10q-10 6 -15 10l-39 35q-6 4 -9 7q-10 8 -16 8q-16 0 -16 -20v-45h-80v70q0 30 20 50t50 20h25q12 0 30 -10q10 -6 15 -10l40 -35l9 -8q8 -7 16 -7q7 0 10.5 3t4 6.5t0.5 10.5v45z" />
    <glyph glyph-name="itilde" unicode="&#x129;" horiz-adv-x="260" 
d="M182 530v-530h-105v530h105zM201 735h80v-70q0 -30 -20 -50t-50 -20h-25q-12 0 -30 10q-10 6 -15 10l-39 35q-6 4 -9 7q-10 8 -16 8q-16 0 -16 -20v-45h-80v70q0 30 20 50t50 20h25q12 0 30 -10q10 -6 15 -10l40 -35l9 -8q8 -7 16 -7q7 0 10.5 3t4 6.5t0.5 10.5v45z" />
    <glyph glyph-name="Imacron" unicode="&#x12a;" horiz-adv-x="290" 
d="M200 0h-110v700h110v-700zM296 860v-70h-300v70h300z" />
    <glyph glyph-name="imacron" unicode="&#x12b;" horiz-adv-x="260" 
d="M182 530v-530h-105v530h105zM281 691v-70h-300v70h300z" />
    <glyph glyph-name="Ibreve" unicode="&#x12c;" horiz-adv-x="290" 
d="M200 0h-110v700h110v-700zM196 770h-100q-48 0 -74 25t-26 70v45h85v-45q0 -30 30 -30h70q30 0 30 30v45h85v-45q0 -45 -26 -70t-74 -25z" />
    <glyph glyph-name="ibreve" unicode="&#x12d;" horiz-adv-x="260" 
d="M182 530v-530h-105v530h105zM181 600h-100q-48 0 -74 25t-26 70v45h85v-45q0 -30 30 -30h70q30 0 30 30v45h85v-45q0 -45 -26 -70t-74 -25z" />
    <glyph glyph-name="Iogonek" unicode="&#x12e;" horiz-adv-x="290" 
d="M115 0h-25v700h110v-720q-23 -9 -48 -25q-47 -31 -47 -70q0 -15 10 -25t25 -10h80v-60h-80q-125 0 -125 95q0 48 50 86q25 19 50 29z" />
    <glyph glyph-name="iogonek" unicode="&#x12f;" horiz-adv-x="255" 
d="M180 530v-550q-23 -9 -48 -25q-47 -31 -47 -70q0 -15 10 -25t25 -10h80v-60h-80q-125 0 -125 95q0 48 50 86q25 19 50 29h-20v530h105zM180 710v-105h-105v105h105z" />
    <glyph glyph-name="Idotaccent" unicode="&#x130;" horiz-adv-x="290" 
d="M200 0h-110v700h110v-700zM197 870v-105h-105v105h105z" />
    <glyph glyph-name="dotlessi" unicode="&#x131;" horiz-adv-x="255" 
d="M180 530v-530h-105v530h105z" />
    <glyph glyph-name="IJ" unicode="&#x132;" horiz-adv-x="815" 
d="M200 0h-110v700h110v-700zM300 70h245q30 0 50 20t20 50v560h110v-560q0 -70 -44 -110t-126 -40h-255v80z" />
    <glyph glyph-name="ij" unicode="&#x133;" horiz-adv-x="525" 
d="M180 530v-530h-105v530h105zM180 710v-105h-105v105h105zM295 -170h-115v70h105q26 0 43 17t17 43v570h105v-570q0 -54 -43 -92t-112 -38zM450 710v-105h-105v105h105z" />
    <glyph glyph-name="Jcircumflex" unicode="&#x134;" horiz-adv-x="525" 
d="M10 70h245q30 0 50 20t20 50v560h110v-560q0 -70 -44 -110t-126 -40h-255v80zM557 760h-95l-80 90l-80 -90h-95l130 150h90z" />
    <glyph glyph-name="jcircumflex" unicode="&#x135;" horiz-adv-x="270" 
d="M40 -170h-115v70h105q26 0 43 17t17 43v570h105v-570q0 -54 -43 -92t-112 -38zM310 600h-95l-80 90l-80 -90h-95l130 150h90z" />
    <glyph glyph-name="Kcommaaccent" unicode="&#x136;" horiz-adv-x="655" 
d="M200 0h-110v700h110v-305h135l155 305h105v-50l-170 -295l190 -305v-50h-105l-175 315h-135v-315zM385 -105l-40 -110h-55v195h95v-85z" />
    <glyph glyph-name="kcommaaccent" unicode="&#x137;" horiz-adv-x="575" 
d="M185 700v-400h120l115 230h100v-45l-130 -220l145 -220v-45h-100l-130 230h-120v-230h-105v700h105zM345 -115l-40 -110h-55v195h95v-85z" />
    <glyph glyph-name="Lacute" unicode="&#x139;" horiz-adv-x="555" 
d="M200 80h345v-80h-455v700h110v-620zM192 930h120l-115 -160h-95z" />
    <glyph glyph-name="lacute" unicode="&#x13a;" horiz-adv-x="305" 
d="M275 -10h-40q-69 0 -112 38t-43 92v580h105v-580q0 -26 17 -43t43 -17h30v-70zM167 930h120l-115 -160h-95z" />
    <glyph glyph-name="Lcommaaccent" unicode="&#x13b;" horiz-adv-x="555" 
d="M200 80h345v-80h-455v700h110v-620zM375 -144l-40 -110h-55v195h95v-85z" />
    <glyph glyph-name="lcommaaccent" unicode="&#x13c;" horiz-adv-x="305" 
d="M275 -10h-40q-69 0 -112 38t-43 92v580h105v-580q0 -26 17 -43t43 -17h30v-70zM220 -154l-40 -110h-55v195h95v-85z" />
    <glyph glyph-name="Lcaron" unicode="&#x13d;" horiz-adv-x="555" 
d="M200 80h345v-80h-455v700h110v-620zM395 615l-50 -135h-55v220h105v-85z" />
    <glyph glyph-name="lcaron" unicode="&#x13e;" horiz-adv-x="415" 
d="M275 -10h-40q-69 0 -112 38t-43 92v580h105v-580q0 -26 17 -43t43 -17h30v-70zM380 615l-50 -135h-55v220h105v-85z" />
    <glyph glyph-name="Ldot" unicode="&#x13f;" horiz-adv-x="555" 
d="M200 80h345v-80h-455v700h110v-620zM405 450v-120h-105v120h105z" />
    <glyph glyph-name="ldot" unicode="&#x140;" horiz-adv-x="420" 
d="M275 -10h-40q-69 0 -112 38t-43 92v580h105v-580q0 -26 17 -43t43 -17h30v-70zM385 420v-120h-105v120h105z" />
    <glyph glyph-name="Lslash" unicode="&#x141;" horiz-adv-x="555" 
d="M20 340l70 37v323h110v-264l100 54v-95l-100 -54v-261h345v-80h-455v282l-70 -37v95z" />
    <glyph glyph-name="lslash" unicode="&#x142;" horiz-adv-x="305" 
d="M20 340l60 33v327h105v-268l85 48v-95l-85 -48v-217q0 -26 17 -43t43 -17h30v-70h-40q-69 0 -112 38t-43 92v158l-60 -33v95z" />
    <glyph glyph-name="Nacute" unicode="&#x143;" horiz-adv-x="690" 
d="M90 700h120l290 -540h5l-15 170v370h110v-700h-120l-290 540h-5l15 -170v-370h-110v700zM370 930h120l-115 -160h-95z" />
    <glyph glyph-name="nacute" unicode="&#x144;" horiz-adv-x="610" 
d="M370 470h-85q-50 0 -83 -43q-15 -20 -22 -42v-385h-105v530h65l20 -65h5q9 20 26 37q38 38 94 38h95q69 0 112 -38t43 -92v-410h-105v410q0 26 -17 43t-43 17zM350 770h120l-115 -160h-95z" />
    <glyph glyph-name="Ncommaaccent" unicode="&#x145;" horiz-adv-x="690" 
d="M90 700h120l290 -540h5l-15 170v370h110v-700h-120l-290 540h-5l15 -170v-370h-110v700zM392 -115l-40 -110h-55v195h95v-85z" />
    <glyph glyph-name="ncommaaccent" unicode="&#x146;" horiz-adv-x="610" 
d="M370 470h-85q-50 0 -83 -43q-15 -20 -22 -42v-385h-105v530h65l20 -65h5q9 20 26 37q38 38 94 38h95q69 0 112 -38t43 -92v-410h-105v410q0 26 -17 43t-43 17zM352 -115l-40 -110h-55v195h95v-85z" />
    <glyph glyph-name="Ncaron" unicode="&#x147;" horiz-adv-x="690" 
d="M90 700h120l290 -540h5l-15 170v370h110v-700h-120l-290 540h-5l15 -170v-370h-110v700zM415 900h95l-130 -150h-90l-130 150h95l80 -90z" />
    <glyph glyph-name="ncaron" unicode="&#x148;" horiz-adv-x="610" 
d="M370 470h-85q-50 0 -83 -43q-15 -20 -22 -42v-385h-105v530h65l20 -65h5q9 20 26 37q38 38 94 38h95q69 0 112 -38t43 -92v-410h-105v410q0 26 -17 43t-43 17zM395 760h95l-130 -150h-90l-130 150h95l80 -90z" />
    <glyph glyph-name="Omacron" unicode="&#x14c;" horiz-adv-x="680" 
d="M190 560v-420q0 -30 20 -50t50 -20h160q30 0 50 20t20 50v420q0 30 -20 50t-50 20h-160q-30 0 -50 -20t-20 -50zM80 140v420q0 70 44 110t126 40h180q82 0 126 -40t44 -110v-420q0 -70 -44 -110t-126 -40h-180q-82 0 -126 40t-44 110zM490 860v-70h-300v70h300z" />
    <glyph glyph-name="omacron" unicode="&#x14d;" 
d="M530 410v-290q0 -54 -43 -92t-112 -38h-155q-69 0 -112 38t-43 92v290q0 54 43 92t112 38h155q69 0 112 -38t43 -92zM170 410v-290q0 -26 17 -43t43 -17h135q26 0 43 17t17 43v290q0 26 -17 43t-43 17h-135q-26 0 -43 -17t-17 -43zM447 700v-70h-300v70h300z" />
    <glyph glyph-name="Obreve" unicode="&#x14e;" horiz-adv-x="680" 
d="M190 560v-420q0 -30 20 -50t50 -20h160q30 0 50 20t20 50v420q0 30 -20 50t-50 20h-160q-30 0 -50 -20t-20 -50zM80 140v420q0 70 44 110t126 40h180q82 0 126 -40t44 -110v-420q0 -70 -44 -110t-126 -40h-180q-82 0 -126 40t-44 110zM390 770h-100q-48 0 -74 25t-26 70
v45h85v-45q0 -30 30 -30h70q30 0 30 30v45h85v-45q0 -45 -26 -70t-74 -25z" />
    <glyph glyph-name="obreve" unicode="&#x14f;" 
d="M530 410v-290q0 -54 -43 -92t-112 -38h-155q-69 0 -112 38t-43 92v290q0 54 43 92t112 38h155q69 0 112 -38t43 -92zM170 410v-290q0 -26 17 -43t43 -17h135q26 0 43 17t17 43v290q0 26 -17 43t-43 17h-135q-26 0 -43 -17t-17 -43zM347 610h-100q-48 0 -74 25t-26 70v45
h85v-45q0 -30 30 -30h70q30 0 30 30v45h85v-45q0 -45 -26 -70t-74 -25z" />
    <glyph glyph-name="Ohungarumlaut" unicode="&#x150;" horiz-adv-x="680" 
d="M190 560v-420q0 -30 20 -50t50 -20h160q30 0 50 20t20 50v420q0 30 -20 50t-50 20h-160q-30 0 -50 -20t-20 -50zM80 140v420q0 70 44 110t126 40h180q82 0 126 -40t44 -110v-420q0 -70 -44 -110t-126 -40h-180q-82 0 -126 40t-44 110zM282 930h105l-105 -160h-90z
M462 930h105l-105 -160h-90z" />
    <glyph glyph-name="ohungarumlaut" unicode="&#x151;" 
d="M530 410v-290q0 -54 -43 -92t-112 -38h-155q-69 0 -112 38t-43 92v290q0 54 43 92t112 38h155q69 0 112 -38t43 -92zM170 410v-290q0 -26 17 -43t43 -17h135q26 0 43 17t17 43v290q0 26 -17 43t-43 17h-135q-26 0 -43 -17t-17 -43zM240 770h105l-105 -160h-90zM420 770
h105l-105 -160h-90z" />
    <glyph glyph-name="OE" unicode="&#x152;" horiz-adv-x="960" 
d="M925 700v-45l-30 -35h-315v-230h255v-80h-255v-230h345v-80h-455v700h455zM80 150v400q0 70 44 110t126 40h220v-80h-210q-30 0 -50 -20t-20 -50v-400q0 -30 20 -50t50 -20h210v-80h-220q-82 0 -126 40t-44 110z" />
    <glyph glyph-name="oe" unicode="&#x153;" horiz-adv-x="930" 
d="M865 410v-185h-335v-105q0 -19 17.5 -34.5t42.5 -15.5h255v-70h-255q-48 0 -81 25q-14 10 -24 25q-11 -16 -27 -30q-38 -30 -98 -30h-140q-69 0 -112 38t-43 92v290q0 54 43 92t112 38h140q54 0 94 -25q16 -10 26 -25q11 16 25 25q35 25 85 25h120q69 0 112 -38t43 -92z
M170 410v-290q0 -26 17 -43t43 -17h130q26 0 45.5 18.5t19.5 41.5v290q0 27 -16.5 43.5t-43.5 16.5h-135q-26 0 -43 -17t-17 -43zM530 410v-115h230v115q0 26 -17 43t-43 17h-110q-26 0 -43 -17t-17 -43z" />
    <glyph glyph-name="Racute" unicode="&#x154;" horiz-adv-x="665" 
d="M200 0h-110v700h330q82 0 126 -40t44 -110v-130q0 -75 -70 -115q-30 -17 -70 -25l165 -230v-50h-105l-170 270h-140v-270zM200 620v-270h210q30 0 50 20t20 50v130q0 30 -20 50t-50 20h-210zM347 930h120l-115 -160h-95z" />
    <glyph glyph-name="racute" unicode="&#x155;" horiz-adv-x="435" 
d="M160 465h5q9 20 26 37q38 38 94 38h130v-80h-130q-47 0 -81 -38q-14 -15 -24 -37v-385h-105v530h65zM272 770h120l-115 -160h-95z" />
    <glyph glyph-name="Rcommaaccent" unicode="&#x156;" horiz-adv-x="665" 
d="M200 0h-110v700h330q82 0 126 -40t44 -110v-130q0 -75 -70 -115q-30 -17 -70 -25l165 -230v-50h-105l-170 270h-140v-270zM200 620v-270h210q30 0 50 20t20 50v130q0 30 -20 50t-50 20h-210zM380 -115l-40 -110h-55v195h95v-85z" />
    <glyph glyph-name="rcommaaccent" unicode="&#x157;" horiz-adv-x="435" 
d="M160 465h5q9 20 26 37q38 38 94 38h130v-80h-130q-47 0 -81 -38q-14 -15 -24 -37v-385h-105v530h65zM175 -154l-40 -110h-55v195h95v-85z" />
    <glyph glyph-name="Rcaron" unicode="&#x158;" horiz-adv-x="665" 
d="M200 0h-110v700h330q82 0 126 -40t44 -110v-130q0 -75 -70 -115q-30 -17 -70 -25l165 -230v-50h-105l-170 270h-140v-270zM200 620v-270h210q30 0 50 20t20 50v130q0 30 -20 50t-50 20h-210zM392 920h95l-130 -150h-90l-130 150h95l80 -90z" />
    <glyph glyph-name="rcaron" unicode="&#x159;" horiz-adv-x="435" 
d="M160 465h5q9 20 26 37q38 38 94 38h130v-80h-130q-47 0 -81 -38q-14 -15 -24 -37v-385h-105v530h65zM317 760h95l-130 -150h-90l-130 150h95l80 -90z" />
    <glyph glyph-name="Sacute" unicode="&#x15a;" horiz-adv-x="590" 
d="M370 290l-190 45q-130 31 -130 155v60q0 70 44 110t126 40h290v-45l-30 -35h-250q-30 0 -50 -20t-20 -50v-60q0 -26 16.5 -45t43.5 -25l190 -45q130 -31 130 -155v-70q0 -70 -44 -110t-126 -40h-320v80h310q30 0 50 20t20 50v70q0 26 -16.5 45t-43.5 25zM310 930h120
l-115 -160h-95z" />
    <glyph glyph-name="sacute" unicode="&#x15b;" horiz-adv-x="530" 
d="M150 400v-35q0 -37 45 -45l180 -30q50 -7 80 -40t30 -85v-35q0 -54 -43 -92t-112 -38h-285v70h275q26 0 43 17t17 43v35q0 37 -45 45l-180 30q-50 7 -80 40t-30 85v35q0 54 43 92t112 38h260v-35l-30 -35h-220q-26 0 -43 -17t-17 -43zM290 770h120l-115 -160h-95z" />
    <glyph glyph-name="Scircumflex" unicode="&#x15c;" horiz-adv-x="590" 
d="M370 290l-190 45q-130 31 -130 155v60q0 70 44 110t126 40h290v-45l-30 -35h-250q-30 0 -50 -20t-20 -50v-60q0 -26 16.5 -45t43.5 -25l190 -45q130 -31 130 -155v-70q0 -70 -44 -110t-126 -40h-320v80h310q30 0 50 20t20 50v70q0 26 -16.5 45t-43.5 25zM470 770h-95
l-80 90l-80 -90h-95l130 150h90z" />
    <glyph glyph-name="scircumflex" unicode="&#x15d;" horiz-adv-x="530" 
d="M150 400v-35q0 -37 45 -45l180 -30q50 -7 80 -40t30 -85v-35q0 -54 -43 -92t-112 -38h-285v70h275q26 0 43 17t17 43v35q0 37 -45 45l-180 30q-50 7 -80 40t-30 85v35q0 54 43 92t112 38h260v-35l-30 -35h-220q-26 0 -43 -17t-17 -43zM440 610h-95l-80 90l-80 -90h-95
l130 150h90z" />
    <glyph glyph-name="Scedilla" unicode="&#x15e;" horiz-adv-x="590" 
d="M370 290l-190 45q-130 31 -130 155v60q0 70 44 110t126 40h290v-45l-30 -35h-250q-30 0 -50 -20t-20 -50v-60q0 -26 16.5 -45t43.5 -25l190 -45q130 -31 130 -155v-70q0 -70 -44 -110t-126 -40h-78v-45h40q42 0 68.5 -25.5t26.5 -64.5v-15q0 -39 -26.5 -64.5t-68.5 -25.5
h-130v60h105q11 0 20.5 9.5t9.5 20.5v15q0 11 -9.5 20.5t-20.5 9.5h-80v105h-177v80h310q30 0 50 20t20 50v70q0 26 -16.5 45t-43.5 25z" />
    <glyph glyph-name="scedilla" unicode="&#x15f;" horiz-adv-x="530" 
d="M150 400v-35q0 -37 45 -45l180 -30q50 -7 80 -40t30 -85v-35q0 -54 -43 -92t-112 -38h-78v-45h40q42 0 68.5 -25.5t26.5 -64.5v-15q0 -39 -26.5 -64.5t-68.5 -25.5h-130v60h105q11 0 20.5 9.5t9.5 20.5v15q0 11 -9.5 20.5t-20.5 9.5h-80v105h-142v70h275q26 0 43 17
t17 43v35q0 37 -45 45l-180 30q-50 7 -80 40t-30 85v35q0 54 43 92t112 38h260v-35l-30 -35h-220q-26 0 -43 -17t-17 -43z" />
    <glyph glyph-name="Scaron" unicode="&#x160;" horiz-adv-x="590" 
d="M370 290l-190 45q-130 31 -130 155v60q0 70 44 110t126 40h290v-45l-30 -35h-250q-30 0 -50 -20t-20 -50v-60q0 -26 16.5 -45t43.5 -25l190 -45q130 -31 130 -155v-70q0 -70 -44 -110t-126 -40h-320v80h310q30 0 50 20t20 50v70q0 26 -16.5 45t-43.5 25zM365 910h95
l-130 -150h-90l-130 150h95l80 -90z" />
    <glyph glyph-name="scaron" unicode="&#x161;" horiz-adv-x="530" 
d="M150 400v-35q0 -37 45 -45l180 -30q50 -7 80 -40t30 -85v-35q0 -54 -43 -92t-112 -38h-285v70h275q26 0 43 17t17 43v35q0 37 -45 45l-180 30q-50 7 -80 40t-30 85v35q0 54 43 92t112 38h260v-35l-30 -35h-220q-26 0 -43 -17t-17 -43zM335 760h95l-130 -150h-90l-130 150
h95l80 -90z" />
    <glyph glyph-name="Tcommaaccent" unicode="&#x162;" horiz-adv-x="560" 
d="M15 620v80h530v-45l-30 -35h-180v-620h-110v620h-210zM327 -164l-40 -110h-55v195h95v-85z" />
    <glyph glyph-name="tcommaaccent" unicode="&#x163;" horiz-adv-x="440" 
d="M360 530v-70h-150v-340q0 -26 17 -43t43 -17h155v-70h-165q-69 0 -112 38t-43 92v340h-85v70h85l55 140h50v-140h150zM297 -154l-40 -110h-55v195h95v-85z" />
    <glyph glyph-name="Tcaron" unicode="&#x164;" horiz-adv-x="560" 
d="M15 620v80h530v-45l-30 -35h-180v-620h-110v620h-210zM360 910h95l-130 -150h-90l-130 150h95l80 -90z" />
    <glyph glyph-name="tcaron" unicode="&#x165;" horiz-adv-x="550" 
d="M360 530v-70h-150v-340q0 -26 17 -43t43 -17h155v-70h-165q-69 0 -112 38t-43 92v340h-85v70h85l55 140h50v-140h150zM525 586l-50 -135h-55v220h105v-85z" />
    <glyph glyph-name="Tbar" unicode="&#x166;" horiz-adv-x="560" 
d="M15 620v80h530v-45l-30 -35h-180v-130h200v-70h-200v-420h-110v420h-200v70h200v130h-210z" />
    <glyph glyph-name="tbar" unicode="&#x167;" horiz-adv-x="440" 
d="M360 530v-70h-150v-80h140v-70h-140v-190q0 -26 17 -43t43 -17h155v-70h-165q-69 0 -112 38t-43 92v190h-85v70h85v80h-85v70h85l55 140h50v-140h150z" />
    <glyph glyph-name="Utilde" unicode="&#x168;" horiz-adv-x="710" 
d="M510 140v560h110v-560q0 -70 -44 -110t-126 -40h-190q-82 0 -126 40t-44 110v560h110v-560q0 -30 20 -50t50 -20h170q30 0 50 20t20 50zM425 895h80v-70q0 -30 -20 -50t-50 -20h-25q-12 0 -30 10q-10 6 -15 10l-39 35q-6 4 -9 7q-10 8 -16 8q-16 0 -16 -20v-45h-80v70
q0 30 20 50t50 20h25q12 0 30 -10q10 -6 15 -10l40 -35l9 -8q8 -7 16 -7q7 0 10.5 3t4 6.5t0.5 10.5v45z" />
    <glyph glyph-name="utilde" unicode="&#x169;" horiz-adv-x="610" 
d="M240 60h85q50 0 82 42q15 20 23 43v385h105v-530h-65l-20 65h-5q-9 -21 -26 -38q-37 -37 -94 -37h-95q-69 0 -112 38t-43 92v410h105v-410q0 -26 17 -43t43 -17zM375 745h80v-70q0 -30 -20 -50t-50 -20h-25q-12 0 -30 10q-10 6 -15 10l-39 35q-6 4 -9 7q-10 8 -16 8
q-16 0 -16 -20v-45h-80v70q0 30 20 50t50 20h25q12 0 30 -10q10 -6 15 -10l40 -35l9 -8q8 -7 16 -7q7 0 10.5 3t4 6.5t0.5 10.5v45z" />
    <glyph glyph-name="Umacron" unicode="&#x16a;" horiz-adv-x="710" 
d="M510 140v560h110v-560q0 -70 -44 -110t-126 -40h-190q-82 0 -126 40t-44 110v560h110v-560q0 -30 20 -50t50 -20h170q30 0 50 20t20 50zM505 850v-70h-300v70h300z" />
    <glyph glyph-name="umacron" unicode="&#x16b;" horiz-adv-x="610" 
d="M240 60h85q50 0 82 42q15 20 23 43v385h105v-530h-65l-20 65h-5q-9 -21 -26 -38q-37 -37 -94 -37h-95q-69 0 -112 38t-43 92v410h105v-410q0 -26 17 -43t43 -17zM465 700v-70h-300v70h300z" />
    <glyph glyph-name="Ubreve" unicode="&#x16c;" horiz-adv-x="710" 
d="M510 140v560h110v-560q0 -70 -44 -110t-126 -40h-190q-82 0 -126 40t-44 110v560h110v-560q0 -30 20 -50t50 -20h170q30 0 50 20t20 50zM395 750h-100q-48 0 -74 25t-26 70v45h85v-45q0 -30 30 -30h70q30 0 30 30v45h85v-45q0 -45 -26 -70t-74 -25z" />
    <glyph glyph-name="ubreve" unicode="&#x16d;" horiz-adv-x="610" 
d="M240 60h85q50 0 82 42q15 20 23 43v385h105v-530h-65l-20 65h-5q-9 -21 -26 -38q-37 -37 -94 -37h-95q-69 0 -112 38t-43 92v410h105v-410q0 -26 17 -43t43 -17zM365 590h-100q-48 0 -74 25t-26 70v45h85v-45q0 -30 30 -30h70q30 0 30 30v45h85v-45q0 -45 -26 -70
t-74 -25z" />
    <glyph glyph-name="Uring" unicode="&#x16e;" horiz-adv-x="710" 
d="M510 140v560h110v-560q0 -70 -44 -110t-126 -40h-190q-82 0 -126 40t-44 110v560h110v-560q0 -30 20 -50t50 -20h170q30 0 50 20t20 50zM475 860v-50q0 -34 -23.5 -57t-61.5 -23h-70q-38 0 -61.5 23t-23.5 57v50q0 31 24 55.5t61 24.5h70q38 0 61.5 -23t23.5 -57z
M345 785h20q25 0 25 25v50q0 25 -25 25h-20q-25 0 -25 -25v-50q0 -25 25 -25z" />
    <glyph glyph-name="uring" unicode="&#x16f;" horiz-adv-x="610" 
d="M240 60h85q50 0 82 42q15 20 23 43v385h105v-530h-65l-20 65h-5q-9 -21 -26 -38q-37 -37 -94 -37h-95q-69 0 -112 38t-43 92v410h105v-410q0 -26 17 -43t43 -17zM425 690v-50q0 -34 -23.5 -57t-61.5 -23h-70q-38 0 -61.5 23t-23.5 57v50q0 31 24 55.5t61 24.5h70
q38 0 61.5 -23t23.5 -57zM295 615h20q25 0 25 25v50q0 25 -25 25h-20q-25 0 -25 -25v-50q0 -25 25 -25z" />
    <glyph glyph-name="Uhungarumlaut" unicode="&#x170;" horiz-adv-x="710" 
d="M510 140v560h110v-560q0 -70 -44 -110t-126 -40h-190q-82 0 -126 40t-44 110v560h110v-560q0 -30 20 -50t50 -20h170q30 0 50 20t20 50zM287 930h105l-105 -160h-90zM467 930h105l-105 -160h-90z" />
    <glyph glyph-name="uhungarumlaut" unicode="&#x171;" horiz-adv-x="610" 
d="M240 60h85q50 0 82 42q15 20 23 43v385h105v-530h-65l-20 65h-5q-9 -21 -26 -38q-37 -37 -94 -37h-95q-69 0 -112 38t-43 92v410h105v-410q0 -26 17 -43t43 -17zM247 760h105l-105 -160h-90zM427 760h105l-105 -160h-90z" />
    <glyph glyph-name="Uogonek" unicode="&#x172;" horiz-adv-x="710" 
d="M510 140v560h110v-560q0 -70 -44 -110t-126 -40h-10q-31 -14 -53 -30q-52 -37 -52 -75q0 -15 10 -25t25 -10h80v-60h-80q-125 0 -125 95q0 35 25 62t54 43h-64q-82 0 -126 40t-44 110v560h110v-560q0 -30 20 -50t50 -20h170q30 0 50 20t20 50z" />
    <glyph glyph-name="uogonek" unicode="&#x173;" horiz-adv-x="610" 
d="M240 60h85q50 0 82 42q15 20 23 43v385h105v-550q-23 -9 -48 -25q-47 -31 -47 -70q0 -15 10 -25t25 -10h80v-60h-80q-125 0 -125 95q0 48 50 86q25 19 50 29h20l-20 65h-5q-9 -21 -26 -38q-37 -37 -94 -37h-95q-69 0 -112 38t-43 92v410h105v-410q0 -26 17 -43t43 -17z
" />
    <glyph glyph-name="Wcircumflex" unicode="&#x174;" horiz-adv-x="955" 
d="M480 485h-5l-145 -485h-150l-140 650v50h105l115 -590h5l140 480h145l140 -480h5l115 590h105v-50l-140 -650h-150zM652 700h-95l-80 90l-80 -90h-95l130 150h90z" />
    <glyph glyph-name="wcircumflex" unicode="&#x175;" horiz-adv-x="805" 
d="M470 455l110 -355h5l80 430h100v-45l-110 -485h-140l-110 365h-5l-110 -365h-140l-110 485v45h100l80 -430h5l110 355h135zM577 550h-95l-80 90l-80 -90h-95l130 150h90z" />
    <glyph glyph-name="Ycircumflex" unicode="&#x176;" horiz-adv-x="600" 
d="M20 700h105l170 -375h10l170 375h105v-50l-225 -435v-215h-110v215l-225 435v50zM475 770h-95l-80 90l-80 -90h-95l130 150h90z" />
    <glyph glyph-name="ycircumflex" unicode="&#x177;" horiz-adv-x="540" 
d="M515 485l-190 -525q-20 -56 -66.5 -93t-113.5 -37h-50v70h50q54 0 75 60l10 30v10l-205 485v45h100l155 -435h5l130 435h100v-45zM455 600h-95l-80 90l-80 -90h-95l130 150h90z" />
    <glyph glyph-name="Ydieresis" unicode="&#x178;" horiz-adv-x="600" 
d="M20 700h105l170 -375h10l170 375h105v-50l-225 -435v-215h-110v215l-225 435v50zM252 870v-105h-105v105h105zM452 870v-105h-105v105h105z" />
    <glyph glyph-name="Zacute" unicode="&#x179;" horiz-adv-x="585" 
d="M175 80h370v-80h-505v75l360 540v5h-330l-30 35v45h495v-75l-360 -540v-5zM307 930h120l-115 -160h-95z" />
    <glyph glyph-name="zacute" unicode="&#x17a;" horiz-adv-x="495" 
d="M325 450v10h-265l-30 35v35h425v-65l-295 -385v-10h305v-70h-435v65zM272 770h120l-115 -160h-95z" />
    <glyph glyph-name="Zdotaccent" unicode="&#x17b;" horiz-adv-x="585" 
d="M175 80h370v-80h-505v75l360 540v5h-330l-30 35v45h495v-75l-360 -540v-5zM345 880v-105h-105v105h105z" />
    <glyph glyph-name="zdotaccent" unicode="&#x17c;" horiz-adv-x="495" 
d="M325 450v10h-265l-30 35v35h425v-65l-295 -385v-10h305v-70h-435v65zM300 710v-105h-105v105h105z" />
    <glyph glyph-name="Zcaron" unicode="&#x17d;" horiz-adv-x="585" 
d="M175 80h370v-80h-505v75l360 540v5h-330l-30 35v45h495v-75l-360 -540v-5zM372 910h95l-130 -150h-90l-130 150h95l80 -90z" />
    <glyph glyph-name="zcaron" unicode="&#x17e;" horiz-adv-x="495" 
d="M325 450v10h-265l-30 35v35h425v-65l-295 -385v-10h305v-70h-435v65zM327 750h95l-130 -150h-90l-130 150h95l80 -90z" />
    <glyph glyph-name="florin" unicode="&#x192;" horiz-adv-x="400" 
d="M30 -170h-55v70h45q26 0 43 17t17 43v620q0 54 43 92t112 38h210v-35l-30 -35h-170q-26 0 -43 -17t-17 -43v-125h165v-70h-165v-425q0 -54 -43 -92t-112 -38z" />
    <glyph glyph-name="AEacute" unicode="&#x1fc;" horiz-adv-x="960" 
d="M925 700v-45l-30 -35h-315v-230h255v-80h-255v-230h345v-80h-455v210h-265l-90 -210h-105v50l304 650h611zM385 620l-145 -330h230v330h-85zM575 930h120l-115 -160h-95z" />
    <glyph glyph-name="aeacute" unicode="&#x1fd;" horiz-adv-x="900" 
d="M835 410v-185h-335v-95q0 -26 17 -43t43 -17h255v-70h-265q-54 0 -92 32q-18 15 -28 33q-13 -23 -31 -38q-45 -37 -109 -37h-90q-69 0 -112 38t-43 92v55q0 54 43 92t112 38h195v95q0 26 -17 43t-43 17h-240v70h250q43 0 76 -25q12 -9 24 -25q9 16 24 30q34 30 81 30h130
q69 0 112 -38t43 -92zM210 60h80q74 0 105 84v91h-185q-26 0 -43 -17t-17 -43v-55q0 -26 17 -43t43 -17zM500 410v-115h230v115q0 26 -17 43t-43 17h-110q-26 0 -43 -17t-17 -43zM485 770h120l-115 -160h-95z" />
    <glyph glyph-name="Oslashacute" unicode="&#x1fe;" horiz-adv-x="680" 
d="M565 710l-17 -35q52 -40 52 -115v-420q0 -70 -44 -110t-126 -40h-180q-3 0 -10 0.5t-11 0.5l-19 -41h-95v40l16 35q-51 40 -51 115v420q0 70 44 110t126 40h180q4 0 11 -0.5t10 -0.5l19 41h95v-40zM190 560v-430l234 500h-164q-30 0 -50 -20t-20 -50zM256 70h164
q30 0 50 20t20 50v429zM385 932h120l-115 -160h-95z" />
    <glyph glyph-name="oslashacute" unicode="&#x1ff;" 
d="M530 540l-32 -49q32 -35 32 -81v-290q0 -54 -43 -92t-112 -38h-155q-21 0 -46 5l-29 -45h-85v40l34 52q-29 35 -29 78v290q0 54 43 92t112 38h155q24 0 41 -4l29 44h85v-40zM220 60h145q26 0 43 17t17 43v279l-218 -338q3 -1 13 -1zM170 410v-272l213 331q-2 1 -8 1h-145
q-26 0 -43 -17t-17 -43zM332 770h120l-115 -160h-95z" />
    <glyph glyph-name="Scommaaccent" unicode="&#x218;" horiz-adv-x="590" 
d="M370 290l-190 45q-130 31 -130 155v60q0 70 44 110t126 40h290v-45l-30 -35h-250q-30 0 -50 -20t-20 -50v-60q0 -26 16.5 -45t43.5 -25l190 -45q130 -31 130 -155v-70q0 -70 -44 -110t-126 -40h-320v80h310q30 0 50 20t20 50v70q0 26 -16.5 45t-43.5 25zM340 -135
l-40 -110h-55v195h95v-85z" />
    <glyph glyph-name="scommaaccent" unicode="&#x219;" horiz-adv-x="530" 
d="M150 400v-35q0 -37 45 -45l180 -30q50 -7 80 -40t30 -85v-35q0 -54 -43 -92t-112 -38h-285v70h275q26 0 43 17t17 43v35q0 37 -45 45l-180 30q-50 7 -80 40t-30 85v35q0 54 43 92t112 38h260v-35l-30 -35h-220q-26 0 -43 -17t-17 -43zM312 -154l-40 -110h-55v195h95v-85z
" />
    <glyph glyph-name="circumflex" unicode="&#x2c6;" horiz-adv-x="430" 
d="M390 550h-95l-80 90l-80 -90h-95l130 150h90z" />
    <glyph glyph-name="caron" unicode="&#x2c7;" horiz-adv-x="430" 
d="M295 700h95l-130 -150h-90l-130 150h95l80 -90z" />
    <glyph glyph-name="breve" unicode="&#x2d8;" horiz-adv-x="380" 
d="M240 560h-100q-48 0 -74 25t-26 70v45h85v-45q0 -30 30 -30h70q30 0 30 30v45h85v-45q0 -45 -26 -70t-74 -25z" />
    <glyph glyph-name="dotaccent" unicode="&#x2d9;" horiz-adv-x="185" 
d="M145 700v-105h-105v105h105z" />
    <glyph glyph-name="ring" unicode="&#x2da;" horiz-adv-x="320" 
d="M280 620v-50q0 -34 -23.5 -57t-61.5 -23h-70q-38 0 -61.5 23t-23.5 57v50q0 31 24 55.5t61 24.5h70q38 0 61.5 -23t23.5 -57zM150 545h20q25 0 25 25v50q0 25 -25 25h-20q-25 0 -25 -25v-50q0 -25 25 -25z" />
    <glyph glyph-name="ogonek" unicode="&#x2db;" horiz-adv-x="285" 
d="M140 0h85v-20q-23 -9 -48 -25q-47 -31 -47 -70q0 -15 10 -25t25 -10h80v-60h-80q-125 0 -125 95q0 48 50 86q25 19 50 29z" />
    <glyph glyph-name="tilde" unicode="&#x2dc;" horiz-adv-x="380" 
d="M260 695h80v-70q0 -30 -20 -50t-50 -20h-25q-12 0 -30 10q-10 6 -15 10l-39 35q-6 4 -9 7q-10 8 -16 8q-16 0 -16 -20v-45h-80v70q0 30 20 50t50 20h25q12 0 30 -10q10 -6 15 -10l40 -35l9 -8q8 -7 16 -7q7 0 10.5 3t4 6.5t0.5 10.5v45z" />
    <glyph glyph-name="hungarumlaut" unicode="&#x2dd;" horiz-adv-x="455" 
d="M130 700h105l-105 -160h-90zM310 700h105l-105 -160h-90z" />
    <glyph glyph-name="afii10023" unicode="&#x401;" horiz-adv-x="590" 
d="M555 700v-45l-30 -35h-325v-230h265v-80h-265v-230h355v-80h-465v700h465zM265 890v-105h-105v105h105zM485 890v-105h-105v105h105z" />
    <glyph glyph-name="afii10051" unicode="&#x402;" horiz-adv-x="685" 
d="M415 70h35q30 0 50 20t20 50v150q0 30 -20 50t-50 20h-210v-360h-110v620h-130v80h450v-45l-30 -35h-180v-180h220q82 0 126 -40t44 -110v-150q0 -70 -45.5 -110t-134.5 -40h-35v80z" />
    <glyph glyph-name="afii10052" unicode="&#x403;" horiz-adv-x="545" 
d="M340 940h120l-115 -160h-95zM535 700v-45l-30 -35h-305v-620h-110v700h445z" />
    <glyph glyph-name="afii10053" unicode="&#x404;" 
d="M80 150v400q0 70 44 110t126 40h305v-45l-30 -35h-265q-30 0 -50 -20t-20 -50v-160h245v-80h-245v-160q0 -30 20 -50t50 -20h295v-80h-305q-82 0 -126 40t-44 110z" />
    <glyph glyph-name="afii10054" unicode="&#x405;" horiz-adv-x="590" 
d="M370 290l-190 45q-130 31 -130 155v60q0 70 44 110t126 40h290v-45l-30 -35h-250q-30 0 -50 -20t-20 -50v-60q0 -26 16.5 -45t43.5 -25l190 -45q130 -31 130 -155v-70q0 -70 -44 -110t-126 -40h-320v80h310q30 0 50 20t20 50v70q0 26 -16.5 45t-43.5 25z" />
    <glyph glyph-name="afii10055" unicode="&#x406;" horiz-adv-x="290" 
d="M200 0h-110v700h110v-700z" />
    <glyph glyph-name="afii10056" unicode="&#x407;" horiz-adv-x="310" 
d="M210 0h-110v700h110v-700zM105 865v-105h-105v105h105zM310 865v-105h-105v105h105z" />
    <glyph glyph-name="afii10057" unicode="&#x408;" horiz-adv-x="525" 
d="M10 70h245q30 0 50 20t20 50v560h110v-560q0 -70 -44 -110t-126 -40h-255v80z" />
    <glyph glyph-name="afii10058" unicode="&#x409;" horiz-adv-x="990" 
d="M40 -10h-30v80h30q27 0 46.5 21.5t23.5 58.5l50 550h410v-265h195q82 0 126 -40t44 -110v-135q0 -70 -44 -110t-126 -40h-305v620h-200l-40 -470q-7 -80 -50.5 -120t-129.5 -40zM570 355v-275h185q30 0 50 20t20 50v135q0 30 -20 50t-50 20h-185z" />
    <glyph glyph-name="afii10059" unicode="&#x40a;" horiz-adv-x="990" 
d="M200 0h-110v700h110v-285h260v285h110v-285h195q82 0 126 -40t44 -110v-115q0 -70 -44 -110t-126 -40h-305v335h-260v-335zM570 335v-255h185q30 0 50 20t20 50v115q0 30 -20 50t-50 20h-185z" />
    <glyph glyph-name="afii10060" unicode="&#x40b;" horiz-adv-x="695" 
d="M0 620v80h450v-45l-30 -35h-180v-180h220q82 0 126 -40t44 -110v-290h-110v290q0 30 -20 50t-50 20h-210v-360h-110v620h-130z" />
    <glyph glyph-name="afii10061" unicode="&#x40c;" horiz-adv-x="655" 
d="M360 920h120l-115 -160h-95zM200 0h-110v700h110v-305h135l155 305h105v-50l-170 -295l190 -305v-50h-105l-175 315h-135v-315z" />
    <glyph glyph-name="afii10062" unicode="&#x40e;" horiz-adv-x="625" 
d="M370 750h-110q-100 0 -100 100v50h90v-50q0 -30 30 -30h70q30 0 30 30v50h90v-50q0 -100 -100 -100zM25 700h105l200 -435h5l160 435h105v-50l-215 -510q-64 -150 -200 -150h-65v80h65q50 0 85 70l10 20l-255 490v50z" />
    <glyph glyph-name="afii10145" unicode="&#x40f;" horiz-adv-x="690" 
d="M90 700h110v-620h290v620h110v-700h-510v700zM380 -140h-70l-25 140h120z" />
    <glyph glyph-name="afii10017" unicode="&#x410;" horiz-adv-x="655" 
d="M520 0l-55 170h-275l-55 -170h-105v50l225 650h145l225 -650v-50h-105zM325 600l-110 -350h225l-110 350h-5z" />
    <glyph glyph-name="afii10018" unicode="&#x411;" horiz-adv-x="650" 
d="M555 700v-45l-30 -35h-325v-195h225q82 0 126 -40t44 -110v-125q0 -70 -44 -110t-126 -40h-335v700h465zM200 345v-265h215q30 0 50 20t20 50v125q0 30 -20 50t-50 20h-215z" />
    <glyph glyph-name="afii10019" unicode="&#x412;" horiz-adv-x="660" 
d="M460 470v80q0 30 -20 50t-50 20h-190v-220h190q30 0 50 20t20 50zM490 365v-5q27 -4 55 -19q55 -33 55 -91v-100q0 -70 -44 -110t-126 -40h-340v700h310q82 0 126 -40t44 -110v-80q0 -56 -40 -86q-17 -13 -40 -19zM420 320h-220v-240h220q30 0 50 20t20 50v100
q0 30 -20 50t-50 20z" />
    <glyph glyph-name="afii10020" unicode="&#x413;" horiz-adv-x="545" 
d="M535 700v-45l-30 -35h-305v-620h-110v700h445z" />
    <glyph glyph-name="afii10021" unicode="&#x414;" horiz-adv-x="720" 
d="M580 0h-470l-25 -140h-85v220h55q19 12 31 24q30 28 34 61l50 535h425v-620h95v-220h-85zM270 620l-40 -455q-4 -29 -37 -59q-15 -12 -33 -21v-5h325v540h-215z" />
    <glyph glyph-name="afii10022" unicode="&#x415;" horiz-adv-x="590" 
d="M555 700v-45l-30 -35h-325v-230h265v-80h-265v-230h355v-80h-465v700h465z" />
    <glyph glyph-name="afii10024" unicode="&#x416;" horiz-adv-x="980" 
d="M435 395v305h110v-305h125l145 305h105v-50l-160 -295l180 -305v-50h-105l-165 315h-125v-315h-110v315h-125l-165 -315h-105v50l180 305l-160 295v50h105l145 -305h125z" />
    <glyph glyph-name="afii10025" unicode="&#x417;" horiz-adv-x="585" 
d="M345 315h-185v80h175q30 0 50 20t20 50v85q0 30 -20 50t-50 20h-265l-30 35v45h305q82 0 126 -40t44 -110v-85q0 -56 -50 -86q-22 -13 -50 -19v-5q27 -4 55 -19q55 -33 55 -91v-95q0 -70 -44 -110t-126 -40h-325v80h315q30 0 50 20t20 50v95q0 30 -20 50t-50 20z" />
    <glyph glyph-name="afii10026" unicode="&#x418;" horiz-adv-x="690" 
d="M480 700h120v-700h-110v370l15 170h-5l-290 -540h-120v700h110v-370l-15 -170h5z" />
    <glyph glyph-name="afii10027" unicode="&#x419;" horiz-adv-x="690" 
d="M400 765h-110q-100 0 -100 100v50h90v-50q0 -30 30 -30h70q30 0 30 30v50h90v-50q0 -100 -100 -100zM480 700h120v-700h-110v370l15 170h-5l-290 -540h-120v700h110v-370l-15 -170h5z" />
    <glyph glyph-name="afii10028" unicode="&#x41a;" horiz-adv-x="655" 
d="M200 0h-110v700h110v-305h135l155 305h105v-50l-170 -295l190 -305v-50h-105l-175 315h-135v-315z" />
    <glyph glyph-name="afii10029" unicode="&#x41b;" horiz-adv-x="690" 
d="M40 -10h-30v80h30q27 0 46.5 21.5t23.5 58.5l50 550h440v-700h-110v620h-230l-40 -470q-7 -80 -50.5 -120t-129.5 -40z" />
    <glyph glyph-name="afii10030" unicode="&#x41c;" horiz-adv-x="975" 
d="M560 85h-145l-175 505h-5l-65 -590h-105v50l90 650h150l180 -515h5l180 515h150l90 -650v-50h-105l-65 590h-5z" />
    <glyph glyph-name="afii10031" unicode="&#x41d;" horiz-adv-x="690" 
d="M200 0h-110v700h110v-310h290v310h110v-700h-110v310h-290v-310z" />
    <glyph glyph-name="afii10032" unicode="&#x41e;" horiz-adv-x="680" 
d="M190 560v-420q0 -30 20 -50t50 -20h160q30 0 50 20t20 50v420q0 30 -20 50t-50 20h-160q-30 0 -50 -20t-20 -50zM80 140v420q0 70 44 110t126 40h180q82 0 126 -40t44 -110v-420q0 -70 -44 -110t-126 -40h-180q-82 0 -126 40t-44 110z" />
    <glyph glyph-name="afii10033" unicode="&#x41f;" horiz-adv-x="690" 
d="M200 0h-110v700h510v-700h-110v620h-290v-620z" />
    <glyph glyph-name="afii10034" unicode="&#x420;" horiz-adv-x="650" 
d="M200 0h-110v700h330q82 0 126 -40t44 -110v-170q0 -70 -44 -110t-126 -40h-220v-230zM200 620v-310h210q30 0 50 20t20 50v170q0 30 -20 50t-50 20h-210z" />
    <glyph glyph-name="afii10035" unicode="&#x421;" 
d="M80 150v400q0 70 44 110t126 40h305v-45l-30 -35h-265q-30 0 -50 -20t-20 -50v-400q0 -30 20 -50t50 -20h295v-80h-305q-82 0 -126 40t-44 110z" />
    <glyph glyph-name="afii10036" unicode="&#x422;" horiz-adv-x="560" 
d="M15 620v80h530v-45l-30 -35h-180v-620h-110v620h-210z" />
    <glyph glyph-name="afii10037" unicode="&#x423;" horiz-adv-x="625" 
d="M25 700h105l200 -435h5l160 435h105v-50l-215 -510q-64 -150 -200 -150h-65v80h65q50 0 85 70l10 20l-255 490v50z" />
    <glyph glyph-name="afii10038" unicode="&#x424;" horiz-adv-x="920" 
d="M515 -40h-110v80h-170q-82 0 -126 40t-44 110v330q0 70 44 110t126 40h170v80h110v-80h170q82 0 126 -40t44 -110v-330q0 -70 -44 -110t-126 -40h-170v-80zM745 190v330q0 30 -20 50t-50 20h-160v-470h160q30 0 50 20t20 50zM175 520v-330q0 -30 20 -50t50 -20h160v470
h-160q-30 0 -50 -20t-20 -50z" />
    <glyph glyph-name="afii10039" unicode="&#x425;" horiz-adv-x="605" 
d="M305 280h-5l-165 -280h-105v50l205 305l-190 295v50h105l150 -280h5l150 280h105v-50l-190 -295l205 -305v-50h-105z" />
    <glyph glyph-name="afii10040" unicode="&#x426;" horiz-adv-x="715" 
d="M575 0h-485v700h110v-620h280v620h110v-620h95v-220h-85z" />
    <glyph glyph-name="afii10041" unicode="&#x427;" horiz-adv-x="650" 
d="M170 700v-290q0 -30 20 -50t50 -20h210v360h110v-700h-110v260h-220q-82 0 -126 40t-44 110v290h110z" />
    <glyph glyph-name="afii10042" unicode="&#x428;" horiz-adv-x="1020" 
d="M455 700h110v-620h255v620h110v-700h-840v700h110v-620h255v620z" />
    <glyph glyph-name="afii10043" unicode="&#x429;" horiz-adv-x="1055" 
d="M455 700h110v-620h255v620h110v-620h95v-220h-85l-25 140h-825v700h110v-620h255v620z" />
    <glyph glyph-name="afii10044" unicode="&#x42a;" horiz-adv-x="700" 
d="M0 620v80h260v-255h215q82 0 126 -40t44 -110v-145q0 -70 -44 -110t-126 -40h-325v620h-150zM260 365v-285h205q30 0 50 20t20 50v145q0 30 -20 50t-50 20h-205z" />
    <glyph glyph-name="afii10045" unicode="&#x42b;" horiz-adv-x="930" 
d="M200 700v-255h215q82 0 126 -40t44 -110v-145q0 -70 -44 -110t-126 -40h-325v700h110zM200 365v-285h205q30 0 50 20t20 50v145q0 30 -20 50t-50 20h-205zM840 0h-110v700h110v-700z" />
    <glyph glyph-name="afii10046" unicode="&#x42c;" horiz-adv-x="650" 
d="M200 700v-255h225q82 0 126 -40t44 -110v-145q0 -70 -44 -110t-126 -40h-335v700h110zM200 365v-285h215q30 0 50 20t20 50v145q0 30 -20 50t-50 20h-215z" />
    <glyph glyph-name="afii10047" unicode="&#x42d;" 
d="M515 550v-400q0 -70 -44 -110t-126 -40h-305v80h295q30 0 50 20t20 50v160h-245v80h245v160q0 30 -20 50t-50 20h-265l-30 35v45h305q82 0 126 -40t44 -110z" />
    <glyph glyph-name="afii10048" unicode="&#x42e;" horiz-adv-x="940" 
d="M860 560v-420q0 -70 -44 -110t-126 -40h-170q-82 0 -126 40t-44 110v170h-150v-310h-110v700h110v-310h150v170q0 70 44 110t126 40h170q82 0 126 -40t44 -110zM750 140v420q0 30 -20 50t-50 20h-150q-30 0 -50 -20t-20 -50v-420q0 -30 20 -50t50 -20h150q30 0 50 20
t20 50z" />
    <glyph glyph-name="afii10049" unicode="&#x42f;" horiz-adv-x="660" 
d="M460 0v265h-150l-155 -265h-105v50l155 225q-40 8 -70 25q-70 40 -70 115v135q0 70 44 110t126 40h335v-700h-110zM460 345v275h-215q-30 0 -50 -20t-20 -50v-135q0 -30 20 -50t50 -20h215z" />
    <glyph glyph-name="afii10065" unicode="&#x430;" horiz-adv-x="575" 
d="M290 -10h-90q-69 0 -112 38t-43 92v55q0 54 43 92t112 38h195v95q0 26 -17 43t-43 17h-240v70h250q69 0 112 -38t43 -92v-400h-65l-20 65h-5q-9 -21 -26 -38q-37 -37 -94 -37zM210 60h80q50 0 82 42q15 20 23 43v90h-185q-26 0 -43 -17t-17 -43v-55q0 -26 17 -43t43 -17z
" />
    <glyph glyph-name="afii10066" unicode="&#x431;" horiz-adv-x="600" 
d="M180 515v-40h200q69 0 112 -38t43 -92v-225q0 -54 -43 -92t-112 -38h-150q-69 0 -112 38t-43 92v395q0 80 45.5 130t119.5 60l265 35l15 -80l-265 -35q-29 -4 -52 -34t-23 -76zM180 405v-285q0 -26 17 -43t43 -17h130q26 0 43 17t17 43v225q0 26 -17 43t-43 17h-190z" />
    <glyph glyph-name="afii10067" unicode="&#x432;" horiz-adv-x="580" 
d="M365 235h-185v-165h185q26 0 43 17t17 43v45q0 26 -17 43t-43 17zM400 365v35q0 26 -17 43t-43 17h-160v-155h160q26 0 43 17t17 43zM505 400v-34q0 -49 -43 -76q-18 -10 -42 -15v-5q25 -4 55 -16q55 -26 55 -79v-45q0 -54 -43 -92t-112 -38h-300v530h275q69 0 112 -38
t43 -92z" />
    <glyph glyph-name="afii10068" unicode="&#x433;" horiz-adv-x="475" 
d="M75 0v530h390v-35l-30 -35h-255v-460h-105z" />
    <glyph glyph-name="afii10069" unicode="&#x434;" horiz-adv-x="635" 
d="M0 70h45q22 14 31 22q30 28 34 63l35 375h375v-460h85v-200h-80l-25 130h-395l-25 -130h-80v200zM240 460l-25 -305q-4 -37 -34 -61q-15 -12 -31 -19v-5h265v390h-175z" />
    <glyph glyph-name="afii10070" unicode="&#x435;" horiz-adv-x="570" 
d="M505 410v-185h-335v-95q0 -26 17 -43t43 -17h255v-70h-265q-69 0 -112 38t-43 92v280q0 54 43 92t112 38h130q69 0 112 -38t43 -92zM170 410v-115h230v115q0 26 -17 43t-43 17h-110q-26 0 -43 -17t-17 -43z" />
    <glyph glyph-name="afii10072" unicode="&#x436;" horiz-adv-x="845" 
d="M370 300v230h105v-230h110l105 230h100v-45l-120 -220l135 -220v-45h-100l-120 230h-110v-230h-105v230h-110l-120 -230h-100v45l135 220l-120 220v45h100l105 -230h110z" />
    <glyph glyph-name="afii10073" unicode="&#x437;" horiz-adv-x="520" 
d="M40 495v35h265q69 0 112 -38t43 -92v-34q0 -50 -50 -76q-23 -11 -50 -15v-5q25 -4 55 -16q55 -26 55 -79v-45q0 -54 -43 -92t-112 -38h-285v70h275q26 0 43 17t17 43v45q0 26 -17 43t-43 17h-155v70h145q26 0 43 17t17 43v35q0 26 -17 43t-43 17h-225z" />
    <glyph glyph-name="afii10074" unicode="&#x438;" horiz-adv-x="610" 
d="M430 265l10 140h-5l-240 -405h-120v530h105v-265l-10 -140h5l240 405h120v-530h-105v265z" />
    <glyph glyph-name="afii10075" unicode="&#x439;" horiz-adv-x="610" 
d="M430 265l10 140h-5l-240 -405h-120v530h105v-265l-10 -140h5l240 405h120v-530h-105v265zM355 600h-100q-48 0 -74 25t-26 70v45h85v-45q0 -30 30 -30h70q30 0 30 30v45h85v-45q0 -45 -26 -70t-74 -25z" />
    <glyph glyph-name="afii10076" unicode="&#x43a;" horiz-adv-x="570" 
d="M180 530v-230h120l115 230h100v-45l-130 -220l145 -220v-45h-100l-130 230h-120v-230h-105v530h105z" />
    <glyph glyph-name="afii10077" unicode="&#x43b;" horiz-adv-x="600" 
d="M135 530h390v-530h-105v460h-190l-25 -330q-5 -62 -48.5 -101t-116.5 -39h-30v70h30q24 0 40.5 18.5t19.5 51.5z" />
    <glyph glyph-name="afii10078" unicode="&#x43c;" horiz-adv-x="815" 
d="M475 60h-135l-135 370h-5l-45 -430h-100v45l65 485h140l145 -380h5l145 380h140l65 -485v-45h-100l-45 430h-5z" />
    <glyph glyph-name="afii10079" unicode="&#x43d;" horiz-adv-x="610" 
d="M180 530v-225h250v225h105v-530h-105v235h-250v-235h-105v530h105z" />
    <glyph glyph-name="afii10080" unicode="&#x43e;" 
d="M530 410v-290q0 -54 -43 -92t-112 -38h-155q-69 0 -112 38t-43 92v290q0 54 43 92t112 38h155q69 0 112 -38t43 -92zM170 410v-290q0 -26 17 -43t43 -17h135q26 0 43 17t17 43v290q0 26 -17 43t-43 17h-135q-26 0 -43 -17t-17 -43z" />
    <glyph glyph-name="afii10081" unicode="&#x43f;" horiz-adv-x="610" 
d="M75 530h460v-530h-105v460h-250v-460h-105v530z" />
    <glyph glyph-name="afii10082" unicode="&#x440;" 
d="M285 540h90q69 0 112 -38t43 -92v-280q0 -54 -43 -92t-112 -38h-195v-170h-105v700h65l20 -65h5q9 20 26 37q38 38 94 38zM365 470h-80q-50 0 -83 -43q-15 -20 -22 -42v-315h185q26 0 43 17t17 43v280q0 26 -17 43t-43 17z" />
    <glyph glyph-name="afii10083" unicode="&#x441;" horiz-adv-x="520" 
d="M65 130v270q0 54 43 92t112 38h260v-35l-30 -35h-220q-26 0 -43 -17t-17 -43v-270q0 -26 17 -43t43 -17h250v-70h-260q-69 0 -112 38t-43 92z" />
    <glyph glyph-name="afii10084" unicode="&#x442;" horiz-adv-x="495" 
d="M15 460v70h465v-35l-30 -35h-150v-460h-105v460h-180z" />
    <glyph glyph-name="afii10085" unicode="&#x443;" horiz-adv-x="540" 
d="M515 485l-190 -525q-20 -56 -66.5 -93t-113.5 -37h-50v70h50q54 0 75 60l10 30v10l-205 485v45h100l155 -435h5l130 435h100v-45z" />
    <glyph glyph-name="afii10086" unicode="&#x444;" horiz-adv-x="795" 
d="M345 530v180h105v-180h125q69 0 112 -38t43 -92v-270q0 -54 -43 -92t-112 -38h-125v-170h-105v170h-125q-69 0 -112 38t-43 92v270q0 54 43 92t112 38h125zM345 460h-115q-26 0 -43 -17t-17 -43v-270q0 -26 17 -43t43 -17h115v390zM450 70h115q26 0 43 17t17 43v270
q0 26 -17 43t-43 17h-115v-390z" />
    <glyph glyph-name="afii10087" unicode="&#x445;" horiz-adv-x="535" 
d="M270 200h-5l-135 -200h-100v45l175 220l-165 220v45h100l125 -200h5l125 200h100v-45l-165 -220l175 -220v-45h-100z" />
    <glyph glyph-name="afii10088" unicode="&#x446;" horiz-adv-x="640" 
d="M505 0h-430v530h105v-460h240v460h105v-460h85v-200h-80z" />
    <glyph glyph-name="afii10089" unicode="&#x447;" horiz-adv-x="580" 
d="M160 530v-220q0 -26 17 -43t43 -17h180v280h105v-530h-105v180h-190q-69 0 -112 38t-43 92v220h105z" />
    <glyph glyph-name="afii10090" unicode="&#x448;" horiz-adv-x="885" 
d="M810 0h-735v530h105v-460h210v460h105v-460h210v460h105v-530z" />
    <glyph glyph-name="afii10091" unicode="&#x449;" horiz-adv-x="925" 
d="M790 0h-715v530h105v-460h210v460h105v-460h210v460h105v-460h85v-200h-80z" />
    <glyph glyph-name="afii10092" unicode="&#x44a;" horiz-adv-x="610" 
d="M0 460v70h235v-180h175q69 0 112 -38t43 -92v-90q0 -54 -43 -92t-112 -38h-280v460h-130zM235 70h165q26 0 43 17t17 43v90q0 26 -17 43t-43 17h-165v-210z" />
    <glyph glyph-name="afii10093" unicode="&#x44b;" horiz-adv-x="795" 
d="M510 220v-90q0 -54 -43 -92t-112 -38h-280v530h105v-180h175q69 0 112 -38t43 -92zM720 530v-530h-105v530h105zM180 70h165q26 0 43 17t17 43v90q0 26 -17 43t-43 17h-165v-210z" />
    <glyph glyph-name="afii10094" unicode="&#x44c;" horiz-adv-x="565" 
d="M520 220v-90q0 -54 -43 -92t-112 -38h-290v530h105v-180h185q69 0 112 -38t43 -92zM180 70h175q26 0 43 17t17 43v90q0 26 -17 43t-43 17h-175v-210z" />
    <glyph glyph-name="afii10095" unicode="&#x44d;" horiz-adv-x="520" 
d="M455 400v-270q0 -54 -43 -92t-112 -38h-260v70h250q26 0 43 17t17 43v105h-200v70h200v95q0 26 -17 43t-43 17h-220l-30 30v40h260q69 0 112 -38t43 -92z" />
    <glyph glyph-name="afii10096" unicode="&#x44e;" horiz-adv-x="820" 
d="M180 530v-225h130v105q0 54 43 92t112 38h135q69 0 112 -38t43 -92v-290q0 -54 -43 -92t-112 -38h-135q-69 0 -112 38t-43 92v115h-130v-235h-105v530h105zM415 410v-290q0 -26 17 -43t43 -17h115q26 0 43 17t17 43v290q0 26 -17 43t-43 17h-115q-26 0 -43 -17t-17 -43z
" />
    <glyph glyph-name="afii10097" unicode="&#x44f;" horiz-adv-x="575" 
d="M60 320v80q0 54 43 92t112 38h285v-530h-105v190h-120l-130 -190h-100v45l130 155q-34 6 -58 22q-57 33 -57 98zM395 460h-170q-26 0 -43 -17t-17 -43v-80q0 -26 17 -43t43 -17h170v200z" />
    <glyph glyph-name="afii10071" unicode="&#x451;" horiz-adv-x="570" 
d="M230 725v-105h-105v105h105zM440 725v-105h-105v105h105zM505 410v-185h-335v-95q0 -26 17 -43t43 -17h255v-70h-265q-69 0 -112 38t-43 92v280q0 54 43 92t112 38h130q69 0 112 -38t43 -92zM170 410v-115h230v115q0 26 -17 43t-43 17h-110q-26 0 -43 -17t-17 -43z" />
    <glyph glyph-name="afii10099" unicode="&#x452;" horiz-adv-x="605" 
d="M385 -10h-30v70h30q26 0 43 17t17 43v180q0 26 -17 43t-43 17h-185v-360h-105v520h-85v70h85l55 110h50v-110h150v-70h-150v-90h195q69 0 112 -38t43 -92v-180q0 -54 -44.5 -92t-120.5 -38z" />
    <glyph glyph-name="afii10100" unicode="&#x453;" horiz-adv-x="475" 
d="M294 770h120l-115 -160h-95zM75 0v530h390v-35l-30 -35h-255v-460h-105z" />
    <glyph glyph-name="afii10101" unicode="&#x454;" horiz-adv-x="520" 
d="M65 130v270q0 54 43 92t112 38h260v-40l-30 -30h-220q-26 0 -43 -17t-17 -43v-95h200v-70h-200v-105q0 -26 17 -43t43 -17h250v-70h-260q-69 0 -112 38t-43 92z" />
    <glyph glyph-name="afii10102" unicode="&#x455;" horiz-adv-x="530" 
d="M150 400v-35q0 -37 45 -45l180 -30q50 -7 80 -40t30 -85v-35q0 -54 -43 -92t-112 -38h-285v70h275q26 0 43 17t17 43v35q0 37 -45 45l-180 30q-50 7 -80 40t-30 85v35q0 54 43 92t112 38h260v-35l-30 -35h-220q-26 0 -43 -17t-17 -43z" />
    <glyph glyph-name="afii10103" unicode="&#x456;" horiz-adv-x="255" 
d="M180 530v-530h-105v530h105zM180 710v-105h-105v105h105z" />
    <glyph glyph-name="afii10104" unicode="&#x457;" horiz-adv-x="305" 
d="M205 530v-530h-105v530h105zM105 710v-105h-105v105h105zM305 710v-105h-105v105h105z" />
    <glyph glyph-name="afii10105" unicode="&#x458;" horiz-adv-x="270" 
d="M40 -170h-115v70h105q26 0 43 17t17 43v570h105v-570q0 -54 -43 -92t-112 -38zM195 710v-105h-105v105h105z" />
    <glyph glyph-name="afii10106" unicode="&#x459;" horiz-adv-x="870" 
d="M825 210v-80q0 -54 -43 -92t-112 -38h-275v460h-165l-25 -330q-5 -62 -48.5 -101t-116.5 -39h-30v70h30q24 0 40.5 18.5t19.5 51.5l35 400h365v-190h170q69 0 112 -38t43 -92zM500 70h160q26 0 43 17t17 43v80q0 26 -17 43t-43 17h-160v-200z" />
    <glyph glyph-name="afii10107" unicode="&#x45a;" horiz-adv-x="885" 
d="M840 195v-65q0 -54 -43 -92t-112 -38h-275v255h-230v-255h-105v530h105v-205h230v205h105v-205h170q69 0 112 -38t43 -92zM515 70h160q26 0 43 17t17 43v65q0 26 -17 43t-43 17h-160v-185z" />
    <glyph glyph-name="afii10108" unicode="&#x45b;" horiz-adv-x="615" 
d="M350 590v-70h-150v-90h195q69 0 112 -38t43 -92v-300h-105v300q0 26 -17 43t-43 17h-185v-360h-105v520h-85v70h85l55 110h50v-110h150z" />
    <glyph glyph-name="afii10109" unicode="&#x45c;" horiz-adv-x="570" 
d="M309 750h120l-115 -160h-95zM180 530v-230h120l115 230h100v-45l-130 -220l145 -220v-45h-100l-130 230h-120v-230h-105v530h105z" />
    <glyph glyph-name="afii10110" unicode="&#x45e;" horiz-adv-x="540" 
d="M320 600h-100q-48 0 -74 25t-26 70v45h85v-45q0 -30 30 -30h70q30 0 30 30v45h85v-45q0 -45 -26 -70t-74 -25zM515 485l-190 -525q-20 -56 -66.5 -93t-113.5 -37h-50v70h50q54 0 75 60l10 30v10l-205 485v45h100l155 -435h5l130 435h100v-45z" />
    <glyph glyph-name="afii10193" unicode="&#x45f;" horiz-adv-x="610" 
d="M535 0h-175l-20 -130h-70l-20 130h-175v530h105v-460h250v460h105v-530z" />
    <glyph glyph-name="uni0472" unicode="&#x472;" horiz-adv-x="680" 
d="M80 140v420q0 70 44 110t126 40h180q82 0 126 -40t44 -110v-420q0 -70 -44 -110t-126 -40h-180q-82 0 -126 40t-44 110zM260 70h160q30 0 50 20t20 50v170h-300v-170q0 -30 20 -50t50 -20zM190 560v-170h300v170q0 30 -20 50t-50 20h-160q-30 0 -50 -20t-20 -50z" />
    <glyph glyph-name="uni0473" unicode="&#x473;" 
d="M530 410v-290q0 -54 -43 -92t-112 -38h-155q-69 0 -112 38t-43 92v290q0 54 43 92t112 38h155q69 0 112 -38t43 -92zM170 410v-105h255v105q0 26 -17 43t-43 17h-135q-26 0 -43 -17t-17 -43zM170 235v-115q0 -26 17 -43t43 -17h135q26 0 43 17t17 43v115h-255z" />
    <glyph glyph-name="afii10050" unicode="&#x490;" horiz-adv-x="545" 
d="M535 620h-335v-620h-110v700h341l24 105h80v-185z" />
    <glyph glyph-name="afii10098" unicode="&#x491;" horiz-adv-x="475" 
d="M75 0v530h285l25 100h80v-170h-285v-460h-105z" />
    <glyph glyph-name="uni0492" unicode="&#x492;" horiz-adv-x="545" 
d="M20 390h70v310h445v-45l-30 -35h-305v-230h200v-80h-200v-310h-110v310h-70v80z" />
    <glyph glyph-name="uni0493" unicode="&#x493;" horiz-adv-x="475" 
d="M20 290h55v240h390v-35l-30 -35h-255v-170h170v-70h-170v-220h-105v220h-55v70z" />
    <glyph glyph-name="uni0496" unicode="&#x496;" horiz-adv-x="990" 
d="M880 0h-45l-165 315h-125v-315h-110v315h-125l-165 -315h-105v50l180 305l-160 295v50h105l145 -305h125v305h110v-305h125l145 305h105v-50l-160 -295l162 -275h68v-220h-85z" />
    <glyph glyph-name="uni0497" unicode="&#x497;" horiz-adv-x="855" 
d="M750 0h-45l-120 230h-110v-230h-105v230h-110l-120 -230h-100v45l135 220l-120 220v45h100l105 -230h110v230h105v-230h110l105 230h100v-45l-120 -220l119 -195h66v-200h-80z" />
    <glyph glyph-name="uni0498" unicode="&#x498;" horiz-adv-x="585" 
d="M345 315h-185v80h175q30 0 50 20t20 50v85q0 30 -20 50t-50 20h-265l-30 35v45h305q82 0 126 -40t44 -110v-85q0 -56 -50 -86q-22 -13 -50 -19v-5q27 -4 55 -19q55 -33 55 -91v-95q0 -70 -44 -110t-126 -40v-70q0 -50 -30.5 -77.5t-89.5 -27.5h-95v65h85q40 0 40 40v70
h-235v80h315q30 0 50 20t20 50v95q0 30 -20 50t-50 20z" />
    <glyph glyph-name="uni0499" unicode="&#x499;" horiz-adv-x="520" 
d="M40 495v35h265q69 0 112 -38t43 -92v-34q0 -50 -50 -76q-23 -11 -50 -15v-5q25 -4 55 -16q55 -26 55 -79v-45q0 -54 -43 -92t-112 -38v-60q0 -50 -30.5 -77.5t-89.5 -27.5h-80v65h70q40 0 40 40v60h-195v70h275q26 0 43 17t17 43v45q0 26 -17 43t-43 17h-155v70h145
q26 0 43 17t17 43v35q0 26 -17 43t-43 17h-225z" />
    <glyph glyph-name="uni049A" unicode="&#x49a;" horiz-adv-x="665" 
d="M555 0h-45l-175 315h-135v-315h-110v700h110v-305h135l155 305h105v-50l-170 -295l171 -275h69v-220h-85z" />
    <glyph glyph-name="uni049B" unicode="&#x49b;" horiz-adv-x="580" 
d="M475 0h-45l-130 230h-120v-230h-105v530h105v-230h120l115 230h100v-45l-130 -220l128 -195h67v-200h-80z" />
    <glyph glyph-name="uni049C" unicode="&#x49c;" horiz-adv-x="655" 
d="M315 485v-90h20l155 305h105v-50l-170 -295l190 -305v-50h-105l-175 315h-20v-90h-85v90h-30v-315h-110v700h110v-305h30v90h85z" />
    <glyph glyph-name="uni049D" unicode="&#x49d;" horiz-adv-x="570" 
d="M280 380v-80h20l115 230h100v-45l-130 -220l145 -220v-45h-100l-130 230h-20v-90h-80v90h-20v-230h-105v530h105v-230h20v80h80z" />
    <glyph glyph-name="uni04A0" unicode="&#x4a0;" horiz-adv-x="665" 
d="M0 700h210v-305h135l155 305h105v-50l-170 -295l190 -305v-50h-105l-175 315h-135v-315h-110v620h-100v80z" />
    <glyph glyph-name="uni04A1" unicode="&#x4a1;" horiz-adv-x="580" 
d="M190 530v-230h120l115 230h100v-45l-130 -220l145 -220v-45h-100l-130 230h-120v-230h-105v450h-85v80h190z" />
    <glyph glyph-name="uni04A2" unicode="&#x4a2;" horiz-adv-x="690" 
d="M550 0h-60v310h-290v-310h-110v700h110v-310h290v310h110v-620h60v-220h-85z" />
    <glyph glyph-name="uni04A3" unicode="&#x4a3;" horiz-adv-x="610" 
d="M480 0h-50v235h-250v-235h-105v530h105v-225h250v225h105v-460h50v-200h-80z" />
    <glyph glyph-name="uni04AA" unicode="&#x4aa;" 
d="M250 -75v75q-82 0 -126 40t-44 110v400q0 70 44 110t126 40h305v-45l-30 -35h-265q-30 0 -50 -20t-20 -50v-400q0 -30 20 -50t50 -20h295v-80h-215v-75q0 -40 40 -40h85v-65h-95q-59 0 -89.5 27.5t-30.5 77.5z" />
    <glyph glyph-name="uni04AB" unicode="&#x4ab;" horiz-adv-x="520" 
d="M220 -60v60q-69 0 -112 38t-43 92v270q0 54 43 92t112 38h260v-35l-30 -35h-220q-26 0 -43 -17t-17 -43v-270q0 -26 17 -43t43 -17h250v-70h-170v-60q0 -40 40 -40h70v-65h-80q-59 0 -89.5 27.5t-30.5 77.5z" />
    <glyph glyph-name="uni04AE" unicode="&#x4ae;" horiz-adv-x="600" 
d="M20 700h105l170 -375h10l170 375h105v-50l-225 -435v-215h-110v215l-225 435v50z" />
    <glyph glyph-name="uni04AF" unicode="&#x4af;" horiz-adv-x="556" 
d="M330 -15v-155h-105v155l-195 500v45h100l145 -445h5l146 445h100v-45z" />
    <glyph glyph-name="uni04B0" unicode="&#x4b0;" horiz-adv-x="600" 
d="M115 215h130l-225 435v50h105l170 -375h10l170 375h105v-50l-225 -435h130v-80h-130v-135h-110v135h-130v80z" />
    <glyph glyph-name="uni04B1" unicode="&#x4b1;" horiz-adv-x="556" 
d="M115 15h98l-183 470v45h100l145 -445h5l146 445h100v-45l-184 -470h98v-80h-110v-105h-105v105h-110v80z" />
    <glyph glyph-name="uni04B2" unicode="&#x4b2;" horiz-adv-x="615" 
d="M505 0h-35l-165 280h-5l-165 -280h-105v50l205 305l-190 295v50h105l150 -280h5l150 280h105v-50l-190 -295l185 -275h60v-220h-85z" />
    <glyph glyph-name="uni04B3" unicode="&#x4b3;" horiz-adv-x="540" 
d="M435 0h-30l-135 200h-5l-135 -200h-100v45l175 220l-165 220v45h100l125 -200h5l125 200h100v-45l-165 -220l155 -195h55v-200h-80z" />
    <glyph glyph-name="uni04B8" unicode="&#x4b8;" horiz-adv-x="650" 
d="M360 430v-90h90v360h110v-700h-110v260h-90v-90h-95v90h-35q-82 0 -126 40t-44 110v290h110v-290q0 -30 20 -50t50 -20h25v90h95z" />
    <glyph glyph-name="uni04B9" unicode="&#x4b9;" horiz-adv-x="580" 
d="M320 335v-85h80v280h105v-530h-105v180h-80v-85h-80v85h-30q-69 0 -112 38t-43 92v220h105v-220q0 -26 17 -43t43 -17h20v85h80z" />
    <glyph glyph-name="uni04BA" unicode="&#x4ba;" horiz-adv-x="650" 
d="M490 0v290q0 30 -20 50t-50 20h-210v-360h-110v700h110v-260h220q82 0 126 -40t44 -110v-290h-110z" />
    <glyph glyph-name="uni04BB" unicode="&#x4bb;" horiz-adv-x="610" 
d="M370 460h-185v-460h-105v700h105v-170h195q69 0 112 -38t43 -92v-400h-105v400q0 26 -17 43t-43 17z" />
    <glyph glyph-name="uni04D8" unicode="&#x4d8;" horiz-adv-x="680" 
d="M80 140v260h410v150q0 30 -20 50t-50 20h-300v80h310q82 0 126 -40t44 -110v-410q0 -70 -44 -110t-126 -40h-180q-82 0 -126 40t-44 110zM260 70h160q30 0 50 20t20 50v180h-300v-180q0 -30 20 -50t50 -20z" />
    <glyph glyph-name="uni04D9" unicode="&#x4d9;" horiz-adv-x="570" 
d="M65 120v185h335v95q0 26 -17 43t-43 17h-255v70h265q69 0 112 -38t43 -92v-280q0 -54 -43 -92t-112 -38h-130q-69 0 -112 38t-43 92zM400 120v115h-230v-115q0 -26 17 -43t43 -17h110q26 0 43 17t17 43z" />
    <glyph glyph-name="Wgrave" unicode="&#x1e80;" horiz-adv-x="955" 
d="M480 485h-5l-145 -485h-150l-140 650v50h105l115 -590h5l140 480h145l140 -480h5l115 590h105v-50l-140 -650h-150zM322 850h120l90 -160h-95z" />
    <glyph glyph-name="wgrave" unicode="&#x1e81;" horiz-adv-x="805" 
d="M470 455l110 -355h5l80 430h100v-45l-110 -485h-140l-110 365h-5l-110 -365h-140l-110 485v45h100l80 -430h5l110 355h135zM247 710h120l90 -160h-95z" />
    <glyph glyph-name="Wacute" unicode="&#x1e82;" horiz-adv-x="955" 
d="M480 485h-5l-145 -485h-150l-140 650v50h105l115 -590h5l140 480h145l140 -480h5l115 590h105v-50l-140 -650h-150zM512 850h120l-115 -160h-95z" />
    <glyph glyph-name="wacute" unicode="&#x1e83;" horiz-adv-x="805" 
d="M470 455l110 -355h5l80 430h100v-45l-110 -485h-140l-110 365h-5l-110 -365h-140l-110 485v45h100l80 -430h5l110 355h135zM437 700h120l-115 -160h-95z" />
    <glyph glyph-name="Wdieresis" unicode="&#x1e84;" horiz-adv-x="955" 
d="M480 485h-5l-145 -485h-150l-140 650v50h105l115 -590h5l140 480h145l140 -480h5l115 590h105v-50l-140 -650h-150zM430 830v-105h-105v105h105zM630 830v-105h-105v105h105z" />
    <glyph glyph-name="wdieresis" unicode="&#x1e85;" horiz-adv-x="805" 
d="M470 455l110 -355h5l80 430h100v-45l-110 -485h-140l-110 365h-5l-110 -365h-140l-110 485v45h100l80 -430h5l110 355h135zM355 681v-105h-105v105h105zM555 681v-105h-105v105h105z" />
    <glyph glyph-name="Ygrave" unicode="&#x1ef2;" horiz-adv-x="600" 
d="M20 700h105l170 -375h10l170 375h105v-50l-225 -435v-215h-110v215l-225 435v50zM155 910h120l90 -160h-95z" />
    <glyph glyph-name="ygrave" unicode="&#x1ef3;" horiz-adv-x="540" 
d="M515 485l-190 -525q-20 -56 -66.5 -93t-113.5 -37h-50v70h50q54 0 75 60l10 30v10l-205 485v45h100l155 -435h5l130 435h100v-45zM125 760h120l90 -160h-95z" />
    <glyph glyph-name="endash" unicode="&#x2013;" horiz-adv-x="590" 
d="M40 340h510v-80h-510v80z" />
    <glyph glyph-name="emdash" unicode="&#x2014;" horiz-adv-x="850" 
d="M40 340h770v-80h-770v80z" />
    <glyph glyph-name="quoteleft" unicode="&#x2018;" horiz-adv-x="225" 
d="M60 565l50 135h55v-220h-105v85z" />
    <glyph glyph-name="quoteright" unicode="&#x2019;" horiz-adv-x="225" 
d="M165 615l-50 -135h-55v220h105v-85z" />
    <glyph glyph-name="quotesinglbase" unicode="&#x201a;" horiz-adv-x="225" 
d="M165 35l-50 -135h-55v220h105v-85z" />
    <glyph glyph-name="quotedblleft" unicode="&#x201c;" horiz-adv-x="405" 
d="M240 565l50 135h55v-220h-105v85zM60 565l50 135h55v-220h-105v85z" />
    <glyph glyph-name="quotedblright" unicode="&#x201d;" horiz-adv-x="405" 
d="M165 615l-50 -135h-55v220h105v-85zM345 615l-50 -135h-55v220h105v-85z" />
    <glyph glyph-name="quotedblbase" unicode="&#x201e;" horiz-adv-x="405" 
d="M165 35l-50 -135h-55v220h105v-85zM345 35l-50 -135h-55v220h105v-85z" />
    <glyph glyph-name="dagger" unicode="&#x2020;" horiz-adv-x="520" 
d="M300 700l15 -180h175v-80h-175v-610h-110v610h-175v80h175l15 180h80z" />
    <glyph glyph-name="daggerdbl" unicode="&#x2021;" horiz-adv-x="540" 
d="M325 10l-15 -180h-80l-15 180h-175v80h175v350h-175v80h175l15 180h80l15 -180h175v-80h-175v-350h175v-80h-175z" />
    <glyph glyph-name="bullet" unicode="&#x2022;" horiz-adv-x="400" 
d="M270 340v-60q0 -15 -12.5 -27.5t-27.5 -12.5h-60q-15 0 -27.5 12.5t-12.5 27.5v60q0 15 12.5 27.5t27.5 12.5h60q15 0 27.5 -12.5t12.5 -27.5z" />
    <glyph glyph-name="ellipsis" unicode="&#x2026;" horiz-adv-x="695" 
d="M165 120v-120h-105v120h105zM400 120v-120h-105v120h105zM635 120v-120h-105v120h105z" />
    <glyph glyph-name="perthousand" unicode="&#x2030;" horiz-adv-x="1210" 
d="M485 95v130q0 105 130 105h55q130 0 130 -105v-130q0 -105 -130 -105h-55q-130 0 -130 105zM585 700h90v-40l-420 -660h-90v40zM575 225v-130q0 -40 40 -40h55q40 0 40 40v130q0 40 -40 40h-55q-40 0 -40 -40zM40 475v130q0 105 130 105h55q130 0 130 -105v-130
q0 -105 -130 -105h-55q-130 0 -130 105zM130 605v-130q0 -40 40 -40h55q40 0 40 40v130q0 40 -40 40h-55q-40 0 -40 -40zM855 95v130q0 105 130 105h55q130 0 130 -105v-130q0 -105 -130 -105h-55q-130 0 -130 105zM945 225v-130q0 -40 40 -40h55q40 0 40 40v130
q0 40 -40 40h-55q-40 0 -40 -40z" />
    <glyph glyph-name="guilsinglleft" unicode="&#x2039;" horiz-adv-x="335" 
d="M180 40l-120 220l120 220h95v-45l-100 -175l100 -175v-45h-95z" />
    <glyph glyph-name="guilsinglright" unicode="&#x203a;" horiz-adv-x="335" 
d="M275 260l-120 -220h-95v45l100 175l-100 175v45h95z" />
    <glyph glyph-name="Euro" unicode="&#x20ac;" horiz-adv-x="615" 
d="M30 470h80v80q0 70 45.5 110t134.5 40h285v-45l-30 -35h-255q-30 0 -50 -20t-20 -50v-80h240v-80h-240v-80h240v-80h-240v-80q0 -30 20 -50t50 -20h285v-80h-285q-89 0 -134.5 40t-45.5 110v80h-80v80h80v80h-80v80z" />
    <glyph glyph-name="afii61352" unicode="&#x2116;" horiz-adv-x="1060" 
d="M90 700h120l290 -540h5l-15 170v370h110v-700h-120l-290 540h-5l15 -170v-370h-110v700zM715 290h295v-80h-295v80zM705 475v130q0 50 30.5 77.5t89.5 27.5h75q59 0 89.5 -27.5t30.5 -77.5v-130q0 -50 -30.5 -77.5t-89.5 -27.5h-75q-59 0 -89.5 27.5t-30.5 77.5zM795 605
v-130q0 -40 40 -40h55q40 0 40 40v130q0 40 -40 40h-55q-40 0 -40 -40z" />
    <glyph glyph-name="trademark" unicode="&#x2122;" horiz-adv-x="865" 
d="M5 635v65h330v-45l-20 -20h-100v-265h-90v265h-120zM510 700l70 -210h5l70 210h115l40 -295v-35h-85l-20 245h-5l-70 -205h-95l-70 205h-5l-20 -245h-85v35l40 295h115z" />
    <glyph glyph-name="commaaccent" horiz-adv-x="175" 
d="M135 -135l-40 -110h-55v195h95v-85z" />
    <glyph glyph-name="foundryicon" horiz-adv-x="1330" 
d="M200 265h-170l170 175v-175zM410 350q0 -38 -26 -64t-64 -26t-64 26t-26 64t26 64t64 26t64 -26t26 -64zM410 435h180l-90 -175zM910 435v-155l-150 155h150zM745 265v155l150 -155h-150zM725 265h-180l90 175zM1105 435v-155l-150 155h150zM940 265v155l150 -155h-150z
M1120 435h180l-90 -175z" />
    <glyph glyph-name=".ttfautohint" horiz-adv-x="1330" 
 />
    </font>
</defs>
</svg>
