<?xml version="1.0" standalone="no"?>
<!DOCTYPE svg PUBLIC "-//W3C//DTD SVG 1.1//EN" "http://www.w3.org/Graphics/SVG/1.1/DTD/svg11.dtd" >
<svg xmlns="http://www.w3.org/2000/svg" xmlns:xlink="http://www.w3.org/1999/xlink" version="1.1">
<metadata>
Created by FontForge 20150824 at Sun Jun 26 12:06:41 2016
 By Everything Fonts
Copyright (c) 2013 by Roman Ershov, Jovanny Lemonad. All rights reserved.
</metadata>
<defs>
<font id="SupermolotItalic" horiz-adv-x="595" >
  <font-face 
    font-family="SupermolotItalic"
    font-weight="400"
    font-style="italic"
    font-stretch="normal"
    units-per-em="1000"
    panose-1="2 0 5 3 5 0 0 9 0 4"
    ascent="807"
    descent="-193"
    x-height="530"
    cap-height="700"
    bbox="-131 -274 1338 940"
    underline-thickness="50"
    underline-position="-150"
    unicode-range="U+0020-2122"
  />
<missing-glyph horiz-adv-x="740" 
d="M165 605h540l-80 -510h-540zM636 545h-420l-62 -390h420zM401 390l132 105l34 -40l-132 -105l98 -105l-46 -40l-98 105l-132 -105l-34 40l132 105l-98 105l46 40z" />
    <glyph glyph-name=".notdef" horiz-adv-x="740" 
d="M165 605h540l-80 -510h-540zM636 545h-420l-62 -390h420zM401 390l132 105l34 -40l-132 -105l98 -105l-46 -40l-98 105l-132 -105l-34 40l132 105l-98 105l46 40z" />
    <glyph glyph-name=".null" horiz-adv-x="0" 
 />
    <glyph glyph-name="nonmarkingreturn" horiz-adv-x="333" 
 />
    <glyph glyph-name="space" unicode=" " horiz-adv-x="300" 
 />
    <glyph glyph-name="exclam" unicode="!" horiz-adv-x="280" 
d="M109 215l24 315l27 170h120l-27 -170l-69 -315h-75zM184 120l-19 -120h-105l19 120h105z" />
    <glyph glyph-name="quotedbl" unicode="&#x22;" horiz-adv-x="370" 
d="M116 480l-1 120l15 100h100l-15 -100l-39 -120h-60zM286 480l-1 120l15 100h100l-15 -100l-39 -120h-60z" />
    <glyph glyph-name="numbersign" unicode="#" horiz-adv-x="705" 
d="M111 450l12 80h120l52 170h105l-52 -170h175l52 170h105l-52 -170h100l-12 -80h-115l-62 -200h105l-13 -80h-120l-51 -170h-105l51 170h-175l-51 -170h-105l51 170h-100l13 80h115l62 200h-105zM321 450l-62 -200h175l62 200h-175z" />
    <glyph glyph-name="dollar" unicode="$" horiz-adv-x="590" 
d="M335 790h110l-15 -90h160l-7 -45l-35 -35h-250q-30 0 -53 -20t-28 -50l-10 -60q-4 -26 9.5 -45t39.5 -25l183 -45q60 -15 88 -54t17 -101l-11 -70q-11 -70 -61 -110t-132 -40h-20l-15 -90h-110l15 90h-190l12 80h310q30 0 53 20t28 50l11 70q5 26 -8.5 45t-40.5 25
l-182 45q-125 30 -106 155l10 60q11 70 61 110t132 40h20z" />
    <glyph glyph-name="percent" unicode="%" horiz-adv-x="840" 
d="M665 700h90l-6 -40l-524 -660h-90l6 40zM85 475l20 130q18 105 137 105h75q59 0 85 -27.5t18 -77.5l-20 -130q-18 -105 -137 -105h-75q-59 0 -85 27.5t-18 77.5zM195 605l-20 -130q-6 -40 33 -40h55q19 0 31.5 10.5t15.5 29.5l20 130q6 40 -33 40h-55q-19 0 -31.5 -10.5
t-15.5 -29.5zM470 95l20 130q18 105 137 105h75q59 0 85 -27.5t18 -77.5l-20 -130q-18 -105 -137 -105h-75q-59 0 -85 27.5t-18 77.5zM580 225l-20 -130q-6 -40 33 -40h55q19 0 31.5 10.5t15.5 29.5l20 130q6 40 -34 40h-55q-40 0 -46 -40z" />
    <glyph glyph-name="ampersand" unicode="&#x26;" horiz-adv-x="665" 
d="M303 -10h-126q-82 0 -119 40t-26 110l13 85q11 76 96 115q36 17 81 25l1 5q-18 18 -31 40q-31 51 -22 100l7 40q12 70 63.5 110t139.5 40h240l-7 -45l-35 -35h-210q-30 0 -53 -20t-28 -50l-7 -40q-5 -31 32 -83q22 -30 38 -46l281 -341l-6 -40h-100l-64 75
q-17 -24 -42 -43q-54 -42 -116 -42zM200 70h116q44 0 76 30q15 15 23 30l-146 180q-48 0 -78 -23t-36 -62l-13 -85q-5 -30 11.5 -50t46.5 -20z" />
    <glyph glyph-name="quotesingle" unicode="'" horiz-adv-x="200" 
d="M116 480l-1 120l15 100h100l-15 -100l-39 -120h-60z" />
    <glyph glyph-name="parenleft" unicode="(" horiz-adv-x="360" 
d="M55 -30l103 650q12 70 63.5 110t139.5 40h50l-12 -80h-50q-30 0 -53 -20t-28 -50l-103 -650q-5 -30 12 -50t47 -20h50l-13 -80h-50q-89 0 -128.5 40t-27.5 110z" />
    <glyph glyph-name="parenright" unicode=")" horiz-adv-x="360" 
d="M338 620l-103 -650q-12 -70 -63.5 -110t-140.5 -40h-50l13 80h50q30 0 53 20t28 50l103 650q5 30 -12 50t-47 20h-50l12 80h50q88 0 127.5 -40.5t29.5 -109.5z" />
    <glyph glyph-name="asterisk" unicode="*" horiz-adv-x="420" 
d="M225 570l35 130h60l-5 -130l119 25l6 -55l-116 -40l53 -105l-55 -35l-70 95l-100 -95l-45 35l87 105l-104 40l24 55z" />
    <glyph glyph-name="plus" unicode="+" horiz-adv-x="525" 
d="M205 100l29 180h-180l13 80h180l28 180h85l-28 -180h180l-13 -80h-180l-29 -180h-85z" />
    <glyph glyph-name="comma" unicode="," horiz-adv-x="225" 
d="M140 35l-71 -135h-55l35 220h105z" />
    <glyph glyph-name="hyphen" unicode="-" horiz-adv-x="490" 
d="M67 360h410l-13 -80h-410z" />
    <glyph glyph-name="period" unicode="." horiz-adv-x="225" 
d="M154 120l-19 -120h-105l19 120h105z" />
    <glyph glyph-name="slash" unicode="/" horiz-adv-x="490" 
d="M552 710l-475 -760h-95l6 40l475 760h95z" />
    <glyph glyph-name="zero" unicode="0" horiz-adv-x="650" 
d="M452 140l66 420q5 30 -12 50t-47 20h-130q-30 0 -53 -20t-28 -50l-66 -420q-5 -30 12 -50t47 -20h130q30 0 53 20t28 50zM628 560l-66 -420q-11 -70 -61.5 -110t-132.5 -40h-150q-82 0 -119.5 40.5t-26.5 109.5l66 420q11 70 61.5 110t132.5 40h150q82 0 119.5 -40.5
t26.5 -109.5z" />
    <glyph glyph-name="one" unicode="1" horiz-adv-x="365" 
d="M94 660l176 40h80l-110 -700h-110l96 610h-140z" />
    <glyph glyph-name="two" unicode="2" horiz-adv-x="555" 
d="M6 75l362 330q16 13 33 32q33 37 38 63l8 50q5 30 -12 50t-47 20h-255l-25 35l7 45h295q82 0 120 -40.5t27 -109.5l-8 -50q-9 -51 -60 -106q-24 -28 -50 -49l-291 -260l-1 -5h335l-12 -80h-475z" />
    <glyph glyph-name="three" unicode="3" horiz-adv-x="560" 
d="M514 250l-16 -100q-11 -70 -61 -110t-132 -40h-305l12 80h295q30 0 53 20t28 50l16 100q5 30 -12 50t-47 20h-195l11 70l266 225l1 5h-310l-25 35l7 45h465l-12 -75l-254 -220l-1 -5h70q82 0 119.5 -40.5t26.5 -109.5z" />
    <glyph glyph-name="four" unicode="4" horiz-adv-x="610" 
d="M460 0h-110l23 150h-360l11 70l401 480h145l-74 -470h100l-13 -80h-100zM441 580h-5l-289 -345q0 -1 -0.5 -3l-0.5 -2h240z" />
    <glyph glyph-name="five" unicode="5" horiz-adv-x="590" 
d="M98 340l57 360h435l-7 -45l-35 -35h-295l-32 -200h180q82 0 119.5 -40.5t26.5 -109.5l-19 -120q-11 -70 -61 -110t-132 -40h-290l12 80h280q30 0 53 20t28 50l19 120q5 30 -12 50t-47 20h-280z" />
    <glyph glyph-name="six" unicode="6" horiz-adv-x="620" 
d="M579 280l-22 -140q-11 -70 -61.5 -110t-132.5 -40h-145q-82 0 -119.5 40.5t-26.5 109.5l65 410q11 70 61 110t132 40h280l-7 -45l-35 -35h-240q-30 0 -53 -20t-28 -50l-19 -120h205q82 0 119.5 -40.5t26.5 -109.5zM215 350l-33 -210q-5 -30 12 -50t47 -20h125q30 0 53 20
t28 50l22 140q5 30 -12 50t-47 20h-195z" />
    <glyph glyph-name="seven" unicode="7" horiz-adv-x="510" 
d="M200 0h-110l7 50l340 565l1 5h-360l12 80h480l-11 -70z" />
    <glyph glyph-name="eight" unicode="8" horiz-adv-x="640" 
d="M373 -10h-170q-82 0 -119.5 40.5t-26.5 109.5l18 115q10 64 70 95q26 14 58 20l1 5q-24 6 -42 18q-40 30 -32 82l13 85q11 70 61.5 110t132.5 40h130q82 0 119.5 -40.5t26.5 -109.5l-13 -85q-9 -52 -58 -82q-22 -12 -48 -18l-1 -5q28 -6 52 -20q50 -32 40 -95l-18 -115
q-11 -70 -61.5 -110t-132.5 -40zM416 325h-150q-30 0 -53 -20t-28 -50l-18 -115q-5 -30 12 -50t47 -20h150q30 0 53 20t28 50l18 115q5 30 -12 50t-47 20zM444 630h-110q-30 0 -53 -20t-28 -50l-13 -85q-5 -30 12 -50t47 -20h110q30 0 53 20t28 50l13 85q5 30 -12 50t-47 20
z" />
    <glyph glyph-name="nine" unicode="9" horiz-adv-x="620" 
d="M91 420l22 140q11 70 61.5 110t132.5 40h145q82 0 119.5 -40.5t26.5 -109.5l-65 -410q-11 -70 -61 -110t-132 -40h-290l12 80h280q30 0 53 20t28 50l19 120h-205q-82 0 -119.5 40.5t-26.5 109.5zM455 350l33 210q5 30 -12 50t-47 20h-125q-30 0 -53 -20t-28 -50l-22 -140
q-5 -30 12 -50t47 -20h195z" />
    <glyph glyph-name="colon" unicode=":" horiz-adv-x="225" 
d="M154 120l-19 -120h-105l19 120h105zM218 530l-19 -120h-105l19 120h105z" />
    <glyph glyph-name="semicolon" unicode=";" horiz-adv-x="225" 
d="M218 530l-19 -120h-105l19 120h105zM140 35l-71 -135h-55l35 220h105z" />
    <glyph glyph-name="less" unicode="&#x3c;" horiz-adv-x="520" 
d="M172 270l-1 -5l280 -160l-16 -105l-376 220l15 95l445 220l-16 -104z" />
    <glyph glyph-name="equal" unicode="=" horiz-adv-x="530" 
d="M92 460h430l-12 -80h-430zM61 260h430l-13 -80h-430z" />
    <glyph glyph-name="greater" unicode="&#x3e;" horiz-adv-x="520" 
d="M371 265l1 5l-279 160l16 105l375 -220l-15 -95l-444 -220l16 105z" />
    <glyph glyph-name="question" unicode="?" horiz-adv-x="499" 
d="M143 215l5 35q7 43 30 72.5t48 42.5l109 55q44 21 50 60l11 70q5 30 -12 50t-47 20h-239l-25 35l7 45h279q82 0 120 -40.5t27 -109.5l-11 -70q-14 -79 -89 -115l-108 -55q-50 -27 -55 -60l-5 -35h-95zM228 120l-19 -120h-105l19 120h105z" />
    <glyph glyph-name="at" unicode="@" horiz-adv-x="895" 
d="M865 570l-60 -380h-65l-10 65h-5q-15 -24 -32 -38q-45 -37 -100 -37h-90q-70 0 -106.5 38t-27.5 92l8 55q9 54 58 92t118 38h195l12 75q5 30 -12 50t-47 20h-360q-30 0 -53 -20t-28 -50l-70 -440q-5 -30 12 -50t47 -20h515l-13 -80h-525q-82 0 -119.5 40.5t-26.5 109.5
l70 440q11 70 61.5 110t132.5 40h380q78 0 115 -40.5t26 -109.5zM524 250h80q49 0 89 42q18 18 30 43l14 90h-185q-26 0 -45.5 -17t-24.5 -43l-8 -55q-5 -26 9.5 -43t40.5 -17z" />
    <glyph glyph-name="A" unicode="A" horiz-adv-x="655" 
d="M490 0l-29 170h-275l-81 -170h-105l7 50l328 650h145l122 -650l-7 -50h-105zM390 600l-166 -350h225l-54 350h-5z" />
    <glyph glyph-name="B" unicode="B" horiz-adv-x="660" 
d="M504 470l13 80q5 30 -12 50t-47 20h-190l-35 -220h190q30 0 53 20t28 50zM517 365v-5q27 -4 52 -19q49 -31 40 -91l-16 -100q-11 -70 -61 -110t-132 -40h-340l110 700h310q82 0 120 -40.5t27 -109.5l-13 -80q-9 -57 -54 -86q-18 -12 -43 -19zM440 320h-220l-38 -240h220
q30 0 53 20t28 50l16 100q5 30 -12 50t-47 20z" />
    <glyph glyph-name="C" unicode="C" 
d="M73 150l64 400q11 70 61 110t132 40h305l-7 -45l-35 -35h-265q-30 0 -53 -20t-28 -50l-64 -400q-5 -30 12 -50t47 -20h295l-12 -80h-305q-82 0 -120 40.5t-27 109.5z" />
    <glyph glyph-name="D" unicode="D" horiz-adv-x="680" 
d="M657 550l-64 -400q-11 -70 -61 -110t-132 -40h-340l110 700h340q82 0 120 -40.5t27 -109.5zM488 620h-220l-86 -540h220q30 0 53 20t28 50l64 400q5 30 -12 50t-47 20z" />
    <glyph glyph-name="E" unicode="E" horiz-adv-x="590" 
d="M635 700l-7 -45l-35 -35h-325l-37 -230h265l-12 -80h-265l-37 -230h355l-12 -80h-465l110 700h465z" />
    <glyph glyph-name="F" unicode="F" horiz-adv-x="570" 
d="M635 700l-7 -45l-35 -35h-325l-38 -240h265l-13 -80h-265l-47 -300h-110l110 700h465z" />
    <glyph glyph-name="G" unicode="G" horiz-adv-x="675" 
d="M499 310h-150l12 80h260l-61 -390h-340q-82 0 -120 40.5t-27 109.5l64 400q11 70 61 110t132 40h305l-7 -45l-35 -35h-265q-30 0 -53 -20t-28 -50l-64 -400q-5 -30 12 -50t47 -20h220z" />
    <glyph glyph-name="H" unicode="H" horiz-adv-x="690" 
d="M170 0h-110l110 700h110l-49 -310h290l49 310h110l-110 -700h-110l49 310h-290z" />
    <glyph glyph-name="I" unicode="I" horiz-adv-x="290" 
d="M170 0h-110l110 700h110z" />
    <glyph glyph-name="J" unicode="J" horiz-adv-x="525" 
d="M-9 70h245q30 0 53 20t28 50l88 560h110l-88 -560q-11 -70 -61.5 -110t-132.5 -40h-255z" />
    <glyph glyph-name="K" unicode="K" horiz-adv-x="655" 
d="M170 0h-110l110 700h110l-48 -305h135l203 305h105l-8 -50l-216 -295l141 -305l-7 -50h-105l-126 315h-135z" />
    <glyph glyph-name="L" unicode="L" horiz-adv-x="555" 
d="M182 80h345l-12 -80h-455l110 700h110z" />
    <glyph glyph-name="M" unicode="M" horiz-adv-x="975" 
d="M543 85h-145l-95 505h-5l-158 -590h-105l7 50l193 650h150l99 -515h5l261 515h150l-13 -650l-7 -50h-105l28 590h-5z" />
    <glyph glyph-name="N" unicode="N" horiz-adv-x="690" 
d="M170 700h120l205 -540h5l12 170l58 370h110l-110 -700h-120l-205 540h-5l-12 -170l-58 -370h-110z" />
    <glyph glyph-name="O" unicode="O" horiz-adv-x="680" 
d="M248 560l-66 -420q-5 -30 12 -50t47 -20h160q30 0 53 20t28 50l66 420q5 30 -12 50t-47 20h-160q-30 0 -53 -20t-28 -50zM72 140l66 420q11 70 61.5 110t132.5 40h180q82 0 119.5 -40.5t26.5 -109.5l-66 -420q-11 -70 -61.5 -110t-132.5 -40h-180q-82 0 -119.5 40.5
t-26.5 109.5z" />
    <glyph glyph-name="P" unicode="P" horiz-adv-x="650" 
d="M170 0h-110l110 700h330q82 0 120 -40.5t27 -109.5l-27 -170q-11 -70 -61.5 -110t-132.5 -40h-220zM268 620l-49 -310h210q30 0 53 20t28 50l27 170q5 30 -12 50t-47 20h-210z" />
    <glyph glyph-name="Q" unicode="Q" horiz-adv-x="680" 
d="M72 140l66 420q11 70 61.5 110t132.5 40h180q82 0 119.5 -40.5t26.5 -109.5l-66 -420q-11 -70 -61.5 -110t-132.5 -40h-35l57 -80l-7 -45h-105l-45 125h-45q-82 0 -119.5 40.5t-26.5 109.5zM248 560l-66 -420q-5 -30 12 -50t47 -20h160q30 0 53 20t28 50l66 420
q5 30 -12 50t-47 20h-160q-30 0 -53 -20t-28 -50z" />
    <glyph glyph-name="R" unicode="R" horiz-adv-x="665" 
d="M170 0h-110l110 700h330q82 0 120 -40.5t27 -109.5l-21 -130q-14 -77 -88 -115q-31 -17 -74 -25l128 -230l-7 -50h-105l-128 270h-140zM268 620l-43 -270h210q30 0 53 20t28 50l21 130q5 30 -12 50t-47 20h-210z" />
    <glyph glyph-name="S" unicode="S" horiz-adv-x="590" 
d="M385 290l-182 45q-125 31 -106 155l10 60q11 70 61 110t132 40h290l-7 -45l-35 -35h-250q-30 0 -53 -20t-28 -50l-10 -60q-4 -26 9.5 -45t39.5 -25l183 -45q60 -15 88 -54t17 -101l-11 -70q-11 -70 -61 -110t-132 -40h-320l12 80h310q30 0 53 20t28 50l11 70
q5 26 -8.5 45t-40.5 25z" />
    <glyph glyph-name="T" unicode="T" horiz-adv-x="560" 
d="M83 620l12 80h530l-7 -45l-35 -35h-180l-98 -620h-110l98 620h-210z" />
    <glyph glyph-name="U" unicode="U" horiz-adv-x="710" 
d="M502 140l88 560h110l-88 -560q-11 -70 -61.5 -110t-132.5 -40h-190q-82 0 -119.5 40.5t-26.5 109.5l88 560h110l-88 -560q-5 -30 12 -50t47 -20h170q30 0 53 20t28 50z" />
    <glyph glyph-name="V" unicode="V" horiz-adv-x="635" 
d="M305 100l275 600h105l-8 -50l-317 -650h-145l-113 650l8 50h105l85 -600h5z" />
    <glyph glyph-name="W" unicode="W" horiz-adv-x="955" 
d="M526 485h-5l-221 -485h-150l-38 650l8 50h105l22 -590h5l216 480h145l64 -480h5l208 590h105l-8 -50l-242 -650h-150z" />
    <glyph glyph-name="X" unicode="X" horiz-adv-x="605" 
d="M319 280h-5l-209 -280h-105l7 50l254 305l-144 295l8 50h105l106 -280h5l194 280h105l-8 -50l-236 -295l156 -305l-7 -50h-105z" />
    <glyph glyph-name="Y" unicode="Y" horiz-adv-x="600" 
d="M100 700h105l111 -375h10l229 375h105l-8 -50l-293 -435l-34 -215h-110l34 215l-157 435z" />
    <glyph glyph-name="Z" unicode="Z" horiz-adv-x="585" 
d="M157 80h370l-12 -80h-505l11 75l446 540l1 5h-330l-25 35l7 45h495l-12 -75l-445 -540z" />
    <glyph glyph-name="bracketleft" unicode="[" horiz-adv-x="360" 
d="M261 -180h-230l150 950h230l-12 -80h-120l-125 -790h120z" />
    <glyph glyph-name="backslash" unicode="\" horiz-adv-x="490" 
d="M337 -50l-235 760l6 40h95l235 -760l-6 -40h-95z" />
    <glyph glyph-name="bracketright" unicode="]" horiz-adv-x="360" 
d="M211 -180h-230l13 80h120l125 790h-120l12 80h230z" />
    <glyph glyph-name="asciicircum" unicode="^" horiz-adv-x="465" 
d="M167 460h-105l203 240h95l127 -240h-105l-80 155h-5z" />
    <glyph glyph-name="underscore" unicode="_" horiz-adv-x="470" 
d="M-20 -60h430l-13 -80h-429z" />
    <glyph glyph-name="grave" unicode="`" horiz-adv-x="290" 
d="M120 700h120l65 -160h-95z" />
    <glyph glyph-name="a" unicode="a" horiz-adv-x="575" 
d="M258 -10h-90q-69 0 -106.5 38.5t-27.5 91.5l44 280q9 54 57.5 92t117.5 38h300l-83 -530h-65l-10 65h-5q-15 -24 -32 -38q-45 -37 -100 -37zM189 60h80q49 0 89 42q18 20 29 43l50 315h-185q-26 0 -45.5 -17t-23.5 -43l-44 -280q-5 -26 9.5 -43t40.5 -17z" />
    <glyph glyph-name="b" unicode="b" horiz-adv-x="600" 
d="M265 700l-27 -170h195q70 0 107 -38t28 -92l-43 -270q-9 -54 -57.5 -92t-117.5 -38h-300l110 700h105zM412 460h-185l-61 -390h185q26 0 45.5 17t23.5 43l43 270q4 26 -10.5 43t-40.5 17z" />
    <glyph glyph-name="c" unicode="c" horiz-adv-x="520" 
d="M55 130l43 270q9 54 57.5 92t117.5 38h260l-5 -35l-36 -35h-220q-26 0 -45.5 -17t-23.5 -43l-43 -270q-4 -26 10.5 -43t40.5 -17h250l-11 -70h-260q-70 0 -107 38t-28 92z" />
    <glyph glyph-name="d" unicode="d" horiz-adv-x="600" 
d="M278 -10h-90q-69 0 -106.5 38.5t-27.5 91.5l44 280q9 54 57.5 92t117.5 38h195l27 170h105l-110 -700h-65l-10 65h-5q-15 -24 -32 -38q-45 -37 -100 -37zM209 60h80q49 0 89 42q18 20 29 43l50 315h-185q-26 0 -45.5 -17t-23.5 -43l-44 -280q-5 -26 9.5 -43t40.5 -17z
" />
    <glyph glyph-name="e" unicode="e" horiz-adv-x="560" 
d="M354 215h-180l-14 -85q-4 -26 10.5 -43t40.5 -17h255l-11 -70h-265q-70 0 -107 38t-28 92l44 280q9 53 58 91.5t118 38.5h130q70 0 106.5 -38t27.5 -92l-10 -65q-9 -54 -57.5 -92t-117.5 -38zM424 345l10 65q5 26 -9.5 43t-40.5 17h-110q-26 0 -45.5 -17t-24.5 -43
l-19 -125h170q26 0 45.5 17t23.5 43z" />
    <glyph glyph-name="f" unicode="f" horiz-adv-x="425" 
d="M215 385l-65 -425q-9 -54 -57.5 -92t-117.5 -38h-65l10 70h56q26 0 45.5 17t23.5 43l96 620q9 54 58 92t118 38h210l-6 -35l-35 -35h-170q-26 0 -45.5 -17t-24.5 -43l-19 -125h195l-12 -70h-195z" />
    <glyph glyph-name="g" unicode="g" 
d="M573 530l-90 -570q-9 -54 -57.5 -92t-117.5 -38h-260l11 70h250q26 0 45.5 17t23.5 43l10 60h-195q-70 0 -107 38t-28 92l40 250q9 54 57.5 92t117.5 38h300zM214 90h185l58 370h-185q-26 0 -45.5 -17t-23.5 -43l-40 -250q-4 -26 10.5 -43t40.5 -17z" />
    <glyph glyph-name="h" unicode="h" horiz-adv-x="610" 
d="M412 460h-185l-72 -460h-105l110 700h105l-27 -170h195q70 0 107 -38t28 -92l-63 -400h-105l63 400q4 26 -10.5 43t-40.5 17z" />
    <glyph glyph-name="i" unicode="i" horiz-adv-x="255" 
d="M233 530l-83 -530h-105l83 530h105zM262 710l-17 -105h-105l17 105h105z" />
    <glyph glyph-name="j" unicode="j" horiz-adv-x="270" 
d="M-17 -170h-114l11 70h104q26 0 45.5 17t23.5 43l90 570h105l-90 -570q-9 -54 -57.5 -92t-117.5 -38zM277 710l-17 -105h-105l17 105h105z" />
    <glyph glyph-name="k" unicode="k" horiz-adv-x="575" 
d="M265 700l-63 -400h120l151 230h100l-7 -45l-165 -220l111 -220l-7 -45h-100l-94 230h-120l-36 -230h-105l110 700h105z" />
    <glyph glyph-name="l" unicode="l" horiz-adv-x="305" 
d="M243 -10h-40q-69 0 -106.5 38.5t-27.5 91.5l91 580h105l-91 -580q-5 -26 9.5 -43t40.5 -17h30z" />
    <glyph glyph-name="m" unicode="m" horiz-adv-x="895" 
d="M379 470h-50q-34 0 -63 -20.5t-40 -37.5t-15 -26l-61 -386h-105l83 530h65l10 -65h5q17 24 32 37q46 38 100 38h50q53 0 85 -30q13 -14 21 -30h5q11 15 29 30q38 30 85 30h105q70 0 106.5 -38t27.5 -92l-64 -410h-105l64 410q5 26 -8.5 43t-41.5 17h-95q-26 0 -45.5 -17
t-24.5 -43l-64 -410h-105l64 410q5 26 -9.5 43t-40.5 17z" />
    <glyph glyph-name="n" unicode="n" horiz-adv-x="610" 
d="M414 470h-85q-49 0 -90 -43q-19 -19 -29 -42l-60 -385h-105l83 530h65l10 -65h5q17 24 32 37q46 38 100 38h95q70 0 106.5 -38t27.5 -92l-64 -410h-105l64 410q5 26 -9.5 43t-40.5 17z" />
    <glyph glyph-name="o" unicode="o" 
d="M564 410l-45 -290q-10 -54 -58.5 -92t-117.5 -38h-155q-69 0 -106.5 38.5t-27.5 91.5l45 290q9 53 58 91.5t118 38.5h155q70 0 106.5 -38t27.5 -92zM204 410l-45 -290q-5 -26 9.5 -43t40.5 -17h135q26 0 45.5 17t24.5 43l45 290q5 26 -9.5 43t-40.5 17h-135
q-26 0 -45.5 -17t-24.5 -43z" />
    <glyph glyph-name="p" unicode="p" 
d="M340 540h90q70 0 106.5 -38t27.5 -92l-44 -280q-9 -54 -57.5 -92t-117.5 -38h-195l-27 -170h-105l110 700h65l10 -65h5q17 24 32 37q46 38 100 38zM409 470h-80q-49 0 -90 -43q-19 -19 -29 -42l-49 -315h185q26 0 45.5 17t23.5 43l44 280q5 26 -9.5 43t-40.5 17z" />
    <glyph glyph-name="q" unicode="q" 
d="M358 -170l27 170h-195q-70 0 -107 38t-28 92l43 270q9 54 57.5 92t117.5 38h300l-110 -700h-105zM211 70h185l61 390h-185q-26 0 -45.5 -17t-23.5 -43l-43 -270q-4 -26 10.5 -43t40.5 -17z" />
    <glyph glyph-name="r" unicode="r" horiz-adv-x="435" 
d="M203 465h5q17 24 32 37q46 38 100 38h130l-13 -80h-130q-47 0 -87 -38q-17 -15 -30 -37l-60 -385h-105l83 530h65z" />
    <glyph glyph-name="s" unicode="s" horiz-adv-x="530" 
d="M183 400l-6 -35q-6 -37 38 -45l175 -30q49 -7 74 -40t17 -85l-6 -35q-9 -54 -57.5 -92t-117.5 -38h-285l11 70h275q26 0 45.5 17t23.5 43l6 35q6 37 -38 45l-175 30q-49 7 -74 40t-17 85l6 35q9 54 57.5 92t117.5 38h260l-5 -35l-36 -35h-220q-26 0 -45.5 -17t-23.5 -43z
" />
    <glyph glyph-name="t" unicode="t" horiz-adv-x="440" 
d="M413 530l-11 -70h-150l-53 -340q-5 -26 9.5 -43t40.5 -17h155l-11 -70h-165q-69 0 -106.5 38.5t-27.5 91.5l53 340h-85l11 70h85l78 140h50l-23 -140h150z" />
    <glyph glyph-name="u" unicode="u" horiz-adv-x="610" 
d="M219 60h85q49 0 89 42q18 20 29 43l61 385h105l-83 -530h-65l-10 65h-5q-15 -24 -32 -38q-45 -37 -100 -37h-95q-69 0 -106.5 38.5t-27.5 91.5l64 410h105l-64 -410q-5 -26 9.5 -43t40.5 -17z" />
    <glyph glyph-name="v" unicode="v" horiz-adv-x="556" 
d="M315 0h-135l-104 485l7 45h100l75 -445h5l216 445h100l-7 -45z" />
    <glyph glyph-name="w" unicode="w" horiz-adv-x="805" 
d="M512 455l53 -355h5l148 430h100l-7 -45l-186 -485h-140l-53 365h-5l-167 -365h-140l-34 485l7 45h100l12 -430h5l167 355h135z" />
    <glyph glyph-name="x" unicode="x" horiz-adv-x="535" 
d="M271 200h-5l-166 -200h-100l7 45l209 220l-130 220l7 45h100l94 -200h5l156 200h100l-7 -45l-200 -220l141 -220l-7 -45h-100z" />
    <glyph glyph-name="y" unicode="y" horiz-adv-x="540" 
d="M561 485l-273 -525q-31 -57 -82 -93.5t-118 -36.5h-50l11 70h50q55 0 84 60l15 30l2 10l-129 485l7 45h100l87 -435h5l198 435h100z" />
    <glyph glyph-name="z" unicode="z" horiz-adv-x="495" 
d="M366 450l1 10h-265l-24 35l5 35h425l-10 -65l-356 -385l-1 -10h305l-11 -70h-435l10 65z" />
    <glyph glyph-name="braceleft" unicode="{" horiz-adv-x="400" 
d="M167 300l-1 -5q24 -7 42 -21q40 -32 32 -84l-35 -220q-5 -30 12 -50t47 -20h50l-13 -80h-50q-89 0 -128.5 40t-27.5 110l35 220q4 27 -13 46t-47 19h-10l13 85h10q29 0 52.5 19t28.5 46l34 215q12 70 63.5 110t139.5 40h50l-12 -80h-50q-30 0 -53 -20t-28 -50l-34 -215
q-8 -52 -59 -84q-23 -13 -48 -21z" />
    <glyph glyph-name="bar" unicode="|" horiz-adv-x="290" 
d="M136 -210h-110l155 980h110z" />
    <glyph glyph-name="braceright" unicode="}" horiz-adv-x="400" 
d="M266 295l1 5q-24 8 -42 21q-40 32 -31 84l34 215q5 30 -12 50t-47 20h-50l12 80h50q88 0 127.5 -40.5t29.5 -109.5l-34 -215q-5 -26 12 -45.5t47 -19.5h10l-13 -85h-10q-30 0 -53 -19t-27 -46l-35 -220q-12 -70 -63.5 -110t-140.5 -40h-50l13 80h50q30 0 53 20t28 50
l35 220q9 52 58 84q22 14 48 21z" />
    <glyph glyph-name="asciitilde" unicode="~" horiz-adv-x="500" 
d="M273 400l63 -75l8 -8q7 -7 15 -7h10q18 0 23 20l15 95h85l-20 -125q-5 -34 -29 -54.5t-58 -20.5h-45q-27 0 -50 17q-13 9 -19 18l-63 75l-8 7q-10 8 -15 8h-10q-8 0 -15 -6t-8 -14l-15 -95h-85l20 125q5 34 28.5 54.5t57.5 20.5h45q24 0 50 -18q10 -7 20 -17z" />
    <glyph glyph-name="nbspace" unicode="&#xa0;" horiz-adv-x="300" 
 />
    <glyph glyph-name="exclamdown" unicode="&#xa1;" horiz-adv-x="280" 
d="M216 0l-24 315h75l69 -315l27 -170h-120zM248 530l19 -120h-105l-19 120h105z" />
    <glyph glyph-name="cent" unicode="&#xa2;" horiz-adv-x="520" 
d="M415 600l-12 -70h130l-5 -35l-36 -35h-220q-26 0 -45.5 -17t-23.5 -43l-43 -270q-4 -26 10.5 -43t40.5 -17h250l-11 -70h-130l-12 -70h-110l12 70h-20q-70 0 -107 38t-28 92l43 270q9 54 57.5 92t117.5 38h20l12 70h110z" />
    <glyph glyph-name="sterling" unicode="&#xa3;" horiz-adv-x="565" 
d="M167 80h355l-12 -80h-495l12 80h35q20 10 36 24q38 30 43 61l30 190h-75l11 70h75l24 155q9 54 58 92t118 38h200l-6 -35l-35 -35h-160q-26 0 -45.5 -17t-24.5 -43l-24 -155h165l-11 -70h-165l-30 -190q-9 -31 -44 -59q-18 -13 -34 -21z" />
    <glyph glyph-name="currency" unicode="&#xa4;" horiz-adv-x="675" 
d="M62 360h80l53 340h330q82 0 120 -40.5t27 -109.5l-19 -120q-11 -70 -61.5 -110t-132.5 -40h-220l-13 -80h280l-12 -80h-280l-19 -120h-110l19 120h-80l12 80h80l13 80h-80zM293 620l-41 -260h210q30 0 53 20t28 50l19 120q5 30 -12 50t-47 20h-210z" />
    <glyph glyph-name="yen" unicode="&#xa5;" horiz-adv-x="600" 
d="M95 320h115l-118 330l8 50h105l111 -375h10l229 375h105l-8 -50l-223 -330h116l-12 -80h-157l-17 -25l-8 -45h170l-12 -80h-170l-14 -90h-110l14 90h-170l12 80h170l8 45l-9 25h-157z" />
    <glyph glyph-name="brokenbar" unicode="&#xa6;" horiz-adv-x="290" 
d="M136 -210h-110l65 410h110zM291 770l-64 -410h-110l64 410h110z" />
    <glyph glyph-name="section" unicode="&#xa7;" horiz-adv-x="550" 
d="M225 570l-10 -60q-3 -18 8 -32.5t29 -17.5l171 -30q48 -8 75.5 -43t19.5 -82l-15 -95q-8 -51 -43 -82q-15 -12 -33 -18l-1 -5q16 -7 27 -18q26 -26 20 -67l-10 -60q-9 -54 -57.5 -92t-117.5 -38h-285l11 70h275q26 0 45.5 17t23.5 43l10 60q3 18 -8 32.5t-29 17.5
l-181 30q-48 8 -75.5 42.5t-19.5 82.5l15 95q9 51 48 80q15 11 38 20l1 5q-17 7 -27 18q-26 26 -20 67l10 60q9 54 57.5 92t117.5 38h260l-5 -35l-36 -35h-220q-26 0 -45.5 -17t-23.5 -43zM175 320l-15 -95q-3 -18 8 -32.5t29 -17.5l136 -25q23 0 41.5 17t23.5 43l15 95
q3 18 -8 32.5t-29 17.5l-136 25q-23 0 -41.5 -17t-23.5 -43z" />
    <glyph glyph-name="dieresis" unicode="&#xa8;" horiz-adv-x="385" 
d="M225 700l-16 -105h-105l16 105h105zM425 700l-16 -105h-105l16 105h105z" />
    <glyph glyph-name="copyright" unicode="&#xa9;" horiz-adv-x="970" 
d="M950 570l-70 -440q-11 -70 -61.5 -110t-132.5 -40h-470q-82 0 -119.5 40.5t-26.5 109.5l70 440q11 70 61.5 110t132.5 40h470q82 0 119.5 -40.5t26.5 -109.5zM239 60h450q30 0 53 20t28 50l70 440q5 30 -12 50t-47 20h-450q-30 0 -53 -20t-28 -50l-70 -440q-5 -30 12 -50
t47 -20zM321 260l28 180q8 55 50 87.5t109 32.5h200l-6 -40l-36 -35h-160q-19 0 -34 -13t-18 -32l-28 -180q-3 -19 8 -32t30 -13h190l-12 -75h-200q-67 0 -98 32.5t-23 87.5z" />
    <glyph glyph-name="ordfeminine" unicode="&#xaa;" horiz-adv-x="385" 
d="M227 365h-40q-59 0 -85 27.5t-18 77.5q18 105 137 105h95l4 30q6 40 -33 40h-130l10 65h140q59 0 85 -27.5t18 -77.5l-37 -235h-60l-7 50q-9 -15 -21 -28q-27 -27 -58 -27zM299 470l6 40h-85q-40 0 -46 -40t34 -40h30q25 0 42 12t19 28z" />
    <glyph glyph-name="guillemotleft" unicode="&#xab;" horiz-adv-x="520" 
d="M343 55l-67 205l132 205h95l-7 -45l-105 -160l54 -160l-7 -45h-95zM138 55l-67 205l132 205h95l-7 -45l-105 -160l54 -160l-7 -45h-95z" />
    <glyph glyph-name="logicalnot" unicode="&#xac;" horiz-adv-x="510" 
d="M78 430h430l-31 -195h-100l18 115h-330z" />
    <glyph glyph-name="uni00AD" unicode="&#xad;" horiz-adv-x="500" 
d="M67 360h420l-13 -80h-420z" />
    <glyph glyph-name="registered" unicode="&#xae;" horiz-adv-x="970" 
d="M363 560h220q67 0 98 -32.5t23 -87.5l-5 -30q-9 -52 -52 -80q-17 -12 -43 -20l80 -125l-7 -45h-100l-67 150h-85l-23 -150h-105zM561 485h-105l-19 -120h105q19 0 34 13t18 32l5 30q3 19 -8 32t-30 13zM950 570l-70 -440q-11 -70 -61.5 -110t-132.5 -40h-470
q-82 0 -119.5 40.5t-26.5 109.5l70 440q11 70 61.5 110t132.5 40h470q82 0 119.5 -40.5t26.5 -109.5zM239 60h450q30 0 53 20t28 50l70 440q5 30 -12 50t-47 20h-450q-30 0 -53 -20t-28 -50l-70 -440q-5 -30 12 -50t47 -20z" />
    <glyph glyph-name="macron" unicode="&#xaf;" horiz-adv-x="410" 
d="M435 700l-11 -70h-300l11 70h300z" />
    <glyph glyph-name="degree" unicode="&#xb0;" horiz-adv-x="405" 
d="M85 475l20 130q18 105 137 105h85q59 0 85 -27.5t18 -77.5l-20 -130q-18 -105 -137 -105h-85q-59 0 -85 27.5t-18 77.5zM195 605l-20 -130q-6 -40 33 -40h65q19 0 31.5 10.5t15.5 29.5l20 130q6 40 -33 40h-65q-19 0 -31.5 -10.5t-15.5 -29.5z" />
    <glyph glyph-name="plusminus" unicode="&#xb1;" horiz-adv-x="545" 
d="M479 90h-445l12 80h180l31 190h-180l12 80h180l29 180h85l-29 -180h180l-12 -80h-180l-31 -190h180z" />
    <glyph glyph-name="twosuperior" unicode="&#xb2;" horiz-adv-x="360" 
d="M288 589l1 6q6 40 -34 40h-135l10 65h145q58 0 85 -26t20 -69l-1 -6q-5 -33 -46 -72q-22 -20 -40 -31l-94 -56l-1 -5h160l-10 -65h-280l10 60l166 105q14 10 20 16q20 21 24 38z" />
    <glyph glyph-name="threesuperior" unicode="&#xb3;" horiz-adv-x="360" 
d="M228 370h-160l10 65h150q19 0 31.5 10.5t15.5 29.5q6 40 -34 40h-90l8 50l100 65l1 5h-146l10 65h255l-8 -55l-115 -69q57 0 86.5 -28t22.5 -73q-18 -105 -137 -105z" />
    <glyph glyph-name="acute" unicode="&#xb4;" horiz-adv-x="290" 
d="M210 700h120l-140 -160h-95z" />
    <glyph glyph-name="mu" unicode="&#xb5;" horiz-adv-x="610" 
d="M219 60h85q49 0 89 42q18 20 29 43l61 385h105l-83 -530h-65l-10 65h-5q-15 -24 -32 -38q-45 -37 -100 -37h-80q-28 0 -43 12q-8 5 -13 13h-5l-29 -185h-105l110 700h105l-64 -410q-5 -26 9.5 -43t40.5 -17z" />
    <glyph glyph-name="paragraph" unicode="&#xb6;" horiz-adv-x="625" 
d="M82 460l16 100q10 60 56 100t106 40h425l-12 -80h-95l-125 -790h-105l125 790h-80l-125 -790h-105l77 490h-40q-60 0 -94 40t-24 100z" />
    <glyph glyph-name="periodcentered" unicode="&#xb7;" horiz-adv-x="300" 
d="M236 410l-19 -120h-105l19 120h105z" />
    <glyph glyph-name="cedilla" unicode="&#xb8;" horiz-adv-x="305" 
d="M18 -105l17 105h65l-8 -45h40q42 0 64.5 -25.5t16.5 -64.5l-2 -15q-6 -39 -37 -64.5t-73 -25.5h-130l10 60h105q11 0 22 9.5t13 20.5l2 15q2 11 -6 20.5t-19 9.5h-80z" />
    <glyph glyph-name="onesuperior" unicode="&#xb9;" horiz-adv-x="255" 
d="M194 630h-85l8 50l103 20h75l-52 -330h-90z" />
    <glyph glyph-name="ordmasculine" unicode="&#xba;" horiz-adv-x="395" 
d="M85 475l20 130q18 105 137 105h75q59 0 85 -27.5t18 -77.5l-20 -130q-18 -105 -137 -105h-75q-59 0 -85 27.5t-18 77.5zM195 605l-20 -130q-6 -40 33 -40h55q19 0 31.5 10.5t15.5 29.5l20 130q6 40 -33 40h-55q-19 0 -31.5 -10.5t-15.5 -29.5z" />
    <glyph glyph-name="guillemotright" unicode="&#xbb;" horiz-adv-x="520" 
d="M266 260l-133 -205h-95l7 45l106 160l-55 160l7 45h95zM471 260l-133 -205h-95l7 45l106 160l-55 160l7 45h95z" />
    <glyph glyph-name="onequarter" unicode="&#xbc;" horiz-adv-x="796" 
d="M646 700h90l-6 -40l-524 -660h-90l6 40zM194 630h-85l8 50l103 20h75l-52 -330h-90zM435 120l213 210h85l-33 -205h45l-10 -65h-45l-9 -60h-90l9 60h-175zM531 130l-1 -5h80l15 95h-5z" />
    <glyph glyph-name="onehalf" unicode="&#xbd;" horiz-adv-x="811" 
d="M626 700h90l-6 -40l-524 -660h-90l6 40zM194 630h-85l8 50l103 20h75l-52 -330h-90zM680 219l1 6q6 40 -34 40h-135l11 65h145q58 0 84.5 -25.5t20.5 -69.5l-1 -6q-7 -35 -47 -72q-22 -20 -40 -31l-93 -56l-1 -5h160l-10 -65h-280l9 60l167 105q14 10 20 16q19 19 23 38z
" />
    <glyph glyph-name="threequarters" unicode="&#xbe;" horiz-adv-x="816" 
d="M666 700h90l-6 -40l-524 -660h-90l6 40zM455 120l213 210h85l-33 -205h45l-10 -65h-45l-9 -60h-90l9 60h-175zM551 130l-1 -5h80l15 95h-5zM228 370h-160l10 65h150q19 0 31.5 10.5t15.5 29.5q6 40 -34 40h-90l8 50l100 65l1 5h-146l10 65h255l-8 -55l-115 -69
q57 0 86.5 -28t22.5 -73q-18 -105 -137 -105z" />
    <glyph glyph-name="questiondown" unicode="&#xbf;" horiz-adv-x="469" 
d="M439 315l-5 -35q-7 -43 -30 -72.5t-48 -42.5l-109 -55q-44 -21 -50 -60l-11 -70q-5 -30 12 -50t47 -20h239l25 -35l-7 -45h-279q-82 0 -120 40.5t-27 109.5l11 70q14 79 89 115l108 55q50 27 55 60l5 35h95zM354 410l19 120h105l-19 -120h-105z" />
    <glyph glyph-name="Agrave" unicode="&#xc0;" horiz-adv-x="655" 
d="M490 0l-29 170h-275l-81 -170h-105l7 50l328 650h145l122 -650l-7 -50h-105zM390 600l-166 -350h225l-54 350h-5zM278 930h120l65 -160h-95z" />
    <glyph glyph-name="Aacute" unicode="&#xc1;" horiz-adv-x="655" 
d="M490 0l-29 170h-275l-81 -170h-105l7 50l328 650h145l122 -650l-7 -50h-105zM390 600l-166 -350h225l-54 350h-5zM478 930h120l-140 -160h-95z" />
    <glyph glyph-name="Acircumflex" unicode="&#xc2;" horiz-adv-x="655" 
d="M490 0l-29 170h-275l-81 -170h-105l7 50l328 650h145l122 -650l-7 -50h-105zM390 600l-166 -350h225l-54 350h-5zM592 760h-95l-66 90l-94 -90h-95l153 150h90z" />
    <glyph glyph-name="Atilde" unicode="&#xc3;" horiz-adv-x="655" 
d="M490 0l-29 170h-275l-81 -170h-105l7 50l328 650h145l122 -650l-7 -50h-105zM390 600l-166 -350h225l-54 350h-5zM510 905h80l-12 -70q-5 -30 -28 -50t-53 -20h-25q-12 0 -28 10q-8 5 -13 10l-34 35l-8 7q-10 8 -15 8q-14 0 -18 -17q-1 -2 -1 -3l-7 -45h-80l11 70
q5 30 28 50t53 20h25q12 0 28 -10l14 -10l35 -35l7 -8q7 -7 15 -7q16 0 18 20z" />
    <glyph glyph-name="Adieresis" unicode="&#xc4;" horiz-adv-x="655" 
d="M490 0l-29 170h-275l-81 -170h-105l7 50l328 650h145l122 -650l-7 -50h-105zM390 600l-166 -350h225l-54 350h-5zM385 860l-16 -105h-105l16 105h105zM585 860l-16 -105h-105l16 105h105z" />
    <glyph glyph-name="Aring" unicode="&#xc5;" horiz-adv-x="655" 
d="M490 0l-29 170h-275l-81 -170h-105l7 50l308 609q-30 24 -24 66l8 50q6 32 33.5 56t64.5 24h70q38 0 57.5 -23t14.5 -57l-8 -50q-6 -41 -43 -65l114 -610l-7 -50h-105zM390 600l-166 -350h225l-54 350h-5zM393 700h24q24 0 29 25l8 50q2 11 -4 18t-17 7h-20
q-25 0 -29 -25l-8 -50q-3 -23 17 -25z" />
    <glyph glyph-name="AE" unicode="&#xc6;" horiz-adv-x="960" 
d="M1005 700l-7 -45l-35 -35h-315l-37 -230h255l-12 -80h-255l-37 -230h345l-12 -80h-455l33 210h-265l-123 -210h-105l7 50l407 650h611zM453 620l-198 -330h230l53 330h-85z" />
    <glyph glyph-name="Ccedilla" unicode="&#xc7;" 
d="M73 150l64 400q11 70 61 110t132 40h305l-7 -45l-35 -35h-265q-30 0 -53 -20t-28 -50l-64 -400q-5 -30 12 -50t47 -20h295l-12 -80h-210l-8 -45h40q42 0 64.5 -25.5t16.5 -64.5l-2 -15q-6 -39 -37 -64.5t-73 -25.5h-130l10 60h105q11 0 22 9.5t13 20.5l2 15q2 11 -6 20.5
t-19 9.5h-80l17 105h-30q-82 0 -120 40.5t-27 109.5z" />
    <glyph glyph-name="Egrave" unicode="&#xc8;" horiz-adv-x="590" 
d="M635 700l-7 -45l-35 -35h-325l-37 -230h265l-12 -80h-265l-37 -230h355l-12 -80h-465l110 700h465zM286 930h120l65 -160h-95z" />
    <glyph glyph-name="Eacute" unicode="&#xc9;" horiz-adv-x="590" 
d="M635 700l-7 -45l-35 -35h-325l-37 -230h265l-12 -80h-265l-37 -230h355l-12 -80h-465l110 700h465zM456 930h120l-140 -160h-95z" />
    <glyph glyph-name="Ecircumflex" unicode="&#xca;" horiz-adv-x="590" 
d="M635 700l-7 -45l-35 -35h-325l-37 -230h265l-12 -80h-265l-37 -230h355l-12 -80h-465l110 700h465zM591 770h-95l-66 90l-94 -90h-95l153 150h90z" />
    <glyph glyph-name="Edieresis" unicode="&#xcb;" horiz-adv-x="590" 
d="M635 700l-7 -45l-35 -35h-325l-37 -230h265l-12 -80h-265l-37 -230h355l-12 -80h-465l110 700h465zM375 880l-16 -105h-105l16 105h105zM575 880l-16 -105h-105l16 105h105z" />
    <glyph glyph-name="Igrave" unicode="&#xcc;" horiz-adv-x="290" 
d="M170 0h-110l110 700h110zM108 930h120l65 -160h-95z" />
    <glyph glyph-name="Iacute" unicode="&#xcd;" horiz-adv-x="290" 
d="M170 0h-110l110 700h110zM296 930h120l-140 -160h-95z" />
    <glyph glyph-name="Icircumflex" unicode="&#xce;" horiz-adv-x="290" 
d="M170 0h-110l110 700h110zM413 770h-95l-66 90l-94 -90h-95l153 150h90z" />
    <glyph glyph-name="Idieresis" unicode="&#xcf;" horiz-adv-x="295" 
d="M172 0h-110l110 700h110zM208 870l-16 -105h-105l16 105h105zM408 870l-16 -105h-105l16 105h105z" />
    <glyph glyph-name="Eth" unicode="&#xd0;" horiz-adv-x="680" 
d="M657 550l-64 -400q-11 -70 -61 -110t-132 -40h-340l50 320h-70l11 70h70l49 310h340q82 0 120 -40.5t27 -109.5zM488 620h-220l-37 -230h150l-11 -70h-150l-38 -240h220q30 0 53 20t28 50l64 400q5 30 -12 50t-47 20z" />
    <glyph glyph-name="Ntilde" unicode="&#xd1;" horiz-adv-x="690" 
d="M170 700h120l205 -540h5l12 170l58 370h110l-110 -700h-120l-205 540h-5l-12 -170l-58 -370h-110zM528 905h80l-12 -70q-5 -30 -28 -50t-53 -20h-25q-12 0 -28 10q-8 5 -13 10l-34 35l-8 7q-10 8 -15 8q-14 0 -18 -17q-1 -2 -1 -3l-7 -45h-80l11 70q5 30 28 50t53 20h25
q12 0 28 -10l14 -10l35 -35l7 -8q7 -7 15 -7q16 0 18 20z" />
    <glyph glyph-name="Ograve" unicode="&#xd2;" horiz-adv-x="680" 
d="M248 560l-66 -420q-5 -30 12 -50t47 -20h160q30 0 53 20t28 50l66 420q5 30 -12 50t-47 20h-160q-30 0 -53 -20t-28 -50zM72 140l66 420q11 70 61.5 110t132.5 40h180q82 0 119.5 -40.5t26.5 -109.5l-66 -420q-11 -70 -61.5 -110t-132.5 -40h-180q-82 0 -119.5 40.5
t-26.5 109.5zM311 930h120l65 -160h-95z" />
    <glyph glyph-name="Oacute" unicode="&#xd3;" horiz-adv-x="680" 
d="M248 560l-66 -420q-5 -30 12 -50t47 -20h160q30 0 53 20t28 50l66 420q5 30 -12 50t-47 20h-160q-30 0 -53 -20t-28 -50zM72 140l66 420q11 70 61.5 110t132.5 40h180q82 0 119.5 -40.5t26.5 -109.5l-66 -420q-11 -70 -61.5 -110t-132.5 -40h-180q-82 0 -119.5 40.5
t-26.5 109.5zM491 930h120l-140 -160h-95z" />
    <glyph glyph-name="Ocircumflex" unicode="&#xd4;" horiz-adv-x="680" 
d="M248 560l-66 -420q-5 -30 12 -50t47 -20h160q30 0 53 20t28 50l66 420q5 30 -12 50t-47 20h-160q-30 0 -53 -20t-28 -50zM72 140l66 420q11 70 61.5 110t132.5 40h180q82 0 119.5 -40.5t26.5 -109.5l-66 -420q-11 -70 -61.5 -110t-132.5 -40h-180q-82 0 -119.5 40.5
t-26.5 109.5zM606 770h-95l-66 90l-94 -90h-95l153 150h90z" />
    <glyph glyph-name="Otilde" unicode="&#xd5;" horiz-adv-x="680" 
d="M248 560l-66 -420q-5 -30 12 -50t47 -20h160q30 0 53 20t28 50l66 420q5 30 -12 50t-47 20h-160q-30 0 -53 -20t-28 -50zM72 140l66 420q11 70 61.5 110t132.5 40h180q82 0 119.5 -40.5t26.5 -109.5l-66 -420q-11 -70 -61.5 -110t-132.5 -40h-180q-82 0 -119.5 40.5
t-26.5 109.5zM524 915h80l-12 -70q-5 -30 -28 -50t-53 -20h-25q-12 0 -28 10q-7 5 -13 10l-34 35l-8 7q-10 8 -15 8q-14 0 -18 -17q-1 -2 -1 -3l-7 -45h-80l11 70q5 30 28 50t53 20h25q12 0 28 -10l14 -10l35 -35l7 -8q7 -7 15 -7q16 0 18 20z" />
    <glyph glyph-name="Odieresis" unicode="&#xd6;" horiz-adv-x="680" 
d="M248 560l-66 -420q-5 -30 12 -50t47 -20h160q30 0 53 20t28 50l66 420q5 30 -12 50t-47 20h-160q-30 0 -53 -20t-28 -50zM72 140l66 420q11 70 61.5 110t132.5 40h180q82 0 119.5 -40.5t26.5 -109.5l-66 -420q-11 -70 -61.5 -110t-132.5 -40h-180q-82 0 -119.5 40.5
t-26.5 109.5zM400 880l-16 -105h-105l16 105h105zM600 880l-16 -105h-105l16 105h105z" />
    <glyph glyph-name="multiply" unicode="&#xd7;" horiz-adv-x="480" 
d="M269 375l155 130l47 -55l-156 -130l115 -130l-64 -55l-115 130l-155 -130l-46 55l155 130l-114 130l63 55z" />
    <glyph glyph-name="Oslash" unicode="&#xd8;" horiz-adv-x="680" 
d="M647 710l-23 -35q46 -42 34 -115l-66 -420q-11 -70 -61.5 -110t-132.5 -40h-180q-4 0 -11 0.5t-10 0.5l-25 -41h-95l6 40l21 35q-44 42 -32 115l66 420q11 70 61.5 110t132.5 40h180q4 0 11 -0.5t10 -0.5l25 41h95zM248 560l-68 -430l313 500h-164q-30 0 -53 -20t-28 -50
zM237 70h164q30 0 53 20t28 50l68 429z" />
    <glyph glyph-name="Ugrave" unicode="&#xd9;" horiz-adv-x="710" 
d="M502 140l88 560h110l-88 -560q-11 -70 -61.5 -110t-132.5 -40h-190q-82 0 -119.5 40.5t-26.5 109.5l88 560h110l-88 -560q-5 -30 12 -50t47 -20h170q30 0 53 20t28 50zM324 920h120l65 -160h-95z" />
    <glyph glyph-name="Uacute" unicode="&#xda;" horiz-adv-x="710" 
d="M502 140l88 560h110l-88 -560q-11 -70 -61.5 -110t-132.5 -40h-190q-82 0 -119.5 40.5t-26.5 109.5l88 560h110l-88 -560q-5 -30 12 -50t47 -20h170q30 0 53 20t28 50zM483 910h120l-140 -160h-95z" />
    <glyph glyph-name="Ucircumflex" unicode="&#xdb;" horiz-adv-x="710" 
d="M502 140l88 560h110l-88 -560q-11 -70 -61.5 -110t-132.5 -40h-190q-82 0 -119.5 40.5t-26.5 109.5l88 560h110l-88 -560q-5 -30 12 -50t47 -20h170q30 0 53 20t28 50zM620 760h-95l-66 90l-94 -90h-95l153 150h90z" />
    <glyph glyph-name="Udieresis" unicode="&#xdc;" horiz-adv-x="710" 
d="M502 140l88 560h110l-88 -560q-11 -70 -61.5 -110t-132.5 -40h-190q-82 0 -119.5 40.5t-26.5 109.5l88 560h110l-88 -560q-5 -30 12 -50t47 -20h170q30 0 53 20t28 50zM413 870l-16 -105h-105l16 105h105zM613 870l-16 -105h-105l16 105h105z" />
    <glyph glyph-name="Yacute" unicode="&#xdd;" horiz-adv-x="600" 
d="M100 700h105l111 -375h10l229 375h105l-8 -50l-293 -435l-34 -215h-110l34 215l-157 435zM436 900h120l-140 -160h-95z" />
    <glyph glyph-name="Thorn" unicode="&#xde;" horiz-adv-x="650" 
d="M170 0h-110l110 700h110l-17 -110h220q82 0 119.5 -40.5t26.5 -109.5l-30 -190q-11 -70 -61.5 -110t-132.5 -40h-220zM250 510l-52 -330h210q30 0 53 20t28 50l30 190q5 30 -12 50t-47 20h-210z" />
    <glyph glyph-name="germandbls" unicode="&#xdf;" horiz-adv-x="620" 
d="M555 570q-4 -30 -23 -55t-39 -39t-39 -36.5t-23 -49.5l-5 -35q-3 -18 14.5 -32.5t44.5 -27t53 -28t42.5 -41.5t10.5 -61l-6 -35q-9 -54 -57.5 -92t-117.5 -38h-165l11 70h155q26 0 45.5 17t23.5 43l6 35q2 18 -16 32.5t-44.5 27t-52.5 28t-42 41.5t-10 61l5 35
q4 25 17.5 45.5t29.5 34.5t32 27.5t28.5 32t16.5 40.5q4 26 -10.5 43t-40.5 17h-75q-30 0 -53 -20t-28 -50l-88 -560h-105l88 560q12 66 59 103t128 37h96q69 0 106 -38t28 -92z" />
    <glyph glyph-name="agrave" unicode="&#xe0;" horiz-adv-x="575" 
d="M258 -10h-90q-69 0 -106.5 38.5t-27.5 91.5l44 280q9 54 57.5 92t117.5 38h300l-83 -530h-65l-10 65h-5q-15 -24 -32 -38q-45 -37 -100 -37zM189 60h80q49 0 89 42q18 20 29 43l50 315h-185q-26 0 -45.5 -17t-23.5 -43l-44 -280q-5 -26 9.5 -43t40.5 -17zM243 770h120
l65 -160h-95z" />
    <glyph glyph-name="aacute" unicode="&#xe1;" horiz-adv-x="575" 
d="M258 -10h-90q-69 0 -106.5 38.5t-27.5 91.5l44 280q9 54 57.5 92t117.5 38h300l-83 -530h-65l-10 65h-5q-15 -24 -32 -38q-45 -37 -100 -37zM189 60h80q49 0 89 42q18 20 29 43l50 315h-185q-26 0 -45.5 -17t-23.5 -43l-44 -280q-5 -26 9.5 -43t40.5 -17zM393 770h120
l-140 -160h-95z" />
    <glyph glyph-name="acircumflex" unicode="&#xe2;" horiz-adv-x="575" 
d="M258 -10h-90q-69 0 -106.5 38.5t-27.5 91.5l44 280q9 54 57.5 92t117.5 38h300l-83 -530h-65l-10 65h-5q-15 -24 -32 -38q-45 -37 -100 -37zM189 60h80q49 0 89 42q18 20 29 43l50 315h-185q-26 0 -45.5 -17t-23.5 -43l-44 -280q-5 -26 9.5 -43t40.5 -17zM536 600h-95
l-66 90l-94 -90h-95l153 150h90z" />
    <glyph glyph-name="atilde" unicode="&#xe3;" horiz-adv-x="575" 
d="M258 -10h-90q-69 0 -106.5 38.5t-27.5 91.5l44 280q9 54 57.5 92t117.5 38h300l-83 -530h-65l-10 65h-5q-15 -24 -32 -38q-45 -37 -100 -37zM189 60h80q49 0 89 42q18 20 29 43l50 315h-185q-26 0 -45.5 -17t-23.5 -43l-44 -280q-5 -26 9.5 -43t40.5 -17zM444 745h80
l-12 -70q-5 -30 -28 -50t-53 -20h-25q-12 0 -28 10q-7 4 -13 10l-34 35l-8 7q-10 8 -15 8q-14 0 -18 -17q-1 -2 -1 -3l-7 -45h-80l11 70q5 30 28 50t53 20h25q12 0 28 -10l14 -10l35 -35l7 -8q7 -7 15 -7q16 0 18 20z" />
    <glyph glyph-name="adieresis" unicode="&#xe4;" horiz-adv-x="575" 
d="M258 -10h-90q-69 0 -106.5 38.5t-27.5 91.5l44 280q9 54 57.5 92t117.5 38h300l-83 -530h-65l-10 65h-5q-15 -24 -32 -38q-45 -37 -100 -37zM189 60h80q49 0 89 42q18 20 29 43l50 315h-185q-26 0 -45.5 -17t-23.5 -43l-44 -280q-5 -26 9.5 -43t40.5 -17zM331 710
l-16 -105h-105l16 105h105zM531 710l-16 -105h-105l16 105h105z" />
    <glyph glyph-name="aring" unicode="&#xe5;" horiz-adv-x="575" 
d="M258 -10h-90q-69 0 -106.5 38.5t-27.5 91.5l44 280q9 54 57.5 92t117.5 38h300l-83 -530h-65l-10 65h-5q-15 -24 -32 -38q-45 -37 -100 -37zM189 60h80q49 0 89 42q18 20 29 43l50 315h-185q-26 0 -45.5 -17t-23.5 -43l-44 -280q-5 -26 9.5 -43t40.5 -17zM489 710l-8 -50
q-5 -34 -32.5 -57t-65.5 -23h-70q-38 0 -57.5 23t-14.5 57l8 50q6 32 33 56t64 24h70q38 0 58 -23t15 -57zM347 635h20q25 0 29 25l8 50q3 25 -21 25h-20q-24 0 -29 -25l-8 -50q-2 -11 4 -18t17 -7z" />
    <glyph glyph-name="ae" unicode="&#xe6;" horiz-adv-x="900" 
d="M869 410l-29 -185h-335l-15 -95q-4 -26 10.5 -43t40.5 -17h255l-11 -70h-265q-53 0 -87 32q-16 14 -23 33q-16 -23 -37 -38q-49 -37 -115 -37h-90q-69 0 -106.5 38.5t-27.5 91.5l8 55q9 54 58 92t118 38h195l15 95q4 26 -10.5 43t-40.5 17h-240l11 70h250q42 0 73 -25
q12 -10 20 -25q11 15 29 30q38 30 85 30h130q70 0 106.5 -38t27.5 -92zM189 60h80q12 0 23.5 2.5t21.5 7t18.5 10t15.5 13t12.5 13.5t10.5 13t8 11t5 9l3 5l15 91h-185q-26 0 -45.5 -17t-24.5 -43l-8 -55q-5 -26 9.5 -43t40.5 -17zM534 410l-18 -115h230l18 115
q5 26 -9.5 43t-40.5 17h-110q-26 0 -45.5 -17t-24.5 -43z" />
    <glyph glyph-name="ccedilla" unicode="&#xe7;" horiz-adv-x="520" 
d="M55 130l43 270q9 54 57.5 92t117.5 38h260l-5 -35l-36 -35h-220q-26 0 -45.5 -17t-23.5 -43l-43 -270q-4 -26 10.5 -43t40.5 -17h250l-11 -70h-193l-8 -45h40q42 0 64.5 -25.5t16.5 -64.5l-2 -15q-6 -39 -37 -64.5t-73 -25.5h-130l10 60h105q11 0 22 9.5t13 20.5l2 15
q2 11 -6 20.5t-19 9.5h-80l17 105h-2q-70 0 -107 38t-28 92z" />
    <glyph glyph-name="egrave" unicode="&#xe8;" horiz-adv-x="560" 
d="M354 215h-180l-14 -85q-4 -26 10.5 -43t40.5 -17h255l-11 -70h-265q-70 0 -107 38t-28 92l44 280q9 53 58 91.5t118 38.5h130q70 0 106.5 -38t27.5 -92l-10 -65q-9 -54 -57.5 -92t-117.5 -38zM424 345l10 65q5 26 -9.5 43t-40.5 17h-110q-26 0 -45.5 -17t-24.5 -43
l-19 -125h170q26 0 45.5 17t23.5 43zM231 770h120l65 -160h-95z" />
    <glyph glyph-name="eacute" unicode="&#xe9;" horiz-adv-x="560" 
d="M354 215h-180l-14 -85q-4 -26 10.5 -43t40.5 -17h255l-11 -70h-265q-70 0 -107 38t-28 92l44 280q9 53 58 91.5t118 38.5h130q70 0 106.5 -38t27.5 -92l-10 -65q-9 -54 -57.5 -92t-117.5 -38zM424 345l10 65q5 26 -9.5 43t-40.5 17h-110q-26 0 -45.5 -17t-24.5 -43
l-19 -125h170q26 0 45.5 17t23.5 43zM401 770h120l-140 -160h-95z" />
    <glyph glyph-name="ecircumflex" unicode="&#xea;" horiz-adv-x="560" 
d="M354 215h-180l-14 -85q-4 -26 10.5 -43t40.5 -17h255l-11 -70h-265q-70 0 -107 38t-28 92l44 280q9 53 58 91.5t118 38.5h130q70 0 106.5 -38t27.5 -92l-10 -65q-9 -54 -57.5 -92t-117.5 -38zM424 345l10 65q5 26 -9.5 43t-40.5 17h-110q-26 0 -45.5 -17t-24.5 -43
l-19 -125h170q26 0 45.5 17t23.5 43zM526 610h-95l-66 90l-94 -90h-95l153 150h90z" />
    <glyph glyph-name="edieresis" unicode="&#xeb;" horiz-adv-x="560" 
d="M354 215h-180l-14 -85q-4 -26 10.5 -43t40.5 -17h255l-11 -70h-265q-70 0 -107 38t-28 92l44 280q9 53 58 91.5t118 38.5h130q70 0 106.5 -38t27.5 -92l-10 -65q-9 -54 -57.5 -92t-117.5 -38zM424 345l10 65q5 26 -9.5 43t-40.5 17h-110q-26 0 -45.5 -17t-24.5 -43
l-19 -125h170q26 0 45.5 17t23.5 43zM320 720l-16 -105h-105l16 105h105zM520 720l-16 -105h-105l16 105h105z" />
    <glyph glyph-name="igrave" unicode="&#xec;" horiz-adv-x="255" 
d="M233 530l-83 -530h-105l83 530h105zM66 770h120l65 -160h-95z" />
    <glyph glyph-name="iacute" unicode="&#xed;" horiz-adv-x="255" 
d="M233 530l-83 -530h-105l83 530h105zM254 770h120l-140 -160h-95z" />
    <glyph glyph-name="icircumflex" unicode="&#xee;" horiz-adv-x="255" 
d="M233 530l-83 -530h-105l83 530h105zM369 600h-95l-66 90l-94 -90h-95l153 150h90z" />
    <glyph glyph-name="idieresis" unicode="&#xef;" horiz-adv-x="255" 
d="M233 530l-83 -530h-105l83 530h105zM161 700l-16 -105h-105l16 105h105zM361 700l-16 -105h-105l16 105h105z" />
    <glyph glyph-name="eth" unicode="&#xf0;" horiz-adv-x="600" 
d="M284 565l27 75l-112 20l28 80l112 -20l27 80l78 -15l-27 -75l24 -5q71 -15 109 -64.5t26 -125.5l-62 -395q-10 -54 -58.5 -92t-117.5 -38h-150q-69 0 -106.5 38.5t-27.5 91.5l35 225q9 54 58 92t118 38h200l6 40q8 46 -10.5 74.5t-47.5 35.5l-24 5l-27 -80zM409 120
l45 285h-190q-26 0 -45.5 -17t-24.5 -43l-35 -225q-5 -26 9.5 -43t40.5 -17h130q26 0 45.5 17t24.5 43z" />
    <glyph glyph-name="ntilde" unicode="&#xf1;" horiz-adv-x="610" 
d="M414 470h-85q-49 0 -90 -43q-19 -19 -29 -42l-60 -385h-105l83 530h65l10 -65h5q17 24 32 37q46 38 100 38h95q70 0 106.5 -38t27.5 -92l-64 -410h-105l64 410q5 26 -9.5 43t-40.5 17zM462 745h80l-12 -70q-5 -30 -28 -50t-53 -20h-25q-12 0 -28 10q-8 4 -13 10l-34 35
l-8 7q-10 8 -15 8q-14 0 -18 -17q-1 -2 -1 -3l-7 -45h-80l11 70q5 30 28 50t53 20h25q12 0 28 -10l14 -10l35 -35l7 -8q7 -7 15 -7q16 0 18 20z" />
    <glyph glyph-name="ograve" unicode="&#xf2;" 
d="M564 410l-45 -290q-10 -54 -58.5 -92t-117.5 -38h-155q-69 0 -106.5 38.5t-27.5 91.5l45 290q9 53 58 91.5t118 38.5h155q70 0 106.5 -38t27.5 -92zM204 410l-45 -290q-5 -26 9.5 -43t40.5 -17h135q26 0 45.5 17t24.5 43l45 290q5 26 -9.5 43t-40.5 17h-135
q-26 0 -45.5 -17t-24.5 -43zM243 770h120l65 -160h-95z" />
    <glyph glyph-name="oacute" unicode="&#xf3;" 
d="M564 410l-45 -290q-10 -54 -58.5 -92t-117.5 -38h-155q-69 0 -106.5 38.5t-27.5 91.5l45 290q9 53 58 91.5t118 38.5h155q70 0 106.5 -38t27.5 -92zM204 410l-45 -290q-5 -26 9.5 -43t40.5 -17h135q26 0 45.5 17t24.5 43l45 290q5 26 -9.5 43t-40.5 17h-135
q-26 0 -45.5 -17t-24.5 -43zM423 770h120l-140 -160h-95z" />
    <glyph glyph-name="ocircumflex" unicode="&#xf4;" 
d="M564 410l-45 -290q-10 -54 -58.5 -92t-117.5 -38h-155q-69 0 -106.5 38.5t-27.5 91.5l45 290q9 53 58 91.5t118 38.5h155q70 0 106.5 -38t27.5 -92zM204 410l-45 -290q-5 -26 9.5 -43t40.5 -17h135q26 0 45.5 17t24.5 43l45 290q5 26 -9.5 43t-40.5 17h-135
q-26 0 -45.5 -17t-24.5 -43zM536 600h-95l-66 90l-94 -90h-95l153 150h90z" />
    <glyph glyph-name="otilde" unicode="&#xf5;" 
d="M564 410l-45 -290q-10 -54 -58.5 -92t-117.5 -38h-155q-69 0 -106.5 38.5t-27.5 91.5l45 290q9 53 58 91.5t118 38.5h155q70 0 106.5 -38t27.5 -92zM204 410l-45 -290q-5 -26 9.5 -43t40.5 -17h135q26 0 45.5 17t24.5 43l45 290q5 26 -9.5 43t-40.5 17h-135
q-26 0 -45.5 -17t-24.5 -43zM454 745h80l-12 -70q-5 -30 -28 -50t-53 -20h-25q-12 0 -28 10q-7 4 -13 10l-34 35l-8 7q-10 8 -15 8q-14 0 -18 -17q-1 -2 -1 -3l-7 -45h-80l11 70q5 30 28 50t53 20h25q12 0 28 -10l14 -10l35 -35l7 -8q7 -7 15 -7q16 0 18 20z" />
    <glyph glyph-name="odieresis" unicode="&#xf6;" 
d="M564 410l-45 -290q-10 -54 -58.5 -92t-117.5 -38h-155q-69 0 -106.5 38.5t-27.5 91.5l45 290q9 53 58 91.5t118 38.5h155q70 0 106.5 -38t27.5 -92zM204 410l-45 -290q-5 -26 9.5 -43t40.5 -17h135q26 0 45.5 17t24.5 43l45 290q5 26 -9.5 43t-40.5 17h-135
q-26 0 -45.5 -17t-24.5 -43zM331 710l-16 -105h-105l16 105h105zM531 710l-16 -105h-105l16 105h105z" />
    <glyph glyph-name="divide" unicode="&#xf7;" horiz-adv-x="490" 
d="M67 360h410l-13 -80h-410zM295 190l-18 -110h-105l18 110h105zM353 560l-17 -110h-105l17 110h105z" />
    <glyph glyph-name="oslash" unicode="&#xf8;" 
d="M585 540l-40 -49q27 -32 19 -81l-45 -290q-10 -54 -58.5 -92t-117.5 -38h-155q-20 0 -45 5l-36 -45h-85l6 40l42 52q-24 34 -16 78l45 290q9 53 58 91.5t118 38.5h155q24 0 40 -4l36 44h85zM199 60h145q26 0 45.5 17t24.5 43l44 279l-272 -338q3 -1 13 -1zM204 410
l-43 -272l266 331q-2 1 -8 1h-145q-26 0 -45.5 -17t-24.5 -43z" />
    <glyph glyph-name="ugrave" unicode="&#xf9;" horiz-adv-x="610" 
d="M219 60h85q49 0 89 42q18 20 29 43l61 385h105l-83 -530h-65l-10 65h-5q-15 -24 -32 -38q-45 -37 -100 -37h-95q-69 0 -106.5 38.5t-27.5 91.5l64 410h105l-64 -410q-5 -26 9.5 -43t40.5 -17zM249 760h120l65 -160h-95z" />
    <glyph glyph-name="uacute" unicode="&#xfa;" horiz-adv-x="610" 
d="M219 60h85q49 0 89 42q18 20 29 43l61 385h105l-83 -530h-65l-10 65h-5q-15 -24 -32 -38q-45 -37 -100 -37h-95q-69 0 -106.5 38.5t-27.5 91.5l64 410h105l-64 -410q-5 -26 9.5 -43t40.5 -17zM426 740h120l-140 -160h-95z" />
    <glyph glyph-name="ucircumflex" unicode="&#xfb;" horiz-adv-x="610" 
d="M219 60h85q49 0 89 42q18 20 29 43l61 385h105l-83 -530h-65l-10 65h-5q-15 -24 -32 -38q-45 -37 -100 -37h-95q-69 0 -106.5 38.5t-27.5 91.5l64 410h105l-64 -410q-5 -26 9.5 -43t40.5 -17zM554 600h-95l-66 90l-94 -90h-95l153 150h90z" />
    <glyph glyph-name="udieresis" unicode="&#xfc;" horiz-adv-x="610" 
d="M219 60h85q49 0 89 42q18 20 29 43l61 385h105l-83 -530h-65l-10 65h-5q-15 -24 -32 -38q-45 -37 -100 -37h-95q-69 0 -106.5 38.5t-27.5 91.5l64 410h105l-64 -410q-5 -26 9.5 -43t40.5 -17zM348 710l-16 -105h-105l16 105h105zM548 710l-16 -105h-105l16 105h105z" />
    <glyph glyph-name="yacute" unicode="&#xfd;" horiz-adv-x="540" 
d="M561 485l-273 -525q-31 -57 -82 -93.5t-118 -36.5h-50l11 70h50q55 0 84 60l15 30l2 10l-129 485l7 45h100l87 -435h5l198 435h100zM394 760h120l-140 -160h-95z" />
    <glyph glyph-name="thorn" unicode="&#xfe;" horiz-adv-x="600" 
d="M265 700l-27 -170h195q70 0 107 -38t28 -92l-43 -270q-9 -54 -57.5 -92t-117.5 -38h-195l-27 -170h-105l137 870h105zM412 460h-185l-61 -390h185q26 0 45.5 17t23.5 43l43 270q4 26 -10.5 43t-40.5 17z" />
    <glyph glyph-name="ydieresis" unicode="&#xff;" horiz-adv-x="540" 
d="M561 485l-273 -525q-31 -57 -82 -93.5t-118 -36.5h-50l11 70h50q55 0 84 60l15 30l2 10l-129 485l7 45h100l87 -435h5l198 435h100zM313 710l-16 -105h-105l16 105h105zM513 710l-16 -105h-105l16 105h105z" />
    <glyph glyph-name="Amacron" unicode="&#x100;" horiz-adv-x="655" 
d="M490 0l-29 170h-275l-81 -170h-105l7 50l328 650h145l122 -650l-7 -50h-105zM390 600l-166 -350h225l-54 350h-5zM580 850l-11 -70h-300l11 70h300z" />
    <glyph glyph-name="amacron" unicode="&#x101;" horiz-adv-x="575" 
d="M258 -10h-90q-69 0 -106.5 38.5t-27.5 91.5l44 280q9 54 57.5 92t117.5 38h300l-83 -530h-65l-10 65h-5q-15 -24 -32 -38q-45 -37 -100 -37zM189 60h80q49 0 89 42q18 20 29 43l50 315h-185q-26 0 -45.5 -17t-23.5 -43l-44 -280q-5 -26 9.5 -43t40.5 -17zM525 691
l-11 -70h-300l11 70h300z" />
    <glyph glyph-name="Abreve" unicode="&#x102;" horiz-adv-x="655" 
d="M490 0l-29 170h-275l-81 -170h-105l7 50l328 650h145l122 -650l-7 -50h-105zM390 600l-166 -350h225l-54 350h-5zM466 760h-100q-48 0 -70 25t-15 70l7 45h85l-7 -45q-4 -30 25 -30h70q31 0 35 30l7 45h85l-7 -45q-7 -45 -37 -70t-78 -25z" />
    <glyph glyph-name="abreve" unicode="&#x103;" horiz-adv-x="575" 
d="M258 -10h-90q-69 0 -106.5 38.5t-27.5 91.5l44 280q9 54 57.5 92t117.5 38h300l-83 -530h-65l-10 65h-5q-15 -24 -32 -38q-45 -37 -100 -37zM189 60h80q49 0 89 42q18 20 29 43l50 315h-185q-26 0 -45.5 -17t-23.5 -43l-44 -280q-5 -26 9.5 -43t40.5 -17zM401 600h-100
q-48 0 -70 25t-15 70l7 45h85l-7 -45q-5 -30 25 -30h70q30 0 35 30l7 45h85l-7 -45q-7 -45 -36.5 -70t-78.5 -25z" />
    <glyph glyph-name="Aogonek" unicode="&#x104;" horiz-adv-x="655" 
d="M490 0l-29 170h-275l-81 -170h-105l7 50l328 650h145l122 -650l-11 -70q-24 -9 -51 -25q-53 -31 -59 -70q-2 -15 6.5 -25t23.5 -10h80l-10 -60h-80q-66 0 -91.5 24t-18.5 71q9 49 64 86q28 18 55 29h-20zM390 600l-166 -350h225l-54 350h-5z" />
    <glyph glyph-name="aogonek" unicode="&#x105;" horiz-adv-x="575" 
d="M258 -10h-90q-69 0 -106.5 38.5t-27.5 91.5l44 280q9 54 57.5 92t117.5 38h300l-87 -550q-24 -9 -51 -25q-53 -31 -59 -70q-2 -15 6.5 -25t23.5 -10h80l-10 -60h-80q-66 0 -91.5 24t-18.5 71q9 49 64 86q28 18 55 29h20l-10 65h-5q-15 -24 -32 -38q-45 -37 -100 -37z
M189 60h80q49 0 89 42q18 20 29 43l50 315h-185q-26 0 -45.5 -17t-23.5 -43l-44 -280q-5 -26 9.5 -43t40.5 -17z" />
    <glyph glyph-name="Cacute" unicode="&#x106;" 
d="M73 150l64 400q11 70 61 110t132 40h305l-7 -45l-35 -35h-265q-30 0 -53 -20t-28 -50l-64 -400q-5 -30 12 -50t47 -20h295l-12 -80h-305q-82 0 -120 40.5t-27 109.5zM468 930h120l-140 -160h-95z" />
    <glyph glyph-name="cacute" unicode="&#x107;" horiz-adv-x="520" 
d="M55 130l43 270q9 54 57.5 92t117.5 38h260l-5 -35l-36 -35h-220q-26 0 -45.5 -17t-23.5 -43l-43 -270q-4 -26 10.5 -43t40.5 -17h250l-11 -70h-260q-70 0 -107 38t-28 92zM406 770h120l-140 -160h-95z" />
    <glyph glyph-name="Ccircumflex" unicode="&#x108;" 
d="M73 150l64 400q11 70 61 110t132 40h305l-7 -45l-35 -35h-265q-30 0 -53 -20t-28 -50l-64 -400q-5 -30 12 -50t47 -20h295l-12 -80h-305q-82 0 -120 40.5t-27 109.5zM593 770h-95l-66 90l-94 -90h-95l153 150h90z" />
    <glyph glyph-name="ccircumflex" unicode="&#x109;" horiz-adv-x="520" 
d="M55 130l43 270q9 54 57.5 92t117.5 38h260l-5 -35l-36 -35h-220q-26 0 -45.5 -17t-23.5 -43l-43 -270q-4 -26 10.5 -43t40.5 -17h250l-11 -70h-260q-70 0 -107 38t-28 92zM521 610h-95l-66 90l-94 -90h-95l153 150h90z" />
    <glyph glyph-name="Cdotaccent" unicode="&#x10a;" 
d="M73 150l64 400q11 70 61 110t132 40h305l-7 -45l-35 -35h-265q-30 0 -53 -20t-28 -50l-64 -400q-5 -30 12 -50t47 -20h295l-12 -80h-305q-82 0 -120 40.5t-27 109.5zM486 870l-16 -105h-105l16 105h105z" />
    <glyph glyph-name="cdotaccent" unicode="&#x10b;" horiz-adv-x="520" 
d="M55 130l43 270q9 54 57.5 92t117.5 38h260l-5 -35l-36 -35h-220q-26 0 -45.5 -17t-23.5 -43l-43 -270q-4 -26 10.5 -43t40.5 -17h250l-11 -70h-260q-70 0 -107 38t-28 92zM415 720l-16 -105h-105l16 105h105z" />
    <glyph glyph-name="Ccaron" unicode="&#x10c;" 
d="M73 150l64 400q11 70 61 110t132 40h305l-7 -45l-35 -35h-265q-30 0 -53 -20t-28 -50l-64 -400q-5 -30 12 -50t47 -20h295l-12 -80h-305q-82 0 -120 40.5t-27 109.5zM531 920h95l-153 -150h-90l-107 150h95l66 -90z" />
    <glyph glyph-name="ccaron" unicode="&#x10d;" horiz-adv-x="520" 
d="M55 130l43 270q9 54 57.5 92t117.5 38h260l-5 -35l-36 -35h-220q-26 0 -45.5 -17t-23.5 -43l-43 -270q-4 -26 10.5 -43t40.5 -17h250l-11 -70h-260q-70 0 -107 38t-28 92zM447 750h95l-153 -150h-90l-107 150h95l66 -90z" />
    <glyph glyph-name="Dcaron" unicode="&#x10e;" horiz-adv-x="680" 
d="M657 550l-64 -400q-11 -70 -61 -110t-132 -40h-340l110 700h340q82 0 120 -40.5t27 -109.5zM488 620h-220l-86 -540h220q30 0 53 20t28 50l64 400q5 30 -12 50t-47 20zM524 920h95l-153 -150h-90l-107 150h95l66 -90z" />
    <glyph glyph-name="dcaron" unicode="&#x10f;" horiz-adv-x="745" 
d="M278 -10h-90q-69 0 -106.5 38.5t-27.5 91.5l44 280q9 54 57.5 92t117.5 38h195l27 170h105l-110 -700h-65l-10 65h-5q-15 -24 -32 -38q-45 -37 -100 -37zM209 60h80q49 0 89 42q18 20 29 43l50 315h-185q-26 0 -45.5 -17t-23.5 -43l-44 -280q-5 -26 9.5 -43t40.5 -17z
M782 615l-71 -135h-55l34 220h105z" />
    <glyph glyph-name="Dcroat" unicode="&#x110;" horiz-adv-x="680" 
d="M657 550l-64 -400q-11 -70 -61 -110t-132 -40h-340l50 320h-70l11 70h70l49 310h340q82 0 120 -40.5t27 -109.5zM488 620h-220l-37 -230h150l-11 -70h-150l-38 -240h220q30 0 53 20t28 50l64 400q5 30 -12 50t-47 20z" />
    <glyph glyph-name="dcroat" unicode="&#x111;" horiz-adv-x="600" 
d="M278 -10h-90q-69 0 -106.5 38.5t-27.5 91.5l31 200q9 54 58 92t118 38h195l12 80h-185l12 70h185l15 100h105l-15 -100h60l-12 -70h-60l-83 -530h-65l-10 65h-5q-15 -24 -32 -38q-45 -37 -100 -37zM209 60h80q49 0 89 42q18 20 29 43l38 235h-185q-26 0 -45.5 -17
t-24.5 -43l-31 -200q-5 -26 9.5 -43t40.5 -17z" />
    <glyph glyph-name="Emacron" unicode="&#x112;" horiz-adv-x="590" 
d="M635 700l-7 -45l-35 -35h-325l-37 -230h265l-12 -80h-265l-37 -230h355l-12 -80h-465l110 700h465zM571 870l-11 -70h-300l11 70h300z" />
    <glyph glyph-name="emacron" unicode="&#x113;" horiz-adv-x="560" 
d="M354 215h-180l-14 -85q-4 -26 10.5 -43t40.5 -17h255l-11 -70h-265q-70 0 -107 38t-28 92l44 280q9 53 58 91.5t118 38.5h130q70 0 106.5 -38t27.5 -92l-10 -65q-9 -54 -57.5 -92t-117.5 -38zM424 345l10 65q5 26 -9.5 43t-40.5 17h-110q-26 0 -45.5 -17t-24.5 -43
l-19 -125h170q26 0 45.5 17t23.5 43zM515 700l-11 -70h-300l11 70h300z" />
    <glyph glyph-name="Ebreve" unicode="&#x114;" horiz-adv-x="590" 
d="M635 700l-7 -45l-35 -35h-325l-37 -230h265l-12 -80h-265l-37 -230h355l-12 -80h-465l110 700h465zM456 770h-100q-48 0 -70 25t-15 70l7 45h85l-7 -45q-4 -30 25 -30h70q31 0 35 30l7 45h85l-7 -45q-7 -45 -37 -70t-78 -25z" />
    <glyph glyph-name="ebreve" unicode="&#x115;" horiz-adv-x="560" 
d="M354 215h-180l-14 -85q-4 -26 10.5 -43t40.5 -17h255l-11 -70h-265q-70 0 -107 38t-28 92l44 280q9 53 58 91.5t118 38.5h130q70 0 106.5 -38t27.5 -92l-10 -65q-9 -54 -57.5 -92t-117.5 -38zM424 345l10 65q5 26 -9.5 43t-40.5 17h-110q-26 0 -45.5 -17t-24.5 -43
l-19 -125h170q26 0 45.5 17t23.5 43zM399 600h-100q-48 0 -70 25t-15 70l7 45h85l-7 -45q-5 -30 25 -30h70q30 0 35 30l7 45h85l-7 -45q-7 -45 -36.5 -70t-78.5 -25z" />
    <glyph glyph-name="Edotaccent" unicode="&#x116;" horiz-adv-x="590" 
d="M635 700l-7 -45l-35 -35h-325l-37 -230h265l-12 -80h-265l-37 -230h355l-12 -80h-465l110 700h465zM475 880l-16 -105h-105l16 105h105z" />
    <glyph glyph-name="edotaccent" unicode="&#x117;" horiz-adv-x="560" 
d="M354 215h-180l-14 -85q-4 -26 10.5 -43t40.5 -17h255l-11 -70h-265q-70 0 -107 38t-28 92l44 280q9 53 58 91.5t118 38.5h130q70 0 106.5 -38t27.5 -92l-10 -65q-9 -54 -57.5 -92t-117.5 -38zM424 345l10 65q5 26 -9.5 43t-40.5 17h-110q-26 0 -45.5 -17t-24.5 -43
l-19 -125h170q26 0 45.5 17t23.5 43zM420 720l-16 -105h-105l16 105h105z" />
    <glyph glyph-name="Eogonek" unicode="&#x118;" horiz-adv-x="590" 
d="M635 700l-7 -45l-35 -35h-325l-37 -230h265l-12 -80h-265l-37 -230h355l-12 -80l-151 -1q-33 -17 -58 -35q-59 -40 -65 -79q-2 -15 6.5 -25t23.5 -10h80l-10 -60h-80q-66 0 -91.5 24t-18.5 71q9 49 64 86q28 18 55 29h-220l110 700h465z" />
    <glyph glyph-name="eogonek" unicode="&#x119;" horiz-adv-x="560" 
d="M354 215h-180l-14 -85q-4 -26 10.5 -43t40.5 -17h255l-11 -70h-120q-33 -17 -58 -35q-60 -40 -66 -80q-2 -15 6.5 -25t23.5 -10h80l-10 -60h-80q-66 0 -91.5 24t-18.5 71q9 49 64 86q28 18 55 29h-50q-70 0 -107 38t-28 92l44 280q9 53 58 91.5t118 38.5h130
q70 0 106.5 -38t27.5 -92l-10 -65q-9 -54 -57.5 -92t-117.5 -38zM424 345l10 65q5 26 -9.5 43t-40.5 17h-110q-26 0 -45.5 -17t-24.5 -43l-19 -125h170q26 0 45.5 17t23.5 43z" />
    <glyph glyph-name="Ecaron" unicode="&#x11a;" horiz-adv-x="590" 
d="M635 700l-7 -45l-35 -35h-325l-37 -230h265l-12 -80h-265l-37 -230h355l-12 -80h-465l110 700h465zM509 920h95l-153 -150h-90l-107 150h95l66 -90z" />
    <glyph glyph-name="ecaron" unicode="&#x11b;" horiz-adv-x="560" 
d="M354 215h-180l-14 -85q-4 -26 10.5 -43t40.5 -17h255l-11 -70h-265q-70 0 -107 38t-28 92l44 280q9 53 58 91.5t118 38.5h130q70 0 106.5 -38t27.5 -92l-10 -65q-9 -54 -57.5 -92t-117.5 -38zM424 345l10 65q5 26 -9.5 43t-40.5 17h-110q-26 0 -45.5 -17t-24.5 -43
l-19 -125h170q26 0 45.5 17t23.5 43zM452 750h95l-153 -150h-90l-107 150h95l66 -90z" />
    <glyph glyph-name="Gcircumflex" unicode="&#x11c;" horiz-adv-x="675" 
d="M499 310h-150l12 80h260l-61 -390h-340q-82 0 -120 40.5t-27 109.5l64 400q11 70 61 110t132 40h305l-7 -45l-35 -35h-265q-30 0 -53 -20t-28 -50l-64 -400q-5 -30 12 -50t47 -20h220zM592 760h-95l-66 90l-94 -90h-95l153 150h90z" />
    <glyph glyph-name="gcircumflex" unicode="&#x11d;" 
d="M573 530l-90 -570q-9 -54 -57.5 -92t-117.5 -38h-260l11 70h250q26 0 45.5 17t23.5 43l10 60h-195q-70 0 -107 38t-28 92l40 250q9 54 57.5 92t117.5 38h300zM214 90h185l58 370h-185q-26 0 -45.5 -17t-23.5 -43l-40 -250q-4 -26 10.5 -43t40.5 -17zM541 630h-95l-66 90
l-94 -90h-95l153 150h90z" />
    <glyph glyph-name="Gbreve" unicode="&#x11e;" horiz-adv-x="675" 
d="M499 310h-150l12 80h260l-61 -390h-340q-82 0 -120 40.5t-27 109.5l64 400q11 70 61 110t132 40h305l-7 -45l-35 -35h-265q-30 0 -53 -20t-28 -50l-64 -400q-5 -30 12 -50t47 -20h220zM468 770h-100q-48 0 -70 25t-15 70l7 45h85l-7 -45q-4 -30 25 -30h70q31 0 35 30
l7 45h85l-7 -45q-7 -45 -37 -70t-78 -25z" />
    <glyph glyph-name="gbreve" unicode="&#x11f;" 
d="M573 530l-90 -570q-9 -54 -57.5 -92t-117.5 -38h-260l11 70h250q26 0 45.5 17t23.5 43l10 60h-195q-70 0 -107 38t-28 92l40 250q9 54 57.5 92t117.5 38h300zM214 90h185l58 370h-185q-26 0 -45.5 -17t-23.5 -43l-40 -250q-4 -26 10.5 -43t40.5 -17zM414 620h-100
q-48 0 -70 25t-15 70l7 45h85l-7 -45q-4 -30 25 -30h70q31 0 35 30l7 45h85l-7 -45q-7 -45 -37 -70t-78 -25z" />
    <glyph glyph-name="Gdotaccent" unicode="&#x120;" horiz-adv-x="675" 
d="M499 310h-150l12 80h260l-61 -390h-340q-82 0 -120 40.5t-27 109.5l64 400q11 70 61 110t132 40h305l-7 -45l-35 -35h-265q-30 0 -53 -20t-28 -50l-64 -400q-5 -30 12 -50t47 -20h220zM498 880l-16 -105h-105l16 105h105z" />
    <glyph glyph-name="gdotaccent" unicode="&#x121;" 
d="M573 530l-90 -570q-9 -54 -57.5 -92t-117.5 -38h-260l11 70h250q26 0 45.5 17t23.5 43l10 60h-195q-70 0 -107 38t-28 92l40 250q9 54 57.5 92t117.5 38h300zM214 90h185l58 370h-185q-26 0 -45.5 -17t-23.5 -43l-40 -250q-4 -26 10.5 -43t40.5 -17zM433 720l-16 -105
h-105l16 105h105z" />
    <glyph glyph-name="Gcommaaccent" unicode="&#x122;" horiz-adv-x="675" 
d="M499 310h-150l12 80h260l-61 -390h-340q-82 0 -120 40.5t-27 109.5l64 400q11 70 61 110t132 40h305l-7 -45l-35 -35h-265q-30 0 -53 -20t-28 -50l-64 -400q-5 -30 12 -50t47 -20h220zM341 -144l-57 -110h-55l31 195h95z" />
    <glyph glyph-name="gcommaaccent" unicode="&#x123;" 
d="M573 530l-90 -570q-9 -54 -57.5 -92t-117.5 -38h-260l11 70h250q26 0 45.5 17t23.5 43l10 60h-195q-70 0 -107 38t-28 92l40 250q9 54 57.5 92t117.5 38h300zM214 90h185l58 370h-185q-26 0 -45.5 -17t-23.5 -43l-40 -250q-4 -26 10.5 -43t40.5 -17zM395 695l57 110h55
l-31 -195h-95z" />
    <glyph glyph-name="Hcircumflex" unicode="&#x124;" horiz-adv-x="690" 
d="M170 0h-110l110 700h110l-49 -310h290l49 310h110l-110 -700h-110l49 310h-290zM611 770h-95l-66 90l-94 -90h-95l153 150h90z" />
    <glyph glyph-name="hcircumflex" unicode="&#x125;" horiz-adv-x="610" 
d="M412 460h-185l-72 -460h-105l110 700h105l-27 -170h195q70 0 107 -38t28 -92l-63 -400h-105l63 400q4 26 -10.5 43t-40.5 17zM400 750h-95l-66 90l-94 -90h-95l153 150h90z" />
    <glyph glyph-name="Hbar" unicode="&#x126;" horiz-adv-x="690" 
d="M170 0h-110l77 490h-60l11 70h60l22 140h110l-22 -140h290l22 140h110l-22 -140h60l-11 -70h-60l-77 -490h-110l47 300h-290zM230 380h290l17 110h-290z" />
    <glyph glyph-name="hbar" unicode="&#x127;" horiz-adv-x="615" 
d="M413 590l-11 -70h-150l-14 -90h195q69 0 106 -38t28 -92l-47 -300h-105l47 300q5 26 -9.5 43t-40.5 17h-185l-57 -360h-105l82 520h-85l11 70h85l72 110h50l-17 -110h150z" />
    <glyph glyph-name="Itilde" unicode="&#x128;" horiz-adv-x="290" 
d="M170 0h-110l110 700h110zM330 905h80l-12 -70q-5 -30 -28 -50t-53 -20h-25q-12 0 -28 10q-7 5 -13 10l-34 35l-8 7q-10 8 -15 8q-13 0 -17 -14q-1 -1 -1 -3l-1 -3l-7 -45h-80l11 70q5 30 28 50t53 20h25q12 0 28 -10l14 -10l35 -35l7 -8q7 -7 15 -7q16 0 18 20z" />
    <glyph glyph-name="itilde" unicode="&#x129;" horiz-adv-x="260" 
d="M235 530l-83 -530h-105l83 530h105zM288 735h80l-12 -70q-5 -30 -28 -50t-53 -20h-25q-12 0 -28 10q-8 5 -13 10l-34 35l-8 7q-10 8 -15 8q-13 0 -17 -14q-1 -1 -1 -3l-1 -3l-7 -45h-80l11 70q5 30 28 50t53 20h25q12 0 28 -10l14 -10l35 -35l7 -8q7 -7 15 -7q16 0 18 20
z" />
    <glyph glyph-name="Imacron" unicode="&#x12a;" horiz-adv-x="290" 
d="M170 0h-110l110 700h110zM402 860l-11 -70h-300l11 70h300z" />
    <glyph glyph-name="imacron" unicode="&#x12b;" horiz-adv-x="260" 
d="M235 530l-83 -530h-105l83 530h105zM360 691l-11 -70h-300l11 70h300z" />
    <glyph glyph-name="Ibreve" unicode="&#x12c;" horiz-adv-x="290" 
d="M170 0h-110l110 700h110zM288 770h-100q-48 0 -70 25t-15 70l7 45h85l-7 -45q-4 -30 25 -30h70q31 0 35 30l7 45h85l-7 -45q-7 -45 -37 -70t-78 -25z" />
    <glyph glyph-name="ibreve" unicode="&#x12d;" horiz-adv-x="260" 
d="M235 530l-83 -530h-105l83 530h105zM246 600h-100q-48 0 -70 25t-15 70l7 45h85l-7 -45q-4 -30 25 -30h70q31 0 35 30l7 45h85l-7 -45q-7 -45 -37 -70t-78 -25z" />
    <glyph glyph-name="Iogonek" unicode="&#x12e;" horiz-adv-x="290" 
d="M85 0h-25l110 700h110l-114 -720q-24 -9 -51 -25q-53 -31 -59 -70q-2 -15 6.5 -25t23.5 -10h80l-10 -60h-80q-66 0 -91 24t-18 71q6 48 63 86q28 18 55 29z" />
    <glyph glyph-name="iogonek" unicode="&#x12f;" horiz-adv-x="255" 
d="M233 530l-87 -550q-24 -9 -51 -25q-53 -31 -59 -70q-2 -15 6.5 -25t23.5 -10h80l-10 -60h-80q-65 0 -90.5 24t-18.5 71q9 50 63 86q28 18 55 29h-20l83 530h105zM262 710l-17 -105h-105l17 105h105z" />
    <glyph glyph-name="Idotaccent" unicode="&#x130;" horiz-adv-x="290" 
d="M170 0h-110l110 700h110zM303 870l-16 -105h-105l16 105h105z" />
    <glyph glyph-name="dotlessi" unicode="&#x131;" horiz-adv-x="255" 
d="M233 530l-83 -530h-105l83 530h105z" />
    <glyph glyph-name="IJ" unicode="&#x132;" horiz-adv-x="815" 
d="M170 0h-110l110 700h110zM281 70h245q30 0 53 20t28 50l88 560h110l-88 -560q-11 -70 -61.5 -110t-132.5 -40h-255z" />
    <glyph glyph-name="ij" unicode="&#x133;" horiz-adv-x="525" 
d="M233 530l-83 -530h-105l83 530h105zM262 710l-17 -105h-105l17 105h105zM238 -170h-114l11 70h104q26 0 45.5 17t23.5 43l90 570h105l-90 -570q-9 -54 -57.5 -92t-117.5 -38zM532 710l-17 -105h-105l17 105h105z" />
    <glyph glyph-name="Jcircumflex" unicode="&#x134;" horiz-adv-x="525" 
d="M-9 70h245q30 0 53 20t28 50l88 560h110l-88 -560q-11 -70 -61.5 -110t-132.5 -40h-255zM647 760h-95l-66 90l-94 -90h-95l153 150h90z" />
    <glyph glyph-name="jcircumflex" unicode="&#x135;" horiz-adv-x="270" 
d="M-17 -170h-114l11 70h104q26 0 45.5 17t23.5 43l90 570h105l-90 -570q-9 -54 -57.5 -92t-117.5 -38zM375 600h-95l-66 90l-94 -90h-95l153 150h90z" />
    <glyph glyph-name="Kcommaaccent" unicode="&#x136;" horiz-adv-x="655" 
d="M170 0h-110l110 700h110l-48 -305h135l203 305h105l-8 -50l-216 -295l141 -305l-7 -50h-105l-126 315h-135zM337 -105l-57 -110h-55l31 195h95z" />
    <glyph glyph-name="kcommaaccent" unicode="&#x137;" horiz-adv-x="575" 
d="M265 700l-63 -400h120l151 230h100l-7 -45l-165 -220l111 -220l-7 -45h-100l-94 230h-120l-36 -230h-105l110 700h105zM296 -115l-57 -110h-55l31 195h95z" />
    <glyph glyph-name="Lacute" unicode="&#x139;" horiz-adv-x="555" 
d="M182 80h345l-12 -80h-455l110 700h110zM308 930h120l-140 -160h-95z" />
    <glyph glyph-name="lacute" unicode="&#x13a;" horiz-adv-x="305" 
d="M243 -10h-40q-69 0 -106.5 38.5t-27.5 91.5l91 580h105l-91 -580q-5 -26 9.5 -43t40.5 -17h30zM283 930h120l-140 -160h-95z" />
    <glyph glyph-name="Lcommaaccent" unicode="&#x13b;" horiz-adv-x="555" 
d="M182 80h345l-12 -80h-455l110 700h110zM321 -144l-57 -110h-55l31 195h95z" />
    <glyph glyph-name="lcommaaccent" unicode="&#x13c;" horiz-adv-x="305" 
d="M243 -10h-40q-69 0 -106.5 38.5t-27.5 91.5l91 580h105l-91 -580q-5 -26 9.5 -43t40.5 -17h30zM164 -154l-57 -110h-55l31 195h95z" />
    <glyph glyph-name="Lcaron" unicode="&#x13d;" horiz-adv-x="555" 
d="M182 80h345l-12 -80h-455l110 700h110zM462 615l-71 -135h-55l34 220h105z" />
    <glyph glyph-name="lcaron" unicode="&#x13e;" horiz-adv-x="415" 
d="M243 -10h-40q-69 0 -106.5 38.5t-27.5 91.5l91 580h105l-91 -580q-5 -26 9.5 -43t40.5 -17h30zM447 615l-71 -135h-55l34 220h105z" />
    <glyph glyph-name="Ldot" unicode="&#x13f;" horiz-adv-x="555" 
d="M182 80h345l-12 -80h-455l110 700h110zM445 450l-19 -120h-105l19 120h105z" />
    <glyph glyph-name="ldot" unicode="&#x140;" horiz-adv-x="420" 
d="M243 -10h-40q-69 0 -106.5 38.5t-27.5 91.5l91 580h105l-91 -580q-5 -26 9.5 -43t40.5 -17h30zM420 420l-19 -120h-105l19 120h105z" />
    <glyph glyph-name="Lslash" unicode="&#x141;" horiz-adv-x="555" 
d="M43 340l76 37l51 323h110l-41 -264l108 54l-15 -95l-108 -54l-42 -261h345l-12 -80h-455l44 282l-76 -37z" />
    <glyph glyph-name="lslash" unicode="&#x142;" horiz-adv-x="305" 
d="M43 340l66 33l51 327h105l-42 -268l93 48l-16 -95l-92 -48l-34 -217q-5 -26 9.5 -43t40.5 -17h30l-11 -70h-40q-69 0 -106.5 38.5t-27.5 91.5l25 158l-66 -33z" />
    <glyph glyph-name="Nacute" unicode="&#x143;" horiz-adv-x="690" 
d="M170 700h120l205 -540h5l12 170l58 370h110l-110 -700h-120l-205 540h-5l-12 -170l-58 -370h-110zM486 930h120l-140 -160h-95z" />
    <glyph glyph-name="nacute" unicode="&#x144;" horiz-adv-x="610" 
d="M414 470h-85q-49 0 -90 -43q-19 -19 -29 -42l-60 -385h-105l83 530h65l10 -65h5q17 24 32 37q46 38 100 38h95q70 0 106.5 -38t27.5 -92l-64 -410h-105l64 410q5 26 -9.5 43t-40.5 17zM441 770h120l-140 -160h-95z" />
    <glyph glyph-name="Ncommaaccent" unicode="&#x145;" horiz-adv-x="690" 
d="M170 700h120l205 -540h5l12 170l58 370h110l-110 -700h-120l-205 540h-5l-12 -170l-58 -370h-110zM343 -115l-57 -110h-55l31 195h95z" />
    <glyph glyph-name="ncommaaccent" unicode="&#x146;" horiz-adv-x="610" 
d="M414 470h-85q-49 0 -90 -43q-19 -19 -29 -42l-60 -385h-105l83 530h65l10 -65h5q17 24 32 37q46 38 100 38h95q70 0 106.5 -38t27.5 -92l-64 -410h-105l64 410q5 26 -9.5 43t-40.5 17zM303 -115l-57 -110h-55l31 195h95z" />
    <glyph glyph-name="Ncaron" unicode="&#x147;" horiz-adv-x="690" 
d="M170 700h120l205 -540h5l12 170l58 370h110l-110 -700h-120l-205 540h-5l-12 -170l-58 -370h-110zM526 900h95l-153 -150h-90l-107 150h95l66 -90z" />
    <glyph glyph-name="ncaron" unicode="&#x148;" horiz-adv-x="610" 
d="M414 470h-85q-49 0 -90 -43q-19 -19 -29 -42l-60 -385h-105l83 530h65l10 -65h5q17 24 32 37q46 38 100 38h95q70 0 106.5 -38t27.5 -92l-64 -410h-105l64 410q5 26 -9.5 43t-40.5 17zM484 760h95l-153 -150h-90l-107 150h95l66 -90z" />
    <glyph glyph-name="Omacron" unicode="&#x14c;" horiz-adv-x="680" 
d="M248 560l-66 -420q-5 -30 12 -50t47 -20h160q30 0 53 20t28 50l66 420q5 30 -12 50t-47 20h-160q-30 0 -53 -20t-28 -50zM72 140l66 420q11 70 61.5 110t132.5 40h180q82 0 119.5 -40.5t26.5 -109.5l-66 -420q-11 -70 -61.5 -110t-132.5 -40h-180q-82 0 -119.5 40.5
t-26.5 109.5zM595 860l-11 -70h-300l11 70h300z" />
    <glyph glyph-name="omacron" unicode="&#x14d;" 
d="M564 410l-45 -290q-10 -54 -58.5 -92t-117.5 -38h-155q-69 0 -106.5 38.5t-27.5 91.5l45 290q9 53 58 91.5t118 38.5h155q70 0 106.5 -38t27.5 -92zM204 410l-45 -290q-5 -26 9.5 -43t40.5 -17h135q26 0 45.5 17t24.5 43l45 290q5 26 -9.5 43t-40.5 17h-135
q-26 0 -45.5 -17t-24.5 -43zM527 700l-11 -70h-300l11 70h300z" />
    <glyph glyph-name="Obreve" unicode="&#x14e;" horiz-adv-x="680" 
d="M248 560l-66 -420q-5 -30 12 -50t47 -20h160q30 0 53 20t28 50l66 420q5 30 -12 50t-47 20h-160q-30 0 -53 -20t-28 -50zM72 140l66 420q11 70 61.5 110t132.5 40h180q82 0 119.5 -40.5t26.5 -109.5l-66 -420q-11 -70 -61.5 -110t-132.5 -40h-180q-82 0 -119.5 40.5
t-26.5 109.5zM481 770h-100q-48 0 -70 25t-15 70l7 45h85l-7 -45q-5 -30 25 -30h70q30 0 35 30l7 45h85l-7 -45q-7 -45 -36.5 -70t-78.5 -25z" />
    <glyph glyph-name="obreve" unicode="&#x14f;" 
d="M564 410l-45 -290q-10 -54 -58.5 -92t-117.5 -38h-155q-69 0 -106.5 38.5t-27.5 91.5l45 290q9 53 58 91.5t118 38.5h155q70 0 106.5 -38t27.5 -92zM204 410l-45 -290q-5 -26 9.5 -43t40.5 -17h135q26 0 45.5 17t24.5 43l45 290q5 26 -9.5 43t-40.5 17h-135
q-26 0 -45.5 -17t-24.5 -43zM412 610h-100q-48 0 -70 25t-15 70l7 45h85l-7 -45q-4 -30 25 -30h70q31 0 35 30l7 45h85l-7 -45q-7 -45 -37 -70t-78 -25z" />
    <glyph glyph-name="Ohungarumlaut" unicode="&#x150;" horiz-adv-x="680" 
d="M248 560l-66 -420q-5 -30 12 -50t47 -20h160q30 0 53 20t28 50l66 420q5 30 -12 50t-47 20h-160q-30 0 -53 -20t-28 -50zM72 140l66 420q11 70 61.5 110t132.5 40h180q82 0 119.5 -40.5t26.5 -109.5l-66 -420q-11 -70 -61.5 -110t-132.5 -40h-180q-82 0 -119.5 40.5
t-26.5 109.5zM398 930h105l-130 -160h-90zM578 930h105l-130 -160h-90z" />
    <glyph glyph-name="ohungarumlaut" unicode="&#x151;" 
d="M564 410l-45 -290q-10 -54 -58.5 -92t-117.5 -38h-155q-69 0 -106.5 38.5t-27.5 91.5l45 290q9 53 58 91.5t118 38.5h155q70 0 106.5 -38t27.5 -92zM204 410l-45 -290q-5 -26 9.5 -43t40.5 -17h135q26 0 45.5 17t24.5 43l45 290q5 26 -9.5 43t-40.5 17h-135
q-26 0 -45.5 -17t-24.5 -43zM331 770h105l-130 -160h-90zM511 770h105l-130 -160h-90z" />
    <glyph glyph-name="OE" unicode="&#x152;" horiz-adv-x="960" 
d="M1005 700l-7 -45l-35 -35h-315l-37 -230h255l-12 -80h-255l-37 -230h345l-12 -80h-455l110 700h455zM73 150l64 400q11 70 61 110t132 40h220l-12 -80h-210q-30 0 -53 -20t-28 -50l-64 -400q-5 -30 12 -50t47 -20h210l-12 -80h-220q-82 0 -120 40.5t-27 109.5z" />
    <glyph glyph-name="oe" unicode="&#x153;" horiz-adv-x="930" 
d="M899 410l-29 -185h-335l-16 -105q-3 -19 12 -34.5t40 -15.5h255l-11 -70h-255q-48 0 -77 25q-13 10 -21 25q-13 -17 -31 -30q-46 -30 -103 -30h-140q-69 0 -106.5 38.5t-27.5 91.5l45 290q9 53 58 91.5t118 38.5h140q55 0 90 -25q13 -9 22 -25q12 15 29 25q40 25 89 25
h120q70 0 106.5 -38t27.5 -92zM204 410l-45 -290q-5 -26 9.5 -43t40.5 -17h130q26 0 48 18.5t27 41.5l45 290q5 27 -9 43.5t-41 16.5h-135q-26 0 -45.5 -17t-24.5 -43zM564 410l-18 -115h230l18 115q5 26 -9.5 43t-40.5 17h-110q-26 0 -45.5 -17t-24.5 -43z" />
    <glyph glyph-name="Racute" unicode="&#x154;" horiz-adv-x="665" 
d="M170 0h-110l110 700h330q82 0 120 -40.5t27 -109.5l-21 -130q-14 -77 -88 -115q-31 -17 -74 -25l128 -230l-7 -50h-105l-128 270h-140zM268 620l-43 -270h210q30 0 53 20t28 50l21 130q5 30 -12 50t-47 20h-210zM463 930h120l-140 -160h-95z" />
    <glyph glyph-name="racute" unicode="&#x155;" horiz-adv-x="435" 
d="M203 465h5q17 24 32 37q46 38 100 38h130l-13 -80h-130q-47 0 -87 -38q-17 -15 -30 -37l-60 -385h-105l83 530h65zM363 770h120l-140 -160h-95z" />
    <glyph glyph-name="Rcommaaccent" unicode="&#x156;" horiz-adv-x="665" 
d="M170 0h-110l110 700h330q82 0 120 -40.5t27 -109.5l-21 -130q-14 -77 -88 -115q-31 -17 -74 -25l128 -230l-7 -50h-105l-128 270h-140zM268 620l-43 -270h210q30 0 53 20t28 50l21 130q5 30 -12 50t-47 20h-210zM331 -115l-57 -110h-55l31 195h95z" />
    <glyph glyph-name="rcommaaccent" unicode="&#x157;" horiz-adv-x="435" 
d="M203 465h5q17 24 32 37q46 38 100 38h130l-13 -80h-130q-47 0 -87 -38q-17 -15 -30 -37l-60 -385h-105l83 530h65zM119 -154l-57 -110h-55l31 195h95z" />
    <glyph glyph-name="Rcaron" unicode="&#x158;" horiz-adv-x="665" 
d="M170 0h-110l110 700h330q82 0 120 -40.5t27 -109.5l-21 -130q-14 -77 -88 -115q-31 -17 -74 -25l128 -230l-7 -50h-105l-128 270h-140zM268 620l-43 -270h210q30 0 53 20t28 50l21 130q5 30 -12 50t-47 20h-210zM506 920h95l-153 -150h-90l-107 150h95l66 -90z" />
    <glyph glyph-name="rcaron" unicode="&#x159;" horiz-adv-x="435" 
d="M203 465h5q17 24 32 37q46 38 100 38h130l-13 -80h-130q-47 0 -87 -38q-17 -15 -30 -37l-60 -385h-105l83 530h65zM406 760h95l-153 -150h-90l-107 150h95l66 -90z" />
    <glyph glyph-name="Sacute" unicode="&#x15a;" horiz-adv-x="590" 
d="M385 290l-182 45q-125 31 -106 155l10 60q11 70 61 110t132 40h290l-7 -45l-35 -35h-250q-30 0 -53 -20t-28 -50l-10 -60q-4 -26 9.5 -45t39.5 -25l183 -45q60 -15 88 -54t17 -101l-11 -70q-11 -70 -61 -110t-132 -40h-320l12 80h310q30 0 53 20t28 50l11 70
q5 26 -8.5 45t-40.5 25zM426 930h120l-140 -160h-95z" />
    <glyph glyph-name="sacute" unicode="&#x15b;" horiz-adv-x="530" 
d="M183 400l-6 -35q-6 -37 38 -45l175 -30q49 -7 74 -40t17 -85l-6 -35q-9 -54 -57.5 -92t-117.5 -38h-285l11 70h275q26 0 45.5 17t23.5 43l6 35q6 37 -38 45l-175 30q-49 7 -74 40t-17 85l6 35q9 54 57.5 92t117.5 38h260l-5 -35l-36 -35h-220q-26 0 -45.5 -17t-23.5 -43z
M381 770h120l-140 -160h-95z" />
    <glyph glyph-name="Scircumflex" unicode="&#x15c;" horiz-adv-x="590" 
d="M385 290l-182 45q-125 31 -106 155l10 60q11 70 61 110t132 40h290l-7 -45l-35 -35h-250q-30 0 -53 -20t-28 -50l-10 -60q-4 -26 9.5 -45t39.5 -25l183 -45q60 -15 88 -54t17 -101l-11 -70q-11 -70 -61 -110t-132 -40h-320l12 80h310q30 0 53 20t28 50l11 70
q5 26 -8.5 45t-40.5 25zM561 770h-95l-66 90l-94 -90h-95l153 150h90z" />
    <glyph glyph-name="scircumflex" unicode="&#x15d;" horiz-adv-x="530" 
d="M183 400l-6 -35q-6 -37 38 -45l175 -30q49 -7 74 -40t17 -85l-6 -35q-9 -54 -57.5 -92t-117.5 -38h-285l11 70h275q26 0 45.5 17t23.5 43l6 35q6 37 -38 45l-175 30q-49 7 -74 40t-17 85l6 35q9 54 57.5 92t117.5 38h260l-5 -35l-36 -35h-220q-26 0 -45.5 -17t-23.5 -43z
M506 610h-95l-66 90l-94 -90h-95l153 150h90z" />
    <glyph glyph-name="Scedilla" unicode="&#x15e;" horiz-adv-x="590" 
d="M385 290l-182 45q-125 31 -106 155l10 60q11 70 61 110t132 40h290l-7 -45l-35 -35h-250q-30 0 -53 -20t-28 -50l-10 -60q-4 -26 9.5 -45t39.5 -25l183 -45q60 -15 88 -54t17 -101l-11 -70q-11 -70 -61 -110t-132 -40h-78l-8 -45h40q42 0 64.5 -25.5t16.5 -64.5l-2 -15
q-6 -39 -37 -64.5t-73 -25.5h-130l10 60h105q11 0 22 9.5t13 20.5l2 15q2 11 -6 20.5t-19 9.5h-80l17 105h-177l12 80h310q30 0 53 20t28 50l11 70q5 26 -8.5 45t-40.5 25z" />
    <glyph glyph-name="scedilla" unicode="&#x15f;" horiz-adv-x="530" 
d="M183 400l-6 -35q-6 -37 38 -45l175 -30q49 -7 74 -40t17 -85l-6 -35q-9 -54 -57.5 -92t-117.5 -38h-78l-8 -45h40q42 0 64.5 -25.5t16.5 -64.5l-2 -15q-6 -39 -37 -64.5t-73 -25.5h-130l10 60h105q11 0 22 9.5t13 20.5l2 15q2 11 -6 20.5t-19 9.5h-80l17 105h-142l11 70
h275q26 0 45.5 17t23.5 43l6 35q6 37 -38 45l-175 30q-49 7 -74 40t-17 85l6 35q9 54 57.5 92t117.5 38h260l-5 -35l-36 -35h-220q-26 0 -45.5 -17t-23.5 -43z" />
    <glyph glyph-name="Scaron" unicode="&#x160;" horiz-adv-x="590" 
d="M385 290l-182 45q-125 31 -106 155l10 60q11 70 61 110t132 40h290l-7 -45l-35 -35h-250q-30 0 -53 -20t-28 -50l-10 -60q-4 -26 9.5 -45t39.5 -25l183 -45q60 -15 88 -54t17 -101l-11 -70q-11 -70 -61 -110t-132 -40h-320l12 80h310q30 0 53 20t28 50l11 70
q5 26 -8.5 45t-40.5 25zM478 910h95l-153 -150h-90l-107 150h95l66 -90z" />
    <glyph glyph-name="scaron" unicode="&#x161;" horiz-adv-x="530" 
d="M183 400l-6 -35q-6 -37 38 -45l175 -30q49 -7 74 -40t17 -85l-6 -35q-9 -54 -57.5 -92t-117.5 -38h-285l11 70h275q26 0 45.5 17t23.5 43l6 35q6 37 -38 45l-175 30q-49 7 -74 40t-17 85l6 35q9 54 57.5 92t117.5 38h260l-5 -35l-36 -35h-220q-26 0 -45.5 -17t-23.5 -43z
M424 760h95l-153 -150h-90l-107 150h95l66 -90z" />
    <glyph glyph-name="Tcommaaccent" unicode="&#x162;" horiz-adv-x="560" 
d="M83 620l12 80h530l-7 -45l-35 -35h-180l-98 -620h-110l98 620h-210zM270 -164l-57 -110h-55l31 195h95z" />
    <glyph glyph-name="tcommaaccent" unicode="&#x163;" horiz-adv-x="440" 
d="M413 530l-11 -70h-150l-53 -340q-5 -26 9.5 -43t40.5 -17h155l-11 -70h-165q-69 0 -106.5 38.5t-27.5 91.5l53 340h-85l11 70h85l78 140h50l-23 -140h150zM241 -154l-57 -110h-55l31 195h95z" />
    <glyph glyph-name="Tcaron" unicode="&#x164;" horiz-adv-x="560" 
d="M83 620l12 80h530l-7 -45l-35 -35h-180l-98 -620h-110l98 620h-210zM473 910h95l-153 -150h-90l-107 150h95l66 -90z" />
    <glyph glyph-name="tcaron" unicode="&#x165;" horiz-adv-x="550" 
d="M413 530l-11 -70h-150l-53 -340q-5 -26 9.5 -43t40.5 -17h155l-11 -70h-165q-69 0 -106.5 38.5t-27.5 91.5l53 340h-85l11 70h85l78 140h50l-23 -140h150zM587 586l-71 -135h-55l34 220h105z" />
    <glyph glyph-name="Tbar" unicode="&#x166;" horiz-adv-x="560" 
d="M83 620l12 80h530l-7 -45l-35 -35h-180l-21 -130h200l-11 -70h-200l-66 -420h-110l66 420h-200l11 70h200l21 130h-210z" />
    <glyph glyph-name="tbar" unicode="&#x167;" horiz-adv-x="440" 
d="M413 530l-11 -70h-150l-12 -80h140l-11 -70h-140l-30 -190q-5 -26 9.5 -43t40.5 -17h155l-11 -70h-165q-69 0 -106.5 38.5t-27.5 91.5l30 190h-85l11 70h85l12 80h-85l11 70h85l78 140h50l-23 -140h150z" />
    <glyph glyph-name="Utilde" unicode="&#x168;" horiz-adv-x="710" 
d="M502 140l88 560h110l-88 -560q-11 -70 -61.5 -110t-132.5 -40h-190q-82 0 -119.5 40.5t-26.5 109.5l88 560h110l-88 -560q-5 -30 12 -50t47 -20h170q30 0 53 20t28 50zM536 895h80l-12 -70q-5 -30 -28 -50t-53 -20h-25q-12 0 -28 10q-8 4 -13 10l-34 35l-8 7q-10 8 -15 8
q-14 0 -18 -17q-1 -2 -1 -3l-7 -45h-80l11 70q5 30 28 50t53 20h25q12 0 28 -10l14 -10l35 -35l7 -8q7 -7 15 -7q16 0 18 20z" />
    <glyph glyph-name="utilde" unicode="&#x169;" horiz-adv-x="610" 
d="M219 60h85q49 0 89 42q18 20 29 43l61 385h105l-83 -530h-65l-10 65h-5q-15 -24 -32 -38q-45 -37 -100 -37h-95q-69 0 -106.5 38.5t-27.5 91.5l64 410h105l-64 -410q-5 -26 9.5 -43t40.5 -17zM462 745h80l-12 -70q-5 -30 -28 -50t-53 -20h-25q-12 0 -28 10q-8 4 -13 10
l-34 35l-8 7q-10 8 -15 8q-14 0 -18 -17q-1 -2 -1 -3l-7 -45h-80l11 70q5 30 28 50t53 20h25q12 0 28 -10l14 -10l35 -35l7 -8q7 -7 15 -7q16 0 18 20z" />
    <glyph glyph-name="Umacron" unicode="&#x16a;" horiz-adv-x="710" 
d="M502 140l88 560h110l-88 -560q-11 -70 -61.5 -110t-132.5 -40h-190q-82 0 -119.5 40.5t-26.5 109.5l88 560h110l-88 -560q-5 -30 12 -50t47 -20h170q30 0 53 20t28 50zM608 850l-11 -70h-300l11 70h300z" />
    <glyph glyph-name="umacron" unicode="&#x16b;" horiz-adv-x="610" 
d="M219 60h85q49 0 89 42q18 20 29 43l61 385h105l-83 -530h-65l-10 65h-5q-15 -24 -32 -38q-45 -37 -100 -37h-95q-69 0 -106.5 38.5t-27.5 91.5l64 410h105l-64 -410q-5 -26 9.5 -43t40.5 -17zM545 700l-11 -70h-300l11 70h300z" />
    <glyph glyph-name="Ubreve" unicode="&#x16c;" horiz-adv-x="710" 
d="M502 140l88 560h110l-88 -560q-11 -70 -61.5 -110t-132.5 -40h-190q-82 0 -119.5 40.5t-26.5 109.5l88 560h110l-88 -560q-5 -30 12 -50t47 -20h170q30 0 53 20t28 50zM483 750h-100q-48 0 -70 25t-15 70l7 45h85l-7 -45q-5 -30 25 -30h70q30 0 35 30l7 45h85l-7 -45
q-7 -45 -36.5 -70t-78.5 -25z" />
    <glyph glyph-name="ubreve" unicode="&#x16d;" horiz-adv-x="610" 
d="M219 60h85q49 0 89 42q18 20 29 43l61 385h105l-83 -530h-65l-10 65h-5q-15 -24 -32 -38q-45 -37 -100 -37h-95q-69 0 -106.5 38.5t-27.5 91.5l64 410h105l-64 -410q-5 -26 9.5 -43t40.5 -17zM427 590h-100q-48 0 -70 25t-15 70l7 45h85l-7 -45q-5 -30 25 -30h70
q30 0 35 30l7 45h85l-7 -45q-7 -45 -36.5 -70t-78.5 -25z" />
    <glyph glyph-name="Uring" unicode="&#x16e;" horiz-adv-x="710" 
d="M502 140l88 560h110l-88 -560q-11 -70 -61.5 -110t-132.5 -40h-190q-82 0 -119.5 40.5t-26.5 109.5l88 560h110l-88 -560q-5 -30 12 -50t47 -20h170q30 0 53 20t28 50zM581 860l-8 -50q-5 -34 -32.5 -57t-65.5 -23h-70q-38 0 -57.5 23t-14.5 57l8 50q6 32 33 56t64 24h70
q38 0 58 -23t15 -57zM439 785h20q25 0 29 25l8 50q3 25 -21 25h-20q-24 0 -29 -25l-8 -50q-2 -11 4 -18t17 -7z" />
    <glyph glyph-name="uring" unicode="&#x16f;" horiz-adv-x="610" 
d="M219 60h85q49 0 89 42q18 20 29 43l61 385h105l-83 -530h-65l-10 65h-5q-15 -24 -32 -38q-45 -37 -100 -37h-95q-69 0 -106.5 38.5t-27.5 91.5l64 410h105l-64 -410q-5 -26 9.5 -43t40.5 -17zM504 690l-8 -50q-5 -34 -32.5 -57t-65.5 -23h-70q-38 0 -57.5 23t-14.5 57
l8 50q6 32 33 56t64 24h70q38 0 58 -23t15 -57zM362 615h20q25 0 29 25l8 50q3 25 -21 25h-20q-24 0 -29 -25l-8 -50q-2 -11 4 -18t17 -7z" />
    <glyph glyph-name="Uhungarumlaut" unicode="&#x170;" horiz-adv-x="710" 
d="M502 140l88 560h110l-88 -560q-11 -70 -61.5 -110t-132.5 -40h-190q-82 0 -119.5 40.5t-26.5 109.5l88 560h110l-88 -560q-5 -30 12 -50t47 -20h170q30 0 53 20t28 50zM403 930h105l-130 -160h-90zM583 930h105l-130 -160h-90z" />
    <glyph glyph-name="uhungarumlaut" unicode="&#x171;" horiz-adv-x="610" 
d="M219 60h85q49 0 89 42q18 20 29 43l61 385h105l-83 -530h-65l-10 65h-5q-15 -24 -32 -38q-45 -37 -100 -37h-95q-69 0 -106.5 38.5t-27.5 91.5l64 410h105l-64 -410q-5 -26 9.5 -43t40.5 -17zM336 760h105l-130 -160h-90zM516 760h105l-130 -160h-90z" />
    <glyph glyph-name="Uogonek" unicode="&#x172;" horiz-adv-x="710" 
d="M502 140l88 560h110l-88 -560q-11 -70 -61.5 -110t-132.5 -40h-10q-32 -14 -57 -30q-59 -39 -65 -75q-2 -15 6.5 -25t23.5 -10h80l-10 -60h-80q-66 0 -91.5 24t-18.5 71q10 63 96 105h-64q-82 0 -119.5 40.5t-26.5 109.5l88 560h110l-88 -560q-5 -30 12 -50t47 -20h170
q30 0 53 20t28 50z" />
    <glyph glyph-name="uogonek" unicode="&#x173;" horiz-adv-x="610" 
d="M219 60h85q49 0 89 42q18 20 29 43l61 385h105l-87 -550q-24 -9 -51 -25q-53 -31 -59 -70q-2 -15 6.5 -25t23.5 -10h80l-10 -60h-80q-66 0 -91.5 24t-18.5 71q9 49 64 86q28 18 55 29h20l-10 65h-5q-15 -24 -32 -38q-45 -37 -100 -37h-95q-69 0 -106.5 38.5t-27.5 91.5
l64 410h105l-64 -410q-5 -26 9.5 -43t40.5 -17z" />
    <glyph glyph-name="Wcircumflex" unicode="&#x174;" horiz-adv-x="955" 
d="M526 485h-5l-221 -485h-150l-38 650l8 50h105l22 -590h5l216 480h145l64 -480h5l208 590h105l-8 -50l-242 -650h-150zM732 700h-95l-66 90l-94 -90h-95l153 150h90z" />
    <glyph glyph-name="wcircumflex" unicode="&#x175;" horiz-adv-x="805" 
d="M512 455l53 -355h5l148 430h100l-7 -45l-186 -485h-140l-53 365h-5l-167 -365h-140l-34 485l7 45h100l12 -430h5l167 355h135zM634 550h-95l-66 90l-94 -90h-95l153 150h90z" />
    <glyph glyph-name="Ycircumflex" unicode="&#x176;" horiz-adv-x="600" 
d="M100 700h105l111 -375h10l229 375h105l-8 -50l-293 -435l-34 -215h-110l34 215l-157 435zM566 770h-95l-66 90l-94 -90h-95l153 150h90z" />
    <glyph glyph-name="ycircumflex" unicode="&#x177;" horiz-adv-x="540" 
d="M561 485l-273 -525q-31 -57 -82 -93.5t-118 -36.5h-50l11 70h50q55 0 84 60l15 30l2 10l-129 485l7 45h100l87 -435h5l198 435h100zM519 600h-95l-66 90l-94 -90h-95l153 150h90z" />
    <glyph glyph-name="Ydieresis" unicode="&#x178;" horiz-adv-x="600" 
d="M100 700h105l111 -375h10l229 375h105l-8 -50l-293 -435l-34 -215h-110l34 215l-157 435zM358 870l-16 -105h-105l16 105h105zM558 870l-16 -105h-105l16 105h105z" />
    <glyph glyph-name="Zacute" unicode="&#x179;" horiz-adv-x="585" 
d="M157 80h370l-12 -80h-505l11 75l446 540l1 5h-330l-25 35l7 45h495l-12 -75l-445 -540zM423 930h120l-140 -160h-95z" />
    <glyph glyph-name="zacute" unicode="&#x17a;" horiz-adv-x="495" 
d="M366 450l1 10h-265l-24 35l5 35h425l-10 -65l-356 -385l-1 -10h305l-11 -70h-435l10 65zM363 770h120l-140 -160h-95z" />
    <glyph glyph-name="Zdotaccent" unicode="&#x17b;" horiz-adv-x="585" 
d="M157 80h370l-12 -80h-505l11 75l446 540l1 5h-330l-25 35l7 45h495l-12 -75l-445 -540zM453 880l-16 -105h-105l16 105h105z" />
    <glyph glyph-name="zdotaccent" unicode="&#x17c;" horiz-adv-x="495" 
d="M366 450l1 10h-265l-24 35l5 35h425l-10 -65l-356 -385l-1 -10h305l-11 -70h-435l10 65zM381 710l-16 -105h-105l16 105h105z" />
    <glyph glyph-name="Zcaron" unicode="&#x17d;" horiz-adv-x="585" 
d="M157 80h370l-12 -80h-505l11 75l446 540l1 5h-330l-25 35l7 45h495l-12 -75l-445 -540zM485 910h95l-153 -150h-90l-107 150h95l66 -90z" />
    <glyph glyph-name="zcaron" unicode="&#x17e;" horiz-adv-x="495" 
d="M366 450l1 10h-265l-24 35l5 35h425l-10 -65l-356 -385l-1 -10h305l-11 -70h-435l10 65zM414 750h95l-153 -150h-90l-107 150h95l66 -90z" />
    <glyph glyph-name="florin" unicode="&#x192;" horiz-adv-x="400" 
d="M-27 -170h-54l11 70h44q26 0 45.5 17t23.5 43l98 620q9 54 58 92t118 38h210l-6 -35l-35 -35h-170q-26 0 -45.5 -17t-24.5 -43l-19 -125h165l-12 -70h-165l-67 -425q-9 -54 -57.5 -92t-117.5 -38z" />
    <glyph glyph-name="AEacute" unicode="&#x1fc;" horiz-adv-x="960" 
d="M1005 700l-7 -45l-35 -35h-315l-37 -230h255l-12 -80h-255l-37 -230h345l-12 -80h-455l33 210h-265l-123 -210h-105l7 50l407 650h611zM453 620l-198 -330h230l53 330h-85zM691 930h120l-140 -160h-95z" />
    <glyph glyph-name="aeacute" unicode="&#x1fd;" horiz-adv-x="900" 
d="M869 410l-29 -185h-335l-15 -95q-4 -26 10.5 -43t40.5 -17h255l-11 -70h-265q-53 0 -87 32q-16 14 -23 33q-16 -23 -37 -38q-49 -37 -115 -37h-90q-69 0 -106.5 38.5t-27.5 91.5l8 55q9 54 58 92t118 38h195l15 95q4 26 -10.5 43t-40.5 17h-240l11 70h250q42 0 73 -25
q12 -10 20 -25q11 15 29 30q38 30 85 30h130q70 0 106.5 -38t27.5 -92zM189 60h80q12 0 23.5 2.5t21.5 7t18.5 10t15.5 13t12.5 13.5t10.5 13t8 11t5 9l3 5l15 91h-185q-26 0 -45.5 -17t-24.5 -43l-8 -55q-5 -26 9.5 -43t40.5 -17zM534 410l-18 -115h230l18 115
q5 26 -9.5 43t-40.5 17h-110q-26 0 -45.5 -17t-24.5 -43zM576 770h120l-140 -160h-95z" />
    <glyph glyph-name="Oslashacute" unicode="&#x1fe;" horiz-adv-x="680" 
d="M647 710l-23 -35q46 -42 34 -115l-66 -420q-11 -70 -61.5 -110t-132.5 -40h-180q-4 0 -11 0.5t-10 0.5l-25 -41h-95l6 40l21 35q-44 42 -32 115l66 420q11 70 61.5 110t132.5 40h180q4 0 11 -0.5t10 -0.5l25 41h95zM248 560l-68 -430l313 500h-164q-30 0 -53 -20t-28 -50
zM237 70h164q30 0 53 20t28 50l68 429zM501 932h120l-140 -160h-95z" />
    <glyph glyph-name="oslashacute" unicode="&#x1ff;" 
d="M585 540l-40 -49q27 -32 19 -81l-45 -290q-10 -54 -58.5 -92t-117.5 -38h-155q-20 0 -45 5l-36 -45h-85l6 40l42 52q-24 34 -16 78l45 290q9 53 58 91.5t118 38.5h155q24 0 40 -4l36 44h85zM199 60h145q26 0 45.5 17t24.5 43l44 279l-272 -338q3 -1 13 -1zM204 410
l-43 -272l266 331q-2 1 -8 1h-145q-26 0 -45.5 -17t-24.5 -43zM423 770h120l-140 -160h-95z" />
    <glyph glyph-name="Scommaaccent" unicode="&#x218;" horiz-adv-x="590" 
d="M385 290l-182 45q-125 31 -106 155l10 60q11 70 61 110t132 40h290l-7 -45l-35 -35h-250q-30 0 -53 -20t-28 -50l-10 -60q-4 -26 9.5 -45t39.5 -25l183 -45q60 -15 88 -54t17 -101l-11 -70q-11 -70 -61 -110t-132 -40h-320l12 80h310q30 0 53 20t28 50l11 70
q5 26 -8.5 45t-40.5 25zM288 -135l-57 -110h-55l31 195h95z" />
    <glyph glyph-name="scommaaccent" unicode="&#x219;" horiz-adv-x="530" 
d="M183 400l-6 -35q-6 -37 38 -45l175 -30q49 -7 74 -40t17 -85l-6 -35q-9 -54 -57.5 -92t-117.5 -38h-285l11 70h275q26 0 45.5 17t23.5 43l6 35q6 37 -38 45l-175 30q-49 7 -74 40t-17 85l6 35q9 54 57.5 92t117.5 38h260l-5 -35l-36 -35h-220q-26 0 -45.5 -17t-23.5 -43z
M256 -154l-57 -110h-55l31 195h95z" />
    <glyph glyph-name="circumflex" unicode="&#x2c6;" horiz-adv-x="430" 
d="M447 550h-95l-66 90l-94 -90h-95l153 150h90z" />
    <glyph glyph-name="caron" unicode="&#x2c7;" horiz-adv-x="430" 
d="M375 700h95l-153 -150h-90l-107 150h95l66 -90z" />
    <glyph glyph-name="breve" unicode="&#x2d8;" horiz-adv-x="380" 
d="M298 560h-100q-48 0 -70 25t-15 70l7 45h85l-7 -45q-4 -30 25 -30h70q31 0 35 30l7 45h85l-7 -45q-7 -45 -37 -70t-78 -25z" />
    <glyph glyph-name="dotaccent" unicode="&#x2d9;" horiz-adv-x="185" 
d="M225 700l-16 -105h-105l16 105h105z" />
    <glyph glyph-name="ring" unicode="&#x2da;" horiz-adv-x="320" 
d="M348 620l-8 -50q-5 -34 -32.5 -57t-65.5 -23h-70q-38 0 -57.5 23t-14.5 57l8 50q6 32 33 56t64 24h70q38 0 58 -23t15 -57zM206 545h20q25 0 29 25l8 50q3 25 -21 25h-20q-24 0 -29 -25l-8 -50q-2 -11 4 -18t17 -7z" />
    <glyph glyph-name="ogonek" unicode="&#x2db;" horiz-adv-x="285" 
d="M110 0h85l-4 -20q-24 -9 -51 -25q-53 -31 -59 -70q-2 -15 6.5 -25t23.5 -10h80l-10 -60h-80q-66 0 -91.5 24t-18.5 71q9 49 64 86q28 18 55 29z" />
    <glyph glyph-name="tilde" unicode="&#x2dc;" horiz-adv-x="380" 
d="M340 695h80l-12 -70q-5 -30 -28 -50t-53 -20h-25q-12 0 -28 10q-7 5 -13 10l-34 35l-8 7q-10 8 -15 8q-13 0 -17 -14q-1 -1 -1 -3l-1 -3l-7 -45h-80l11 70q5 30 28 50t53 20h25q12 0 28 -10l14 -10l35 -35l7 -8q7 -7 15 -7q16 0 18 20z" />
    <glyph glyph-name="hungarumlaut" unicode="&#x2dd;" horiz-adv-x="455" 
d="M210 700h105l-130 -160h-90zM390 700h105l-130 -160h-90z" />
    <glyph glyph-name="afii10023" unicode="&#x401;" horiz-adv-x="590" 
d="M635 700l-7 -45l-35 -35h-325l-37 -230h265l-12 -80h-265l-37 -230h355l-12 -80h-465l110 700h465zM375 890l-16 -105h-105l16 105h105zM595 890l-16 -105h-105l16 105h105z" />
    <glyph glyph-name="afii10051" unicode="&#x402;" horiz-adv-x="685" 
d="M396 70h35q30 0 53 20t28 50l23 150q5 30 -11.5 50t-46.5 20h-210l-57 -360h-110l98 620h-130l12 80h450l-7 -45l-35 -35h-180l-29 -180h220q82 0 119.5 -40.5t26.5 -109.5l-23 -150q-12 -70 -63.5 -110t-140.5 -40h-35z" />
    <glyph glyph-name="afii10052" unicode="&#x403;" horiz-adv-x="545" 
d="M458 940h120l-140 -160h-95zM615 700l-7 -45l-35 -35h-305l-98 -620h-110l110 700h445z" />
    <glyph glyph-name="afii10053" unicode="&#x404;" 
d="M73 150l64 400q11 70 61 110t132 40h305l-7 -45l-35 -35h-265q-30 0 -53 -20t-28 -50l-26 -160h245l-12 -80h-245l-26 -160q-5 -30 12 -50t47 -20h295l-12 -80h-305q-82 0 -120 40.5t-27 109.5z" />
    <glyph glyph-name="afii10054" unicode="&#x405;" horiz-adv-x="590" 
d="M385 290l-182 45q-125 31 -106 155l10 60q11 70 61 110t132 40h290l-7 -45l-35 -35h-250q-30 0 -53 -20t-28 -50l-10 -60q-4 -26 9.5 -45t39.5 -25l183 -45q60 -15 88 -54t17 -101l-11 -70q-11 -70 -61 -110t-132 -40h-320l12 80h310q30 0 53 20t28 50l11 70
q5 26 -8.5 45t-40.5 25z" />
    <glyph glyph-name="afii10055" unicode="&#x406;" horiz-adv-x="290" 
d="M170 0h-110l110 700h110z" />
    <glyph glyph-name="afii10056" unicode="&#x407;" horiz-adv-x="310" 
d="M180 0h-110l110 700h110zM212 865l-17 -105h-105l17 105h105zM417 865l-17 -105h-105l17 105h105z" />
    <glyph glyph-name="afii10057" unicode="&#x408;" horiz-adv-x="525" 
d="M-9 70h245q30 0 53 20t28 50l88 560h110l-88 -560q-11 -70 -61.5 -110t-132.5 -40h-255z" />
    <glyph glyph-name="afii10058" unicode="&#x409;" horiz-adv-x="990" 
d="M8 -10h-30l13 80h30q27 0 49.5 21.5t32.5 58.5l137 550h410l-42 -265h195q82 0 120 -40.5t27 -109.5l-22 -135q-11 -70 -61 -110t-132 -40h-305l98 620h-200l-115 -470q-38 -160 -205 -160zM596 355l-44 -275h185q30 0 53 20t28 50l22 135q5 30 -12 50t-47 20h-185z" />
    <glyph glyph-name="afii10059" unicode="&#x40a;" horiz-adv-x="990" 
d="M170 0h-110l110 700h110l-45 -285h260l45 285h110l-45 -285h195q82 0 119.5 -40.5t26.5 -109.5l-18 -115q-11 -70 -61 -110t-132 -40h-305l53 335h-260zM593 335l-41 -255h185q30 0 53 20t28 50l18 115q5 30 -11.5 50t-46.5 20h-185z" />
    <glyph glyph-name="afii10060" unicode="&#x40b;" horiz-adv-x="695" 
d="M68 620l12 80h450l-7 -45l-35 -35h-180l-29 -180h220q82 0 119.5 -40.5t26.5 -109.5l-45 -290h-110l45 290q5 30 -11.5 50t-46.5 20h-210l-57 -360h-110l98 620h-130z" />
    <glyph glyph-name="afii10061" unicode="&#x40c;" horiz-adv-x="655" 
d="M475 920h120l-140 -160h-95zM170 0h-110l110 700h110l-48 -305h135l203 305h105l-8 -50l-216 -295l141 -305l-7 -50h-105l-126 315h-135z" />
    <glyph glyph-name="afii10062" unicode="&#x40e;" horiz-adv-x="625" 
d="M458 750h-110q-99 0 -84 100l8 50h90l-8 -50q-4 -30 25 -30h70q31 0 35 30l8 50h90l-8 -50q-17 -100 -116 -100zM105 700h105l131 -435h5l229 435h105l-8 -50l-295 -510q-87 -150 -224 -150h-65l13 80h65q49 0 96 70l13 20l-178 490z" />
    <glyph glyph-name="afii10145" unicode="&#x40f;" horiz-adv-x="690" 
d="M170 700h110l-98 -620h290l98 620h110l-110 -700h-510zM327 -140h-70l-2 140h120z" />
    <glyph glyph-name="afii10017" unicode="&#x410;" horiz-adv-x="655" 
d="M490 0l-29 170h-275l-81 -170h-105l7 50l328 650h145l122 -650l-7 -50h-105zM390 600l-166 -350h225l-54 350h-5z" />
    <glyph glyph-name="afii10018" unicode="&#x411;" horiz-adv-x="650" 
d="M635 700l-7 -45l-35 -35h-325l-31 -195h225q82 0 119.5 -40.5t26.5 -109.5l-20 -125q-11 -70 -61 -110t-132 -40h-335l110 700h465zM224 345l-42 -265h215q30 0 53 20t28 50l20 125q5 30 -12 50t-47 20h-215z" />
    <glyph glyph-name="afii10019" unicode="&#x412;" horiz-adv-x="660" 
d="M504 470l13 80q5 30 -12 50t-47 20h-190l-35 -220h190q30 0 53 20t28 50zM517 365v-5q27 -4 52 -19q49 -31 40 -91l-16 -100q-11 -70 -61 -110t-132 -40h-340l110 700h310q82 0 120 -40.5t27 -109.5l-13 -80q-9 -57 -54 -86q-18 -12 -43 -19zM440 320h-220l-38 -240h220
q30 0 53 20t28 50l16 100q5 30 -12 50t-47 20z" />
    <glyph glyph-name="afii10020" unicode="&#x413;" horiz-adv-x="545" 
d="M615 700l-7 -45l-35 -35h-305l-98 -620h-110l110 700h445z" />
    <glyph glyph-name="afii10021" unicode="&#x414;" horiz-adv-x="720" 
d="M550 0h-470l-48 -140h-84l34 220h55q17 9 35 24q35 27 44 61l134 535h425l-98 -620h95l-35 -220h-85zM338 620l-112 -455q-8 -29 -46 -59q-15 -11 -37 -21l-1 -5h325l86 540h-215z" />
    <glyph glyph-name="afii10022" unicode="&#x415;" horiz-adv-x="590" 
d="M635 700l-7 -45l-35 -35h-325l-37 -230h265l-12 -80h-265l-37 -230h355l-12 -80h-465l110 700h465z" />
    <glyph glyph-name="afii10024" unicode="&#x416;" horiz-adv-x="980" 
d="M467 395l48 305h110l-48 -305h125l193 305h105l-8 -50l-206 -295l131 -305l-7 -50h-105l-116 315h-125l-49 -315h-110l49 315h-125l-214 -315h-105l7 50l229 305l-114 295l8 50h105l97 -305h125z" />
    <glyph glyph-name="afii10025" unicode="&#x417;" horiz-adv-x="585" 
d="M364 315h-185l13 80h175q30 0 53 20t28 50l14 85q5 30 -12 50t-47 20h-265l-25 35l7 45h305q82 0 120 -40.5t27 -109.5l-14 -85q-9 -56 -63 -86q-22 -13 -53 -19l-1 -5q27 -4 52 -19q49 -31 40 -91l-15 -95q-11 -70 -61 -110t-132 -40h-325l12 80h315q30 0 53 20t28 50
l15 95q5 30 -12 50t-47 20z" />
    <glyph glyph-name="afii10026" unicode="&#x418;" horiz-adv-x="690" 
d="M560 700h120l-110 -700h-110l58 370l42 170h-5l-375 -540h-120l110 700h110l-58 -370l-42 -170h5z" />
    <glyph glyph-name="afii10027" unicode="&#x419;" horiz-adv-x="690" 
d="M491 765h-110q-49 0 -70.5 25.5t-13.5 74.5l7 50h90l-7 -50q-6 -30 25 -30h70q29 0 35 30l7 50h90l-7 -50q-16 -100 -116 -100zM560 700h120l-110 -700h-110l58 370l42 170h-5l-375 -540h-120l110 700h110l-58 -370l-42 -170h5z" />
    <glyph glyph-name="afii10028" unicode="&#x41a;" horiz-adv-x="655" 
d="M170 0h-110l110 700h110l-48 -305h135l203 305h105l-8 -50l-216 -295l141 -305l-7 -50h-105l-126 315h-135z" />
    <glyph glyph-name="afii10029" unicode="&#x41b;" horiz-adv-x="690" 
d="M8 -10h-30l13 80h30q27 0 49.5 21.5t32.5 58.5l137 550h440l-110 -700h-110l98 620h-230l-115 -470q-38 -160 -205 -160z" />
    <glyph glyph-name="afii10030" unicode="&#x41c;" horiz-adv-x="975" 
d="M543 85h-145l-95 505h-5l-158 -590h-105l7 50l193 650h150l99 -515h5l261 515h150l-13 -650l-7 -50h-105l28 590h-5z" />
    <glyph glyph-name="afii10031" unicode="&#x41d;" horiz-adv-x="690" 
d="M170 0h-110l110 700h110l-49 -310h290l49 310h110l-110 -700h-110l49 310h-290z" />
    <glyph glyph-name="afii10032" unicode="&#x41e;" horiz-adv-x="680" 
d="M248 560l-66 -420q-5 -30 12 -50t47 -20h160q30 0 53 20t28 50l66 420q5 30 -12 50t-47 20h-160q-30 0 -53 -20t-28 -50zM72 140l66 420q11 70 61.5 110t132.5 40h180q82 0 119.5 -40.5t26.5 -109.5l-66 -420q-11 -70 -61.5 -110t-132.5 -40h-180q-82 0 -119.5 40.5
t-26.5 109.5z" />
    <glyph glyph-name="afii10033" unicode="&#x41f;" horiz-adv-x="690" 
d="M170 0h-110l110 700h510l-110 -700h-110l98 620h-290z" />
    <glyph glyph-name="afii10034" unicode="&#x420;" horiz-adv-x="650" 
d="M170 0h-110l110 700h330q82 0 120 -40.5t27 -109.5l-27 -170q-11 -70 -61.5 -110t-132.5 -40h-220zM268 620l-49 -310h210q30 0 53 20t28 50l27 170q5 30 -12 50t-47 20h-210z" />
    <glyph glyph-name="afii10035" unicode="&#x421;" 
d="M73 150l64 400q11 70 61 110t132 40h305l-7 -45l-35 -35h-265q-30 0 -53 -20t-28 -50l-64 -400q-5 -30 12 -50t47 -20h295l-12 -80h-305q-82 0 -120 40.5t-27 109.5z" />
    <glyph glyph-name="afii10036" unicode="&#x422;" horiz-adv-x="560" 
d="M83 620l12 80h530l-7 -45l-35 -35h-180l-98 -620h-110l98 620h-210z" />
    <glyph glyph-name="afii10037" unicode="&#x423;" horiz-adv-x="625" 
d="M105 700h105l131 -435h5l229 435h105l-8 -50l-295 -510q-87 -150 -224 -150h-65l13 80h65q49 0 96 70l13 20l-178 490z" />
    <glyph glyph-name="afii10038" unicode="&#x424;" horiz-adv-x="920" 
d="M478 -40h-110l13 80h-170q-82 0 -119.5 40.5t-26.5 109.5l52 330q11 70 61.5 110t132.5 40h170l12 80h110l-12 -80h170q82 0 119.5 -40.5t26.5 -109.5l-52 -330q-11 -70 -61.5 -110t-132.5 -40h-170zM745 190l52 330q5 30 -12 50t-47 20h-160l-74 -470h160q30 0 53 20
t28 50zM227 520l-52 -330q-5 -30 12 -50t47 -20h160l74 470h-160q-30 0 -53 -20t-28 -50z" />
    <glyph glyph-name="afii10039" unicode="&#x425;" horiz-adv-x="605" 
d="M319 280h-5l-209 -280h-105l7 50l254 305l-144 295l8 50h105l106 -280h5l194 280h105l-8 -50l-236 -295l156 -305l-7 -50h-105z" />
    <glyph glyph-name="afii10040" unicode="&#x426;" horiz-adv-x="715" 
d="M545 0h-485l110 700h110l-98 -620h280l98 620h110l-98 -620h95l-35 -220h-85z" />
    <glyph glyph-name="afii10041" unicode="&#x427;" horiz-adv-x="650" 
d="M250 700l-46 -290q-5 -30 12 -50t47 -20h210l57 360h110l-110 -700h-110l41 260h-220q-82 0 -120 40.5t-27 109.5l46 290h110z" />
    <glyph glyph-name="afii10042" unicode="&#x428;" horiz-adv-x="1020" 
d="M535 700h110l-98 -620h255l98 620h110l-110 -700h-840l110 700h110l-98 -620h255z" />
    <glyph glyph-name="afii10043" unicode="&#x429;" horiz-adv-x="1055" 
d="M535 700h110l-98 -620h255l98 620h110l-98 -620h95l-35 -220h-85l-2 140h-825l110 700h110l-98 -620h255z" />
    <glyph glyph-name="afii10044" unicode="&#x42a;" horiz-adv-x="700" 
d="M68 620l12 80h260l-40 -255h215q82 0 119.5 -40.5t26.5 -109.5l-23 -145q-11 -70 -61 -110t-132 -40h-325l98 620h-150zM287 365l-45 -285h205q30 0 53 20t28 50l23 145q5 30 -12 50t-47 20h-205z" />
    <glyph glyph-name="afii10045" unicode="&#x42b;" horiz-adv-x="930" 
d="M280 700l-40 -255h215q82 0 119.5 -40.5t26.5 -109.5l-23 -145q-11 -70 -61 -110t-132 -40h-325l110 700h110zM227 365l-45 -285h205q30 0 53 20t28 50l23 145q5 30 -12 50t-47 20h-205zM810 0h-110l110 700h110z" />
    <glyph glyph-name="afii10046" unicode="&#x42c;" horiz-adv-x="650" 
d="M280 700l-40 -255h225q82 0 119.5 -40.5t26.5 -109.5l-23 -145q-11 -70 -61 -110t-132 -40h-335l110 700h110zM227 365l-45 -285h215q30 0 53 20t28 50l23 145q5 30 -12 50t-47 20h-215z" />
    <glyph glyph-name="afii10047" unicode="&#x42d;" 
d="M572 550l-64 -400q-11 -70 -61 -110t-132 -40h-305l12 80h295q30 0 53 20t28 50l26 160h-245l12 80h245l26 160q5 30 -12 50t-47 20h-265l-25 35l7 45h305q82 0 120 -40.5t27 -109.5z" />
    <glyph glyph-name="afii10048" unicode="&#x42e;" horiz-adv-x="940" 
d="M918 560l-66 -420q-11 -70 -61.5 -110t-132.5 -40h-170q-82 0 -119.5 40.5t-26.5 109.5l27 170h-150l-49 -310h-110l110 700h110l-49 -310h150l27 170q11 70 61.5 110t132.5 40h170q82 0 119.5 -40.5t26.5 -109.5zM742 140l66 420q5 30 -12 50t-47 20h-150q-30 0 -53 -20
t-28 -50l-66 -420q-5 -30 12 -50t47 -20h150q30 0 53 20t28 50z" />
    <glyph glyph-name="afii10049" unicode="&#x42f;" horiz-adv-x="660" 
d="M430 0l41 265h-150l-196 -265h-105l7 50l191 225q-39 8 -66 25q-65 37 -52 115l22 135q11 70 61 110t132 40h335l-110 -700h-110zM484 345l44 275h-215q-30 0 -53 -20t-28 -50l-22 -135q-5 -30 12 -50t47 -20h215z" />
    <glyph glyph-name="afii10065" unicode="&#x430;" horiz-adv-x="575" 
d="M258 -10h-90q-69 0 -106.5 38.5t-27.5 91.5l44 280q9 54 57.5 92t117.5 38h300l-83 -530h-65l-10 65h-5q-15 -24 -32 -38q-45 -37 -100 -37zM189 60h80q49 0 89 42q18 20 29 43l50 315h-185q-26 0 -45.5 -17t-23.5 -43l-44 -280q-5 -26 9.5 -43t40.5 -17z" />
    <glyph glyph-name="afii10066" unicode="&#x431;" horiz-adv-x="600" 
d="M231 515l-6 -40h200q69 0 106 -38t28 -92l-35 -225q-10 -54 -58.5 -92t-117.5 -38h-150q-69 0 -106.5 38.5t-27.5 91.5l62 395q12 81 65.5 130.5t129.5 59.5l271 35l2 -80l-271 -35q-29 -4 -56.5 -34t-35.5 -76zM214 405l-45 -285q-5 -26 9.5 -43t40.5 -17h130
q26 0 45.5 17t24.5 43l35 225q5 26 -9.5 43t-40.5 17h-190z" />
    <glyph glyph-name="afii10067" unicode="&#x432;" horiz-adv-x="580" 
d="M372 235h-185l-26 -165h185q26 0 45.5 17t23.5 43l7 45q5 26 -9.5 43t-40.5 17zM427 365l6 35q4 26 -10.5 43t-40.5 17h-160l-24 -155h160q26 0 45.5 17t23.5 43zM538 400l-6 -34q-9 -50 -54 -76q-20 -10 -45 -15l-1 -5q28 -4 53 -16q51 -26 42 -79l-7 -45
q-9 -54 -57.5 -92t-117.5 -38h-300l83 530h275q70 0 107 -38t28 -92z" />
    <glyph glyph-name="afii10068" unicode="&#x433;" horiz-adv-x="535" 
d="M407 366l6 34q4 26 -10.5 43t-40.5 17h-215l-24 35l5 35h255q70 0 107 -38t28 -92l-6 -34q-8 -52 -43 -85t-86 -40l-180 -30q-46 -7 -52 -45l-6 -36q-4 -26 10.5 -43t40.5 -17h255l-11 -70h-265q-70 0 -107 38t-28 92l6 36q8 52 43 85t87 40l179 30q47 7 52 45z" />
    <glyph glyph-name="afii10069" unicode="&#x434;" horiz-adv-x="600" 
d="M465 475l6 40q8 46 -11 76t-47 34l-229 35l28 80l229 -35q72 -10 109.5 -59.5t25.5 -130.5l-62 -395q-10 -54 -58.5 -92t-117.5 -38h-150q-69 0 -106.5 38.5t-27.5 91.5l35 225q9 54 58 92t118 38h200zM409 120l45 285h-190q-26 0 -45.5 -17t-24.5 -43l-35 -225
q-5 -26 9.5 -43t40.5 -17h130q26 0 45.5 17t24.5 43z" />
    <glyph glyph-name="afii10070" unicode="&#x435;" horiz-adv-x="560" 
d="M354 215h-180l-14 -85q-4 -26 10.5 -43t40.5 -17h255l-11 -70h-265q-70 0 -107 38t-28 92l44 280q9 53 58 91.5t118 38.5h130q70 0 106.5 -38t27.5 -92l-10 -65q-9 -54 -57.5 -92t-117.5 -38zM424 345l10 65q5 26 -9.5 43t-40.5 17h-110q-26 0 -45.5 -17t-24.5 -43
l-19 -125h170q26 0 45.5 17t23.5 43z" />
    <glyph glyph-name="afii10072" unicode="&#x436;" horiz-adv-x="845" 
d="M387 300l36 230h105l-36 -230h110l141 230h100l-7 -45l-155 -220l101 -220l-7 -45h-100l-84 230h-110l-36 -230h-105l36 230h-110l-156 -230h-100l7 45l169 220l-85 220l7 45h100l69 -230h110z" />
    <glyph glyph-name="afii10073" unicode="&#x437;" horiz-adv-x="520" 
d="M88 495l5 35h265q70 0 107 -38t28 -92l-6 -34q-9 -50 -62 -76q-24 -11 -52 -15l-1 -5q28 -4 53 -16q51 -26 42 -79l-7 -45q-9 -54 -57.5 -92t-117.5 -38h-285l11 70h275q26 0 45.5 17t23.5 43l7 45q5 26 -9.5 43t-40.5 17h-155l11 70h145q26 0 45.5 17t23.5 43l6 35
q4 26 -10.5 43t-40.5 17h-225z" />
    <glyph glyph-name="afii10074" unicode="&#x438;" horiz-adv-x="610" 
d="M219 60h85q49 0 89 42q18 20 29 43l61 385h105l-83 -530h-65l-10 65h-5q-15 -24 -32 -38q-45 -37 -100 -37h-95q-69 0 -106.5 38.5t-27.5 91.5l64 410h105l-64 -410q-5 -26 9.5 -43t40.5 -17z" />
    <glyph glyph-name="afii10075" unicode="&#x439;" horiz-adv-x="610" 
d="M420 600h-100q-49 0 -71 25t-14 70l7 45h85l-7 -45q-6 -30 25 -30h70q29 0 35 30l7 45h85l-7 -45q-17 -95 -115 -95zM219 60h85q49 0 89 42q18 20 29 43l61 385h105l-83 -530h-65l-10 65h-5q-15 -24 -32 -38q-45 -37 -100 -37h-95q-69 0 -106.5 38.5t-27.5 91.5l64 410
h105l-64 -410q-5 -26 9.5 -43t40.5 -17z" />
    <glyph glyph-name="afii10076" unicode="&#x43a;" horiz-adv-x="570" 
d="M233 530l-36 -230h120l151 230h100l-7 -45l-165 -220l111 -220l-7 -45h-100l-94 230h-120l-36 -230h-105l83 530h105z" />
    <glyph glyph-name="afii10077" unicode="&#x43b;" horiz-adv-x="600" 
d="M188 530h390l-83 -530h-105l72 460h-190l-77 -330q-15 -62 -64.5 -101t-122.5 -39h-30l11 70h30q24 0 43.5 18.5t27.5 51.5z" />
    <glyph glyph-name="afii10078" unicode="&#x43c;" horiz-adv-x="815" 
d="M454 60h-135l-76 370h-5l-113 -430h-100l7 45l141 485h140l85 -380h5l205 380h140l-11 -485l-7 -45h-100l23 430h-5z" />
    <glyph glyph-name="afii10079" unicode="&#x43d;" horiz-adv-x="610" 
d="M233 530l-35 -225h250l35 225h105l-83 -530h-105l37 235h-250l-37 -235h-105l83 530h105z" />
    <glyph glyph-name="afii10080" unicode="&#x43e;" 
d="M564 410l-45 -290q-10 -54 -58.5 -92t-117.5 -38h-155q-69 0 -106.5 38.5t-27.5 91.5l45 290q9 53 58 91.5t118 38.5h155q70 0 106.5 -38t27.5 -92zM204 410l-45 -290q-5 -26 9.5 -43t40.5 -17h135q26 0 45.5 17t24.5 43l45 290q5 26 -9.5 43t-40.5 17h-135
q-26 0 -45.5 -17t-24.5 -43z" />
    <glyph glyph-name="afii10081" unicode="&#x43f;" horiz-adv-x="610" 
d="M414 470h-85q-49 0 -90 -43q-19 -19 -29 -42l-60 -385h-105l83 530h65l10 -65h5q17 24 32 37q46 38 100 38h95q70 0 106.5 -38t27.5 -92l-64 -410h-105l64 410q5 26 -9.5 43t-40.5 17z" />
    <glyph glyph-name="afii10082" unicode="&#x440;" 
d="M340 540h90q70 0 106.5 -38t27.5 -92l-44 -280q-9 -54 -57.5 -92t-117.5 -38h-195l-27 -170h-105l110 700h65l10 -65h5q17 24 32 37q46 38 100 38zM409 470h-80q-49 0 -90 -43q-19 -19 -29 -42l-49 -315h185q26 0 45.5 17t23.5 43l44 280q5 26 -9.5 43t-40.5 17z" />
    <glyph glyph-name="afii10083" unicode="&#x441;" horiz-adv-x="520" 
d="M55 130l43 270q9 54 57.5 92t117.5 38h260l-5 -35l-36 -35h-220q-26 0 -45.5 -17t-23.5 -43l-43 -270q-4 -26 10.5 -43t40.5 -17h250l-11 -70h-260q-70 0 -107 38t-28 92z" />
    <glyph glyph-name="afii10084" unicode="&#x442;" horiz-adv-x="895" 
d="M379 470h-50q-34 0 -63 -20.5t-40 -37.5t-15 -26l-61 -386h-105l83 530h65l10 -65h5q17 24 32 37q46 38 100 38h50q53 0 85 -30q13 -14 21 -30h5q11 15 29 30q38 30 85 30h105q70 0 106.5 -38t27.5 -92l-64 -410h-105l64 410q5 26 -8.5 43t-41.5 17h-95q-26 0 -45.5 -17
t-24.5 -43l-64 -410h-105l64 410q5 26 -9.5 43t-40.5 17z" />
    <glyph glyph-name="afii10085" unicode="&#x443;" horiz-adv-x="540" 
d="M561 485l-273 -525q-31 -57 -82 -93.5t-118 -36.5h-50l11 70h50q55 0 84 60l15 30l2 10l-129 485l7 45h100l87 -435h5l198 435h100z" />
    <glyph glyph-name="afii10086" unicode="&#x444;" horiz-adv-x="795" 
d="M398 530l29 180h105l-29 -180h125q70 0 107 -38t28 -92l-43 -270q-9 -54 -57.5 -92t-117.5 -38h-125l-27 -170h-105l27 170h-125q-70 0 -107 38t-28 92l43 270q9 54 57.5 92t117.5 38h125zM387 460h-115q-26 0 -45.5 -17t-23.5 -43l-43 -270q-4 -26 10.5 -43t40.5 -17
h115zM431 70h115q26 0 45.5 17t23.5 43l43 270q4 26 -10.5 43t-40.5 17h-115z" />
    <glyph glyph-name="afii10087" unicode="&#x445;" horiz-adv-x="535" 
d="M271 200h-5l-166 -200h-100l7 45l209 220l-130 220l7 45h100l94 -200h5l156 200h100l-7 -45l-200 -220l141 -220l-7 -45h-100z" />
    <glyph glyph-name="afii10088" unicode="&#x446;" horiz-adv-x="630" 
d="M420 65h-5q-15 -24 -32 -38q-45 -37 -100 -37h-85q-69 0 -106.5 38.5t-27.5 91.5l64 410h105l-64 -410q-5 -26 9.5 -43t40.5 -17h75q49 0 89 42q18 20 29 43l61 385h105l-64 -410q-4 -23 7.5 -36.5t34.5 -13.5h35l-32 -200h-75l-4 130q-22 4 -40.5 24.5t-19.5 40.5z" />
    <glyph glyph-name="afii10089" unicode="&#x447;" horiz-adv-x="580" 
d="M213 530l-34 -220q-5 -26 9.5 -43t40.5 -17h180l44 280h105l-83 -530h-105l28 180h-190q-70 0 -106.5 38t-27.5 92l34 220h105z" />
    <glyph glyph-name="afii10090" unicode="&#x448;" horiz-adv-x="885" 
d="M534 60h45q12 0 23.5 2.5t21.5 7t18.5 10t15.5 13t12.5 13.5t10.5 13t8 11t5 9l3 5l61 386h105l-83 -530h-65l-10 65h-5q-15 -24 -32 -38q-45 -37 -100 -37h-45q-53 0 -85 30q-14 14 -21 30h-5q-11 -15 -29 -30q-38 -30 -85 -30h-100q-69 0 -106.5 38.5t-27.5 91.5
l64 410h105l-64 -410q-5 -26 8.5 -43t41.5 -17h90q26 0 45.5 17t24.5 43l64 410h105l-64 -410q-5 -26 9.5 -43t40.5 -17z" />
    <glyph glyph-name="afii10091" unicode="&#x449;" horiz-adv-x="915" 
d="M534 60h45q12 0 23.5 2.5t21.5 7t18.5 10t15.5 13t12.5 13.5t10.5 13t8 11t5 9l3 5l61 386h105l-64 -410q-4 -23 7.5 -36.5t34.5 -13.5h35l-32 -200h-75l-4 130q-22 4 -40.5 24.5t-19.5 40.5h-5q-15 -24 -32 -38q-45 -37 -100 -37h-45q-53 0 -85 30q-14 14 -21 30h-5
q-11 -15 -29 -30q-38 -30 -85 -30h-100q-69 0 -106.5 38.5t-27.5 91.5l64 410h105l-64 -410q-5 -26 8.5 -43t41.5 -17h90q26 0 45.5 17t24.5 43l64 410h105l-64 -410q-5 -26 9.5 -43t40.5 -17z" />
    <glyph glyph-name="afii10092" unicode="&#x44a;" horiz-adv-x="610" 
d="M42 460l11 70h235l-28 -180h175q69 0 106 -38t28 -92l-14 -90q-9 -54 -57.5 -92t-117.5 -38h-280l72 460h-130zM216 70h165q26 0 45.5 17t23.5 43l14 90q5 26 -9.5 43t-40.5 17h-165z" />
    <glyph glyph-name="afii10093" unicode="&#x44b;" horiz-adv-x="795" 
d="M514 220l-14 -90q-9 -54 -57.5 -92t-117.5 -38h-280l83 530h105l-28 -180h175q69 0 106 -38t28 -92zM773 530l-83 -530h-105l83 530h105zM161 70h165q26 0 45.5 17t23.5 43l14 90q5 26 -9.5 43t-40.5 17h-165z" />
    <glyph glyph-name="afii10094" unicode="&#x44c;" horiz-adv-x="565" 
d="M524 220l-14 -90q-9 -54 -57.5 -92t-117.5 -38h-290l83 530h105l-28 -180h185q69 0 106 -38t28 -92zM161 70h175q26 0 45.5 17t23.5 43l14 90q5 26 -9.5 43t-40.5 17h-175z" />
    <glyph glyph-name="afii10095" unicode="&#x44d;" horiz-adv-x="520" 
d="M488 400l-43 -270q-9 -54 -57.5 -92t-117.5 -38h-260l11 70h250q26 0 45.5 17t23.5 43l17 105h-200l11 70h200l15 95q4 26 -10.5 43t-40.5 17h-220l-25 30l6 40h260q70 0 107 -38t28 -92z" />
    <glyph glyph-name="afii10096" unicode="&#x44e;" horiz-adv-x="820" 
d="M233 530l-35 -225h130l16 105q9 53 58 91.5t118 38.5h135q70 0 106.5 -38t27.5 -92l-45 -290q-10 -54 -58.5 -92t-117.5 -38h-135q-69 0 -106.5 38.5t-27.5 91.5l18 115h-130l-37 -235h-105l83 530h105zM449 410l-45 -290q-5 -26 9.5 -43t40.5 -17h115q26 0 45.5 17
t24.5 43l45 290q5 26 -9.5 43t-40.5 17h-115q-26 0 -45.5 -17t-24.5 -43z" />
    <glyph glyph-name="afii10097" unicode="&#x44f;" horiz-adv-x="575" 
d="M80 320l13 80q9 54 57.5 92t117.5 38h285l-83 -530h-105l30 190h-120l-160 -190h-100l7 45l154 155q-32 6 -54 22q-52 33 -42 98zM437 460h-170q-26 0 -45.5 -17t-23.5 -43l-13 -80q-4 -26 10.5 -43t40.5 -17h170z" />
    <glyph glyph-name="afii10071" unicode="&#x451;" horiz-adv-x="560" 
d="M314 725l-16 -105h-105l16 105h105zM524 725l-16 -105h-105l16 105h105zM354 215h-180l-14 -85q-4 -26 10.5 -43t40.5 -17h255l-11 -70h-265q-70 0 -107 38t-28 92l44 280q9 53 58 91.5t118 38.5h130q70 0 106.5 -38t27.5 -92l-10 -65q-9 -54 -57.5 -92t-117.5 -38z
M424 345l10 65q5 26 -9.5 43t-40.5 17h-110q-26 0 -45.5 -17t-24.5 -43l-19 -125h170q26 0 45.5 17t23.5 43z" />
    <glyph glyph-name="afii10099" unicode="&#x452;" horiz-adv-x="605" 
d="M353 -10h-30l11 70h30q26 0 45.5 17t24.5 43l28 180q5 26 -9.5 43t-40.5 17h-185l-57 -360h-105l82 520h-85l11 70h85l72 110h50l-17 -110h150l-11 -70h-150l-14 -90h195q69 0 106 -38t28 -92l-28 -180q-10 -55 -60 -92.5t-126 -37.5z" />
    <glyph glyph-name="afii10100" unicode="&#x453;" horiz-adv-x="534" 
d="M400 770h120l-140 -160h-95zM406 365l6 35q4 26 -10.5 43t-40.5 17h-214l-24 35l5 35h254q70 0 107 -38t28 -92l-6 -35q-8 -52 -43 -85t-86 -40l-179 -30q-46 -7 -52 -45l-6 -35q-4 -26 10.5 -43t40.5 -17h254l-11 -70h-264q-70 0 -107 38t-28 92l6 35q8 52 43 85t86 40
l179 30q46 7 52 45z" />
    <glyph glyph-name="afii10101" unicode="&#x454;" horiz-adv-x="520" 
d="M55 130l43 270q9 54 57.5 92t117.5 38h260l-6 -40l-35 -30h-220q-26 0 -45.5 -17t-23.5 -43l-15 -95h200l-11 -70h-200l-17 -105q-4 -26 10.5 -43t40.5 -17h250l-11 -70h-260q-70 0 -107 38t-28 92z" />
    <glyph glyph-name="afii10102" unicode="&#x455;" horiz-adv-x="530" 
d="M183 400l-6 -35q-6 -37 38 -45l175 -30q49 -7 74 -40t17 -85l-6 -35q-9 -54 -57.5 -92t-117.5 -38h-285l11 70h275q26 0 45.5 17t23.5 43l6 35q6 37 -38 45l-175 30q-49 7 -74 40t-17 85l6 35q9 54 57.5 92t117.5 38h260l-5 -35l-36 -35h-220q-26 0 -45.5 -17t-23.5 -43z
" />
    <glyph glyph-name="afii10103" unicode="&#x456;" horiz-adv-x="255" 
d="M233 530l-83 -530h-105l83 530h105zM262 710l-17 -105h-105l17 105h105z" />
    <glyph glyph-name="afii10104" unicode="&#x457;" horiz-adv-x="305" 
d="M258 530l-83 -530h-105l83 530h105zM187 710l-17 -105h-105l17 105h105zM387 710l-17 -105h-105l17 105h105z" />
    <glyph glyph-name="afii10105" unicode="&#x458;" horiz-adv-x="270" 
d="M-17 -170h-114l11 70h104q26 0 45.5 17t23.5 43l90 570h105l-90 -570q-9 -54 -57.5 -92t-117.5 -38zM277 710l-17 -105h-105l17 105h105z" />
    <glyph glyph-name="afii10106" unicode="&#x459;" horiz-adv-x="870" 
d="M828 210l-13 -80q-9 -54 -57.5 -92t-117.5 -38h-275l72 460h-165l-77 -330q-15 -62 -64.5 -101t-122.5 -39h-30l11 70h30q24 0 43.5 18.5t27.5 51.5l98 400h365l-30 -190h170q70 0 107 -38t28 -92zM481 70h160q26 0 45.5 17t23.5 43l13 80q4 26 -10.5 43t-40.5 17h-160z
" />
    <glyph glyph-name="afii10107" unicode="&#x45a;" horiz-adv-x="885" 
d="M840 195l-10 -65q-9 -54 -57.5 -92t-117.5 -38h-275l40 255h-230l-40 -255h-105l83 530h105l-32 -205h230l32 205h105l-32 -205h170q69 0 106 -38t28 -92zM496 70h160q26 0 45.5 17t23.5 43l10 65q5 26 -9.5 43t-40.5 17h-160z" />
    <glyph glyph-name="afii10108" unicode="&#x45b;" horiz-adv-x="615" 
d="M413 590l-11 -70h-150l-14 -90h195q69 0 106 -38t28 -92l-47 -300h-105l47 300q5 26 -9.5 43t-40.5 17h-185l-57 -360h-105l82 520h-85l11 70h85l72 110h50l-17 -110h150z" />
    <glyph glyph-name="afii10109" unicode="&#x45c;" horiz-adv-x="570" 
d="M397 750h120l-140 -160h-95zM233 530l-36 -230h120l151 230h100l-7 -45l-165 -220l111 -220l-7 -45h-100l-94 230h-120l-36 -230h-105l83 530h105z" />
    <glyph glyph-name="afii10110" unicode="&#x45e;" horiz-adv-x="540" 
d="M385 600h-100q-49 0 -71 25t-14 70l7 45h85l-7 -45q-6 -30 25 -30h70q29 0 35 30l7 45h85l-7 -45q-17 -95 -115 -95zM561 485l-273 -525q-31 -57 -82 -93.5t-118 -36.5h-50l11 70h50q55 0 84 60l15 30l2 10l-129 485l7 45h100l87 -435h5l198 435h100z" />
    <glyph glyph-name="afii10193" unicode="&#x45f;" horiz-adv-x="610" 
d="M505 0h-175l-41 -130h-70l1 130h-175l83 530h105l-72 -460h250l72 460h105z" />
    <glyph glyph-name="uni0472" unicode="&#x472;" horiz-adv-x="680" 
d="M72 140l66 420q11 70 61.5 110t132.5 40h180q82 0 119.5 -40.5t26.5 -109.5l-66 -420q-11 -70 -61.5 -110t-132.5 -40h-180q-82 0 -119.5 40.5t-26.5 109.5zM241 70h160q30 0 53 20t28 50l27 170h-300l-27 -170q-5 -30 12 -50t47 -20zM248 560l-27 -170h300l27 170
q5 30 -12 50t-47 20h-160q-30 0 -53 -20t-28 -50z" />
    <glyph glyph-name="uni0473" unicode="&#x473;" 
d="M564 410l-45 -290q-10 -54 -58.5 -92t-117.5 -38h-155q-69 0 -106.5 38.5t-27.5 91.5l45 290q9 53 58 91.5t118 38.5h155q70 0 106.5 -38t27.5 -92zM204 410l-16 -105h255l16 105q5 26 -9.5 43t-40.5 17h-135q-26 0 -45.5 -17t-24.5 -43zM177 235l-18 -115
q-5 -26 9.5 -43t40.5 -17h135q26 0 45.5 17t24.5 43l18 115h-255z" />
    <glyph glyph-name="afii10050" unicode="&#x490;" horiz-adv-x="545" 
d="M603 620h-335l-98 -620h-110l110 700h341l41 105h80z" />
    <glyph glyph-name="afii10098" unicode="&#x491;" horiz-adv-x="475" 
d="M45 0l83 530h285l41 100h80l-27 -170h-285l-72 -460h-105z" />
    <glyph glyph-name="uni0492" unicode="&#x492;" horiz-adv-x="545" 
d="M51 390h70l49 310h445l-7 -45l-35 -35h-305l-37 -230h200l-12 -80h-200l-49 -310h-110l49 310h-70z" />
    <glyph glyph-name="uni0493" unicode="&#x493;" horiz-adv-x="475" 
d="M35 290h55l38 240h390l-5 -35l-36 -35h-255l-27 -170h170l-11 -70h-170l-34 -220h-105l34 220h-55z" />
    <glyph glyph-name="uni0496" unicode="&#x496;" horiz-adv-x="990" 
d="M850 0h-45l-116 315h-125l-49 -315h-110l49 315h-125l-214 -315h-105l7 50l229 305l-114 295l8 50h105l97 -305h125l48 305h110l-48 -305h125l193 305h105l-8 -50l-206 -295l118 -275h68l-35 -220h-85z" />
    <glyph glyph-name="uni0497" unicode="&#x497;" horiz-adv-x="855" 
d="M720 0h-45l-84 230h-110l-36 -230h-105l36 230h-110l-156 -230h-100l7 45l169 220l-85 220l7 45h100l69 -230h110l36 230h105l-36 -230h110l141 230h100l-7 -45l-155 -220l89 -195h66l-32 -200h-80z" />
    <glyph glyph-name="uni0498" unicode="&#x498;" horiz-adv-x="585" 
d="M364 315h-185l13 80h175q30 0 53 20t28 50l14 85q5 30 -12 50t-47 20h-265l-25 35l7 45h305q82 0 120 -40.5t27 -109.5l-14 -85q-9 -56 -63 -86q-22 -13 -53 -19l-1 -5q27 -4 52 -19q49 -31 40 -91l-15 -95q-11 -70 -61 -110t-132 -40l-12 -70q-18 -105 -136 -105h-95
l10 65h85q40 0 46 40l12 70h-235l12 80h315q30 0 53 20t28 50l15 95q5 30 -12 50t-47 20z" />
    <glyph glyph-name="uni0499" unicode="&#x499;" horiz-adv-x="520" 
d="M88 495l5 35h265q70 0 107 -38t28 -92l-6 -34q-9 -50 -62 -76q-24 -11 -52 -15l-1 -5q28 -4 53 -16q51 -26 42 -79l-7 -45q-9 -54 -57.5 -92t-117.5 -38l-10 -60q-18 -105 -137 -105h-80l11 65h70q40 0 46 40l10 60h-195l11 70h275q26 0 45.5 17t23.5 43l7 45
q5 26 -9.5 43t-40.5 17h-155l11 70h145q26 0 45.5 17t23.5 43l6 35q4 26 -10.5 43t-40.5 17h-225z" />
    <glyph glyph-name="uni049A" unicode="&#x49a;" horiz-adv-x="665" 
d="M525 0h-45l-126 315h-135l-49 -315h-110l110 700h110l-48 -305h135l203 305h105l-8 -50l-216 -295l127 -275h69l-35 -220h-85z" />
    <glyph glyph-name="uni049B" unicode="&#x49b;" horiz-adv-x="580" 
d="M445 0h-45l-94 230h-120l-36 -230h-105l83 530h105l-36 -230h120l151 230h100l-7 -45l-165 -220l98 -195h67l-32 -200h-80z" />
    <glyph glyph-name="uni049C" unicode="&#x49c;" horiz-adv-x="655" 
d="M361 485l-14 -90h20l203 305h105l-8 -50l-216 -295l141 -305l-7 -50h-105l-126 315h-20l-14 -90h-85l14 90h-30l-49 -315h-110l110 700h110l-48 -305h30l14 90h85z" />
    <glyph glyph-name="uni049D" unicode="&#x49d;" horiz-adv-x="570" 
d="M310 380l-13 -80h20l151 230h100l-7 -45l-165 -220l111 -220l-7 -45h-100l-94 230h-20l-14 -90h-80l14 90h-20l-36 -230h-105l83 530h105l-36 -230h20l13 80h80z" />
    <glyph glyph-name="uni04A0" unicode="&#x4a0;" horiz-adv-x="665" 
d="M80 700h210l-48 -305h135l203 305h105l-8 -50l-216 -295l141 -305l-7 -50h-105l-126 315h-135l-49 -315h-110l98 620h-100z" />
    <glyph glyph-name="uni04A1" unicode="&#x4a1;" horiz-adv-x="580" 
d="M243 530l-36 -230h120l151 230h100l-7 -45l-165 -220l111 -220l-7 -45h-100l-94 230h-120l-36 -230h-105l71 450h-85l12 80h190z" />
    <glyph glyph-name="uni04A2" unicode="&#x4a2;" horiz-adv-x="690" 
d="M520 0h-60l49 310h-290l-49 -310h-110l110 700h110l-49 -310h290l49 310h110l-98 -620h60l-35 -220h-85z" />
    <glyph glyph-name="uni04A3" unicode="&#x4a3;" horiz-adv-x="610" 
d="M450 0h-50l37 235h-250l-37 -235h-105l83 530h105l-35 -225h250l35 225h105l-72 -460h50l-32 -200h-80z" />
    <glyph glyph-name="uni04AA" unicode="&#x4aa;" 
d="M208 -75l12 75q-82 0 -120 40.5t-27 109.5l64 400q11 70 61 110t132 40h305l-7 -45l-35 -35h-265q-30 0 -53 -20t-28 -50l-64 -400q-5 -30 12 -50t47 -20h295l-12 -80h-215l-12 -75q-6 -40 33 -40h85l-10 -65h-95q-59 0 -85 27.5t-18 77.5z" />
    <glyph glyph-name="uni04AB" unicode="&#x4ab;" horiz-adv-x="520" 
d="M180 -60l10 60q-70 0 -107 38t-28 92l43 270q9 54 57.5 92t117.5 38h260l-5 -35l-36 -35h-220q-26 0 -45.5 -17t-23.5 -43l-43 -270q-4 -26 10.5 -43t40.5 -17h250l-11 -70h-170l-10 -60q-6 -40 34 -40h70l-11 -65h-80q-59 0 -85 27.5t-18 77.5z" />
    <glyph glyph-name="uni04AE" unicode="&#x4ae;" horiz-adv-x="600" 
d="M100 700h105l111 -375h10l229 375h105l-8 -50l-293 -435l-34 -215h-110l34 215l-157 435z" />
    <glyph glyph-name="uni04AF" unicode="&#x4af;" horiz-adv-x="556" 
d="M297 -15l-24 -155h-105l24 155l-116 500l7 45h100l75 -445h5l216 445h100l-7 -45z" />
    <glyph glyph-name="uni04B0" unicode="&#x4b0;" horiz-adv-x="600" 
d="M119 215h130l-157 435l8 50h105l111 -375h10l229 375h105l-8 -50l-293 -435h130l-13 -80h-130l-21 -135h-110l21 135h-130z" />
    <glyph glyph-name="uni04B1" unicode="&#x4b1;" horiz-adv-x="556" 
d="M87 15h98l-109 470l7 45h100l75 -445h5l216 445h100l-7 -45l-258 -470h98l-13 -80h-110l-16 -105h-105l16 105h-110z" />
    <glyph glyph-name="uni04B2" unicode="&#x4b2;" horiz-adv-x="615" 
d="M475 0h-35l-121 280h-5l-209 -280h-105l7 50l254 305l-144 295l8 50h105l106 -280h5l194 280h105l-8 -50l-236 -295l141 -275h60l-35 -220h-85z" />
    <glyph glyph-name="uni04B3" unicode="&#x4b3;" horiz-adv-x="540" 
d="M405 0h-30l-104 200h-5l-166 -200h-100l7 45l209 220l-130 220l7 45h100l94 -200h5l156 200h100l-7 -45l-200 -220l125 -195h55l-32 -200h-80z" />
    <glyph glyph-name="uni04B8" unicode="&#x4b8;" horiz-adv-x="650" 
d="M398 430l-15 -90h90l57 360h110l-110 -700h-110l41 260h-90l-15 -90h-95l15 90h-35q-82 0 -120 40.5t-27 109.5l46 290h110l-46 -290q-5 -30 12 -50t47 -20h25l15 90h95z" />
    <glyph glyph-name="uni04B9" unicode="&#x4b9;" horiz-adv-x="580" 
d="M343 335l-14 -85h80l44 280h105l-83 -530h-105l28 180h-80l-13 -85h-80l13 85h-30q-70 0 -106.5 38t-27.5 92l34 220h105l-34 -220q-5 -26 9.5 -43t40.5 -17h20l14 85h80z" />
    <glyph glyph-name="uni04BA" unicode="&#x4ba;" horiz-adv-x="650" 
d="M460 0l45 290q5 30 -11.5 50t-46.5 20h-210l-57 -360h-110l110 700h110l-41 -260h220q82 0 119.5 -40.5t26.5 -109.5l-45 -290h-110z" />
    <glyph glyph-name="uni04BB" unicode="&#x4bb;" horiz-adv-x="610" 
d="M412 460h-185l-72 -460h-105l110 700h105l-27 -170h195q70 0 107 -38t28 -92l-63 -400h-105l63 400q4 26 -10.5 43t-40.5 17z" />
    <glyph glyph-name="uni04D8" unicode="&#x4d8;" horiz-adv-x="680" 
d="M72 140l41 260h410l24 150q5 30 -12 50t-47 20h-300l12 80h310q82 0 120 -40.5t27 -109.5l-65 -410q-11 -70 -61.5 -110t-132.5 -40h-180q-82 0 -119.5 40.5t-26.5 109.5zM241 70h160q30 0 53 20t28 50l28 180h-300l-28 -180q-5 -30 12 -50t47 -20z" />
    <glyph glyph-name="uni04D9" unicode="&#x4d9;" horiz-adv-x="570" 
d="M54 120l29 185h335l15 95q4 26 -10.5 43t-40.5 17h-255l11 70h265q70 0 107 -38t28 -92l-44 -280q-10 -54 -58.5 -92t-117.5 -38h-130q-69 0 -106.5 38.5t-27.5 91.5zM389 120l18 115h-230l-18 -115q-5 -26 9.5 -43t40.5 -17h110q26 0 45.5 17t24.5 43z" />
    <glyph glyph-name="Wgrave" unicode="&#x1e80;" horiz-adv-x="955" 
d="M526 485h-5l-221 -485h-150l-38 650l8 50h105l22 -590h5l216 480h145l64 -480h5l208 590h105l-8 -50l-242 -650h-150zM425 850h120l65 -160h-95z" />
    <glyph glyph-name="wgrave" unicode="&#x1e81;" horiz-adv-x="805" 
d="M512 455l53 -355h5l148 430h100l-7 -45l-186 -485h-140l-53 365h-5l-167 -365h-140l-34 485l7 45h100l12 -430h5l167 355h135zM328 710h120l65 -160h-95z" />
    <glyph glyph-name="Wacute" unicode="&#x1e82;" horiz-adv-x="955" 
d="M526 485h-5l-221 -485h-150l-38 650l8 50h105l22 -590h5l216 480h145l64 -480h5l208 590h105l-8 -50l-242 -650h-150zM615 850h120l-140 -160h-95z" />
    <glyph glyph-name="wacute" unicode="&#x1e83;" horiz-adv-x="805" 
d="M512 455l53 -355h5l148 430h100l-7 -45l-186 -485h-140l-53 365h-5l-167 -365h-140l-34 485l7 45h100l12 -430h5l167 355h135zM517 700h120l-140 -160h-95z" />
    <glyph glyph-name="Wdieresis" unicode="&#x1e84;" horiz-adv-x="955" 
d="M526 485h-5l-221 -485h-150l-38 650l8 50h105l22 -590h5l216 480h145l64 -480h5l208 590h105l-8 -50l-242 -650h-150zM530 830l-16 -105h-105l16 105h105zM730 830l-16 -105h-105l16 105h105z" />
    <glyph glyph-name="wdieresis" unicode="&#x1e85;" horiz-adv-x="805" 
d="M512 455l53 -355h5l148 430h100l-7 -45l-186 -485h-140l-53 365h-5l-167 -365h-140l-34 485l7 45h100l12 -430h5l167 355h135zM431 681l-16 -105h-105l16 105h105zM631 681l-16 -105h-105l16 105h105z" />
    <glyph glyph-name="Ygrave" unicode="&#x1ef2;" horiz-adv-x="600" 
d="M100 700h105l111 -375h10l229 375h105l-8 -50l-293 -435l-34 -215h-110l34 215l-157 435zM268 910h120l65 -160h-95z" />
    <glyph glyph-name="ygrave" unicode="&#x1ef3;" horiz-adv-x="540" 
d="M561 485l-273 -525q-31 -57 -82 -93.5t-118 -36.5h-50l11 70h50q55 0 84 60l15 30l2 10l-129 485l7 45h100l87 -435h5l198 435h100zM214 760h120l65 -160h-95z" />
    <glyph glyph-name="endash" unicode="&#x2013;" horiz-adv-x="590" 
d="M63 340h510l-12 -80h-510z" />
    <glyph glyph-name="emdash" unicode="&#x2014;" horiz-adv-x="850" 
d="M63 340h770l-12 -80h-770z" />
    <glyph glyph-name="quoteleft" unicode="&#x2018;" horiz-adv-x="225" 
d="M119 565l71 135h55l-34 -220h-105z" />
    <glyph glyph-name="quoteright" unicode="&#x2019;" horiz-adv-x="225" 
d="M232 615l-71 -135h-55l34 220h105z" />
    <glyph glyph-name="quotesinglbase" unicode="&#x201a;" horiz-adv-x="225" 
d="M140 35l-71 -135h-55l35 220h105z" />
    <glyph glyph-name="quotedblleft" unicode="&#x201c;" horiz-adv-x="405" 
d="M299 565l71 135h55l-34 -220h-105zM119 565l71 135h55l-34 -220h-105z" />
    <glyph glyph-name="quotedblright" unicode="&#x201d;" horiz-adv-x="405" 
d="M232 615l-71 -135h-55l34 220h105zM412 615l-71 -135h-55l34 220h105z" />
    <glyph glyph-name="quotedblbase" unicode="&#x201e;" horiz-adv-x="405" 
d="M140 35l-71 -135h-55l35 220h105zM320 35l-71 -135h-55l35 220h105z" />
    <glyph glyph-name="dagger" unicode="&#x2020;" horiz-adv-x="520" 
d="M380 700l-13 -180h175l-13 -80h-175l-96 -610h-110l96 610h-175l13 80h175l43 180h80z" />
    <glyph glyph-name="daggerdbl" unicode="&#x2021;" horiz-adv-x="540" 
d="M296 10l-43 -180h-80l13 180h-175l13 80h175l55 350h-175l13 80h175l43 180h80l-13 -180h175l-13 -80h-175l-55 -350h175l-13 -80h-175z" />
    <glyph glyph-name="bullet" unicode="&#x2022;" horiz-adv-x="400" 
d="M293 340l-9 -60q-2 -15 -16.5 -27.5t-29.5 -12.5h-60q-15 0 -25.5 12.5t-8.5 27.5l9 60q3 15 17.5 27.5t29.5 12.5h60q15 0 25.5 -12.5t7.5 -27.5z" />
    <glyph glyph-name="ellipsis" unicode="&#x2026;" horiz-adv-x="695" 
d="M154 120l-19 -120h-105l19 120h105zM389 120l-19 -120h-105l19 120h105zM624 120l-19 -120h-105l19 120h105z" />
    <glyph glyph-name="perthousand" unicode="&#x2030;" horiz-adv-x="1210" 
d="M470 95l20 130q18 105 147 105h55q66 0 94 -27.5t19 -77.5l-20 -130q-18 -105 -147 -105h-55q-66 0 -94 27.5t-19 77.5zM665 700h90l-6 -40l-524 -660h-90l6 40zM580 225l-20 -130q-6 -40 33 -40h55q19 0 31.5 10.5t15.5 29.5l20 130q6 40 -34 40h-55q-40 0 -46 -40z
M85 475l20 130q18 105 147 105h55q66 0 94 -27.5t19 -77.5l-20 -130q-18 -105 -147 -105h-55q-66 0 -94 27.5t-19 77.5zM195 605l-20 -130q-6 -40 33 -40h55q19 0 31.5 10.5t15.5 29.5l20 130q6 40 -33 40h-55q-19 0 -31.5 -10.5t-15.5 -29.5zM840 95l20 130q18 105 147 105
h55q66 0 94 -27.5t19 -77.5l-20 -130q-18 -105 -147 -105h-55q-66 0 -94 27.5t-19 77.5zM950 225l-20 -130q-6 -40 33 -40h55q19 0 31.5 10.5t15.5 29.5l20 130q6 40 -34 40h-55q-40 0 -46 -40z" />
    <glyph glyph-name="guilsinglleft" unicode="&#x2039;" horiz-adv-x="335" 
d="M156 40l-85 220l155 220h95l-8 -45l-127 -175l72 -175l-7 -45h-95z" />
    <glyph glyph-name="guilsinglright" unicode="&#x203a;" horiz-adv-x="335" 
d="M286 260l-155 -220h-95l7 45l128 175l-73 175l8 45h95z" />
    <glyph glyph-name="Euro" unicode="&#x20ac;" horiz-adv-x="615" 
d="M74 470h80l13 80q12 70 63.5 110t139.5 40h285l-7 -45l-35 -35h-255q-30 0 -53 -20t-28 -50l-13 -80h240l-13 -80h-240l-12 -80h240l-13 -80h-240l-13 -80q-5 -30 12 -50t47 -20h285l-12 -80h-285q-88 0 -128 40t-29 110l13 80h-80l13 80h80l12 80h-80z" />
    <glyph glyph-name="afii61352" unicode="&#x2116;" horiz-adv-x="1060" 
d="M170 700h120l205 -540h5l12 170l58 370h110l-110 -700h-120l-205 540h-5l-12 -170l-58 -370h-110zM730 290h295l-12 -80h-295zM750 475l20 130q18 105 137 105h75q59 0 85 -27.5t18 -77.5l-20 -130q-18 -105 -137 -105h-75q-59 0 -85 27.5t-18 77.5zM860 605l-20 -130
q-6 -40 33 -40h55q19 0 31.5 10.5t15.5 29.5l20 130q6 40 -33 40h-55q-19 0 -31.5 -10.5t-15.5 -29.5z" />
    <glyph glyph-name="trademark" unicode="&#x2122;" horiz-adv-x="865" 
d="M75 635l10 65h330l-7 -45l-23 -20h-100l-42 -265h-90l42 265h-120zM590 700l37 -210h5l103 210h115l-6 -295l-6 -35h-85l19 245h-5l-103 -205h-95l-37 205h-5l-59 -245h-85l6 35l86 295h115z" />
    <glyph glyph-name="commaaccent" horiz-adv-x="175" 
d="M83 -135l-57 -110h-55l31 195h95z" />
    <glyph glyph-name="foundryicon" horiz-adv-x="1330" 
d="M211 265h-170l198 175zM435 350q-6 -38 -36 -64t-68 -26t-60 26t-16 64t36 64t68 26t60 -26t16 -64zM448 435h180l-117 -175zM948 435l-24 -155l-126 155h150zM756 265l25 155l125 -155h-150zM736 265h-180l118 175zM1143 435l-24 -155l-126 155h150zM951 265l25 155
l125 -155h-150zM1158 435h180l-117 -175z" />
    <glyph glyph-name=".ttfautohint" horiz-adv-x="895" 
 />
    </font>
</defs>
</svg>
